<?xml version="1.0" encoding="utf-8"?>
<!-- Generator: Adobe Illustrator 15.0.2, SVG Export Plug-In . SVG Version: 6.00 Build 0)  -->
<!DOCTYPE svg PUBLIC "-//W3C//DTD SVG 1.1//EN" "http://www.w3.org/Graphics/SVG/1.1/DTD/svg11.dtd">
<svg version="1.1" id="Layer_1" xmlns="http://www.w3.org/2000/svg" xmlns:xlink="http://www.w3.org/1999/xlink" x="0px" y="0px"
	 width="159.188px" height="181.738px" viewBox="0 0 159.188 181.738" enable-background="new 0 0 159.188 181.738"
	 xml:space="preserve">
<path fill="#FBFCFC" d="M154.649,116.165l-1.577-7.745l-4.461,6.519c-5.496,8.084-20.721,8.479-23.703,8.479
	c-0.493,0-0.764,0-0.801,0l-5.465-0.203l2.304,4.947c1.713,3.636,4.19,5.971,6.353,7.412c-6.081,4.936-19.291,9.661-28.496,9.661
	c-2.305,0-3.653-0.333-4.362-0.616c-3.105-1.109-5.12-6.131-5.515-13.733V66.893c8.854-0.579,17.319-1.842,25.219-3.74
	c1.799,2.526,4.731,4.147,7.93,4.147c5.366,0,9.723-4.369,9.723-9.716c0-5.354-4.356-9.704-9.723-9.704
	c-2.44,0-4.775,0.918-6.556,2.575c-5.44-1.929-14.541-4.461-26.593-5.25v-7.184c5.483-3.093,8.959-8.983,8.959-15.403
	c0-9.778-7.93-17.732-17.727-17.732c-9.79,0-17.763,7.954-17.763,17.732c0,6.42,3.549,12.311,8.996,15.403v7.085
	c-13.148,0.567-23.037,3.253-28.86,5.348c-1.774-1.657-4.134-2.575-6.599-2.575c-5.33,0-9.698,4.35-9.698,9.704
	c0,5.348,4.369,9.716,9.698,9.716c3.216,0,6.173-1.621,7.936-4.147c8.663,2.077,17.886,3.389,27.522,3.876v63.974
	c-0.363,7.345-2.428,12.507-5.483,13.616c-0.733,0.283-2.089,0.616-4.393,0.616c-9.224,0-22.415-4.726-28.502-9.661
	c2.168-1.441,4.633-3.776,6.364-7.412l2.317-4.947l-5.465,0.203c-0.018,0-0.302,0-0.77,0c-3.025,0-18.269-0.395-23.728-8.479
	l-4.46-6.506l-1.59,7.732c-1.916,9.334-0.807,28.939,17.141,36.111l4.572,1.843v-4.936v-0.856
	c4.405,3.654,11.571,8.577,22.446,13.556c6.155,2.877,10.696,5.033,14.313,6.783c8.638,4.178,11.534,5.582,16.007,5.582
	c4.474,0,7.394-1.404,16.001-5.582c3.636-1.75,8.133-3.906,14.332-6.783c10.881-4.979,18.034-9.901,22.439-13.556v0.856v4.936
	l4.578-1.843C155.456,145.104,156.528,125.499,154.649,116.165z M80.454,31.502c-4.831,0-8.749-3.913-8.749-8.756
	c0-4.83,3.918-8.743,8.749-8.743c4.83,0,8.749,3.913,8.749,8.743C89.203,27.589,85.284,31.502,80.454,31.502z"/>
</svg>
