<?xml version="1.0" encoding="utf-8"?>
<!-- Generator: Adobe Illustrator 15.0.2, SVG Export Plug-In . SVG Version: 6.00 Build 0)  -->
<!DOCTYPE svg PUBLIC "-//W3C//DTD SVG 1.1//EN" "http://www.w3.org/Graphics/SVG/1.1/DTD/svg11.dtd">
<svg version="1.1" id="Layer_1" xmlns="http://www.w3.org/2000/svg" xmlns:xlink="http://www.w3.org/1999/xlink" x="0px" y="0px"
	 width="554px" height="94px" viewBox="0 0 554 94" enable-background="new 0 0 554 94" xml:space="preserve">
<g id="Layer_1_1_">
</g>
<g id="Layer_2">
	<g>
		<path fill="#FFFFFF" d="M57.143,28.389c0.131,1.438,0.131,2.902,0,4.393c0,0.467,0.034,0.935,0.096,1.401
			c0.34-0.017,0.679-0.018,1.018-0.003c0.031-0.36,0.096-0.719,0.2-1.078h0.197v-1.973c-0.153-0.009-0.306-0.022-0.459-0.022
			c0-0.479,0.01-0.972,0.033-1.478c0.021-0.506,0.099-1.078,0.23-1.716c0.063,0.076,0.129,0.174,0.197,0.287v-0.928h-0.197
			c-0.131-1.756-0.164-3.475-0.099-5.151c0.066-1.678,0.099-3.395,0.099-5.152h-1.051c-0.263,1.118-0.34,2.29-0.23,3.514
			c0.109,1.226,0.099,2.424-0.033,3.596C57.012,25.514,57.012,26.951,57.143,28.389z"/>
		<path fill="#FFFFFF" d="M54.777,25.033h1.314c0-1.809-0.012-3.595-0.033-5.351c-0.022-1.757-0.099-3.542-0.23-5.353
			c-0.351-0.052-0.591,0.04-0.723,0.28s-0.241,0.546-0.329,0.919c-0.088,0.373-0.208,0.706-0.361,0.998
			c-0.154,0.293-0.406,0.439-0.756,0.439c-2.628,0.16-5.224,0.212-7.786,0.16c-2.563-0.053-5.181,0-7.853,0.159
			c-0.92,0-1.884-0.04-2.891-0.119c-1.008-0.08-1.994-0.04-2.957,0.119c-1.051-0.159-2.06-0.2-3.022-0.119
			c-0.964,0.08-1.994,0.119-3.088,0.119c-1.708-0.159-3.384-0.211-5.027-0.159c-1.643,0.054-3.318,0-5.026-0.16
			c-0.395,0-0.734-0.026-1.019-0.081c-0.286-0.053-0.559,0.081-0.821,0.399c-0.526-0.479-0.833-1.023-0.92-1.638
			c-0.088-0.612-0.132-1.159-0.132-1.638H12v20.049h1.117c0.132-0.639,0.208-1.304,0.23-1.997c0.022-0.691,0.296-1.118,0.822-1.277
			h13.799v1.358H16.272c-0.263,0-0.526,0.028-0.789,0.08c-0.263,0.055-0.526,0.24-0.789,0.559c-0.263,0.641-0.373,1.292-0.329,1.958
			c0.043,0.666,0.066,1.397,0.066,2.196h1.051c0.131-0.639,0.208-1.25,0.23-1.837c0.021-0.585,0.296-1.039,0.821-1.358H18.9
			c0.131,0.161,0.306,0.279,0.525,0.359c0.219,0.081,0.329-0.04,0.329-0.359c0.263,0,0.559-0.025,0.887-0.08
			c0.329-0.052,0.559,0.08,0.69,0.399c0.526-0.159,1.062-0.252,1.61-0.279c0.547-0.025,1.15-0.04,1.807-0.04
			c0.114,0.139,0.307,0.278,0.553,0.418c0.175-0.006,0.348,0.008,0.518,0.038c0.1-0.085,0.182-0.232,0.243-0.456h1.906v1.917h-0.451
			c0.258,0.517,0.377,1.05,0.391,1.599h0.06c0,2.291,0.033,4.567,0.099,6.83c0.065,2.264,0.033,4.62-0.099,7.067
			c0,1.439,0.033,2.956,0.099,4.556c0.065,1.597,0.033,3.194-0.099,4.792c0.263,0,0.559,0.014,0.887,0.04
			c0.329,0.025,0.559,0.12,0.69,0.278h-1.314c0,0.319,0.01,0.586,0.033,0.798c0.021,0.214,0.099,0.48,0.23,0.799h-0.525
			c0,0.64,0.01,1.332,0.033,2.077c0.021,0.747,0.099,1.464,0.23,2.158h0.526v0.318h-0.526c-0.131,0.479-0.208,1.013-0.23,1.598
			c-0.022,0.588-0.033,1.12-0.033,1.6c0,0.797,0.01,1.53,0.033,2.194c0.021,0.668-0.164,1.348-0.559,2.038
			c-0.263,0-0.537,0.055-0.821,0.16c-0.286,0.105-0.559,0.16-0.821,0.16v1.278h16.493v-1.278c0.155-0.188,0.29-0.328,0.411-0.434
			c-0.021-0.036-0.034-0.074-0.053-0.112c-0.15-0.25-0.245-0.545-0.245-0.896v-0.44c-0.038-0.037-0.076-0.069-0.114-0.115
			c0-0.16-0.011-0.387-0.033-0.681c-0.022-0.291-0.099-0.599-0.23-0.919c0.107-0.24,0.237-0.457,0.376-0.658V68.31
			c-0.075-0.218-0.092-0.465-0.048-0.742c0.042-0.272,0.057-0.533,0.048-0.786v-0.032c-0.012-0.257-0.049-0.503-0.114-0.739
			c0.039-0.026,0.076-0.05,0.114-0.077v-3.32c-0.008-0.169-0.022-0.335-0.015-0.516c0.001-0.037,0.013-0.067,0.015-0.104v-2.755
			c-0.068-0.182-0.114-0.39-0.114-0.655h0.114v-0.616c-0.038-0.008-0.076-0.022-0.114-0.022v-1.356c0.04,0,0.075-0.013,0.114-0.015
			v-2.737c-0.038-0.042-0.075-0.078-0.114-0.125v-2.237c0.041-0.049,0.075-0.071,0.114-0.11v-4.088
			c-0.024-0.237-0.057-0.467-0.114-0.674c0.038,0,0.076,0.017,0.114,0.029v-1.99c-0.04,0.017-0.072,0.025-0.114,0.044v-2.237
			c0.036,0.016,0.077,0.038,0.114,0.054v-2.718c-0.038,0.01-0.076,0.029-0.114,0.029c0-0.319,0.01-0.651,0.033-0.998
			c0.011-0.181,0.039-0.383,0.081-0.598v-1.896c0-0.167,0.027-0.317,0.065-0.461c-0.072-0.185-0.092-0.373-0.08-0.562
			c-0.033,0.015-0.066,0.042-0.099,0.042v-1.598h1.052v0.1c0.199-0.125,0.415-0.228,0.642-0.282
			c0.646-0.158,1.231-0.038,1.705,0.249c0.27,0.076,0.528,0.182,0.746,0.344c0.354,0.038,0.692-0.002,1.014-0.131
			c0.46-0.186,0.953-0.28,1.479-0.28v0.641c0.395,0,0.733-0.106,1.019-0.32c0.285-0.212,0.559-0.319,0.821-0.319
			c0.789,0.161,1.631,0.173,2.53,0.04c0.897-0.131,1.829-0.04,2.793,0.278v-8.707h-1.314v-0.319h-0.002V25.033z M17.323,20.162
			h-1.314v-0.64h1.314V20.162z M29.282,68.568c-0.263,0.161-0.482,0.134-0.657-0.079s-0.131-0.399,0.132-0.561
			c0.131-0.16,0.317-0.131,0.558,0.08C29.555,68.222,29.545,68.408,29.282,68.568z M35.919,46.922h-2.957
			C33.969,46.655,34.955,46.655,35.919,46.922z M33.422,49.477c-0.131,0-0.197-0.08-0.197-0.239c0-0.372,0.066-0.559,0.197-0.559
			c0.131,0,0.263,0.187,0.395,0.559C33.685,49.397,33.553,49.477,33.422,49.477z M35.13,68.568v-0.64h0.526l-0.263-0.318h0.789
			c0.35,0.426,0.526,0.747,0.526,0.958H35.13z M36.97,45.323h-3.154v-0.318c0.131,0,0.306-0.014,0.525-0.041
			c0.219-0.025,0.395-0.12,0.526-0.279c0.263,0.161,0.58,0.254,0.953,0.279c0.372,0.027,0.756,0.041,1.15,0.041V45.323z
			 M37.233,63.377c0.263-0.161,0.526-0.2,0.789-0.121s0.526,0.121,0.789,0.121v1.276h-1.577L37.233,63.377L37.233,63.377z
			 M41.504,64.655c0.263-0.641,0.525-0.641,0.788,0C42.03,64.974,41.767,64.974,41.504,64.655z M41.241,32.143v24.444
			c0,1.971-0.022,3.849-0.065,5.63c-0.044,1.786,0.065,3.583,0.329,5.393c-0.263,0.318-0.318,0.758-0.165,1.317
			c0.153,0.559,0.296,1.079,0.427,1.559h-0.526v0.318c-0.131,0.64-0.164,1.266-0.099,1.878c0.066,0.61,0.099,1.186,0.099,1.716
			c-0.701-0.16-1.106-0.532-1.215-1.119c-0.11-0.586-0.165-1.199-0.165-1.837H38.81v-0.318h1.051
			c-0.131-0.958-0.164-1.917-0.099-2.875c0.066-0.959,0.099-1.944,0.099-2.957c-0.131-0.318-0.164-0.572-0.099-0.758
			c0.066-0.186,0.099-0.359,0.099-0.519V30.785H53.66c0.263,0,0.482,0.133,0.657,0.399c0.175,0.267,0.329,0.587,0.46,0.959H41.241z"
			/>
		<path fill="#FFFFFF" d="M78.479,77.15c-0.29-0.014-0.574-0.012-0.868-0.035c-0.68-0.055-1.347,0.08-2.004,0.399v0.639h-0.525
			c0.131,0,0.207-0.119,0.23-0.358c0.021-0.24,0.033-0.438,0.033-0.6c-0.657,0-1.358,0.012-2.103,0.04
			c-0.746,0.025-1.446,0.121-2.103,0.279c-2.103-0.319-4.315-0.319-6.636,0v1.277c0.788-0.16,1.565-0.213,2.333-0.16
			c0.766,0.053,1.479,0,2.135-0.16v-0.64h0.263c-0.044,0.105-0.088,0.185-0.131,0.239c-0.088,0.212-0.132,0.347-0.132,0.399
			c0.263,0,0.515,0.012,0.756,0.04c0.24,0.024,0.427,0.12,0.559,0.277c0.306,0,0.591,0.015,0.854,0.04
			c0.263,0.026,0.526,0.122,0.789,0.28c0.526-0.16,1.04-0.294,1.544-0.399c0.503-0.107,0.953-0.08,1.347,0.079
			c0.35,0,0.613-0.107,0.789-0.317c0.526,0,1.051,0.052,1.577,0.16c0.491,0.099,0.919,0.146,1.295,0.153v-1.636h-0.002V77.15z"/>
		<path fill="#FFFFFF" d="M42.183,77.188c-0.338-0.017-0.669-0.017-1.011-0.039c-0.792-0.057-1.57,0.073-2.337,0.39l-0.003,0.64
			l-0.612-0.002c0.153,0,0.242-0.119,0.27-0.358c0.026-0.24,0.041-0.438,0.041-0.599c-0.766-0.003-1.583,0.005-2.449,0.03
			c-0.869,0.021-1.685,0.113-2.451,0.27c-2.447-0.329-5.025-0.339-7.731-0.032l-0.006,1.279c0.919-0.155,1.825-0.207,2.718-0.147
			c0.892,0.054,1.722,0.007,2.488-0.15l0.003-0.64h0.307c-0.052,0.105-0.104,0.186-0.154,0.24c-0.104,0.211-0.155,0.346-0.156,0.399
			c0.307,0.001,0.6,0.015,0.88,0.044c0.279,0.025,0.497,0.121,0.649,0.28c0.356,0.001,0.689,0.017,0.994,0.045
			c0.307,0.027,0.612,0.122,0.917,0.283c0.613-0.158,1.213-0.289,1.802-0.392c0.586-0.105,1.109-0.075,1.568,0.086
			c0.408,0.001,0.715-0.104,0.92-0.315c0.612,0.002,1.225,0.057,1.836,0.167c0.572,0.102,1.071,0.151,1.509,0.16L42.183,77.188z"/>
		<path fill="#FFFFFF" d="M110.149,77.283c-0.008-0.009-0.013-0.017-0.019-0.024c-0.241-0.339-0.483-0.678-0.716-1.019
			c-0.031,0.098-0.056,0.201-0.065,0.316c-0.022,0.266-0.033,0.479-0.033,0.641c-2.541,0-5.06,0.012-7.557,0.039
			c-2.497,0.025-5.017,0.12-7.557,0.279v1.276c0.789,0,1.631-0.04,2.53-0.12c0.897-0.08,1.829-0.039,2.793,0.12h11.104v-0.825
			C110.463,77.742,110.311,77.512,110.149,77.283z"/>
		<path fill="#FFFFFF" d="M111.024,35.444c-0.014-0.299-0.052-0.589-0.098-0.876c-0.113-0.197-0.216-0.391-0.296-0.587h-0.525
			c-0.132-0.319-0.23-0.705-0.296-1.16c-0.066-0.451,0.033-0.918,0.296-1.397c0,0.508,0.102,0.826,0.297,0.962
			c-0.118-0.426-0.228-0.859-0.318-1.298c-0.512-0.32-0.835-0.819-0.965-1.501c-0.131-0.692-0.329-1.278-0.591-1.757
			c-0.263-0.48-0.537-0.999-0.821-1.558c-0.286-0.559-0.625-0.999-1.019-1.319c0.263,0.64,0.514,1.238,0.755,1.798
			c0.24,0.56,0.427,1.237,0.559,2.038c0.526,1.812,0.821,3.662,0.887,5.553s0.033,3.821-0.099,5.791h0.526v0.319h-0.526
			c0,1.119-0.164,2.224-0.493,3.315c-0.329,1.092-0.69,2.145-1.084,3.155c-1.095,2.077-2.497,3.821-4.205,5.23
			c-1.708,1.413-3.505,2.465-5.388,3.156c1.62,3.193,3.22,6.351,4.797,9.464c1.577,3.116,3.175,6.299,4.796,9.545
			c-0.525-0.318-0.898-0.757-1.117-1.317c-0.22-0.559-0.46-1.078-0.723-1.557c-1.49-2.929-2.957-5.845-4.402-8.749
			c-1.445-2.9-2.914-5.816-4.402-8.746c1.62-0.64,3.131-1.518,4.534-2.636c1.401-1.119,2.628-2.479,3.68-4.075
			c0.963-1.33,1.665-2.836,2.103-4.514c0.438-1.679,0.723-3.395,0.854-5.152h-1.577c0.131-0.213,0.208-0.452,0.23-0.719
			c0.021-0.267,0.033-0.48,0.033-0.64h0.263c-0.044,0.107-0.088,0.187-0.131,0.24c-0.088,0.213-0.131,0.347-0.131,0.399h1.314
			c0-0.48,0.033-0.959,0.099-1.438c0.065-0.479,0.033-0.959-0.099-1.438c0-0.32-0.044-0.692-0.131-1.12
			c-0.088-0.424-0.395-0.479-0.92-0.16c0.131-0.159,0.306-0.266,0.525-0.319c0.219-0.053,0.395-0.16,0.526-0.319
			c-0.131-0.799-0.263-1.61-0.394-2.436c-0.132-0.827-0.263-1.638-0.395-2.436h-1.577v-0.32h1.314
			c-0.395-1.598-1.096-3.075-2.103-4.434c-1.008-1.358-2.168-2.462-3.483-3.315c-1.183-0.639-2.431-1.078-3.745-1.318
			c-1.314-0.24-2.628-0.439-3.943-0.6c-0.657-0.159-1.325-0.171-2.004-0.04c-0.68,0.133-1.347,0.04-2.004-0.28
			c-0.657,0.162-1.304,0.202-1.938,0.122c-0.636-0.081-1.216-0.122-1.742-0.122v1.279h-0.263v-1.279H68.445
			c0.131,0.32,0.208,0.573,0.23,0.759c0.021,0.187,0.033,0.36,0.033,0.519h-0.263v-1.278h-6.374v1.278
			c0.526,0.159,1.062,0.373,1.61,0.64c0.547,0.267,0.822,0.798,0.822,1.598c0,1.971-0.033,3.967-0.099,5.991
			c-0.066,2.024-0.033,4.022,0.099,5.991h0.525v0.32h-0.525c-0.132,2.611-0.165,5.246-0.099,7.909
			c0.065,2.664,0.099,5.299,0.099,7.908c0,0.054,0.043,0.08,0.131,0.08c0.043,0.054,0.099,0.079,0.164,0.079
			c0.066,0,0.142,0.056,0.23,0.159h-0.525c-0.132,4.048-0.176,8.068-0.132,12.063c0.043,3.995,0,7.935-0.131,11.823
			c0,0.639-0.263,1.078-0.789,1.316c-0.525,0.24-0.985,0.439-1.38,0.601v1.276h10.645c0.657-0.16,1.314-0.171,1.971-0.04
			c0.657,0.134,1.314,0.04,1.971-0.278c0.263,0,0.58,0.04,0.953,0.12c0.335,0.072,0.621,0.033,0.868-0.093v-3.224h-0.967v1.917
			c-0.438-0.159-0.746-0.386-0.92-0.679c-0.176-0.292-0.329-0.6-0.46-0.918h-1.577c-0.044-0.054-0.044-0.106,0-0.161
			c0-0.105,0.087-0.16,0.263-0.16h1.314V53.632h7.688c0.131,0.16,0.273,0.387,0.427,0.68c0.153,0.293,0.295,0.519,0.427,0.68
			c-1.227,0.16-2.431,0.2-3.614,0.119c-1.183-0.08-2.366-0.119-3.548-0.119v16.056h0.967V59.553c0-0.499,0.179-0.895,0.463-1.188
			c-0.028-0.38,0.061-0.765,0.278-1.093c0.002-0.004,0.005-0.007,0.008-0.009c-0.168,0.07-0.388,0.269-0.665,0.605v-1.276h1.453
			c0.644-0.316,1.451-0.325,2.149-0.003c0.001,0,0.002,0.002,0.003,0.003h0.835c0.479-0.153,1.036-0.149,1.529,0h0.93
			c0.131,0.317,0.263,0.585,0.395,0.796c0.131,0.214,0.263,0.48,0.394,0.799c-0.097,0-0.162,0.039-0.21,0.096
			c0.24,0.5,0.472,1.006,0.701,1.51c0.103-0.004,0.207-0.007,0.298-0.007c0.657,1.117,1.249,2.184,1.774,3.194
			c0.526,1.012,0.986,1.996,1.38,2.955c0.526,1.119,1.095,2.185,1.708,3.194c0.613,1.013,1.117,2.104,1.511,3.274h1.314
			c-0.131,0.161-0.318,0.213-0.559,0.161c-0.241-0.055-0.493,0-0.756,0.16c0,0.479-0.175,0.879-0.525,1.198
			c-0.351,0.319-0.789,0.561-1.314,0.719c0,0.16,0.043,0.333,0.131,0.519c0.087,0.188,0.132,0.439,0.132,0.759h13.208v-0.64h0.328
			c0,0.107-0.022,0.187-0.065,0.24c-0.044,0.107-0.131,0.24-0.263,0.397c0.568,0,1.117-0.013,1.643-0.04
			c0.525-0.024,1.051-0.119,1.577-0.278v-0.958c-0.132-0.16-0.263-0.28-0.395-0.359c-0.132-0.08-0.263-0.277-0.394-0.6
			c0.131,0.16,0.273,0.254,0.427,0.279c0.011,0.002,0.028,0.002,0.04,0.006c-0.131-0.213-0.268-0.424-0.396-0.637
			c-0.023,0.013-0.045,0.018-0.07,0.031c0.007-0.051,0.001-0.089,0.005-0.137c-0.253-0.424-0.497-0.853-0.741-1.281
			c-0.116-0.085-0.232-0.165-0.349-0.258c-0.197-0.161-0.361-0.372-0.493-0.641c-0.131-0.479-0.263-0.892-0.394-1.237
			c-0.132-0.347-0.286-0.681-0.46-0.998c-0.106-0.13-0.156-0.248-0.173-0.359c-0.281-0.557-0.563-1.113-0.833-1.675
			c-0.028,0.047-0.045,0.087-0.045,0.116c-0.263-0.479-0.471-0.891-0.624-1.237c-0.154-0.346-0.296-0.68-0.427-0.998
			c0-0.034,0.024-0.068,0.06-0.102c-0.223-0.491-0.44-0.983-0.657-1.477c-0.063-0.006-0.13-0.02-0.191-0.02
			c-0.263-0.532-0.525-1.038-0.788-1.518c-0.263-0.479-0.526-0.958-0.789-1.438c0.137-0.083,0.261-0.17,0.374-0.261
			c-0.21-0.499-0.423-0.998-0.632-1.499c-0.035-0.084-0.057-0.166-0.078-0.245c-0.063,0.137-0.131,0.267-0.19,0.409
			c-0.263-0.32-0.525-0.641-0.789-0.959c-0.263-0.319-0.263-0.64,0-0.958c0.131,0.159,0.219,0.318,0.263,0.479
			c0.043,0.16,0.131,0.318,0.263,0.479v-0.958c0.394-0.32,0.799-0.572,1.215-0.76c0.416-0.186,0.887-0.359,1.413-0.519
			c0.005,0.007,0.012,0.011,0.018,0.018c0.817-0.884,1.724-1.678,2.628-2.498c0.127-0.233,0.285-0.42,0.475-0.554
			c0.201-0.145,0.415-0.315,0.623-0.477c0.038-0.037,0.077-0.072,0.114-0.11c0.296-0.293,0.557-0.597,0.798-0.908
			c0.066-0.139,0.13-0.276,0.173-0.422c0.077-0.265,0.231-0.432,0.453-0.509c0.233-0.391,0.444-0.791,0.623-1.202
			c0.056-0.467,0.161-0.938,0.37-1.406c0.285-0.639,0.493-1.304,0.625-1.995c0.012,0.007,0.025,0.01,0.038,0.018
			c0.185-0.834,0.348-1.678,0.531-2.519c0.26-1.193,0.574-2.413,0.809-3.638c-0.109-0.083-0.218-0.164-0.326-0.253v1.278
			c-0.131-0.32-0.208-0.707-0.23-1.16c-0.022-0.451-0.033-0.918-0.033-1.397c0.335-0.182,0.623-0.363,0.879-0.543
			C111.027,36.501,111.049,35.973,111.024,35.444z M102.942,29.188c0.263-0.211,0.481-0.201,0.657,0.04
			c0.174,0.241,0.131,0.439-0.131,0.599c-0.131,0.162-0.286,0.134-0.46-0.08C102.832,29.535,102.811,29.348,102.942,29.188z
			 M86.515,23.038h3.154v0.638h-3.154V23.038z M82.77,25.273c0.263-0.161,0.481-0.131,0.657,0.08
			c0.175,0.213,0.131,0.399-0.131,0.559c-0.131,0.161-0.285,0.134-0.46-0.08C82.66,25.621,82.638,25.433,82.77,25.273z
			 M81.981,23.996v0.638h-1.577c0-0.052-0.044-0.185-0.131-0.398c-0.044-0.053-0.088-0.131-0.131-0.24H81.981L81.981,23.996z
			 M77.775,26.872h0.526v1.917h-0.526V26.872z M65.291,22.078c0.043,0,0.109-0.052,0.197-0.159c0-0.054,0.021-0.106,0.066-0.16
			l-0.526,0.319l0.263-0.64h-0.263V20.08h2.366v0.72h0.789v0.318c0.263,0.162,0.569,0.253,0.92,0.28
			c0.35,0.028,0.657,0.04,0.92,0.04v0.64c-0.395,0.161-0.833,0.252-1.314,0.279c-0.482,0.027-0.92,0.04-1.314,0.04v-0.959H67.13
			v0.959c-0.263,0-0.537-0.053-0.821-0.16C66.024,22.132,65.685,22.078,65.291,22.078z M70.449,35.059
			c-1.205-0.08-2.398-0.12-3.581-0.12c0-0.161,0.043-0.372,0.131-0.64c0.087-0.267,0.131-0.479,0.131-0.64h-0.263v-0.639h1.314
			v0.959h-0.526c-0.044,0.054-0.088,0.08-0.131,0.08c-0.088,0.107-0.131,0.187-0.131,0.241v0.32h0.789l0.263-0.32h0.525
			c-0.044,0-0.065-0.053-0.065-0.159c-0.044-0.053-0.066-0.12-0.066-0.201c0-0.081-0.044-0.172-0.131-0.28h2.168l-0.263-0.639h1.051
			v-0.959h-1.38v-0.638h0.591v-0.64h2.628v0.32h-1.577v1.276h0.526v0.32h-0.526v0.959h-0.525c0,0.16,0.043,0.32,0.131,0.479
			c0.087,0.159,0.131,0.32,0.131,0.479c0.394,0,0.789,0.014,1.183,0.04c0.395,0.028,0.789,0.119,1.183,0.28
			C72.847,35.099,71.653,35.139,70.449,35.059z M73.767,23.676l0.263-0.319h-0.263c-0.175,0-0.263-0.212-0.263-0.641h-1.051v-0.318
			h1.314c0,0.161,0.066,0.348,0.197,0.56c0.131,0.214,0.329,0.24,0.591,0.081v0.638H73.767L73.767,23.676z M77.513,41.729h-1.38
			c0-0.798,0.033-1.65,0.099-2.557c0.065-0.904,0.033-1.783-0.099-2.636h-1.577v-0.319h1.577c0.131-1.119,0.164-2.236,0.099-3.355
			c-0.066-1.119-0.099-2.236-0.099-3.354h13.799v-0.32c0,0.32,0.142,0.466,0.427,0.439c0.284-0.026,0.493,0.04,0.624,0.2
			c0.7,0,1.369,0.149,2.004,0.439c0.634,0.294,1.215,0.68,1.741,1.159v0.64c-0.657-0.479-1.413-0.759-2.267-0.839
			s-1.698-0.12-2.53-0.12H77.513V41.729z M79.09,41.729h-0.526c0-0.16,0.054-0.347,0.164-0.559c0.109-0.213,0.23-0.24,0.362-0.081
			V41.729z M81.455,52.033c-0.263,0-0.525,0.014-0.789,0.04c-0.263,0.027-0.263-0.2,0-0.679h0.789V52.033z M81.981,49.796H80.93
			v-0.639h1.051V49.796z M90.326,55.867c-0.175,0.213-0.394,0.239-0.657,0.08c-0.131-0.16-0.11-0.346,0.065-0.56
			c0.175-0.212,0.329-0.239,0.46-0.079C90.458,55.468,90.5,55.655,90.326,55.867z M95.78,34.62h-0.263
			c0-0.47-0.192-0.641-0.572-0.523c0.303,0.388,0.433,0.76,0.509,1.299c0.058,0.407-0.046,0.74-0.237,1.015
			c0.186-0.065,0.389-0.125,0.562-0.193c-0.131,0.691-0.286,1.345-0.46,1.956c-0.176,0.613-0.46,1.159-0.854,1.639
			c-0.525,0.798-1.205,1.318-2.037,1.557c-0.833,0.24-1.666,0.36-2.497,0.36h-8.007c-0.067,0.027-0.137,0.048-0.207,0.069v0.249
			c-0.114-0.068-0.23-0.127-0.348-0.18c-1.312,0.155-2.827-0.816-2.516-2.358c0.025-0.125,0.043-0.25,0.067-0.375
			c-0.127-0.058-0.247-0.149-0.358-0.282v-2.638h0.789c0,0.32-0.044,0.586-0.131,0.799c-0.088,0.213-0.131,0.506-0.131,0.878
			c0.02,0,0.038-0.006,0.058-0.007c0.071-0.398,0.152-0.794,0.215-1.193c-0.021-0.489,0.026-0.96,0.101-1.438h-0.111
			c0-0.318-0.066-0.61-0.197-0.877c-0.131-0.267-0.329-0.399-0.591-0.399V32.38c0.789,0,1.533,0.016,2.234,0.042
			c0.7,0.026,1.446,0.12,2.234,0.278c0.123,0,0.293,0.111,0.504,0.324c0.108-0.005,0.216-0.01,0.323-0.016
			c0.037-0.256,0.101-0.479,0.224-0.629c0.438,0,0.854,0.015,1.249,0.04c0.394,0.028,0.789,0.121,1.183,0.279
			c0.395-0.319,0.777-0.319,1.15,0c0.026,0.022,0.046,0.044,0.072,0.067c0.157-0.04,0.323-0.066,0.498-0.07
			c0.088-0.001,0.178-0.006,0.267-0.009c-0.04-0.125-0.086-0.233-0.146-0.308h1.84c0.068,0.085,0.124,0.167,0.168,0.249
			c0.12-0.001,0.239,0,0.358,0.002v-0.251c0.569,0,1.117,0.015,1.643,0.04c0.526,0.027,1.051,0.12,1.577,0.278
			c0.263,0,0.481,0.054,0.657,0.161c0.174,0.107,0.394,0.16,0.657,0.16c0.131,0.319,0.23,0.611,0.296,0.877
			c0.065,0.268,0.23,0.4,0.493,0.4H95.52L95.78,34.62z M96.305,18.484h0.263c-0.044,0.108-0.066,0.188-0.066,0.24
			c-0.044,0.107-0.065,0.173-0.065,0.201c0,0.028-0.044,0.092-0.132,0.201h1.577v0.638h-1.577V18.484z"/>
		<path fill="#FFFFFF" d="M163.099,47.12c0.021-0.505,0.033-1.078,0.033-1.718c0.045,0.056,0.113,0.111,0.17,0.167
			c0.01-0.573,0.024-1.148,0.042-1.721c-0.159-0.139-0.317-0.265-0.476-0.362c0-0.159,0.043-0.332,0.131-0.519
			c0.087-0.185,0.131-0.439,0.131-0.758c0.09-0.055,0.181-0.109,0.271-0.166c0.034-0.906,0.069-1.814,0.095-2.724
			c-0.003-0.014-0.002-0.028-0.006-0.043c-0.14-0.015-0.266-0.022-0.36-0.022c-0.175-0.212-0.263-0.64-0.263-1.278
			c0.166-0.067,0.347-0.115,0.525-0.168c-0.047-0.831-0.129-1.705-0.219-2.603c-0.101-0.031-0.199-0.057-0.306-0.104
			c0-0.401,0.066-0.814,0.174-1.236c-0.233-2.444-0.391-4.968,0.109-7.152c-0.258-0.495-0.292-1.088-0.084-1.603
			c-0.184-0.898-0.171-1.776,0.063-2.632c0-0.479,0.109-0.825,0.329-1.038c0.219-0.211,0.46-0.399,0.723-0.559h1.052v-1.598
			c-0.526,0-1.084,0.028-1.676,0.081c-0.591,0.054-1.084,0.239-1.479,0.559c-0.263,0.639-0.373,1.277-0.329,1.917
			c0.043,0.639,0.066,1.276,0.066,1.917v17.094c0,1.971-0.033,3.915-0.099,5.831c-0.066,1.917-0.033,3.861,0.099,5.832
			c-0.131,3.089-0.548,6.205-1.249,9.346c-0.701,3.144-1.971,5.938-3.811,8.389c-0.657,0.959-1.479,1.796-2.464,2.517
			c-0.985,0.718-1.938,1.478-2.858,2.276c-0.657,0.211-1.314,0.465-1.972,0.758c-0.657,0.292-1.314,0.599-1.971,0.918
			c-1.227,0.159-2.475,0.319-3.745,0.479c-1.271,0.16-2.52,0.318-3.746,0.479c-1.84-0.16-3.68-0.387-5.52-0.679
			c-1.84-0.293-3.614-0.945-5.322-1.957c-0.789-0.319-1.544-0.759-2.267-1.318c-0.723-0.559-1.479-1.078-2.267-1.558
			c0.395,0.64,0.843,1.159,1.347,1.558c0.503,0.399,1.04,0.839,1.61,1.318c0.394,0.211,0.766,0.439,1.117,0.679
			c0.289,0.198,0.499,0.539,0.639,1.008c0.125,0.055,0.249,0.107,0.372,0.162c0.159-0.075,0.316-0.137,0.467-0.169
			c0.235-0.054,0.419,0.154,0.55,0.614c0.608,0.283,1.208,0.575,1.805,0.878c0.106,0.022,0.213,0.041,0.32,0.062
			c0.083-0.09,0.167-0.177,0.25-0.276c0,0.092,0.024,0.209,0.062,0.34c1.098,0.226,2.209,0.395,3.33,0.514
			c0.031-0.07,0.066-0.128,0.091-0.214h0.789c0,0.102,0.024,0.204,0.061,0.308c0.278,0.022,0.558,0.038,0.837,0.055
			c0.057-0.028,0.108-0.043,0.153-0.043h3.483c0.018,0.042,0.041,0.075,0.062,0.111c0.405-0.01,0.811-0.027,1.217-0.048
			c0.011-0.022,0.025-0.04,0.036-0.064h0.263c0.009,0.022,0.019,0.031,0.028,0.052c0.372-0.02,0.743-0.048,1.115-0.074
			c0.232-0.188,0.464-0.296,0.696-0.296c0,0.092,0.012,0.169,0.028,0.241c0.377-0.034,0.737-0.084,1.088-0.139
			c0.393-0.272,0.828-0.424,1.315-0.424c0,0.045,0.006,0.102,0.009,0.153c0.403-0.102,0.792-0.217,1.168-0.344
			c0.134-0.296,0.353-0.448,0.662-0.448v0.212c0.5-0.189,0.97-0.41,1.443-0.627c0.19-0.104,0.376-0.216,0.562-0.326
			c0.067-0.168,0.136-0.339,0.196-0.497c0.109-0.292,0.164-0.521,0.164-0.68c0,0.159,0.043,0.374,0.131,0.639
			c0.026,0.082,0.042,0.148,0.06,0.218c0.141-0.09,0.273-0.192,0.413-0.286c0.008-0.019,0.01-0.031,0.021-0.052
			c0.137-0.261,0.266-0.332,0.386-0.231c1.925-1.365,3.616-3.04,4.882-4.738c0.2-0.269,0.423-0.608,0.665-0.983
			c-0.129-0.051-0.277-0.078-0.447-0.078v-0.319c0.395,0.159,0.625,0.08,0.69-0.239c0.066-0.319,0.099-0.56,0.099-0.719v0.823
			c0.384-0.599,0.815-1.247,1.283-1.857c-0.029-0.445,0.139-0.884,0.562-1.229c0-0.019-0.004-0.034-0.004-0.055
			c0.131-0.161,0.219-0.318,0.263-0.479c0.043-0.161,0.153-0.319,0.329-0.479c0.129-0.158,0.302-0.248,0.518-0.276
			c0.215-0.814,0.419-1.63,0.62-2.449c0.012-0.06,0.025-0.121,0.036-0.181c-0.041,0.014-0.082,0.03-0.123,0.03
			c-0.175-0.211-0.525-0.318-1.051-0.318v-0.32h0.789c0.131-0.159,0.208-0.371,0.23-0.639c0.021-0.266,0.033-0.479,0.033-0.641
			c0.084,0,0.17-0.007,0.256-0.013c0.058-0.112,0.108-0.226,0.158-0.339c-0.156-0.581-0.287-1.125-0.283-1.54
			c0.018-1.961,0.206-3.909,0.41-5.858c-0.004,0-0.01,0.002-0.015,0.002c0.011-0.025,0.013-0.052,0.022-0.078
			c0.154-1.463,0.314-2.929,0.418-4.397c-0.126-0.047-0.267-0.079-0.44-0.079C163,48.119,163.076,47.628,163.099,47.12z
			 M163.131,19.922h1.314v0.319h-1.314V19.922z M161.456,64.494c0.109-0.211,0.23-0.24,0.361-0.079
			c0.131,0.159,0.109,0.347-0.066,0.559c-0.175,0.213-0.329,0.24-0.46,0.08C161.292,64.895,161.346,64.709,161.456,64.494z"/>
		<path fill="#FFFFFF" d="M131.46,42.024c0.014-0.203,0.023-0.406,0.037-0.608c-0.066-0.712-0.137-1.427-0.208-2.148
			c-0.008-0.006-0.018-0.011-0.026-0.018c0-0.093-0.003-0.202-0.005-0.308c-0.051-0.519-0.1-1.041-0.148-1.563
			c-0.033-0.126-0.063-0.254-0.11-0.368c0.028,0.018,0.054,0.035,0.082,0.051c-0.347-3.892-0.525-7.837,0.256-11.573
			c-0.104-0.452-0.215-0.92-0.337-1.419h-0.789v-0.318H131c0.131-0.479,0.197-0.945,0.197-1.398c0-0.453,0.197-0.839,0.591-1.16
			c0.263-0.159,0.526-0.252,0.789-0.279c0.263-0.026,0.526-0.04,0.789-0.04v-1.275c-0.525,0-1.041-0.027-1.544-0.08
			c-0.504-0.053-0.953,0.08-1.347,0.399c-0.263,0.16-0.417,0.439-0.46,0.838c-0.044,0.399-0.066,0.758-0.066,1.079v11.982h0.789
			c-0.175,0.212-0.263,0.533-0.263,0.958h-0.263c0.043,0,0.109-0.104,0.197-0.318c0-0.106,0.022-0.212,0.066-0.32h-0.526
			c0,1.598-0.033,3.21-0.098,4.834c-0.066,1.624-0.033,3.342,0.098,5.152c-0.131,0.64-0.164,1.332-0.098,2.077
			c0.065,0.747,0.098,1.438,0.098,2.077h1.274c-0.002-0.039-0.001-0.079-0.002-0.117c-0.101-0.26-0.168-0.479-0.187-0.642
			c-0.022-0.187-0.033-0.359-0.033-0.519c0.069,0,0.131,0.008,0.198,0.01c0.006-1.065,0.062-2.124,0.139-3.182
			c-0.044,0.016-0.074,0.016-0.074-0.022c-0.131-0.48-0.143-0.892-0.033-1.237C131.286,42.39,131.363,42.208,131.46,42.024z"/>
		<path fill="#FFFFFF" d="M160.602,16.367c-0.723,0.027-1.479,0.147-2.267,0.359v0.319h-0.263l0.263-0.319
			c-1.052,0-2.103-0.053-3.154-0.161c-1.051-0.106-2.037-0.054-2.957,0.161h-5.848c0,0.159,0.01,0.332,0.033,0.519
			c0.021,0.187,0.099,0.439,0.23,0.758c0.263,0,0.536,0.055,0.821,0.16c0.284,0.107,0.559,0.159,0.821,0.159
			c0.394,1.12,0.547,2.237,0.46,3.355c-0.088,1.12-0.066,2.266,0.066,3.435h1.577v0.641h-1.314
			c-0.176,0.214-0.263,0.639-0.263,1.277c0.35,0.426,0.35,0.854,0,1.277c-0.132,3.41-0.165,6.79-0.099,10.145
			c0.065,3.355,0.099,6.63,0.099,9.826h1.577v0.318h-1.577c0,1.652-0.122,3.315-0.362,4.994c-0.241,1.678-0.844,3.234-1.807,4.672
			h1.38v0.398h-1.643c-0.525,0.798-1.205,1.438-2.037,1.918c-0.833,0.479-1.643,0.798-2.431,0.958
			c-1.358,0.318-2.684,0.466-3.976,0.439c-1.292-0.025-2.53-0.279-3.712-0.758c-0.438-0.16-0.833-0.346-1.183-0.56
			c-0.351-0.211-0.591-0.56-0.723-1.039h0.789c-0.253-0.334-0.485-0.694-0.688-1.072c-0.033,0.039-0.072,0.067-0.101,0.113
			c-0.526-0.69-0.789-1.463-0.789-2.315h0.1c-0.061-0.321-0.092-0.643-0.102-0.962L131,54.75c0.204,0.123,0.373,0.204,0.524,0.266
			c0.014-0.387,0.075-0.76,0.178-1.125c0-0.021-0.002-0.043-0.003-0.063c-0.151,0.081-0.298,0.169-0.437,0.281v-3.834h-1.314
			c0,1.439,0.066,2.971,0.197,4.595c0.131,1.625,0.591,3.103,1.38,4.434c0.043,0.106,0.087,0.187,0.131,0.239
			c0.087,0.212,0.131,0.347,0.131,0.398c-0.525-0.853-0.985-1.624-1.38-2.315c-0.394-0.692-0.723-1.438-0.985-2.237
			c-0.526-1.597-0.746-3.261-0.657-4.992c0.087-1.73,0.131-3.395,0.131-4.993v-25.48c-0.131-0.798,0.055-1.318,0.559-1.558
			c0.503-0.24,1.019-0.359,1.544-0.359v-1.278h-9.265c0,0.159,0.043,0.374,0.131,0.64c0.087,0.268,0.131,0.479,0.131,0.64h-1.314
			c0-0.161,0.043-0.32,0.131-0.48c0.087-0.16,0.131-0.319,0.131-0.479h-0.789c-0.044-0.053-0.044-0.106,0-0.162
			c0-0.104,0.087-0.159,0.263-0.159h-5.848v1.278c0.394,0,0.777,0.04,1.15,0.119c0.372,0.08,0.69,0.36,0.953,0.839
			c0.131,0.318,0.219,0.639,0.263,0.959c0.043,0.319,0.131,0.639,0.263,0.959h0.263v1.597h-0.526c0,1.971-0.033,3.862-0.099,5.672
			c-0.065,1.811-0.033,3.703,0.099,5.671h0.789c-0.131,0.16-0.263,0.268-0.394,0.32c-0.132,0.054-0.263,0.159-0.395,0.319
			c-0.131,0.959-0.164,1.931-0.099,2.915c0.066,0.987,0.099,2.038,0.099,3.155c0,2.13-0.033,4.232-0.099,6.311
			c-0.065,2.077-0.033,4.182,0.099,6.311c0,0.641,0.076,1.227,0.23,1.757c0.153,0.533,0.165,1.118,0.033,1.757h1.577v0.319h-1.577
			c0.526,3.621,1.599,6.843,3.22,9.664c0.526,1.015,1.117,1.877,1.774,2.598c0.657,0.719,1.38,1.478,2.168,2.275
			c0.92,0.641,1.905,1.253,2.957,1.837c1.051,0.587,2.103,1.04,3.154,1.357c2.934,1.014,5.902,1.506,8.904,1.479
			c3-0.025,5.968-0.626,8.903-1.796c0.526-0.319,1.051-0.601,1.577-0.839c0.525-0.24,1.051-0.601,1.577-1.079h0.263v-0.318
			c0.263,0,0.569-0.133,0.92-0.399c0.35-0.266,0.657-0.559,0.92-0.879c0.963-0.799,1.829-1.81,2.595-3.035
			c0.766-1.225,1.413-2.477,1.938-3.755c1.314-2.928,2.07-5.951,2.267-9.065c0.197-3.116,0.23-6.218,0.099-9.307
			c0.131-4.366,0.174-8.707,0.131-13.021c-0.044-4.313,0-8.573,0.131-12.781c-0.131-0.799,0.066-1.318,0.591-1.558
			c0.526-0.241,1.051-0.359,1.577-0.359v-1.676C162.08,16.327,161.325,16.341,160.602,16.367z M119.041,27.031h-0.263l-0.263-0.319
			c0.131,0,0.219-0.053,0.263-0.162c0.043-0.104,0.131-0.159,0.263-0.159l0.263,0.32L119.041,27.031z M120.158,20.241h-2.694v-0.319
			h2.694V20.241z M125.152,61.858h-1.051v0.641h-0.263c0.175,0,0.263-0.213,0.263-0.641h-1.052V61.22h1.052l-0.263-0.64h0.263v0.64
			h1.051V61.858z M127.583,57.944h-4.534v-0.64h4.534V57.944z M150.384,22.797h0.526l-0.263,0.639h0.263v0.32h1.051
			c0,0.16-0.044,0.319-0.131,0.48c-0.088,0.159-0.131,0.318-0.131,0.479h-1.314L150.384,22.797L150.384,22.797z M150.351,27.271
			c0.066-0.106,0.164-0.08,0.296,0.079v0.959c-0.132,0.107-0.23,0.08-0.296-0.079s-0.099-0.332-0.099-0.519
			S150.285,27.377,150.351,27.271z M149.07,30.865v-0.319h1.314v0.319H149.07z M149.07,54.43h1.051v-0.959h-1.051v-0.639h1.314
			c-0.131,0.318-0.208,0.639-0.23,0.959c-0.022,0.317-0.033,0.639-0.033,0.958h-1.051V54.43z M151.698,66.333h-1.314
			c0.043,0,0.087-0.054,0.131-0.161c0.087-0.107,0.132-0.268,0.132-0.479h-1.577v-1.277c0.263,0,0.503-0.04,0.723-0.121
			c0.219-0.08,0.329-0.358,0.329-0.838c0,0.318,0.043,0.627,0.131,0.919c0.087,0.294,0.131,0.52,0.131,0.68h0.526
			c0,0.159-0.044,0.319-0.131,0.479c-0.088,0.161-0.131,0.319-0.131,0.479h1.051L151.698,66.333L151.698,66.333z M151.698,60.261
			h-0.526l0.263,0.319h-0.526v1.276h0.526c0.131,0,0.263,0.056,0.394,0.161c0.131,0.107,0.263,0.16,0.394,0.16v0.319
			c-0.131,0-0.263,0.014-0.394,0.04c-0.131,0.025-0.263,0.119-0.394,0.277c-0.263-0.159-0.46-0.12-0.592,0.122
			c-0.131,0.24-0.197,0.52-0.197,0.838c-0.263-0.318-0.34-0.758-0.23-1.317c0.109-0.561,0.098-1.079-0.033-1.559h-1.314V60.58h1.577
			c-0.132-0.319-0.208-0.585-0.23-0.799c-0.023-0.213-0.033-0.479-0.033-0.799h2.103c0,0.215-0.176,0.534-0.526,0.96h-0.525
			L151.698,60.261z M151.83,39.612c-0.088-0.292-0.131-0.519-0.131-0.679h0.263c0,0.479,0.01,0.959,0.033,1.438
			c0.022,0.479,0.099,0.986,0.23,1.518h-1.314v-1.358h1.051C151.961,40.211,151.917,39.905,151.83,39.612z M152.158,43.407
			c-0.176,0.212-0.329,0.239-0.46,0.079c-0.263-0.161-0.307-0.347-0.131-0.559c0.174-0.212,0.394-0.24,0.657-0.08
			C152.355,43.006,152.333,43.194,152.158,43.407z M153.012,30.226h-2.103c-0.131-0.319-0.208-0.585-0.23-0.798
			c-0.022-0.212-0.033-0.48-0.033-0.798h1.314c-0.175,0.213-0.263,0.426-0.263,0.639c-0.044,0.161-0.044,0.268,0,0.32h0.525v0.318
			h0.789v0.319H153.012z M155.707,20.88c-0.395,0.16-0.746,0.253-1.051,0.279c-0.307,0.027-0.68,0.04-1.117,0.04V20.88h-0.526v-0.32
			h2.431c0-0.052-0.044-0.186-0.131-0.398c-0.044-0.053-0.088-0.131-0.131-0.241h1.051l-0.263,0.639h0.789
			c-0.131,0.16-0.307,0.253-0.526,0.28C156.012,20.867,155.838,20.88,155.707,20.88z M157.283,49.557
			c-0.22,0.161-0.373,0.188-0.46,0.08c-0.088-0.105-0.131-0.24-0.131-0.399s0.043-0.293,0.131-0.399
			c0.087-0.105,0.24-0.08,0.46,0.081V49.557z M158.072,34.141c-0.482,0.319-0.833,0.213-1.051-0.32
			c0.131-0.372,0.372-0.491,0.723-0.359C158.093,33.594,158.203,33.821,158.072,34.141z M159.912,24.714h-1.314v-0.32h1.314V24.714z
			"/>
		<path fill="#FFFFFF" d="M207.156,36.218c-0.396-0.161-0.844-0.332-1.347-0.519c-0.504-0.187-0.953-0.119-1.347,0.201
			c0.526,0.159,1.019,0.318,1.479,0.479c0.46,0.161,0.953,0.318,1.479,0.48c0.131,0.16,0.273,0.307,0.427,0.439
			c0.114,0.098,0.269,0.148,0.444,0.174c0.431-0.998,0.958-1.972,1.478-2.949c-0.085-0.056-0.168-0.127-0.246-0.222
			c0.132-0.319,0.252-0.584,0.362-0.798c0.108-0.212,0.164-0.48,0.164-0.798c0.209,0,0.419-0.076,0.628-0.194
			c0.174-0.586,0.327-1.181,0.504-1.767c-0.019,0.001-0.029,0.001-0.048,0.003c-0.197,0.027-0.295,0.119-0.295,0.28
			c0.131-0.64,0.306-1.224,0.525-1.757c0.219-0.533,0.395-1.119,0.526-1.757l0.516,0.628c0.013-0.019,0.025-0.04,0.037-0.058
			c-0.067-0.246-0.061-0.514,0.02-0.791c-0.101-0.033-0.212-0.062-0.311-0.098c0.263-0.798,0.536-1.624,0.821-2.477
			c0.285-0.851,0.559-1.756,0.822-2.716c-0.132,0-0.263-0.053-0.395-0.16c-0.131-0.106-0.263-0.16-0.394-0.16
			c-0.307,0.32-0.581,0.652-0.821,0.998c-0.242,0.348-0.427,0.758-0.559,1.237c-0.789,1.971-1.534,3.981-2.234,6.031
			C208.688,31.997,207.944,34.088,207.156,36.218z"/>
		<path fill="#FFFFFF" d="M189.349,78.674c0.348,0.134,0.666,0.315,0.968,0.521c0.152-0.019,0.303-0.036,0.455-0.055
			c0.136-0.277,0.329-0.408,0.581-0.388c0.329,0.025,0.646,0.04,0.953,0.04c0.525,0,1.094-0.025,1.708-0.08
			c0.148-0.013,0.293-0.014,0.436-0.005c4.321-0.54,8.487-1.345,12.036-4.056c2.654-2.028,5.118-4.06,6.383-7.019
			c0.124-0.29,0.261-0.558,0.403-0.818c0.007-0.287,0.045-0.545,0.126-0.765c0.087-0.239,0.131-0.519,0.131-0.838h0.096
			c0.285-1.622,0.691-3.4,1.013-5.229c-0.153-0.271-0.177-0.55-0.058-0.84c0.068,0,0.129,0.013,0.185,0.035
			c0.045-0.291,0.101-0.581,0.138-0.871c-0.079-0.167-0.139-0.341-0.21-0.511c-0.036,0.025-0.078,0.04-0.112,0.069
			c0-0.142-0.012-0.271-0.025-0.401c-0.882-2.281-1.11-4.716-1.357-7.124c-0.211-0.237-0.396-0.512-0.523-0.863
			c-0.263-0.532-0.537-1.024-0.821-1.477c-0.286-0.453-0.625-0.839-1.019-1.16c0.525,0.96,0.974,1.945,1.347,2.956
			c0.372,1.013,0.646,2.077,0.821,3.194c0.263,1.598,0.372,3.315,0.329,5.152c-0.044,1.836-0.352,3.555-0.92,5.151
			c-0.657,2.608-1.731,4.859-3.22,6.75c-1.49,1.892-3.243,3.422-5.257,4.594c-0.92,0.318-1.807,0.68-2.661,1.078
			c-0.854,0.399-1.83,0.679-2.924,0.839c-1.577,0.317-3.177,0.546-4.797,0.679c-1.621,0.132-3.285,0.121-4.994-0.04
			c-2.804,0-5.575-0.373-8.312-1.119c-2.738-0.744-5.355-1.784-7.853-3.116c-0.57-0.16-1.062-0.346-1.479-0.559
			s-0.821-0.24-1.215-0.08c-0.263,0.318-0.471,0.706-0.625,1.157c-0.154,0.455-0.295,0.946-0.427,1.479
			c0.131,0,0.306,0.015,0.525,0.039c0.219,0.028,0.395,0.121,0.526,0.279c0.263-0.318,0.536-0.719,0.821-1.198
			c0.284-0.479,0.646-0.641,1.084-0.479c0.789,0.317,1.522,0.651,2.201,0.999c0.679,0.347,1.347,0.679,2.004,0.998
			c0,0.071-0.024,0.128-0.059,0.178c0.451,0.163,0.903,0.327,1.354,0.493c0.009-0.011,0.008-0.021,0.018-0.032
			c0.132-0.159,0.296-0.186,0.493-0.079c0.197,0.107,0.295,0.239,0.295,0.399c0,0.001-0.001,0.002-0.001,0.003
			c1.504,0.537,3.018,1.028,4.571,1.249c2.046,0.292,4.036,0.454,6.013,0.92C188.766,78.586,189.047,78.557,189.349,78.674z"/>
		<path fill="#FFFFFF" d="M211.953,53.192c-0.088-1.679-0.46-3.263-1.117-4.753c-0.131-0.799-0.406-1.478-0.821-2.039
			c-0.417-0.559-0.756-1.157-1.019-1.795c-0.789-0.959-1.654-1.77-2.596-2.436c-0.942-0.665-1.938-1.265-2.99-1.798
			c-1.445-0.691-2.935-1.238-4.468-1.638c-1.534-0.399-3.066-0.719-4.6-0.959c-1.534-0.239-3.078-0.439-4.632-0.599
			c-0.682-0.071-1.36-0.154-2.037-0.244c-1.818,0.128-3.852-0.141-4.939-1.359c-0.033-0.037-0.054-0.074-0.084-0.11
			c-0.066,0.129-0.133,0.272-0.2,0.435c-0.044,0.054-0.088,0.054-0.131,0c-0.088,0-0.132-0.106-0.132-0.32
			c0.176-0.107,0.25-0.246,0.24-0.413c-0.172-0.269-0.275-0.537-0.325-0.803c-0.058-0.129-0.123-0.249-0.177-0.382
			c0.131-0.32,0.219-0.572,0.263-0.759c0.043-0.185,0.132-0.36,0.263-0.519c0.002,0.005,0.004,0.007,0.006,0.012
			c0.575-0.96,1.693-1.788,2.743-2.319c3.117-1.582,8.262-1.005,11.532-0.164c1.205,0.31,3.436,0.805,5.173,1.629
			c0.064-0.053,0.129-0.118,0.193-0.195c0,0.054,0.043,0.107,0.131,0.159c0.087,0.107,0.219,0.162,0.394,0.162
			c-0.026,0.074-0.071,0.127-0.104,0.194c0.404,0.23,0.756,0.484,1.047,0.762c0.132-0.068,0.257-0.145,0.372-0.238
			c0.263,0,0.47,0.054,0.624,0.159c0.153,0.107,0.296,0.161,0.427,0.161v0.959c0.263,0.16,0.47,0.374,0.624,0.639
			c0.153,0.268,0.317,0.48,0.493,0.64c0-0.64,0.142-1.278,0.427-1.918c0.285-0.64,0.493-1.304,0.625-1.998
			c0.263-0.639,0.514-1.276,0.755-1.916c0.24-0.64,0.427-1.277,0.559-1.918c0.526-1.438,1.04-2.835,1.544-4.192
			c0.503-1.358,0.953-2.755,1.347-4.194c-0.131,0-0.263-0.053-0.394-0.16c-0.131-0.106-0.263-0.16-0.394-0.16
			c-0.263,0.32-0.537,0.666-0.822,1.039c-0.285,0.373-0.624,0.559-1.018,0.559c-0.395,0-0.8-0.066-1.216-0.2
			c-0.417-0.132-0.887-0.279-1.413-0.439c-1.884-0.64-3.768-1.264-5.651-1.877c-1.884-0.611-3.811-1.158-5.782-1.639
			c-2.935-0.531-5.881-0.718-8.838-0.559c-2.957,0.161-5.772,0.987-8.443,2.477c-0.263,0.159-0.537,0.334-0.821,0.519
			c-0.286,0.187-0.362,0.441-0.23,0.759c-0.657,0-1.249,0.24-1.774,0.719c-0.526,0.479-0.986,0.879-1.38,1.199
			c-2.016,2.129-3.407,4.74-4.172,7.827c-0.767,3.09-0.887,6.18-0.361,9.267c0.394,1.491,0.985,2.85,1.774,4.075
			c0.789,1.226,1.796,2.236,3.022,3.036c1.84,1.438,3.854,2.476,6.045,3.115c2.19,0.64,4.424,1.118,6.702,1.438
			c1.84,0.319,3.69,0.6,5.553,0.839c1.861,0.24,3.712,0.6,5.552,1.079c0.657,0.159,1.336,0.411,2.037,0.758
			c0.7,0.347,1.183,0.838,1.445,1.479c-1.49-0.8-3.066-1.291-4.731-1.479c-1.665-0.186-3.374-0.438-5.125-0.758
			c-1.446-0.161-2.924-0.332-4.436-0.519c-1.511-0.188-3.001-0.481-4.468-0.881c-1.468-0.399-2.902-0.918-4.304-1.558
			c-1.403-0.639-2.738-1.489-4.008-2.556c0.263,0.479,0.58,0.893,0.953,1.237c0.372,0.348,0.756,0.68,1.15,0.998
			c0,0.003,0.001,0.008,0.001,0.011c0.418,0.133,0.737,0.341,0.967,0.594c4.431,2.4,9.499,3.028,14.6,3.667
			c2.706,0.339,5.998,0.694,7.972,2.492c0.071-0.155,0.115-0.351,0.115-0.612c0.525,0.64,1.094,1,1.708,1.079
			c0.613,0.08,1.183,0.04,1.708-0.121v0.32h-1.84c0,0.318-0.056,0.639-0.165,0.958c-0.11,0.318-0.23,0.667-0.361,1.038
			c-0.055-0.021-0.102-0.053-0.155-0.074c-0.045,0.112-0.087,0.226-0.158,0.329c0.008-0.038,0.017-0.076,0.025-0.115
			c-0.032,0.065-0.075,0.119-0.11,0.18h0.136c-0.526,1.278-1.281,2.196-2.267,2.757c-0.986,0.559-2.004,0.918-3.056,1.077
			c-2.804,0.642-5.629,0.748-8.476,0.319c-2.848-0.425-5.608-1.277-8.279-2.556c0-0.135-0.039-0.271-0.101-0.404
			c-0.124-0.07-0.241-0.133-0.366-0.207c-0.099,0.057-0.206,0.15-0.322,0.292l-1.577-0.96c-0.394-0.238-0.616-0.59-0.665-1.053
			c-0.274-0.209-0.552-0.415-0.803-0.647c-0.08-0.073-0.141-0.159-0.204-0.244c0.017,0.196,0.041,0.39,0.095,0.589
			c-0.263-0.479-0.548-0.893-0.854-1.237c-0.307-0.348-0.46-0.681-0.46-0.999v-2.875c-0.131,0-0.263-0.055-0.395-0.162
			c-0.131-0.105-0.263-0.159-0.394-0.159c-0.964,3.248-1.917,6.537-2.858,9.865c-0.942,3.33-1.938,6.697-2.99,10.104
			c0.131,0,0.307,0.015,0.526,0.04c0.218,0.027,0.394,0.121,0.525,0.279c0.306-0.69,0.745-1.225,1.314-1.598
			c0.394,0,0.788,0.12,1.183,0.358c0.394,0.239,0.789,0.439,1.183,0.601c1.62,0.797,3.274,1.518,4.961,2.156
			c1.686,0.64,3.406,1.119,5.158,1.438c2.803,0.479,5.64,0.706,8.509,0.68c2.869-0.025,5.684-0.359,8.444-0.999
			c0-0.161-0.011-0.318-0.033-0.479c-0.023-0.16-0.099-0.24-0.23-0.24c1.094,0.214,2.157,0.067,3.187-0.439
			c1.029-0.505,2.004-0.998,2.924-1.478c2.146-1.277,3.942-3.195,5.388-5.751c1.445-2.557,2.3-5.353,2.562-8.388
			C212.018,56.533,212.04,54.869,211.953,53.192z M180.872,35.258c-0.394-0.318-0.723-0.706-0.986-1.158
			c-0.263-0.452-0.46-0.919-0.591-1.398c0-1.011,0.219-1.85,0.657-2.516c0.438-0.665,0.92-1.237,1.446-1.716
			c1.314-0.798,2.683-1.264,4.106-1.399c1.423-0.13,2.793-0.199,4.107-0.199c2.015,0.159,3.997,0.427,5.947,0.799
			c1.949,0.373,3.865,0.959,5.75,1.757c0.657,0.319,1.335,0.68,2.037,1.079c0.7,0.398,1.249,0.998,1.643,1.797
			c-1.051-0.798-2.201-1.399-3.45-1.797c-1.249-0.399-2.487-0.759-3.712-1.079c-1.446-0.319-2.957-0.6-4.534-0.838
			c-1.577-0.239-3.154-0.279-4.731-0.12c-1.051,0-2.147,0.12-3.286,0.36c-1.14,0.239-2.168,0.758-3.088,1.556
			c-0.657,0.479-1.14,1.173-1.445,2.078C180.434,33.369,180.478,34.3,180.872,35.258z M175.287,70.086h-1.314v-0.317h1.314V70.086z
			 M198.613,66.892h-1.84v-0.318h1.84V66.892z M202.359,45.882h0.526l-0.263,0.32c0.263,0.159,0.47,0.253,0.625,0.279
			c0.153,0.026,0.295,0.039,0.427,0.039v0.319h-0.788C202.885,46.629,202.709,46.309,202.359,45.882z M206.104,52.354
			c-0.176,0-0.329,0.014-0.46,0.04c-0.131,0.027-0.263,0.121-0.395,0.278c-0.263-0.16-0.525-0.252-0.789-0.278
			c-0.263-0.026-0.525-0.04-0.789-0.04v-0.32h2.577C206.206,52.12,206.16,52.219,206.104,52.354z M206.893,51.714
			c-0.263,0-0.427,0.027-0.493,0.081c-0.009,0.007-0.023,0.036-0.033,0.048v-1.087h-0.591v-0.641h-0.789v-0.319h0.789v-0.719
			l0.329,0.719l0.263,0.641h0.526L206.893,51.714L206.893,51.714z M207.418,49.477h-1.051l-0.263-0.719h1.314V49.477z
			 M211.328,58.464c-0.241,0.027-0.493,0.039-0.755,0.039c0.131-0.317,0.35-0.411,0.657-0.278c0.229,0.101,0.409,0.118,0.541,0.054
			C211.65,58.373,211.51,58.443,211.328,58.464z"/>
		<path fill="#FFFFFF" d="M235.121,78.583c2.214,0.063,4.423,0.039,6.634-0.194c0.607-0.063,8.518,0.131,8.03-1.266
			c-0.065-0.187-0.089-0.36-0.096-0.529c-0.139-0.168-0.262-0.356-0.348-0.588v1.269c-2.41,0-4.797,0.015-7.163,0.04
			c-2.365,0.026-4.753,0.121-7.162,0.279c0,0.16,0.01,0.372,0.033,0.639C235.059,78.363,235.084,78.479,235.121,78.583z"/>
		<path fill="#FFFFFF" d="M260.774,25.033h1.314c0-1.809-0.012-3.595-0.033-5.351c-0.022-1.757-0.099-3.542-0.23-5.353
			c-0.351-0.052-0.591,0.04-0.723,0.28s-0.241,0.546-0.329,0.919c-0.088,0.373-0.208,0.706-0.361,0.998
			c-0.154,0.293-0.406,0.439-0.756,0.439c-2.628,0.16-5.224,0.212-7.786,0.16c-2.563-0.053-5.181,0-7.853,0.159
			c-0.92,0-1.884-0.04-2.891-0.119c-1.008-0.08-1.994-0.04-2.957,0.119c-1.051-0.159-2.06-0.2-3.022-0.119
			c-0.964,0.08-1.994,0.119-3.088,0.119c-1.708-0.159-3.384-0.211-5.027-0.159c-1.643,0.054-3.318,0-5.026-0.16
			c-0.395,0-0.734-0.026-1.019-0.081c-0.286-0.053-0.559,0.081-0.821,0.399c-0.526-0.479-0.833-1.023-0.92-1.638
			c-0.088-0.612-0.132-1.159-0.132-1.638h-1.117v20.049h1.117c0.132-0.639,0.208-1.304,0.23-1.997
			c0.022-0.691,0.296-1.118,0.822-1.277h13.799v1.358h-11.696c-0.263,0-0.526,0.028-0.789,0.08c-0.263,0.055-0.526,0.24-0.789,0.559
			c-0.263,0.641-0.373,1.292-0.329,1.958c0.043,0.666,0.066,1.397,0.066,2.196h1.051c0.131-0.639,0.208-1.25,0.23-1.837
			c0.021-0.585,0.296-1.039,0.821-1.358h2.366c0.131,0.161,0.306,0.279,0.525,0.359c0.219,0.081,0.329-0.04,0.329-0.359
			c0.263,0,0.559-0.025,0.887-0.08c0.329-0.052,0.559,0.08,0.69,0.399c0.526-0.159,1.062-0.252,1.61-0.279
			c0.547-0.025,1.15-0.04,1.807-0.04c0.131,0.162,0.35,0.32,0.657,0.481c0.064,0.033,0.123,0.046,0.179,0.051
			c0.028-0.002,0.055-0.003,0.082-0.008c0.172-0.027,0.306-0.195,0.396-0.522h1.906v1.743c0.143,0.342,0.191,0.73,0.084,1.146
			c-0.054,0.207-0.096,0.417-0.142,0.626h0.058c0,2.291,0.033,4.566,0.099,6.83c0.065,2.264,0.033,4.62-0.099,7.067
			c0,1.438,0.033,2.955,0.099,4.556c0.065,1.597,0.033,3.194-0.099,4.792c0.263,0,0.559,0.014,0.887,0.04
			c0.329,0.025,0.559,0.12,0.69,0.278h-1.314c0,0.318,0.01,0.586,0.033,0.798c0.021,0.214,0.099,0.479,0.23,0.798h-0.525
			c0,0.641,0.01,1.333,0.033,2.078c0.021,0.746,0.099,1.464,0.23,2.157h0.526v0.319h-0.526c-0.131,0.479-0.208,1.013-0.23,1.598
			c-0.022,0.588-0.033,1.119-0.033,1.6c0,0.797,0.01,1.53,0.033,2.194c0.021,0.668-0.164,1.348-0.559,2.037
			c-0.263,0-0.537,0.056-0.821,0.161c-0.286,0.107-0.559,0.16-0.821,0.16v1.278h16.493V74.72c0.218-0.265,0.397-0.437,0.548-0.537
			c-0.083-0.388-0.135-0.776-0.193-1.164c-0.118-0.057-0.236-0.152-0.354-0.295c0-0.16-0.011-0.387-0.033-0.681
			c-0.022-0.29-0.099-0.598-0.23-0.917c0.103-0.232,0.226-0.439,0.358-0.638c-0.038-0.8-0.04-1.604-0.028-2.411
			c-0.023-0.157-0.03-0.323-0.001-0.508c0.012-0.076,0.006-0.147,0.014-0.224c0.006-0.232,0.01-0.462,0.019-0.696
			c-0.016-0.218-0.042-0.433-0.098-0.638c0.042-0.03,0.083-0.057,0.126-0.085c0.032-0.815,0.067-1.633,0.098-2.446
			c-0.094-0.425-0.145-0.878-0.125-1.384c0.013-0.34,0.079-0.657,0.173-0.963c0.003-0.534-0.003-1.064-0.007-1.598
			c0,0.001-0.001,0.004-0.001,0.005c-0.176-0.213-0.263-0.532-0.263-0.959h0.26c-0.003-0.188-0.002-0.378-0.005-0.564
			c-0.084-0.045-0.169-0.074-0.254-0.074v-1.358c0.075,0,0.14-0.022,0.213-0.029c-0.026-0.907-0.055-1.817-0.094-2.724
			c-0.04-0.044-0.079-0.073-0.119-0.122v-2.237c0.004-0.004,0.007-0.005,0.01-0.009c-0.061-1.169-0.128-2.339-0.198-3.512
			c-0.118-1.973-0.947-7.117,0.241-10.25c-0.007-0.31-0.007-0.623,0.01-0.935c-0.18-0.482-0.145-1.025,0.126-1.505
			c-0.062,0.048-0.125,0.076-0.188,0.076v-1.599h1.052v0.517c0.189-0.162,0.413-0.297,0.677-0.405
			c0.037-0.036,0.074-0.067,0.111-0.112c0.072,0,0.133,0.003,0.202,0.003c0.271-0.076,0.573-0.128,0.92-0.145
			c0.987-0.047,1.953,0.147,2.933,0.22c0.24-0.049,0.485-0.078,0.742-0.078v0.111c0.463,0,0.925-0.002,1.387-0.002
			c0.154-0.067,0.306-0.109,0.453-0.109c0.789,0.161,1.631,0.173,2.53,0.04c0.897-0.132,1.829-0.04,2.793,0.278v-8.707h-1.314
			v-0.319h-0.007V25.033z M223.32,20.162h-1.314v-0.64h1.314V20.162z M235.279,68.568c-0.263,0.161-0.482,0.134-0.657-0.079
			s-0.131-0.399,0.132-0.561c0.131-0.16,0.317-0.131,0.558,0.08C235.552,68.222,235.542,68.408,235.279,68.568z M241.916,46.922
			h-2.957C239.966,46.655,240.952,46.655,241.916,46.922z M239.418,49.477c-0.131,0-0.197-0.08-0.197-0.239
			c0-0.372,0.066-0.559,0.197-0.559s0.263,0.187,0.395,0.559C239.681,49.397,239.55,49.477,239.418,49.477z M241.127,68.568v-0.64
			h0.526l-0.263-0.318h0.789c0.35,0.426,0.526,0.747,0.526,0.958H241.127z M242.967,45.323h-3.154v-0.318
			c0.131,0,0.306-0.014,0.525-0.041c0.219-0.025,0.395-0.12,0.526-0.279c0.263,0.161,0.58,0.254,0.953,0.279
			c0.372,0.027,0.756,0.041,1.15,0.041V45.323z M243.229,63.377c0.263-0.161,0.526-0.2,0.789-0.121s0.526,0.121,0.789,0.121v1.276
			h-1.577L243.229,63.377L243.229,63.377z M248.289,64.655c-0.263,0.318-0.525,0.318-0.788,0
			C247.764,64.015,248.026,64.015,248.289,64.655z M247.238,32.143v24.444c0,1.971-0.022,3.849-0.065,5.63
			c-0.044,1.786,0.065,3.583,0.329,5.393c-0.263,0.318-0.318,0.758-0.165,1.317c0.153,0.559,0.296,1.079,0.427,1.559h-0.526v0.318
			c-0.131,0.64-0.164,1.266-0.099,1.878c0.066,0.61,0.099,1.186,0.099,1.716c-0.701-0.16-1.106-0.532-1.215-1.119
			c-0.11-0.586-0.165-1.199-0.165-1.837h-1.051v-0.318h1.051c-0.131-0.958-0.164-1.917-0.099-2.875
			c0.066-0.959,0.099-1.944,0.099-2.957c-0.131-0.318-0.164-0.572-0.099-0.758c0.066-0.186,0.099-0.359,0.099-0.519V30.785h13.799
			c0.263,0,0.482,0.133,0.657,0.399c0.175,0.267,0.329,0.587,0.46,0.959H247.238z"/>
		<path fill="#FFFFFF" d="M264.044,27.165c0.062-0.826,0.125-1.732,0.287-2.621c-0.013-0.817-0.008-1.626,0.023-2.425
			c0.066-1.678,0.099-3.395,0.099-5.152h-1.051c-0.263,1.118-0.34,2.29-0.23,3.514c0.109,1.226,0.099,2.424-0.033,3.596
			c-0.131,1.437-0.131,2.876,0,4.313c0.131,1.439,0.131,2.903,0,4.393c0,0.48,0.033,0.959,0.099,1.438
			c0.015,0.111,0.007,0.222,0.011,0.331c0.255,0.012,0.507,0.05,0.758,0.091C263.965,32.148,263.858,29.63,264.044,27.165z"/>
		<path fill="#FFFFFF" d="M284.178,79.192h5.551c0.258-0.045,0.529-0.07,0.83-0.057c0.44,0.016,0.883,0.037,1.321,0.057h10.093
			v-1.598c-3.229,0.319-6.371,0.372-9.425,0.159c-3.057-0.213-6.081-0.159-9.077,0.162c-0.234,0.211-0.351,0.531-0.351,0.959h1.409
			L284.178,79.192z"/>
		<path fill="#FFFFFF" d="M300.758,75.479c-0.373-0.24-0.689-0.28-0.953-0.122c0-0.317,0.01-0.689,0.033-1.118
			c0.021-0.424,0.098-0.798,0.23-1.117c0.131,0.158,0.271,0.412,0.426,0.757c0,0,0.001,0,0.001,0.002
			c-0.17-0.799-0.291-1.615-0.392-2.438h-0.299c0-0.318,0.01-0.585,0.031-0.797c0.016-0.14,0.062-0.312,0.123-0.498
			c-0.213-2.532-0.182-5.134-0.134-7.691c-0.089-0.022-0.181-0.041-0.284-0.041c0-0.161,0.043-0.318,0.131-0.479
			c0.089-0.161,0.133-0.319,0.133-0.479c0-0.318,0.01-0.584,0.031-0.798c0.003-0.032,0.018-0.076,0.021-0.111
			c0.012-0.682,0.02-1.356,0.02-2.024c0-0.556,0.012-1.147,0.041-1.748c-0.768-1.731-0.189-3.64,0.768-5.346
			c1.823-3.253,3.791-6.284,5.222-9.726c1.568-3.778,3.435-7.347,5.757-10.814c0.071-0.105,0.132-0.216,0.199-0.325
			c-0.033-0.007-0.066-0.019-0.102-0.019c0.131-0.32,0.266-0.64,0.396-0.959c0.131-0.32,0.264-0.56,0.395-0.719
			c0.088-0.107,0.143-0.16,0.164-0.16s0.076-0.027,0.164-0.08c0.007,0,0.024-0.013,0.032-0.015c0.036-0.074,0.073-0.148,0.107-0.223
			c-0.051-0.149-0.059-0.325,0.022-0.562c0.085-0.249,0.22-0.348,0.397-0.305c0.154-0.315,0.315-0.627,0.484-0.937
			c-0.02,0.014-0.042,0.031-0.062,0.043c0-0.32,0.055-0.572,0.164-0.759c0.107-0.186,0.229-0.36,0.359-0.519h-0.789
			c0.135-0.159,0.266-0.252,0.396-0.278s0.264-0.04,0.395-0.04c0.438-0.64,0.82-1.305,1.15-1.998
			c0.328-0.692,0.756-1.198,1.281-1.518h-0.789v-0.319h0.789c0.043,0,0.105-0.107,0.195-0.319c0-0.106,0.021-0.24,0.064-0.4h-1.84
			c-0.309,0.16-0.547,0.454-0.725,0.88c-0.176,0.425-0.395,0.797-0.654,1.118c-0.658,1.118-1.271,2.29-1.842,3.515
			c-0.568,1.225-1.184,2.423-1.84,3.596h0.525v0.639l-0.525-0.639c-0.395,0.797-0.789,1.597-1.184,2.397
			c-0.396,0.797-0.812,1.597-1.248,2.396h0.854v0.319h-0.854c-0.264,0.319-0.482,0.706-0.656,1.159
			c-0.176,0.453-0.395,0.919-0.658,1.398c-1.312,2.45-2.574,4.938-3.775,7.468c-1.205,2.53-2.424,4.993-3.648,7.389
			c-0.262,0.319-0.369,0.653-0.326,0.998c0.043,0.349,0.064,0.759,0.064,1.238v10.704c0.131,0.639,0.131,1.291,0,1.957
			c-0.131,0.667-0.131,1.397,0,2.196v5.832c-0.877-0.692-1.312-1.331-1.312-1.918V51.474c0.264-0.639,0.559-1.224,0.887-1.756
			s0.559-1.119,0.688-1.757v-0.32h-0.262c-0.176,0-0.266-0.052-0.266-0.159c-0.043-0.054-0.043-0.106,0-0.161h0.789
			c0.266-0.159,0.43-0.371,0.492-0.64c0.066-0.266,0.164-0.505,0.297-0.719c0.832-1.438,1.631-2.929,2.398-4.475
			c0.766-1.544,1.479-3.061,2.135-4.553h-1.312c0-0.319,0.043-0.639,0.133-0.959c0.086-0.32,0.131-0.639,0.131-0.959h1.053
			c-0.133,0.32-0.209,0.639-0.23,0.959s-0.031,0.64-0.031,0.959c0.262-0.159,0.469-0.387,0.623-0.681
			c0.152-0.291,0.297-0.598,0.428-0.917c0.262-0.479,0.48-0.905,0.656-1.278c0.176-0.372,0.395-0.798,0.658-1.277
			c0.963-1.97,1.959-3.981,2.988-6.031c1.027-2.049,2.068-4.14,3.121-6.271c0.133-0.159,0.297-0.386,0.492-0.68
			c0.197-0.291,0.295-0.599,0.295-0.917h1.055v-1.278c-2.498-0.159-5.007-0.201-7.525-0.119c-2.52,0.081-5.049,0.119-7.588,0.119
			v0.959c0.262,0.161,0.48,0.253,0.656,0.278c0.174,0.028,0.395,0.042,0.656,0.042c0.264,0.318,0.404,0.639,0.428,0.959
			c0.021,0.319-0.033,0.651-0.164,0.999c-0.131,0.347-0.285,0.679-0.459,0.998c-0.176,0.318-0.287,0.639-0.33,0.959
			c-0.262,0.48-0.559,0.985-0.887,1.518s-0.561,1.198-0.689,1.997c-0.131,0-0.221,0.055-0.264,0.16
			c-0.043,0.107-0.131,0.161-0.262,0.161c-0.92,1.971-1.842,3.9-2.762,5.792c-0.92,1.89-1.861,3.742-2.824,5.551
			c-0.264-0.372-0.361-0.718-0.297-1.039c0.064-0.319,0.164-0.639,0.297-0.959c-0.264-0.159-0.525-0.305-0.789-0.439
			c-0.264-0.131-0.525-0.2-0.787-0.2c-0.133-0.16-0.209-0.32-0.23-0.479c-0.023-0.162-0.033-0.32-0.033-0.48
			c-0.041-0.149-0.094-0.285-0.145-0.424c-0.42-0.308-0.702-0.775-0.695-1.408c0-0.042-0.007-0.082-0.008-0.122
			c-0.075-0.193-0.145-0.391-0.203-0.604h0.166c-0.033-0.314-0.084-0.626-0.153-0.934c-0.048,0.005-0.101,0.008-0.144,0.016
			c-0.176,0.027-0.395,0.12-0.658,0.278c0.125-0.305,0.293-0.558,0.498-0.766c-0.123-0.189-0.237-0.382-0.336-0.578
			c-0.28,0.131-0.424,0.053-0.424-0.253c-0.082-0.129-0.162-0.281-0.242-0.441c-0.158-0.091-0.312-0.204-0.459-0.352
			c-1.26-1.291-1.781-3.292-2.188-4.925c-0.047-0.184-0.06-0.368-0.049-0.544c-0.006-0.069-0.021-0.138-0.021-0.208
			c0-0.614,0.229-0.977,0.676-1.098c0.331-0.297,0.76-0.498,1.229-0.552v-0.986c-0.438,0-0.94-0.025-1.513-0.079
			c-0.567-0.055-1.051,0.079-1.444,0.398c-0.263,0.374-0.272,0.787-0.033,1.237c0.24,0.454,0.429,0.919,0.56,1.398
			c0.658,1.438,1.293,2.863,1.906,4.273c0.612,1.411,1.313,2.784,2.104,4.114c0.263,0.798,0.611,1.598,1.052,2.397
			c0.438,0.798,0.789,1.598,1.051,2.396c0.134,0.32,0.328,0.681,0.593,1.079c0.265,0.399,0.328,0.918,0.196,1.558
			c-0.396-0.851-0.745-1.664-1.051-2.436c-0.31-0.771-0.658-1.478-1.054-2.118c-0.131-0.16-0.219-0.319-0.262-0.479
			c-0.045-0.161-0.132-0.319-0.265-0.48c-0.263-0.797-0.623-1.597-1.084-2.396c-0.459-0.798-0.91-1.624-1.349-2.477
			c-0.524-1.277-1.084-2.502-1.674-3.673c-0.593-1.171-1.086-2.397-1.479-3.675c-0.133-0.372-0.273-0.771-0.428-1.199
			c-0.154-0.425-0.1-0.798,0.164-1.119c0.264-0.159,0.525-0.252,0.789-0.277c0.262-0.027,0.525-0.04,0.787-0.04v-1.278h-17.215
			v0.959c0.394,0.161,0.723,0.453,0.985,0.879c0.263,0.426,0.46,0.878,0.592,1.357c0.394,0.853,0.788,1.625,1.183,2.315
			c0.394,0.693,0.789,1.439,1.183,2.237c0.131,0.32,0.273,0.692,0.427,1.118c0.153,0.427,0.361,0.799,0.624,1.12v0.319h0.263
			c0.174,0.319,0.306,0.612,0.394,0.879c0.087,0.266,0.329,0.399,0.723,0.399c0,0.108-0.044,0.268-0.131,0.48
			c-0.044,0.107-0.088,0.187-0.131,0.239h0.526l-0.263,0.641c1.839,3.728,3.689,7.429,5.552,11.104
			c1.86,3.674,3.713,7.376,5.554,11.104c0.264,0.479,0.338,0.958,0.229,1.437c-0.109,0.48-0.101,0.985,0.032,1.519
			c-0.133,1.757-0.166,3.567-0.101,5.432c0.065,1.865,0.101,3.703,0.101,5.512h1.312l-0.262,0.32c0.307,0,0.524,0.026,0.655,0.079
			c0.133,0.056,0.197,0.24,0.197,0.561h-1.38c0.132-0.319,0.099-0.453-0.101-0.398c-0.196,0.054-0.426,0.079-0.688,0.079
			c0,0.959,0.032,1.971,0.098,3.035c0.065,1.066,0.033,2.104-0.098,3.115c0,0.479-0.154,0.829-0.46,1.041
			c-0.309,0.212-0.592,0.398-0.854,0.56h-0.789v1.276h17.479C301.162,75.998,301.129,75.718,300.758,75.479z M308.609,19.841
			c0-0.32,0.055-0.479,0.164-0.479c0.107,0,0.229,0.159,0.359,0.479c0.133,0.318,0.045,0.48-0.262,0.48
			S308.479,20.162,308.609,19.841z M278.055,30.865h-2.365v-0.319h1.051l0.263-0.32h0.789l-0.264,0.32h0.525V30.865L278.055,30.865z
			 M282.852,33.421c-0.262-0.161-0.523-0.252-0.787-0.279c-0.264-0.026-0.525-0.04-0.789-0.04v-0.319h1.314v-0.96h1.576
			c0-0.424-0.088-0.639-0.262-0.639h0.262c0,0.32,0.043,0.693,0.131,1.118c0.088,0.427,0.133,0.799,0.133,1.12L282.852,33.421
			L282.852,33.421z M288.174,62.418c-0.131,0.16-0.328,0.132-0.59-0.08c-0.264-0.212-0.242-0.399,0.064-0.561
			c0.264-0.16,0.48-0.131,0.658,0.081C288.48,62.071,288.438,62.258,288.174,62.418z M289.488,48.598
			c-0.262,0.16-0.482,0.135-0.656-0.079c-0.176-0.212-0.131-0.399,0.131-0.559c0.131-0.16,0.285-0.133,0.461,0.079
			C289.598,48.253,289.621,48.438,289.488,48.598z M288.963,45.963c0.043,0,0.088-0.054,0.131-0.16
			c0.088-0.105,0.133-0.266,0.133-0.479c0,0.213,0.043,0.372,0.131,0.479c0.043,0.106,0.09,0.16,0.133,0.16
			c-0.133,0.373-0.221,0.56-0.264,0.56C289.182,46.521,289.094,46.336,288.963,45.963z M287.912,34.699l0.262-0.318h-0.525
			c-0.131-0.161-0.207-0.32-0.229-0.479c-0.021-0.161-0.029-0.32-0.029-0.48c0.262-0.16,0.566-0.252,0.92-0.279
			c0.35-0.026,0.654-0.04,0.92-0.04c-0.178,0.213-0.266,0.533-0.266,0.959c0.133,0,0.295,0.067,0.492,0.2
			c0.195,0.134,0.297,0.28,0.297,0.439L287.912,34.699L287.912,34.699z M291.92,62.498c0,0.318-0.197,0.399-0.592,0.24v-0.959h0.789
			C291.986,61.938,291.92,62.178,291.92,62.498z M296.389,33.421h1.051l-0.264-0.64h0.527c-0.176,0-0.264,0.107-0.264,0.319
			c-0.045,0.107-0.045,0.214,0,0.32h1.051v0.639h-2.102V33.421L296.389,33.421z M294.549,49.557h1.314v0.641h-1.314V49.557z
			 M296.389,67.61h-2.432v-0.318h2.432V67.61z M297.176,63.056c-0.656,0-1.312,0.04-1.971,0.121
			c-0.656,0.079-1.336-0.066-2.037-0.439h2.957c-0.176-0.213-0.262-0.532-0.262-0.958h1.312L297.176,63.056L297.176,63.056z"/>
		<path fill="#FFFFFF" d="M375.895,39.891c0.05,0.116,0.105,0.214,0.157,0.323c1.028-0.287,1.356-0.685,1.804-1.85
			c-0.043-0.024-0.074-0.047-0.119-0.071c0.131-0.32,0.296-0.652,0.492-0.998c0.003-0.004,0.007-0.008,0.009-0.011
			c0.207-0.603,0.416-1.204,0.616-1.809c0-0.019-0.002-0.036-0.002-0.056c0.007,0.006,0.013,0.01,0.018,0.015
			c0.161-0.482,0.318-0.966,0.495-1.444c0.601-1.63,1.294-3.134,2.298-4.535c-0.005,0.005-0.013,0.008-0.018,0.012
			c-0.195,0.188-0.428,0.439-0.688,0.759c0.263-0.639,0.479-1.21,0.657-1.715c0.175-0.506,0.395-1,0.656-1.479
			c0.264-0.798,0.524-1.543,0.787-2.236c0.265-0.692,0.525-1.463,0.789-2.317c-0.352,0-0.612-0.106-0.789-0.319
			c-0.263,0.319-0.559,0.6-0.887,0.839c-0.329,0.24-0.559,0.626-0.688,1.158c-0.921,2.396-1.853,4.821-2.792,7.27
			c-0.943,2.45-1.873,4.952-2.795,7.507c-0.132,0.161-0.263,0.32-0.395,0.48C375.369,39.571,375.5,39.732,375.895,39.891z"/>
		<path fill="#FFFFFF" d="M383.319,73.241c0.043-0.133,0.132-0.279,0.263-0.439c0.139,0.168,0.241,0.315,0.325,0.45
			c0.271-0.223,0.591-0.411,0.989-0.572c-0.037-0.11-0.079-0.24-0.13-0.407c-0.119-0.252-0.239-0.503-0.36-0.755
			c-0.015,0-0.022,0.003-0.035,0.003c-0.025-0.091-0.061-0.173-0.09-0.263c-0.069-0.146-0.141-0.29-0.209-0.436
			c-0.381-0.762-0.768-1.525-1.129-2.295c-1.006-2.131-2.422-4.292-2.97-6.582l-0.071-0.09l0.039-0.048
			c-0.047-0.207-0.085-0.414-0.115-0.624c-0.067,0.02-0.133,0.032-0.188,0.032c-0.263-0.639-0.581-1.345-0.95-2.116
			c-0.373-0.771-0.778-1.585-1.218-2.438c-0.132-0.161-0.229-0.412-0.296-0.758c-0.063-0.347-0.229-0.52-0.493-0.52
			c0,0.159,0.013,0.332,0.033,0.52c0.021,0.187,0.101,0.439,0.229,0.758c1.227,2.45,2.388,4.938,3.481,7.469
			c1.095,2.53,2.233,4.993,3.417,7.39c-0.132,0.161-0.264,0.269-0.395,0.319c-0.132,0.055-0.265,0.16-0.396,0.319
			c-0.307-0.747-0.745-0.958-1.312-0.64c-0.656,0.16-1.26,0.387-1.809,0.68c-0.548,0.293-1.084,0.599-1.607,0.919
			c-3.067,1.49-6.188,2.608-9.364,3.354c-3.177,0.745-6.429,1.038-9.758,0.878c-2.804-0.16-5.509-0.838-8.115-2.038
			c-2.604-1.198-5.026-2.781-7.261-4.751c0.132,0.159,0.315,0.438,0.559,0.837c0.147,0.244,0.301,0.469,0.457,0.685
			c0.256,0.186,0.516,0.369,0.771,0.554c0.02-0.004,0.033,0.004,0.054,0c0.219-0.054,0.396,0,0.526,0.16
			c0.447,0.438,0.903,0.83,1.363,1.207c0.688,0.471,1.383,0.927,2.081,1.368c0.271,0.132,0.536,0.27,0.824,0.38
			c-0.036,0.033-0.058,0.051-0.088,0.079c0.626,0.378,1.264,0.734,1.907,1.079c0.009-0.066,0.021-0.132,0.021-0.199
			c0.231,0.141,0.463,0.341,0.694,0.586c0.055,0.027,0.105,0.06,0.161,0.087c0.414,0.185,0.826,0.374,1.239,0.559
			c0.039,0.019,0.078,0.029,0.119,0.048c0.077,0.006,0.151,0.004,0.23,0.018c0.062,0.009,0.121,0.024,0.182,0.035
			c0.438-0.053,0.876-0.037,1.314,0.068c0.789,0.186,1.599,0.359,2.432,0.52c0.657,0.159,1.368,0.252,2.137,0.279
			c0.767,0.025,1.545,0.04,2.332,0.04c0.699-0.319,1.436-0.415,2.201-0.279c0.768,0.132,1.544,0.119,2.332-0.04
			c0.525,0,1.008-0.094,1.445-0.28c0.383-0.163,0.802-0.186,1.252-0.083c0.135-0.061,0.271-0.118,0.409-0.178
			c0.069-0.073,0.135-0.152,0.212-0.219c0.153-0.132,0.383-0.2,0.688-0.2l0.022,0.026c2.124-0.848,4.377-1.525,6.456-2.306
			c0.149-0.055,0.302-0.099,0.452-0.148c-0.1-0.035-0.196-0.068-0.294-0.129c0.655-0.319,1.323-0.65,2.004-0.998
			c0.679-0.347,1.412-0.681,2.201-0.998c0,0.054,0.043,0.106,0.131,0.159c0.088,0.107,0.219,0.16,0.395,0.16
			C383.188,73.44,383.275,73.376,383.319,73.241z"/>
		<path fill="#FFFFFF" d="M381.217,66.73c-0.523-1.223-1.051-2.314-1.577-3.273c-0.832-1.917-1.687-3.781-2.562-5.59
			c-0.877-1.811-1.708-3.596-2.497-5.353c-0.131,0.159-0.263,0.308-0.396,0.438c-0.131,0.134-0.263,0.201-0.394,0.201
			c0.131,0.479,0.24,0.894,0.328,1.236c0.088,0.348,0.063,0.68-0.065,0.999c-0.132,0.479-0.359,0.878-0.688,1.199
			c-0.328,0.318-0.624,0.559-0.887,0.719c-0.525,0.374-1.106,0.72-1.741,1.038c-0.638,0.319-1.216,0.641-1.741,0.958
			c-1.314,0.481-2.651,0.92-4.009,1.319c-1.358,0.399-2.762,0.599-4.205,0.599c-1.445,0-2.881-0.212-4.304-0.639
			c-1.426-0.427-2.729-0.959-3.91-1.599c0-0.081-0.014-0.164-0.034-0.243c-0.169-0.129-0.333-0.265-0.484-0.415
			c-0.225-0.156-0.386-0.347-0.496-0.556c-0.049-0.062-0.082-0.132-0.128-0.196c-0.021,0.045-0.036,0.103-0.072,0.132
			c-0.064,0.054-0.132,0.067-0.195,0.04c-0.065-0.026-0.032-0.172,0.097-0.435c-0.144-0.214-0.297-0.424-0.422-0.644h-0.693
			l-0.789-1.918c-0.131-0.317-0.107-0.559,0.066-0.719c0.019-0.017,0.033-0.021,0.05-0.036c-0.191-0.483-0.359-0.976-0.502-1.48
			h-0.14c0-0.211-0.02-0.449-0.043-0.699c-0.708-3.113-0.456-6.511,0.645-9.287h-0.339v-0.32c0.206,0,0.38-0.05,0.525-0.144
			c0.19-0.436,0.398-0.859,0.637-1.255c0.725-1.217,1.614-2.288,2.62-3.217c0.221-0.474,0.694-0.861,1.42-1.161
			c0.238-0.17,0.481-0.331,0.729-0.487c-0.019-0.074-0.034-0.149-0.085-0.208c0.15,0,0.292-0.01,0.439-0.015
			c0.721-0.426,1.477-0.792,2.261-1.094c-0.004-0.048-0.007-0.101-0.007-0.168c0.657-0.161,1.325-0.32,2.005-0.48
			c0.68-0.16,1.412-0.319,2.201-0.479c0,0.055,0.012,0.108,0.021,0.164c0.146-0.014,0.294-0.025,0.438-0.035
			c0.024-0.04,0.035-0.093,0.063-0.129h1.052l-0.084,0.103c1.188,0.006,2.393,0.145,3.594,0.424
			c-0.016-0.071-0.027-0.142-0.027-0.208c0.525,0,0.876,0.107,1.053,0.32l-0.092,0.109c0.083,0.009,0.166,0.016,0.253,0.035
			c1.649,0.382,3.492,1.07,4.486,2.064c0.05,0.008,0.093,0.029,0.147,0.029c0.132-0.16,0.263-0.265,0.395-0.32
			c0.131-0.052,0.265-0.159,0.396-0.319v1.598l0.788,0.959c0.132-0.32,0.252-0.585,0.359-0.799c0.109-0.212,0.164-0.48,0.164-0.798
			c1.052-2.929,2.157-5.777,3.318-8.546c1.16-2.768,2.268-5.62,3.316-8.548c-0.351,0-0.611-0.105-0.787-0.32
			c-0.264,0.32-0.536,0.601-0.82,0.839c-0.286,0.24-0.624,0.28-1.021,0.119c-0.964-0.318-1.95-0.73-2.957-1.236
			c-1.009-0.505-1.972-0.839-2.892-0.998c-0.263-0.161-0.482-0.252-0.657-0.28c-0.175-0.025-0.394-0.04-0.656-0.04v-0.319h-0.854
			c-1.972-0.639-4.009-1.051-6.111-1.237s-4.205-0.201-6.308-0.04c-1.93,0.107-3.855,0.426-5.782,0.959
			c-1.929,0.534-3.769,1.318-5.52,2.356c-1.753,1.039-3.396,2.304-4.931,3.794c-1.534,1.492-2.848,3.194-3.94,5.111h0.788v0.32
			h-0.788c-1.974,2.983-3.222,6.418-3.745,10.304h1.051c0-0.052-0.044-0.186-0.131-0.4c-0.044-0.052-0.089-0.13-0.132-0.239h0.523
			l-0.263,0.319h0.263c0,0.32,0.165,0.454,0.493,0.4c0.329-0.053,0.624-0.08,0.887-0.08v0.638h-2.955
			c-0.525,3.41-0.637,6.831-0.328,10.266c0.306,3.435,1.115,6.696,2.432,9.785c0.174,0.64,0.427,1.158,0.756,1.558
			c0.328,0.399,0.624,0.838,0.887,1.318c0.133,0,0.273,0.054,0.429,0.159c0.151,0.107,0.359,0.161,0.624,0.161v0.64h-0.788
			c0.479,0.904,1.095,1.65,1.84,2.236c0.263,0.852,0.667,1.491,1.216,1.916c0.547,0.426,1.02,0.878,1.412,1.357
			c0.132,0.161,0.219,0.308,0.264,0.439c0.043,0.134,0.132,0.2,0.265,0.2c0,0.32,0.074,0.507,0.229,0.561s0.361,0.08,0.624,0.08
			c2.234,1.917,4.709,3.368,7.426,4.354c2.717,0.984,5.541,1.477,8.479,1.477c-0.045,0-0.089-0.053-0.132-0.16
			c-0.089-0.105-0.132-0.266-0.132-0.479h1.312c-0.044,0.108-0.088,0.188-0.131,0.239c-0.089,0.213-0.132,0.348-0.132,0.399
			c2.146,0,4.26-0.227,6.341-0.681c2.08-0.452,4.129-1.104,6.144-1.956c1.053-0.479,2.113-1.012,3.188-1.599
			c1.072-0.584,2.223-1.118,3.449-1.598c0.395-0.161,0.767-0.212,1.115-0.161c0.353,0.055,0.594,0.319,0.725,0.799
			c0.264-0.16,0.471-0.307,0.625-0.438c0.15-0.132,0.295-0.201,0.427-0.201C382.27,69.127,381.742,67.957,381.217,66.73z
			 M339.558,60.261h-2.103l1.051-0.318l-0.263-0.319h1.312L339.558,60.261L339.558,60.261z M368.732,18.963h1.051
			c0.132,0,0.219-0.054,0.263-0.161c0.044-0.105,0.132-0.16,0.264-0.16v-0.639c0.133,0.16,0.176,0.388,0.133,0.68
			c-0.046,0.294,0,0.599,0.132,0.918h-1.84L368.732,18.963L368.732,18.963z M364.658,17.365c0.566,0.056,1.052,0.161,1.445,0.32
			c0,0.214-0.046,0.374-0.133,0.481c-0.044,0.106-0.089,0.159-0.132,0.159h1.052l-0.263,0.32c0.131,0,0.263,0.055,0.396,0.159
			c0.132,0.107,0.263,0.161,0.395,0.161c0,0.161-0.012,0.373-0.033,0.64c-0.021,0.267-0.099,0.479-0.229,0.638h-2.365
			c0.395-0.159,0.634-0.451,0.723-0.877c0.087-0.425,0.197-0.879,0.328-1.358c-0.395,0-0.8,0.04-1.216,0.12
			c-0.416,0.08-0.821,0.04-1.215-0.12C363.673,17.525,364.089,17.313,364.658,17.365z M362.982,23.517
			c0.195-0.213,0.428-0.24,0.688-0.081c0.131,0.373,0.065,0.667-0.197,0.878c-0.263,0.214-0.46,0.16-0.592-0.16
			C362.753,23.943,362.785,23.729,362.982,23.517z M356.148,27.67c0.107-0.053,0.229-0.16,0.36-0.32c0.265,0.32,0.265,0.639,0,0.959
			c-0.176,0-0.308-0.052-0.395-0.159c-0.089-0.054-0.132-0.106-0.132-0.161C355.984,27.83,356.039,27.724,356.148,27.67z
			 M345.668,67.37h-1.051v-0.64h1.051V67.37z M346.194,47.96c-0.132-0.641-0.154-1.345-0.066-2.118
			c0.088-0.771,0.197-1.558,0.329-2.357c0.131-2.288,0.744-4.353,1.84-6.189c1.095-1.837,2.521-3.315,4.271-4.435
			c-0.044-0.104-0.065-0.211-0.065-0.318c-0.044-0.106-0.065-0.201-0.065-0.28c0-0.078-0.044-0.119-0.132-0.119
			c0.265,0,0.404,0.028,0.43,0.08c0.021,0.055-0.033,0.268-0.165,0.64c0.524-0.161,1.008-0.386,1.444-0.68
			c0.438-0.292,0.921-0.519,1.445-0.679h-0.788c0-0.16-0.045-0.372-0.132-0.641c-0.088-0.265-0.132-0.479-0.132-0.639
			c0.264,0,0.524,0.055,0.789,0.16c0.263,0.107,0.523,0.161,0.788,0.161c0,0.426-0.089,0.639-0.265,0.639
			c2.54-0.639,5.146-0.811,7.819-0.519c2.672,0.294,5.191,1.026,7.557,2.196c1.097,0.641,1.993,1.385,2.694,2.237
			c-1.358-0.798-2.75-1.438-4.173-1.917c-1.424-0.479-2.858-0.825-4.304-1.039c-1.49-0.159-3.002-0.2-4.534-0.119
			c-1.534,0.08-3.045,0.466-4.534,1.158c-0.263,0-0.384,0.119-0.361,0.36c0.021,0.24-0.031,0.439-0.164,0.6h-0.523l0.263-0.64
			c-0.132,0.159-0.263,0.268-0.395,0.318c-0.132,0.055-0.265,0.161-0.396,0.32c-1.184,0.479-2.323,1.252-3.417,2.317
			c-1.096,1.066-1.906,2.316-2.432,3.754c-0.788,1.332-1.238,2.835-1.349,4.513c-0.109,1.678-0.099,3.423,0.032,5.232
			c0.132,1.118,0.372,2.171,0.725,3.154c0.351,0.986,0.724,1.958,1.115,2.916c-0.92-0.958-1.607-2.169-2.067-3.634
			C346.818,50.929,346.457,49.451,346.194,47.96z M350.597,66.052c-0.089,0.293-0.132,0.52-0.132,0.679h-1.38v-1.038
			c-0.351,0-0.525-0.105-0.525-0.318h2.169C350.729,65.532,350.684,65.76,350.597,66.052z M355.459,64.095
			c-0.132,0.32-0.361,0.427-0.689,0.32c-0.327-0.106-0.36-0.32-0.099-0.641c0.131-0.16,0.328-0.187,0.591-0.081
			C355.524,63.803,355.591,63.936,355.459,64.095z M365.841,65.692h-0.263l0.263-0.639h-0.788c0.043,0,0.087-0.053,0.131-0.16
			c0.09-0.106,0.134-0.268,0.134-0.479H364.2v-0.959c0.306,0,0.547,0.054,0.723,0.159c0.175,0.107,0.396,0.161,0.657,0.161
			c0,0.213-0.044,0.372-0.132,0.479c-0.044,0.106-0.088,0.16-0.131,0.16h0.523V65.692z"/>
		<path fill="#FFFFFF" d="M435.624,67.529v-0.958h0.453c0.007-0.02,0.014-0.042,0.021-0.062l-0.211-0.258
			c0.142-0.168,0.304-0.312,0.453-0.466c0.432-1.144,0.971-2.259,1.436-3.408c-0.019,0.016-0.029,0.026-0.049,0.041
			c0.133-0.373,0.265-0.771,0.396-1.199c0.132-0.426,0.264-0.799,0.395-1.119c0.002,0,0.005-0.001,0.007-0.001
			c0.526-2.216,0.906-4.498,1.159-6.782c-0.039-0.001-0.073-0.007-0.112-0.007c0-0.319,0.054-0.651,0.164-0.998
			c0.049-0.157,0.083-0.329,0.108-0.513c0.072-0.863,0.128-1.723,0.158-2.578c0.004-0.104,0.025-0.195,0.056-0.283
			c-0.054,0.073-0.106,0.135-0.158,0.218c0-0.639-0.013-1.21-0.033-1.715c-0.022-0.506-0.121-0.998-0.295-1.479
			c0.082,0.068,0.188,0.15,0.305,0.237c-0.088-0.648-0.118-1.301-0.065-1.954c-0.076,0.012-0.151,0.017-0.237,0.041
			c0-0.48-0.046-0.904-0.133-1.279c-0.089-0.372-0.132-0.797-0.132-1.276c0.058,0,0.104-0.024,0.158-0.033
			c0.017-0.045,0.021-0.095,0.039-0.14c-0.024-0.54-0.089-1.071-0.174-1.599c-0.152-0.087-0.327-0.145-0.55-0.145
			c-0.131-0.641-0.273-1.277-0.429-1.917c-0.152-0.64-0.359-1.306-0.624-1.997c0.05,0.029,0.096,0.073,0.143,0.105
			c-0.245-0.568-0.521-1.179-0.702-1.782c-0.122-0.294-0.251-0.588-0.392-0.88c-0.154-0.319-0.361-0.64-0.624-0.96l0.263-0.318
			c-0.525-0.479-0.953-1.012-1.281-1.598c-0.329-0.584-0.688-1.119-1.084-1.598c-0.132-0.159-0.229-0.318-0.296-0.479
			c-0.065-0.16-0.229-0.24-0.493-0.24l0.265-0.32l-0.525,0.32l0.263-0.641h-0.591l0.328-0.318h-0.328
			c-1.184-1.758-2.497-3.329-3.942-4.713c-1.444-1.385-3.046-2.502-4.797-3.355c-2.541-1.438-5.203-2.329-7.982-2.676
			c-2.782-0.344-5.51-0.2-8.183,0.439c-2.541,0.48-4.961,1.386-7.261,2.716c-2.3,1.333-4.304,3.116-6.013,5.352
			c-1.445,1.972-2.686,4.114-3.712,6.43c-1.03,2.318-1.741,4.703-2.137,7.15c0.396,0,0.831,0.015,1.313,0.04
			c0.481,0.028,0.94,0.12,1.38,0.279h-2.693c-0.396,2.397-0.593,4.859-0.593,7.39c0,2.529,0.197,4.992,0.593,7.39
			c0.396,2.608,1.084,5.19,2.069,7.748c0.985,2.557,2.332,4.712,4.041,6.472c0.395,0.639,0.799,1.198,1.215,1.678
			c0.416,0.479,0.889,0.906,1.413,1.277l-0.263,0.318c0.263-0.161,0.47-0.146,0.624,0.041c0.152,0.188,0.315,0.279,0.493,0.279
			c2.76,2.395,5.837,3.9,9.229,4.512c3.396,0.612,6.757,0.602,10.087-0.04c2.54-0.317,4.973-1.169,7.294-2.556
			c2.321-1.383,4.402-3.222,6.242-5.512c0.264-0.48,0.525-0.904,0.788-1.278c0.263-0.372,0.525-0.799,0.789-1.278
			c0.174-0.158,0.306-0.332,0.394-0.519c0.09-0.187,0.066-0.439-0.063-0.758c0.263,0,0.427-0.053,0.493-0.16
			c0.063-0.105,0.164-0.161,0.296-0.161c0.788-1.49,1.412-3.021,1.872-4.593c0.46-1.57,0.888-3.155,1.281-4.753h-3.153v-0.318h3.153
			c0.524-3.888,0.646-7.895,0.359-12.023c-0.285-4.126-1.281-7.973-2.988-11.542c0-0.211,0.088-0.425,0.264-0.64
			c0.132,0.481,0.315,0.96,0.559,1.439c0.24,0.479,0.493,0.958,0.756,1.438c0.788,2.13,1.392,4.301,1.809,6.512
			c0.416,2.209,0.688,4.459,0.82,6.749c0.132,3.194-0.089,6.432-0.656,9.706c-0.569,3.273-1.577,6.377-3.022,9.307
			c-0.524,1.276-1.227,2.437-2.103,3.475c-0.878,1.039-1.774,2.144-2.694,3.314c-0.263,0.161-0.481,0.318-0.657,0.479
			c-0.175,0.161-0.394,0.318-0.656,0.479c-2.276,1.757-4.696,3.049-7.262,3.874c-2.562,0.826-5.092,1.237-7.589,1.237
			c-2.673,0-5.29-0.413-7.854-1.237c-2.562-0.825-4.896-2.117-6.997-3.874c0.132,0.317,0.238,0.651,0.329,0.998
			c0.019,0.073,0.047,0.127,0.077,0.179c0.069,0.046,0.146,0.099,0.227,0.158c0.112,0.024,0.249,0.012,0.419-0.056
			c0.394,0.318,0.799,0.64,1.216,0.958c0.415,0.32,0.887,0.64,1.412,0.958c-0.056,0.069-0.124,0.137-0.195,0.204
			c0.545,0.35,1.102,0.692,1.686,0.972c0.947,0.459,1.927,0.872,2.921,1.261c0.042-0.062,0.085-0.119,0.125-0.2
			c1.052,0.32,2.103,0.585,3.153,0.799c0.98,0.198,1.985,0.369,3.008,0.522c0.488,0.012,0.979,0.016,1.472,0.003
			c0.599-0.021,1.199-0.053,1.802-0.095c0.952-0.328,2.131-0.301,3.249-0.393c0.615-0.107,1.229-0.24,1.839-0.387
			c0.562-0.205,1.106-0.437,1.644-0.683v-0.088c0.062,0,0.135-0.003,0.201-0.005c1.491-0.697,2.918-1.493,4.407-2.151
			c-0.023-0.027-0.05-0.049-0.075-0.08c0.524-0.162,0.964-0.439,1.313-0.839c0.252-0.286,0.551-0.382,0.896-0.297
			c0.12-0.117,0.245-0.23,0.372-0.344c0.022-0.217,0.109-0.393,0.276-0.517c0.284-0.213,0.561-0.399,0.821-0.562
			c0.015,0.037,0.019,0.062,0.032,0.097c0.584-0.496,1.163-1,1.673-1.575c0.023-0.027,0.041-0.06,0.063-0.089
			c-0.114,0.027-0.252,0.076-0.424,0.171c-0.241,0.133-0.427,0.277-0.559,0.438c0.438-0.48,0.811-0.972,1.117-1.479
			c0.307-0.504,0.655-0.998,1.052-1.477c0.059-0.013,0.131-0.009,0.189-0.02c0.112-0.214,0.227-0.427,0.357-0.637
			c0.21-0.329,0.447-0.64,0.688-0.943h-0.188L435.624,67.529L435.624,67.529z M400.042,43.207c0.197-1.518,0.559-2.996,1.084-4.433
			c0.526-1.438,1.228-2.715,2.103-3.834c1.01-1.331,2.19-2.397,3.551-3.196c1.355-0.797,2.793-1.318,4.304-1.558
			c1.512-0.239,3.012-0.172,4.501,0.2c1.489,0.374,2.869,1.038,4.14,1.998c0.526,0.32,1.01,0.708,1.446,1.159
			c0.438,0.453,0.92,0.919,1.445,1.398c-0.789-0.641-1.589-1.237-2.398-1.798c-0.812-0.56-1.697-0.918-2.661-1.078
			c-1.183-0.319-2.354-0.519-3.516-0.599c-1.161-0.08-2.289,0.12-3.384,0.599c-1.753,0.319-3.417,1.277-4.994,2.876
			c-0.569,0.479-1.106,1.106-1.609,1.877c-0.505,0.773-0.953,1.557-1.348,2.356c-0.92,1.915-1.479,3.98-1.676,6.19
			c-0.196,2.211-0.164,4.433,0.099,6.671c0.263,1.172,0.603,2.315,1.021,3.433c0.416,1.121,0.951,2.237,1.608,3.355
			c-0.524-0.799-1.041-1.61-1.544-2.435c-0.505-0.826-0.953-1.745-1.348-2.757c0-0.16-0.065-0.372-0.197-0.639
			c-0.131-0.267-0.328-0.479-0.591-0.64h0.524c-0.396-1.438-0.637-2.942-0.724-4.514C399.789,46.27,399.845,44.724,400.042,43.207z
			 M403.36,68.209c-0.396,0.027-0.788,0.121-1.185,0.28c-0.263-0.161-0.581-0.253-0.953-0.28c-0.372-0.025-0.756-0.04-1.147-0.04
			v-1.277h2.891c-0.175,0-0.263,0.107-0.263,0.319c-0.044,0.107-0.044,0.213,0,0.318h1.052c0.131,0.161,0.263,0.269,0.396,0.32
			c0.131,0.054,0.263,0.159,0.394,0.318C404.149,68.169,403.755,68.183,403.36,68.209z M418.342,64.335
			c-0.394,0.161-0.832,0.253-1.312,0.28c-0.483,0.026-0.92,0.04-1.314,0.04v-0.96h0.525c0-0.052-0.044-0.186-0.131-0.399
			c-0.046-0.052-0.091-0.131-0.134-0.24h1.842c-0.178,0.214-0.265,0.534-0.265,0.959h0.788V64.335L418.342,64.335z M420.479,65.772
			c-0.021,0.161-0.1,0.319-0.229,0.479c0-0.21-0.176-0.317-0.526-0.317v0.64c-0.131-0.16-0.307-0.332-0.523-0.52
			c-0.22-0.187-0.328-0.438-0.328-0.757h1.643C420.511,65.452,420.499,65.613,420.479,65.772z M423.401,64.655
			c-0.177,0-0.309-0.054-0.396-0.161c-0.089-0.054-0.132-0.106-0.132-0.161c0-0.211,0.065-0.357,0.197-0.438
			c0.131-0.08,0.251-0.08,0.359,0c0.108,0.081,0.177,0.188,0.197,0.319C423.653,64.348,423.576,64.494,423.401,64.655z
			 M423.664,69.768v-0.641c0.044,0,0.197-0.053,0.46-0.16c0.088-0.053,0.197-0.105,0.329-0.16c0.131,0.16,0.219,0.319,0.263,0.479
			c0.043,0.159,0.132,0.318,0.263,0.479L423.664,69.768L423.664,69.768z M420.511,59.781c-0.395,0.319-0.8,0.64-1.216,0.958
			c-0.417,0.32-0.821,0.641-1.216,0.959c-2.104,1.013-4.369,1.397-6.801,1.158c-2.434-0.238-4.589-1.265-6.475-3.075
			c0.079,0,0.168,0.014,0.263,0.036c-3.086-2.923-3.479-8.499-3.211-12.09c0.063-0.86,0.425-2.285,1.034-3.679
			c-0.066-0.045-0.135-0.083-0.188-0.083c0.132-0.318,0.252-0.65,0.36-0.998c0.108-0.347,0.164-0.758,0.164-1.237
			c0.071,0,0.125-0.023,0.188-0.033c0.354-1.524,1.33-3.276,2.668-4.591c0.033-0.058,0.066-0.108,0.1-0.169
			c0.014,0.014,0.028,0.029,0.041,0.042c0.39-0.364,0.8-0.7,1.237-0.974c0.091-0.139,0.201-0.269,0.338-0.381
			c0.423-0.347,0.915-0.659,1.435-0.95c0.003-0.005,0.005-0.01,0.007-0.016c0.152-0.292,0.359-0.519,0.624-0.679
			c0.655-0.16,1.336-0.359,2.037-0.598c0.698-0.241,1.444-0.36,2.232-0.36c0.525-0.16,1.095-0.2,1.708-0.119
			c0.613,0.08,1.186,0.119,1.709,0.119c0.191,0.077,0.371,0.151,0.542,0.223c0.42,0.106,0.818,0.231,1.188,0.379
			c0.141,0.019,0.278,0.037,0.438,0.037c-0.02,0.048-0.029,0.097-0.047,0.145c0.196,0.093,0.402,0.172,0.585,0.277
			c-0.003-0.033-0.012-0.072-0.012-0.1c0.131,0.161,0.306,0.268,0.523,0.318c0.221,0.056,0.396,0.162,0.525,0.32
			c-0.029,0.036-0.059,0.06-0.089,0.091c0.804,0.623,1.44,1.391,1.979,2.249c0.07-0.009,0.144-0.022,0.213-0.022
			c0.133,0.16,0.264,0.333,0.396,0.519c0.132,0.188,0.263,0.439,0.395,0.759c-0.043,0.108-0.064,0.187-0.064,0.239
			c-0.037,0.093-0.056,0.147-0.062,0.178c0.021,0.045,0.038,0.09,0.059,0.135c0.15-0.043,0.252,0.012,0.3,0.166
			c0.066,0.213,0.164,0.399,0.296,0.559c0.7,2.079,1.062,4.222,1.084,6.432c0.022,2.209-0.252,4.354-0.821,6.43h1.117v0.318h-1.117
			C424.146,55.762,422.656,58.132,420.511,59.781z M425.898,67.529c-0.265,0.107-0.396,0-0.396-0.318
			c-0.131-0.16-0.064-0.332,0.197-0.521c0.263-0.185,0.395-0.119,0.395,0.201C426.229,67.211,426.161,67.424,425.898,67.529z
			 M432.403,62.019h-1.313l0.264-0.641h-0.788v-0.64h1.312c0,0.214-0.044,0.375-0.131,0.48c-0.045,0.107-0.089,0.159-0.132,0.159
			h0.788V62.019z M433.587,29.267c-0.176-0.105-0.197-0.24-0.065-0.399c0.045,0,0.152,0.055,0.328,0.162
			c0.043,0.054,0.108,0.106,0.197,0.159C433.915,29.348,433.761,29.374,433.587,29.267z"/>
		<path fill="#FFFFFF" d="M487.518,69.625c0.403-0.856,0.914-1.662,1.413-2.492c-0.005,0-0.013-0.001-0.018-0.001
			c0.263-0.641,0.536-1.211,0.821-1.717c0.196-0.351,0.384-0.688,0.568-1.026c0.271-0.677,0.501-1.371,0.706-2.074
			c-0.062-0.021-0.128-0.03-0.189-0.055c0.131-0.318,0.218-0.586,0.263-0.797c0.043-0.213,0.131-0.48,0.263-0.8
			c0.033,0.015,0.064,0.02,0.099,0.032c0.154-0.652,0.296-1.305,0.43-1.951l-0.264,0.321c0.263-0.64,0.427-1.33,0.491-2.077
			c0.065-0.745,0.164-1.463,0.296-2.158c0.039,0.033,0.074,0.054,0.114,0.085c0.074-0.682,0.131-1.361,0.17-2.042
			c-0.089,0.02-0.179,0.04-0.284,0.04c0.133-0.319,0.207-0.625,0.229-0.919c0.021-0.291,0.033-0.519,0.033-0.679
			c0.041-0.05,0.073-0.086,0.1-0.112c0.033-1.062,0.052-2.122,0.076-3.182c-0.058,0.029-0.115,0.05-0.176,0.098
			c0-0.319-0.045-0.705-0.132-1.158c-0.088-0.453-0.133-0.945-0.133-1.478c0.133,0.319,0.252,0.651,0.36,0.998
			c0.049,0.155,0.083,0.307,0.11,0.456c0.021-0.698,0.059-1.396,0.104-2.094h-0.052l-0.036-0.045
			c-0.628-0.142-1.219-0.558-1.157-1.207c0.032-0.337,0.083-0.657,0.147-0.98c-0.021-1.019,0.012-2.057-0.079-3.078
			c-0.229-0.206-0.467-0.458-0.715-0.759c0-0.106,0.043-0.32,0.131-0.64c0.007-0.023,0.014-0.038,0.02-0.06
			c-0.021-0.06-0.06-0.104-0.07-0.174c-0.358-2.015-2.701-5.289-3.289-8.062c-0.187-0.244-0.356-0.498-0.502-0.769
			c-0.328-0.611-0.69-1.16-1.084-1.639c0.263,0.641,0.566,1.238,0.92,1.798c0.35,0.56,0.657,1.158,0.92,1.798
			c0.523,1.118,0.996,2.316,1.412,3.594c0.416,1.279,0.756,2.664,1.019,4.154c0.132,1.438,0.296,2.889,0.493,4.354
			c0.197,1.464,0.296,3.023,0.296,4.672c0,2.236-0.143,4.474-0.428,6.71c-0.285,2.235-0.777,4.394-1.479,6.471h1.116V61.3h-1.116
			l-0.789,1.916h1.054v0.399h-1.054c-1.052,2.876-2.539,5.327-4.468,7.349h2.365c0.263-0.479,0.568-0.903,0.92-1.276
			C487.485,69.667,487.5,69.645,487.518,69.625z"/>
		<path fill="#FFFFFF" d="M473.965,78.993c0.271-0.079,0.54-0.133,0.813-0.178c0.983-0.363,1.995-0.671,2.993-1.021
			c0.013-0.015,0.023-0.023,0.035-0.039c0,0.01-0.004,0.018-0.004,0.027c0.953-0.335,1.896-0.712,2.788-1.22
			c2.189-1.246,3.979-2.888,5.64-4.638c-0.06-0.038-0.102-0.089-0.109-0.162c-0.023-0.16,0.032-0.318,0.164-0.479h-2.366
			c-1.356,1.491-2.913,2.77-4.665,3.834c-1.752,1.066-3.57,1.838-5.454,2.316c0,0.424,0.088,0.745,0.266,0.958h-0.789
			c0.043,0,0.088-0.055,0.132-0.161c0.087-0.106,0.131-0.267,0.131-0.479h-1.577c0,0.161,0.044,0.372,0.132,0.64
			c0.087,0.267,0.132,0.48,0.132,0.64C472.749,79.192,473.329,79.178,473.965,78.993z"/>
		<path fill="#FFFFFF" d="M469.168,77.795c-0.417-0.026-0.821-0.041-1.216-0.041h-14.324c-1.446,0-2.903,0.015-4.37,0.041
			c-1.468,0.025-2.924,0.121-4.369,0.279v1.277h9.527c1.489,0,2.945-0.041,4.37-0.121c1.423-0.08,2.812-0.039,4.172,0.121
			c1.313-0.16,2.617-0.201,3.91-0.121c1.291,0.08,2.551,0.121,3.778,0.121c0-0.319,0.054-0.573,0.164-0.759
			c0.106-0.187,0.229-0.358,0.359-0.519h-0.788C469.989,77.915,469.584,77.82,469.168,77.795z"/>
		<path fill="#FFFFFF" d="M489.57,49.877c0.132-0.106,0.283-0.161,0.46-0.161c0.132-1.809,0.175-3.595,0.132-5.351
			c-0.045-1.756-0.286-3.515-0.723-5.273h-0.266c0-0.16,0.044-0.332,0.132-0.519c0.087-0.185,0.134-0.464,0.134-0.837
			c-0.266-1.598-0.647-3.168-1.15-4.714c-0.504-1.543-1.084-2.981-1.741-4.313c-0.132-0.319-0.253-0.571-0.36-0.758
			c-0.109-0.187-0.163-0.359-0.163-0.519c-0.526-0.798-1.107-1.598-1.741-2.397c-0.637-0.798-1.307-1.598-2.005-2.397
			c-1.841-1.809-3.899-3.086-6.179-3.834c-2.275-0.745-4.531-1.198-6.768-1.356h-10.907c-0.657,0.159-1.312,0.212-1.972,0.159
			c-0.657-0.052-1.337,0-2.037,0.16c0,0.161,0.043,0.269,0.132,0.32c0.087,0.054,0.131,0.159,0.131,0.32
			c-0.131,0-0.263,0.053-0.395,0.159c-0.131,0.108-0.263,0.161-0.396,0.161h-0.263l0.263,0.319h-0.263
			c-0.132,0.16-0.209,0.373-0.229,0.639c-0.021,0.269-0.032,0.479-0.032,0.641c-0.131-0.48-0.208-0.945-0.229-1.398
			c-0.021-0.453-0.033-0.839-0.033-1.159h-0.786l0.263,0.64h-0.788c0.043,0,0.087-0.054,0.131-0.161
			c0.088-0.107,0.132-0.267,0.132-0.479c-1.577-0.161-3.166-0.211-4.764-0.161c-1.602,0.054-3.188,0-4.765-0.159v1.597
			c0.263,0,0.567,0.028,0.92,0.081c0.351,0.054,0.655,0.24,0.92,0.559c0.263,0.16,0.372,0.439,0.329,0.838
			c-0.044,0.399-0.066,0.786-0.066,1.158v9.345c0.132,0.798,0.175,1.705,0.132,2.714c-0.044,1.014,0,1.918,0.132,2.716
			c-0.132,0.639-0.176,1.237-0.132,1.798c0.043,0.559,0,1.158-0.132,1.797v16.774c0,0.161,0.044,0.333,0.132,0.519
			c0.087,0.188,0.132,0.439,0.132,0.76c-0.132,1.118-0.176,2.25-0.132,3.395c0.043,1.146,0,2.383-0.132,3.713
			c0.132,0.64,0.175,1.277,0.132,1.916c-0.044,0.642,0,1.278,0.132,1.918c-0.045,0.161-0.045,0.294,0,0.399
			c0,0.159,0.088,0.348,0.265,0.56h-0.526c0,0.799,0.044,1.65,0.132,2.556c0.087,0.906-0.132,1.68-0.657,2.317h-0.107
			c0.008,0.017,0.021,0.026,0.03,0.042c0.041,0.093,0.068,0.185,0.098,0.276h0.244v0.959c0.132,0,0.263,0.055,0.395,0.16
			s0.265,0.16,0.396,0.16h20.961c1.312,0,2.596-0.081,3.844-0.24c1.249-0.16,2.53-0.399,3.844-0.719
			c0.353,0,0.526-0.212,0.526-0.641v0.641c0.788-0.319,1.62-0.665,2.497-1.04c0.875-0.372,1.643-0.877,2.3-1.517h0.263l-0.263-0.319
			c0.395,0,0.744-0.132,1.051-0.399c0.308-0.266,0.657-0.585,1.053-0.958c2.146-1.756,3.888-4.006,5.225-6.75
			c1.336-2.742,2.333-5.63,2.989-8.667c0.132-0.851,0.252-1.729,0.36-2.636c0.108-0.905,0.075-1.758-0.099-2.558h-0.526v-0.638
			C489.308,50.036,489.439,49.984,489.57,49.877z M446.695,64.415c-0.065,0.107-0.154,0.173-0.265,0.2
			c-0.108,0.026-0.188-0.092-0.229-0.359c0.043,0,0.088-0.053,0.132-0.16c0.087-0.106,0.131-0.266,0.131-0.479
			c0.175,0.107,0.273,0.24,0.296,0.399C446.782,64.174,446.761,64.309,446.695,64.415z M448.305,34.539
			c-0.131,0.16-0.229,0.187-0.295,0.081c-0.064-0.107-0.089-0.24-0.064-0.399c0.021-0.161,0.088-0.292,0.195-0.399
			c0.109-0.105,0.273-0.08,0.493,0.08L448.305,34.539z M455.796,24.874h0.525v-0.959h0.789c-0.178,0.214-0.265,0.534-0.265,0.959
			h1.313v0.32h-2.365L455.796,24.874L455.796,24.874z M457.8,37.136c0.066,1.624,0.101,3.235,0.101,4.833v21.248h-1.314v-4.152
			h-0.788v-0.319h0.788V30.705h10.843c1.357,0.16,2.748,0.519,4.172,1.078c1.426,0.561,2.598,1.479,3.518,2.756
			c-0.265-0.16-0.581-0.372-0.952-0.639c-0.373-0.267-0.756-0.48-1.15-0.64c-1.183-0.64-2.421-0.96-3.713-0.96h-11.398
			C457.768,33.901,457.734,35.512,457.8,37.136z M464.535,74.56h-1.84v-0.64c-0.569-0.16-1.106-0.227-1.609-0.201
			c-0.505,0.028-0.953-0.119-1.348-0.439h1.312c-0.132-0.639-0.208-1.29-0.229-1.956c-0.022-0.665-0.032-1.317-0.032-1.957h1.051
			v0.64h-0.788v1.598h0.788c-0.088,0.107-0.153,0.188-0.196,0.24c-0.045,0.055-0.064,0.133-0.064,0.24
			c-0.044,0.106-0.044,0.187,0,0.239h-0.525v0.64c0.265,0,0.646,0.067,1.149,0.201c0.504,0.131,0.756-0.04,0.756-0.52
			c0.132,0.159,0.208,0.373,0.229,0.639c0.021,0.269,0.031,0.479,0.031,0.64h1.314V74.56L464.535,74.56z M469.595,72.322h-0.854
			l0.264,0.64H466.9l0.264,0.318c-0.132,0-0.264-0.012-0.395-0.039c-0.134-0.025-0.265-0.12-0.396-0.279l0.263,0.641h-1.575
			c-0.046,0-0.046-0.055,0-0.162c0-0.105,0.088-0.265,0.264-0.479h-0.789v-0.318h3.417c0.132,0,0.219-0.054,0.263-0.161
			c0.043-0.105,0.132-0.16,0.264-0.16c0-0.106-0.045-0.266-0.132-0.479c-0.045-0.106-0.089-0.188-0.132-0.24h1.38V72.322
			L469.595,72.322z M465.587,64.574l0.263-0.64h1.842c0,0.212,0.043,0.374,0.131,0.48c0.044,0.106,0.088,0.159,0.132,0.159H465.587z
			 M469.857,63.936c0-0.161,0.043-0.332,0.132-0.519c0.087-0.187,0.131-0.36,0.131-0.52h2.366c0,0.533-0.11,0.786-0.329,0.758
			c-0.22-0.025-0.46-0.04-0.725-0.04c-0.263,0.159-0.523,0.253-0.786,0.279C470.384,63.924,470.12,63.936,469.857,63.936z
			 M470.12,67.13h1.312l-0.263-0.317c0.396,0,0.667,0.04,0.821,0.119c0.149,0.08,0.228,0.354,0.229,0.82
			c-0.056-0.124-0.141-0.227-0.263-0.301h-1.84v-0.319h0.003V67.13z M473.145,68.25c-0.09,0.159-0.133,0.317-0.133,0.479h-0.523
			c0.131,0.317,0.207,0.64,0.229,0.958c0.022,0.319,0.033,0.64,0.033,0.959h-1.312v-1.277h0.787c0-0.32,0.021-0.68,0.065-1.079
			c0.021-0.204,0.003-0.379-0.056-0.52h1.041C473.274,67.929,473.23,68.09,473.145,68.25z M478.334,54.828
			c-0.263,0.214-0.504,0.308-0.723,0.278c-0.222-0.024-0.328,0.229-0.328,0.759c-0.264,0.639-0.604,1.318-1.021,2.038
			c-0.417,0.719-0.888,1.317-1.413,1.796c-0.395,0.479-0.844,0.905-1.347,1.277c-0.505,0.374-1.019,0.799-1.545,1.278h-0.525
			l0.265,0.318c-1.752,0.317-3.439,0.494-5.062,0.52c-1.588,0.027-3.238-0.04-4.954-0.193c-0.277,0.231-0.642,0.323-1.013,0.287
			c-0.05,0.012-0.103,0.024-0.144,0.024c0-0.017,0.007-0.033,0.008-0.049c-0.485-0.09-0.945-0.374-1.162-0.831
			c-0.17-0.162-0.283-0.37-0.324-0.637c-0.018-0.113-0.014-0.246-0.025-0.363c-0.31-1.152-0.345-2.456-0.071-3.675v-2.432
			c0.069,0,0.132-0.014,0.2-0.018c-0.271-1.463-0.542-2.914-0.517-4.287c0.049-2.44,0.248-4.871,0.427-7.306
			c-0.037-0.017-0.071-0.037-0.11-0.055v-0.958c0.069,0,0.123-0.017,0.183-0.023c0.056-0.774,0.105-1.548,0.146-2.323
			c-0.011-0.08-0.021-0.162-0.031-0.243c-0.01,0.013-0.023,0.022-0.032,0.035v0.319c-0.148-0.58-0.205-1.229-0.183-1.931
			c-0.109-0.814-0.183-1.617-0.118-2.378c-0.334-0.461-0.285-1.102,0.104-1.519c-0.011-0.055-0.027-0.115-0.032-0.164
			c-0.022-0.213-0.032-0.479-0.032-0.799c0.411,0,0.806,0.009,1.21,0.014c0.216-0.149,0.499-0.243,0.849-0.254
			c2.198-0.065,4.647-0.12,6.844,0.31c0.386-0.024,0.765-0.032,1.151-0.068c0.268,0,0.53,0.022,0.795,0.039
			c0.316-0.264,0.761-0.417,1.288-0.32c2.232,0.41,4.154,1.811,5.067,3.641c0.108-0.054,0.232-0.11,0.34-0.167
			c0.789,1.651,1.336,3.41,1.643,5.273c0.309,1.864,0.46,3.782,0.46,5.752c-0.131,1.118-0.271,2.289-0.427,3.514
			c-0.155,1.227-0.36,2.396-0.624,3.516h0.787v0.004H478.334z M484.183,38.774h1.842v0.318h-1.842V38.774z M482.605,41.449
			c-0.789,0.08-1.514,0.04-2.171-0.119c0.526-0.16,1.097-0.253,1.71-0.28c0.611-0.025,1.203-0.04,1.772-0.04
			c0.132,0,0.219-0.053,0.264-0.16c0.043-0.106,0.132-0.159,0.265-0.159c-0.176-0.213-0.265-0.347-0.265-0.399
			c-0.045-0.053-0.045-0.132,0-0.24h1.313v0.64h-0.788c-0.044,0.107-0.044,0.187,0,0.24c0,0.055,0.087,0.187,0.263,0.398
			C484.183,41.329,483.395,41.369,482.605,41.449z M486.121,55.309c-0.329-0.055-0.625-0.081-0.888-0.081
			c0-0.212,0.043-0.453,0.132-0.72c0.087-0.266,0.131-0.479,0.131-0.639h0.789c0,0.16-0.044,0.317-0.132,0.479
			c-0.088,0.159-0.132,0.318-0.132,0.479h0.787C486.679,55.202,486.449,55.362,486.121,55.309z M489.176,55.229
			c-0.263,0-0.603,0.04-1.019,0.12s-0.689,0.04-0.821-0.12c0.132-0.372,0.405-0.533,0.821-0.479
			c0.416,0.054,0.756,0.079,1.019,0.079V55.229z"/>
		<path fill="#FFFFFF" d="M540.438,81c0.163-0.045,0.326-0.089,0.484-0.146c0.38-0.132,0.761-0.704,1.088-1.311
			c-0.138,0.107-0.287,0.226-0.464,0.369v-1.442c-0.07-0.146-0.111-0.309-0.096-0.494c0.27-3.19-0.676-6.364,0.096-9.406v-6.473
			h-1.052c-0.131,0.853-0.208,1.625-0.229,2.317c-0.021,0.691-0.031,1.437-0.031,2.234v13.323c0.002,0.004,0.006,0.005,0.008,0.01
			C540.384,80.202,540.412,80.608,540.438,81z"/>
		<path fill="#FFFFFF" d="M541.809,30.865c0.188,0.227,0.375,0.343,0.562,0.353c-0.011-0.75-0.048-1.503-0.099-2.256
			c-0.27-0.146-0.518-0.286-0.729-0.414v-1.917c0.132,0.16,0.307,0.318,0.525,0.48c0.026,0.02,0.05,0.041,0.075,0.062
			c-0.054-0.763-0.093-1.526-0.107-2.288c-0.146-0.111-0.309-0.17-0.493-0.17v-7.43h-1.052c-0.131,0.798-0.208,1.664-0.229,2.597
			c-0.021,0.933-0.031,1.796-0.031,2.596c0,1.597,0.011,3.195,0.031,4.793c0.021,1.598,0.101,3.224,0.229,4.873h0.789v-0.319h0.523
			v-0.959H541.809z"/>
		<path fill="#FFFFFF" d="M539.181,14.409h-1.115c0,0.481-0.058,0.946-0.164,1.399c-0.11,0.454-0.23,0.838-0.361,1.159
			c-0.264,0.318-0.537,0.453-0.821,0.397c-0.286-0.052-0.625-0.08-1.019-0.08c-0.92,0-1.896,0.056-2.925,0.162
			c-1.029,0.107-2.094,0.159-3.188,0.159v0.959h-0.788v-0.32l-0.264-0.318h-1.051v-0.32c-4.381-0.159-8.772-0.212-13.177-0.159
			c-4.4,0.054-8.858,0-13.37-0.161c-0.525,0-1.106,0.055-1.741,0.161c-0.637,0.107-1.281,0.159-1.938,0.159v0.959
			c0.396,0.16,0.843,0.32,1.35,0.48c0.503,0.159,0.755,0.64,0.755,1.438v52.642c0.132,0.64-0.088,1.119-0.656,1.438
			c-0.57,0.317-1.052,0.479-1.446,0.479v1.277h39.491c0.396,0,0.679,0.131,0.854,0.399c0.176,0.265,0.327,0.559,0.461,0.878
			c-6.528,0.16-12.97,0.212-19.318,0.16c-6.354-0.055-12.727,0-19.121,0.16v1.264c3.65-0.369,7.392-0.238,11.109-0.085
			c2.841-0.189,5.706-0.172,8.562-0.02c0.774,0.039,1.556,0.055,2.341,0.062v-0.262h0.526c0.244,0.147,0.529,0.231,0.851,0.267
			c3.161-0.021,6.367-0.166,9.485,0.054h0.834c0,0.015,0.005,0.029,0.006,0.046c1.977-0.264,4.16-0.435,5.588-0.046h0.255V59.228
			h-1.115c-0.091,0.319-0.145,0.679-0.164,1.078c-0.022,0.399-0.066,0.788-0.134,1.16c-0.063,0.373-0.176,0.68-0.326,0.918
			c-0.154,0.241-0.387,0.358-0.69,0.358c-3.329-0.16-6.646-0.211-9.955-0.16c-2.264,0.037-4.534,0.005-6.808-0.058
			c-1.566,0.599-3.417,0.571-5.082,0.375c-0.71-0.085-1.482-0.507-1.412-1.25c0.179-1.891-0.907-3.911,0.288-5.651
			c0.033-0.047,0.082-0.074,0.119-0.118c-0.005-0.002-0.015-0.005-0.019-0.007c-0.263-0.105-0.417-0.16-0.46-0.16l0.264-0.319
			c1.313-0.16,2.584-0.252,3.812-0.278c1.227-0.026,2.432-0.041,3.614-0.041c1.443,0.16,2.847,0.212,4.205,0.16
			c0.145-0.005,0.285,0.004,0.43,0c0.711-0.108,1.436-0.189,2.085-0.114c0.479,0.054,0.993,0.108,1.451,0.271
			c0.015,0.002,0.028,0.002,0.043,0.004V42.767c0-0.479,0.021-0.944,0.063-1.398c0.043-0.451-0.063-0.838-0.326-1.158
			c0.131-0.479,0.205-0.959,0.229-1.438c0.021-0.48,0.033-0.985,0.033-1.518h-1.052c0,0.692-0.145,1.306-0.429,1.836
			c-0.283,0.534-0.756,0.798-1.413,0.798h-9.479c-1.597,0.48-4.057,0.073-3.846-1.597c0.062-0.484,0.155-0.963,0.263-1.441
			c-0.195-0.504-0.371-1.021-0.501-1.589c-0.119-0.521,0.096-1.126,0.615-1.403c-0.021-0.038-0.043-0.072-0.062-0.12
			c0.405-0.225,0.712-0.247,0.934-0.094c3.66-0.613,7.312-0.65,11.013-0.497c3.323-0.436,6.701,0.271,10.054-0.013
			c0.706-0.06,2.181-0.303,3.445-0.228c-0.029-0.351-0.072-0.701-0.146-1.044c-0.132-0.611,0.021-1.159,0.46-1.639V14.409H539.181z
			 M536.224,26.631c0.133-0.32,0.284-0.374,0.46-0.161c0.177,0.213,0.197,0.479,0.065,0.799c-0.131,0.161-0.285,0.134-0.46-0.08
			C536.113,26.978,536.092,26.791,536.224,26.631z M534.384,27.271c0.131-0.159,0.284-0.132,0.46,0.079
			c0.175,0.214,0.197,0.4,0.065,0.56c-0.263,0.161-0.482,0.133-0.657-0.08C534.077,27.617,534.121,27.43,534.384,27.271z
			 M532.544,22.797h1.051v1.276h-1.051V22.797z M509.939,47.32c0-0.318,0.055-0.719,0.164-1.198
			c0.107-0.479-0.032-0.639-0.429-0.479v-0.64h0.526v0.64h0.591c0,0.372,0.043,0.666,0.132,0.879
			c0.087,0.213,0.131,0.479,0.131,0.798L509.939,47.32L509.939,47.32z M523.739,48.279h0.523v-0.96h0.593v-0.64h1.575v0.959
			l0.526,0.641h1.576v0.318h-1.313v0.959h-0.524c0-0.159-0.013-0.371-0.032-0.639c-0.022-0.268-0.099-0.479-0.229-0.641
			c-0.264-0.159-0.581-0.253-0.951-0.277c-0.373-0.027-0.778-0.04-1.218-0.04c0.177,0,0.265,0.212,0.265,0.639h-0.788
			L523.739,48.279L523.739,48.279z M514.736,47.32h0.524v1.277h-0.524V47.32z M524.265,52.113c0.568,0,1.062,0.016,1.479,0.039
			c0.416,0.028,0.821,0.121,1.216,0.279c0.263,0,0.481,0.135,0.656,0.4c0.175,0.267,0.395,0.559,0.657,0.878
			c-2.674-0.161-5.322-0.201-7.95-0.12c-2.629,0.08-5.279,0.12-7.951,0.12v9.025c-0.131,0-0.307-0.053-0.525-0.16
			c-0.22-0.106-0.395-0.161-0.524-0.161V52.111h12.942V52.113z M537.801,32.143h-25.43c0,1.278,0.011,2.57,0.033,3.874
			c0.021,1.306,0.099,2.703,0.229,4.194c0-0.213,0.175-0.32,0.526-0.32v0.959h-0.264v-0.639h-0.525v-0.32h-1.052v-9.345h25.43
			c0.395,0,0.7,0.187,0.92,0.559C537.888,31.478,537.932,31.823,537.801,32.143z"/>
		<path fill="#FFFFFF" d="M531.299,57.242c0.058-0.077,0.104-0.158,0.188-0.227c0.183-0.171,0.363-0.342,0.548-0.514
			c0.055-0.065,0.12-0.118,0.186-0.17c-0.011,0.004-0.024,0.013-0.037,0.017c-0.152,0.054-0.296,0.159-0.428,0.319
			c0-0.479-0.032-0.959-0.098-1.438c-0.066-0.479,0.054-0.985,0.359-1.518c-0.132-0.479-0.209-1.024-0.229-1.639
			c-0.022-0.61-0.033-1.236-0.033-1.876l0.264-0.319c-0.308-0.479-0.428-0.959-0.359-1.438c0.063-0.479,0.098-0.959,0.098-1.438
			v-6.79h-1.116c-0.132,0.798-0.165,1.585-0.099,2.354c0.064,0.773,0.099,1.479,0.099,2.118c-0.132,1.493-0.209,2.956-0.229,4.395
			c-0.022,1.438-0.033,2.876-0.033,4.313c0,0.693,0.011,1.357,0.033,1.997c0.014,0.407,0.059,0.815,0.117,1.224
			C530.763,56.91,531.038,57.187,531.299,57.242z"/>
	</g>
</g>
</svg>
