<?xml version="1.0" encoding="utf-8"?>
<!-- Generator: Adobe Illustrator 15.0.2, SVG Export Plug-In . SVG Version: 6.00 Build 0)  -->
<!DOCTYPE svg PUBLIC "-//W3C//DTD SVG 1.1//EN" "http://www.w3.org/Graphics/SVG/1.1/DTD/svg11.dtd">
<svg version="1.1" id="Layer_1" xmlns="http://www.w3.org/2000/svg" xmlns:xlink="http://www.w3.org/1999/xlink" x="0px" y="0px"
	 width="318.75px" height="65.75px" viewBox="0 0 318.75 65.75" enable-background="new 0 0 318.75 65.75" xml:space="preserve">
<g>
	<path fill="#FFFFFF" d="M3.033,7.132V2.982H15.13v4.149h-0.913v-3.19h-4.63v9.654h2.48v0.951H6.096v-0.951h2.48V3.941h-4.63v3.19
		H3.033z"/>
	<path fill="#FFFFFF" d="M16.439,2.982h5.64v0.942h-2.311v4.04h9.938v-4.04h-2.311V2.982h5.64v0.942h-2.318v9.671h2.318v0.951h-5.64
		v-0.951h2.311V8.941h-9.938v4.654h2.311v0.951h-5.64v-0.951h2.318V3.925h-2.318V2.982z"/>
	<path fill="#FFFFFF" d="M45.699,6.441V3.967h-8.008v3.981h6.165v0.977h-6.165v4.638h8.121v-2.651h0.913v3.636H34.362v-0.951h2.318
		V3.925h-2.318V2.982h12.241v3.459H45.699z"/>
	<path fill="#FFFFFF" d="M54.766,2.982h8.307c0.861,0,1.599,0.077,2.21,0.231s1.111,0.38,1.499,0.678
		c0.388,0.297,0.672,0.667,0.853,1.11c0.18,0.443,0.271,0.954,0.271,1.532s-0.091,1.089-0.271,1.531
		c-0.181,0.443-0.465,0.816-0.853,1.12c-0.388,0.303-0.888,0.531-1.499,0.686s-1.349,0.231-2.21,0.231h-4.978v3.493h2.311v0.951
		h-5.64v-0.951h2.318V3.925h-2.318V2.982z M66.797,6.534c0-0.55-0.083-0.993-0.25-1.33s-0.429-0.596-0.784-0.778
		s-0.81-0.305-1.361-0.366c-0.553-0.062-1.211-0.093-1.976-0.093h-4.331v5.151h4.331c0.296,0,0.609,0.001,0.941,0.004
		c0.331,0.003,0.659-0.014,0.985-0.051c0.326-0.036,0.636-0.101,0.93-0.193c0.293-0.093,0.554-0.234,0.779-0.425
		c0.227-0.19,0.405-0.44,0.538-0.749C66.731,7.396,66.797,7.005,66.797,6.534z"/>
	<path fill="#FFFFFF" d="M80.769,6.441V3.967h-8.008v3.981h6.165v0.977h-6.165v4.638h8.121v-2.651h0.913v3.636H69.432v-0.951h2.318
		V3.925h-2.318V2.982h12.241v3.459H80.769z"/>
	<path fill="#FFFFFF" d="M93.576,13.596h1.721l-2.9-4.031c-0.146,0.011-0.297,0.02-0.452,0.024
		c-0.157,0.006-0.318,0.009-0.485,0.009h-4.517v3.998h2.311v0.951h-5.64v-0.951h2.318V3.925h-2.318V2.982h7.846
		c0.846,0,1.57,0.068,2.174,0.206s1.096,0.345,1.479,0.623c0.383,0.277,0.663,0.624,0.841,1.039s0.267,0.9,0.267,1.456
		c0,0.864-0.219,1.556-0.654,2.075c-0.437,0.519-1.14,0.874-2.109,1.064l3.078,4.149h2.352v0.951h-5.309V13.596z M95.111,6.307
		c0-0.493-0.079-0.894-0.238-1.199s-0.423-0.543-0.792-0.711c-0.369-0.169-0.855-0.282-1.458-0.341
		c-0.604-0.06-1.35-0.089-2.238-0.089h-3.442v4.646h3.401c0.889,0,1.637-0.027,2.242-0.08c0.606-0.054,1.097-0.163,1.471-0.328
		c0.375-0.166,0.644-0.398,0.809-0.699C95.029,7.206,95.111,6.807,95.111,6.307z"/>
	<path fill="#FFFFFF" d="M99.879,14.547v-4.158h0.913v1.195c0,0.331,0.079,0.616,0.238,0.854s0.37,0.44,0.634,0.606
		c0.265,0.165,0.567,0.299,0.909,0.399c0.343,0.101,0.699,0.18,1.071,0.235c0.371,0.057,0.742,0.095,1.11,0.114
		c0.369,0.02,0.713,0.029,1.03,0.029c0.636,0,1.229-0.037,1.778-0.109c0.55-0.073,1.027-0.194,1.435-0.362
		c0.406-0.168,0.726-0.389,0.957-0.66c0.231-0.272,0.348-0.607,0.348-1.006c0-0.349-0.096-0.647-0.287-0.896
		c-0.191-0.25-0.452-0.466-0.783-0.648c-0.332-0.183-0.717-0.337-1.156-0.463c-0.438-0.126-0.906-0.241-1.401-0.345
		c-0.496-0.104-1.005-0.205-1.527-0.304c-0.522-0.098-1.032-0.207-1.527-0.328c-0.496-0.12-0.963-0.262-1.402-0.425
		c-0.438-0.163-0.824-0.359-1.155-0.589c-0.331-0.23-0.593-0.504-0.784-0.821c-0.191-0.316-0.286-0.694-0.286-1.132
		c0-0.387,0.073-0.73,0.222-1.031c0.148-0.3,0.351-0.56,0.606-0.778s0.556-0.402,0.9-0.552c0.345-0.148,0.71-0.266,1.096-0.354
		c0.385-0.087,0.783-0.149,1.195-0.188c0.412-0.04,0.814-0.06,1.208-0.06c0.555,0,1.073,0.037,1.556,0.109
		c0.482,0.073,0.917,0.167,1.305,0.282c0.389,0.115,0.723,0.243,1.002,0.383c0.28,0.141,0.499,0.281,0.655,0.421V2.982h0.913v3.636
		h-0.913v-0.74c0-0.309-0.096-0.594-0.287-0.854s-0.473-0.488-0.845-0.682c-0.371-0.194-0.832-0.346-1.382-0.455
		c-0.549-0.109-1.183-0.164-1.898-0.164c-0.652,0-1.239,0.038-1.762,0.113c-0.522,0.076-0.969,0.194-1.337,0.354
		c-0.369,0.16-0.652,0.365-0.849,0.615c-0.197,0.249-0.295,0.548-0.295,0.896c0,0.319,0.097,0.593,0.291,0.82
		c0.193,0.228,0.455,0.425,0.783,0.594c0.329,0.168,0.714,0.313,1.155,0.438c0.442,0.123,0.911,0.238,1.406,0.345
		c0.496,0.106,1.005,0.212,1.527,0.315c0.522,0.104,1.031,0.222,1.527,0.354c0.495,0.132,0.964,0.282,1.406,0.45
		c0.441,0.169,0.826,0.374,1.155,0.615c0.328,0.241,0.59,0.522,0.784,0.846c0.193,0.322,0.291,0.702,0.291,1.141
		c0,0.432-0.083,0.81-0.247,1.132s-0.385,0.601-0.662,0.833c-0.278,0.233-0.604,0.427-0.979,0.581
		c-0.374,0.154-0.771,0.276-1.188,0.366c-0.418,0.09-0.847,0.152-1.289,0.189c-0.441,0.036-0.872,0.055-1.293,0.055
		c-0.587,0-1.135-0.029-1.645-0.089c-0.509-0.059-0.974-0.143-1.394-0.252s-0.792-0.237-1.115-0.384
		c-0.323-0.146-0.593-0.308-0.808-0.487v0.984H99.879z"/>
	<path fill="#FFFFFF" d="M127.53,8.772c0,1.039-0.181,1.935-0.541,2.689c-0.361,0.755-0.856,1.378-1.487,1.869
		c-0.63,0.49-1.373,0.854-2.23,1.09c-0.856,0.235-1.78,0.354-2.771,0.354c-0.996,0-1.926-0.118-2.787-0.354
		c-0.862-0.236-1.611-0.6-2.247-1.09c-0.636-0.491-1.134-1.114-1.495-1.869c-0.36-0.755-0.541-1.65-0.541-2.689
		c0-0.689,0.084-1.316,0.251-1.881c0.166-0.563,0.4-1.068,0.702-1.515s0.667-0.832,1.096-1.157c0.428-0.326,0.904-0.597,1.43-0.812
		s1.09-0.376,1.693-0.479c0.603-0.104,1.236-0.156,1.898-0.156c0.991,0,1.915,0.118,2.771,0.354c0.857,0.236,1.601,0.6,2.23,1.09
		c0.631,0.491,1.126,1.114,1.487,1.869C127.35,6.839,127.53,7.735,127.53,8.772z M126.423,8.772c0-1.638-0.495-2.887-1.486-3.745
		s-2.47-1.288-4.437-1.288c-1.972,0-3.458,0.434-4.46,1.301s-1.503,2.111-1.503,3.732c0,1.639,0.501,2.888,1.503,3.746
		s2.488,1.288,4.46,1.288c1.967,0,3.445-0.43,4.437-1.288S126.423,10.411,126.423,8.772z"/>
	<path fill="#FFFFFF" d="M129.284,2.982h3.426l9.632,10.218V3.925h-2.319V2.982h5.641v0.942h-2.312v10.622h-1.106l-9.632-10.185
		v9.233h2.311v0.951h-5.64v-0.951h2.318V3.925h-2.318V2.982z"/>
	<path fill="#FFFFFF" d="M149.752,2.982h4.735l5.333,10.613h2.133v0.951h-5.647v-0.951h2.399l-1.471-2.979h-6.683l-1.495,2.979
		h2.416v0.951h-5.64v-0.951h2.133l4.849-9.671h-3.062V2.982z M153.889,4.001l-2.844,5.664h5.696L153.889,4.001z"/>
	<path fill="#FFFFFF" d="M162.286,2.982h5.64v0.942h-2.311v9.638h8.04v-2.651h0.913v3.636h-12.282v-0.951h2.318V3.925h-2.318V2.982z
		"/>
	<path fill="#FFFFFF" d="M181.113,2.982h5.64v0.942h-2.545l3.741,9.78L191.9,2.982h1.357l3.96,10.723l3.741-9.78h-2.554V2.982h5.648
		v0.942h-1.972l-4.104,10.622h-1.503l-3.896-10.445l-3.887,10.445h-1.503l-4.104-10.622h-1.972V2.982z"/>
	<path fill="#FFFFFF" d="M215.723,6.441V3.967h-8.008v3.981h6.165v0.977h-6.165v4.638h8.121v-2.651h0.913v3.636h-12.363v-0.951
		h2.318V3.925h-2.318V2.982h12.241v3.459H215.723z"/>
	<path fill="#FFFFFF" d="M218.567,2.982h8.573c0.317,0,0.636,0.014,0.953,0.042c0.318,0.028,0.624,0.08,0.917,0.155
		c0.294,0.076,0.566,0.182,0.816,0.315c0.251,0.135,0.469,0.312,0.654,0.53c0.187,0.219,0.332,0.483,0.437,0.792
		c0.105,0.309,0.157,0.673,0.157,1.094c0,0.376-0.044,0.701-0.133,0.977c-0.089,0.274-0.224,0.511-0.404,0.707
		s-0.41,0.357-0.69,0.483c-0.28,0.127-0.609,0.227-0.986,0.299c0.539,0.04,1.001,0.135,1.386,0.286
		c0.386,0.152,0.699,0.354,0.941,0.606c0.243,0.253,0.421,0.554,0.533,0.904c0.113,0.352,0.17,0.745,0.17,1.183
		c0,0.449-0.057,0.84-0.17,1.17c-0.112,0.332-0.271,0.616-0.473,0.854c-0.201,0.239-0.444,0.433-0.727,0.581
		c-0.283,0.148-0.596,0.267-0.938,0.354c-0.343,0.087-0.707,0.147-1.095,0.181c-0.389,0.034-0.79,0.051-1.204,0.051h-8.719v-0.951
		h2.318V3.925h-2.318V2.982z M230.13,5.928c0-0.162-0.011-0.325-0.032-0.488c-0.021-0.162-0.07-0.318-0.146-0.467
		s-0.185-0.287-0.327-0.417c-0.143-0.129-0.338-0.239-0.586-0.332s-0.554-0.165-0.917-0.219s-0.801-0.08-1.312-0.08h-4.913v4.04
		h4.913c0.727,0,1.309-0.055,1.745-0.164s0.771-0.257,1.006-0.442c0.234-0.185,0.388-0.4,0.461-0.647
		C230.094,6.464,230.13,6.203,230.13,5.928z M230.825,11.34c0-0.438-0.073-0.811-0.218-1.119c-0.146-0.309-0.369-0.562-0.671-0.758
		s-0.688-0.341-1.16-0.434c-0.471-0.092-1.032-0.139-1.685-0.139h-5.195v4.705h5.325c0.673,0,1.24-0.041,1.7-0.122
		c0.461-0.081,0.833-0.213,1.115-0.396c0.283-0.183,0.485-0.417,0.606-0.703S230.825,11.744,230.825,11.34z"/>
	<path fill="#FFFFFF" d="M234.203,14.547v-4.158h0.913v1.195c0,0.331,0.079,0.616,0.238,0.854s0.37,0.44,0.634,0.606
		c0.265,0.165,0.567,0.299,0.909,0.399c0.343,0.101,0.699,0.18,1.071,0.235c0.371,0.057,0.742,0.095,1.11,0.114
		c0.369,0.02,0.713,0.029,1.03,0.029c0.636,0,1.229-0.037,1.778-0.109c0.55-0.073,1.027-0.194,1.435-0.362
		c0.406-0.168,0.726-0.389,0.957-0.66c0.231-0.272,0.348-0.607,0.348-1.006c0-0.349-0.096-0.647-0.287-0.896
		c-0.191-0.25-0.452-0.466-0.783-0.648c-0.332-0.183-0.717-0.337-1.156-0.463c-0.438-0.126-0.906-0.241-1.401-0.345
		c-0.496-0.104-1.005-0.205-1.527-0.304c-0.522-0.098-1.032-0.207-1.527-0.328c-0.496-0.12-0.963-0.262-1.402-0.425
		c-0.438-0.163-0.824-0.359-1.155-0.589c-0.331-0.23-0.593-0.504-0.784-0.821c-0.191-0.316-0.286-0.694-0.286-1.132
		c0-0.387,0.073-0.73,0.222-1.031c0.148-0.3,0.351-0.56,0.606-0.778s0.556-0.402,0.9-0.552c0.345-0.148,0.71-0.266,1.096-0.354
		c0.385-0.087,0.783-0.149,1.195-0.188c0.412-0.04,0.814-0.06,1.208-0.06c0.555,0,1.073,0.037,1.556,0.109
		c0.482,0.073,0.917,0.167,1.305,0.282c0.389,0.115,0.723,0.243,1.002,0.383c0.28,0.141,0.499,0.281,0.655,0.421V2.982h0.913v3.636
		h-0.913v-0.74c0-0.309-0.096-0.594-0.287-0.854s-0.473-0.488-0.845-0.682c-0.371-0.194-0.832-0.346-1.382-0.455
		c-0.549-0.109-1.183-0.164-1.898-0.164c-0.652,0-1.239,0.038-1.762,0.113c-0.522,0.076-0.969,0.194-1.337,0.354
		c-0.369,0.16-0.652,0.365-0.849,0.615c-0.197,0.249-0.295,0.548-0.295,0.896c0,0.319,0.097,0.593,0.291,0.82
		c0.193,0.228,0.455,0.425,0.783,0.594c0.329,0.168,0.714,0.313,1.155,0.438c0.442,0.123,0.911,0.238,1.406,0.345
		c0.496,0.106,1.005,0.212,1.527,0.315c0.522,0.104,1.031,0.222,1.527,0.354c0.495,0.132,0.964,0.282,1.406,0.45
		c0.441,0.169,0.826,0.374,1.155,0.615c0.328,0.241,0.59,0.522,0.784,0.846c0.193,0.322,0.291,0.702,0.291,1.141
		c0,0.432-0.083,0.81-0.247,1.132s-0.385,0.601-0.662,0.833c-0.278,0.233-0.604,0.427-0.979,0.581
		c-0.374,0.154-0.771,0.276-1.188,0.366c-0.418,0.09-0.847,0.152-1.289,0.189c-0.441,0.036-0.872,0.055-1.293,0.055
		c-0.587,0-1.135-0.029-1.645-0.089c-0.509-0.059-0.974-0.143-1.394-0.252s-0.792-0.237-1.115-0.384
		c-0.323-0.146-0.593-0.308-0.808-0.487v0.984H234.203z"/>
	<path fill="#FFFFFF" d="M247.326,2.982h5.64v0.942h-2.311v9.671h2.311v0.951h-5.64v-0.951h2.318V3.925h-2.318V2.982z"/>
	<path fill="#FFFFFF" d="M254.274,7.132V2.982h12.097v4.149h-0.913v-3.19h-4.63v9.654h2.48v0.951h-5.972v-0.951h2.48V3.941h-4.63
		v3.19H254.274z"/>
	<path fill="#FFFFFF" d="M279.018,6.441V3.967h-8.008v3.981h6.165v0.977h-6.165v4.638h8.121v-2.651h0.913v3.636h-12.363v-0.951
		h2.318V3.925h-2.318V2.982h12.241v3.459H279.018z"/>
	<path fill="#FFFFFF" d="M302.612,8.772c0,1.039-0.181,1.935-0.541,2.689c-0.361,0.755-0.856,1.378-1.487,1.869
		c-0.63,0.49-1.373,0.854-2.23,1.09c-0.856,0.235-1.78,0.354-2.771,0.354c-0.996,0-1.926-0.118-2.787-0.354
		c-0.862-0.236-1.611-0.6-2.247-1.09c-0.636-0.491-1.134-1.114-1.495-1.869c-0.36-0.755-0.541-1.65-0.541-2.689
		c0-0.689,0.084-1.316,0.251-1.881c0.166-0.563,0.4-1.068,0.702-1.515s0.667-0.832,1.096-1.157c0.428-0.326,0.904-0.597,1.43-0.812
		s1.09-0.376,1.693-0.479c0.603-0.104,1.236-0.156,1.898-0.156c0.991,0,1.915,0.118,2.771,0.354c0.857,0.236,1.601,0.6,2.23,1.09
		c0.631,0.491,1.126,1.114,1.487,1.869C302.432,6.839,302.612,7.735,302.612,8.772z M301.505,8.772c0-1.638-0.495-2.887-1.486-3.745
		s-2.47-1.288-4.437-1.288c-1.972,0-3.458,0.434-4.46,1.301s-1.503,2.111-1.503,3.732c0,1.639,0.501,2.888,1.503,3.746
		s2.488,1.288,4.46,1.288c1.967,0,3.445-0.43,4.437-1.288S301.505,10.411,301.505,8.772z"/>
	<path fill="#FFFFFF" d="M315.202,6.441V3.967h-7.507v4.149h6.222v0.985h-6.222v4.494h2.311v0.951h-5.64v-0.951h2.318V3.925h-2.318
		V2.982h11.749v3.459H315.202z"/>
</g>
<g>
	<path fill="#FFFFFF" d="M56.689,43.664c-0.909,1.958-1.987,3.806-3.234,5.542c-1.247,1.737-2.569,3.252-3.968,4.546
		c-1.399,1.294-2.821,2.312-4.267,3.06c-1.445,0.745-2.82,1.118-4.125,1.118c-0.653,0-1.114-0.11-1.382-0.332
		s-0.391-0.46-0.367-0.717s0.175-0.495,0.455-0.717c0.279-0.222,0.641-0.332,1.084-0.332c0.909,0,1.801-0.31,2.675-0.927
		s1.725-1.474,2.552-2.569s1.626-2.396,2.396-3.898c0.77-1.504,1.504-3.142,2.203-4.913c0.489-1.235,0.902-2.482,1.241-3.741
		c0.337-1.259,0.576-2.471,0.717-3.636c0.14-1.166,0.186-2.25,0.14-3.252c-0.047-1.002-0.222-1.882-0.524-2.64
		c-0.304-0.758-0.729-1.352-1.276-1.783s-1.241-0.647-2.08-0.647c-1.912,0-3.566,0.321-4.965,0.962
		c-1.399,0.642-2.53,1.41-3.392,2.308c-0.863,0.897-1.451,1.836-1.767,2.814c-0.314,0.979-0.332,1.807-0.052,2.482
		c0.187,0.49,0.087,0.956-0.298,1.398c-0.384,0.443-0.868,0.793-1.45,1.05c-0.583,0.256-1.166,0.384-1.749,0.384
		s-0.979-0.175-1.188-0.524s-0.257-0.902-0.14-1.66c0.116-0.758,0.407-1.603,0.874-2.535c0.466-0.933,1.124-1.899,1.976-2.902
		c0.851-1.002,1.894-1.917,3.129-2.744s2.681-1.504,4.336-2.028c1.654-0.524,3.531-0.787,5.629-0.787c2.61,0,4.633,0.49,6.066,1.469
		c1.434,0.979,2.384,2.285,2.85,3.916c0.467,1.632,0.495,3.509,0.088,5.63C58.467,39.178,57.738,41.38,56.689,43.664z
		 M42.284,31.462c0.163-0.396,0.437-0.623,0.821-0.682s0.805,0,1.259,0.175c0.455,0.175,0.921,0.442,1.398,0.804
		c0.478,0.362,0.897,0.764,1.259,1.207c0.361,0.442,0.635,0.903,0.822,1.381c0.187,0.478,0.221,0.927,0.104,1.346
		c-0.094,0.35-0.408,0.962-0.944,1.836s-1.183,1.883-1.94,3.024c-0.758,1.143-1.567,2.366-2.43,3.671
		c-0.862,1.306-1.667,2.57-2.412,3.794c-0.747,1.224-1.388,2.343-1.924,3.356s-0.862,1.801-0.979,2.36
		c-0.094,0.443-0.292,0.746-0.595,0.909c-0.303,0.162-0.611,0.197-0.927,0.104c-0.314-0.093-0.583-0.303-0.804-0.629
		c-0.222-0.326-0.286-0.758-0.192-1.294c0.187-1.375,0.483-2.814,0.892-4.318c0.407-1.503,0.862-2.989,1.363-4.458
		c0.501-1.468,1.032-2.89,1.591-4.266c0.56-1.375,1.084-2.628,1.574-3.759c0.489-1.13,0.92-2.092,1.293-2.884
		C41.888,32.348,42.145,31.788,42.284,31.462z"/>
	<path fill="#FFFFFF" d="M69.276,42.371c0.21-0.442,0.583-0.699,1.119-0.77s1.078,0,1.626,0.21s0.996,0.536,1.346,0.979
		c0.35,0.443,0.443,0.979,0.28,1.608c-0.117,0.42-0.327,0.915-0.63,1.486s-0.635,1.153-0.996,1.748s-0.717,1.184-1.066,1.766
		c-0.35,0.583-0.629,1.102-0.839,1.556c-0.21,0.455-0.31,0.811-0.298,1.067c0.012,0.256,0.192,0.373,0.542,0.35
		c0.536-0.047,1.055-0.274,1.557-0.683c0.501-0.407,0.973-0.902,1.416-1.485c0.442-0.583,0.839-1.2,1.188-1.854
		c0.35-0.652,0.629-1.235,0.839-1.748c0.233-0.513,0.507-0.862,0.822-1.049c0.314-0.187,0.6-0.232,0.856-0.14
		c0.256,0.093,0.431,0.314,0.524,0.664c0.093,0.35,0.022,0.816-0.21,1.398c-0.21,0.583-0.542,1.294-0.996,2.133
		c-0.455,0.839-1.003,1.644-1.644,2.413c-0.642,0.769-1.376,1.428-2.203,1.975c-0.827,0.549-1.73,0.822-2.71,0.822
		c-1.002,0-1.695-0.355-2.08-1.066s-0.577-1.591-0.577-2.64c-0.652,1.025-1.416,1.888-2.29,2.587s-1.859,1.003-2.954,0.909
		c-1.189-0.093-2.121-0.466-2.797-1.119c-0.677-0.652-1.125-1.468-1.347-2.447c-0.221-0.979-0.221-2.062,0-3.252
		c0.222-1.188,0.641-2.365,1.259-3.531c0.617-1.165,1.422-2.261,2.412-3.286c0.991-1.026,2.15-1.854,3.479-2.483
		c1.328-0.629,2.814-1.014,4.458-1.153s3.421,0.094,5.332,0.699c0.442,0.14,0.774,0.367,0.996,0.682s0.315,0.612,0.28,0.892
		c-0.035,0.28-0.21,0.502-0.524,0.664c-0.314,0.164-0.787,0.175-1.416,0.035c-1.072-0.256-2.099-0.291-3.077-0.104
		c-0.979,0.187-1.895,0.524-2.745,1.014s-1.625,1.096-2.325,1.818c-0.699,0.723-1.316,1.48-1.853,2.272
		c-0.537,0.793-0.968,1.586-1.294,2.378c-0.326,0.793-0.542,1.521-0.646,2.186c-0.105,0.664-0.094,1.218,0.035,1.66
		c0.127,0.443,0.401,0.699,0.821,0.77c0.489,0.094,0.967-0.047,1.434-0.42c0.466-0.372,0.921-0.874,1.363-1.503
		c0.442-0.63,0.856-1.347,1.241-2.15c0.385-0.805,0.729-1.579,1.031-2.325c0.21-0.746,0.426-1.434,0.647-2.063
		C68.886,43.21,69.09,42.721,69.276,42.371z"/>
	<path fill="#FFFFFF" d="M92.073,46.672c0.256-0.42,0.564-0.688,0.926-0.805c0.361-0.116,0.683-0.122,0.962-0.018
		c0.279,0.105,0.472,0.304,0.577,0.595c0.104,0.292,0.028,0.658-0.228,1.102c-0.279,0.466-0.67,0.943-1.171,1.434
		c-0.502,0.489-1.102,0.908-1.801,1.259c-0.699,0.35-1.475,0.6-2.325,0.751c-0.852,0.152-1.766,0.123-2.745-0.087
		c-1.049,1.119-2.261,2.045-3.636,2.779c-1.376,0.734-2.902,1.102-4.581,1.102c-1.166,0-2.005-0.309-2.518-0.927
		c-0.512-0.617-0.81-1.421-0.892-2.412c-0.081-0.991,0.013-2.098,0.28-3.322c0.269-1.224,0.617-2.436,1.049-3.636
		c0.431-1.2,0.892-2.319,1.381-3.356s0.921-1.871,1.294-2.5c0.372-0.63,0.78-1.043,1.224-1.241c0.442-0.198,0.827-0.251,1.154-0.157
		c0.326,0.093,0.553,0.303,0.682,0.629c0.128,0.327,0.052,0.711-0.228,1.154c-0.443,0.699-0.886,1.509-1.328,2.43
		c-0.443,0.921-0.852,1.877-1.225,2.867c-0.373,0.991-0.688,1.964-0.943,2.919c-0.257,0.956-0.432,1.807-0.524,2.553
		c-0.094,0.746-0.07,1.353,0.069,1.818c0.14,0.467,0.42,0.699,0.84,0.699c0.651,0,1.328-0.314,2.027-0.944
		c0.699-0.629,1.375-1.434,2.028-2.412c-0.56-0.583-0.944-1.265-1.154-2.046c-0.21-0.78-0.279-1.591-0.21-2.43
		c0.07-0.839,0.263-1.666,0.577-2.482c0.314-0.815,0.734-1.556,1.259-2.221c0.524-0.664,1.137-1.218,1.836-1.66
		s1.456-0.699,2.272-0.77l0.42-0.07c0.419,0,0.902,0.088,1.451,0.263c0.547,0.175,1.019,0.519,1.416,1.031
		c0.396,0.513,0.635,1.236,0.717,2.168c0.081,0.933-0.158,2.156-0.717,3.671c-0.257,0.677-0.583,1.405-0.979,2.186
		c-0.396,0.781-0.874,1.568-1.434,2.36c0.933,0,1.754-0.21,2.465-0.63C91.053,47.896,91.63,47.348,92.073,46.672z M85.744,39.993
		h-0.069c-0.28,0-0.59,0.233-0.927,0.699c-0.339,0.467-0.63,1.037-0.874,1.714c-0.245,0.676-0.402,1.404-0.473,2.185
		c-0.069,0.781,0.035,1.498,0.315,2.15c0.442-0.815,0.833-1.626,1.171-2.43c0.338-0.805,0.6-1.526,0.787-2.168
		c0.186-0.641,0.291-1.159,0.314-1.556C86.012,40.191,85.931,39.993,85.744,39.993z"/>
	<path fill="#FFFFFF" d="M94.8,38.314c0.256-0.582,0.693-0.892,1.312-0.926c0.617-0.035,1.235,0.104,1.853,0.419
		c0.617,0.315,1.125,0.758,1.521,1.329c0.396,0.571,0.513,1.171,0.35,1.801c-0.117,0.419-0.379,0.996-0.787,1.73
		s-0.862,1.533-1.363,2.396c-0.502,0.862-1.014,1.736-1.538,2.622c-0.525,0.886-0.962,1.678-1.312,2.378
		c-0.35,0.699-0.565,1.265-0.646,1.695c-0.082,0.432,0.052,0.636,0.401,0.612c0.536-0.047,1.055-0.274,1.557-0.683
		c0.501-0.407,0.973-0.902,1.416-1.485c0.442-0.583,0.839-1.2,1.188-1.854c0.35-0.652,0.629-1.235,0.839-1.748
		c0.233-0.513,0.507-0.862,0.822-1.049c0.314-0.187,0.6-0.232,0.856-0.14c0.256,0.093,0.431,0.314,0.524,0.664
		c0.093,0.35,0.022,0.816-0.21,1.398c-0.233,0.583-0.577,1.294-1.031,2.133c-0.455,0.839-1.003,1.644-1.644,2.413
		c-0.642,0.769-1.376,1.428-2.203,1.975c-0.827,0.549-1.73,0.822-2.709,0.822c-0.956,0-1.626-0.35-2.011-1.049
		s-0.582-1.591-0.595-2.675c-0.012-1.084,0.129-2.278,0.42-3.584s0.623-2.57,0.996-3.794s0.752-2.325,1.137-3.304
		C94.328,39.434,94.613,38.734,94.8,38.314z M103.786,32.476c0,0.42-0.082,0.816-0.245,1.189s-0.385,0.699-0.664,0.979
		c-0.28,0.28-0.606,0.502-0.979,0.664c-0.373,0.164-0.769,0.245-1.188,0.245c-0.862,0-1.591-0.303-2.186-0.909
		c-0.594-0.605-0.892-1.328-0.892-2.168c0-0.862,0.298-1.591,0.892-2.185c0.595-0.595,1.323-0.892,2.186-0.892
		c0.839,0,1.562,0.297,2.168,0.892C103.482,30.885,103.786,31.613,103.786,32.476z"/>
	<path fill="#FFFFFF" d="M120.429,22.721c0.21-0.396,0.501-0.623,0.875-0.682c0.372-0.058,0.774,0.006,1.206,0.192
		c0.431,0.187,0.862,0.467,1.293,0.839c0.432,0.373,0.811,0.793,1.137,1.259c0.326,0.467,0.571,0.944,0.734,1.434
		s0.187,0.944,0.07,1.363c-0.094,0.327-0.397,0.921-0.909,1.783c-0.514,0.863-1.148,1.906-1.906,3.13s-1.591,2.559-2.5,4.003
		c-0.908,1.445-1.807,2.908-2.691,4.389c-0.887,1.48-1.714,2.919-2.483,4.317c-0.769,1.398-1.393,2.646-1.87,3.741
		c-0.479,1.097-0.764,1.993-0.856,2.692c-0.094,0.699,0.104,1.096,0.594,1.189c0.513,0.093,1.026-0.059,1.539-0.455
		c0.513-0.396,0.984-0.903,1.416-1.521c0.431-0.618,0.827-1.276,1.188-1.976s0.647-1.306,0.856-1.818
		c0.233-0.513,0.508-0.862,0.822-1.049s0.6-0.232,0.856-0.14c0.256,0.093,0.431,0.314,0.524,0.664
		c0.093,0.35,0.023,0.816-0.21,1.398c-0.21,0.583-0.542,1.306-0.996,2.168c-0.455,0.862-1.009,1.69-1.661,2.482
		c-0.652,0.793-1.387,1.457-2.203,1.993c-0.815,0.536-1.713,0.769-2.691,0.699c-1.189-0.07-2.006-0.542-2.448-1.416
		s-0.617-2.011-0.524-3.409c-0.373,0.652-0.781,1.265-1.224,1.836c-0.443,0.571-0.921,1.072-1.434,1.503
		c-0.513,0.432-1.061,0.764-1.644,0.997c-0.582,0.232-1.2,0.326-1.853,0.279c-1.236-0.093-2.191-0.466-2.867-1.119
		c-0.677-0.652-1.119-1.462-1.329-2.43c-0.209-0.967-0.203-2.039,0.018-3.217c0.222-1.177,0.612-2.343,1.172-3.496
		c0.56-1.154,1.276-2.243,2.15-3.27c0.874-1.025,1.858-1.858,2.954-2.5c1.096-0.641,2.272-1.037,3.531-1.188
		s2.575,0.052,3.951,0.611c0.723-1.794,1.491-3.543,2.308-5.244c0.815-1.701,1.573-3.252,2.272-4.65s1.306-2.575,1.818-3.531
		S120.266,23,120.429,22.721z M104.59,52.301c0.396,0.094,0.793,0.018,1.189-0.228c0.396-0.244,0.792-0.594,1.188-1.049
		c0.396-0.454,0.78-0.979,1.154-1.573c0.372-0.595,0.728-1.212,1.066-1.854c0.337-0.641,0.641-1.27,0.908-1.888
		c0.269-0.617,0.508-1.171,0.717-1.661c0.21-0.676,0.438-1.352,0.683-2.027c0.244-0.676,0.494-1.352,0.751-2.028
		c-0.979-0.047-1.911,0.216-2.797,0.787s-1.695,1.293-2.43,2.167c-0.734,0.875-1.358,1.842-1.871,2.902
		c-0.513,1.062-0.892,2.052-1.136,2.972c-0.245,0.922-0.327,1.708-0.245,2.36C103.85,51.835,104.124,52.208,104.59,52.301z"/>
	<path fill="#FFFFFF" d="M141.094,31.497c0.162-0.396,0.437-0.624,0.821-0.682c0.385-0.059,0.804,0,1.259,0.175
		c0.454,0.175,0.921,0.442,1.398,0.804s0.897,0.764,1.259,1.206c0.361,0.443,0.635,0.904,0.821,1.382s0.222,0.926,0.105,1.346
		c-0.07,0.21-0.21,0.502-0.42,0.874c-0.21,0.373-0.472,0.821-0.786,1.347c-0.315,0.524-0.677,1.096-1.084,1.713
		c-0.408,0.618-0.834,1.276-1.276,1.976c0.396-0.187,0.815-0.361,1.259-0.524c0.442-0.163,0.896-0.303,1.363-0.42
		c1.025-0.536,1.97-1.224,2.832-2.062c0.862-0.84,1.585-1.736,2.168-2.692c0.582-0.956,0.99-1.911,1.224-2.867
		c0.232-0.956,0.25-1.818,0.053-2.588c-0.198-0.769-0.647-1.398-1.347-1.888s-1.69-0.734-2.972-0.734
		c-1.911,0-3.566,0.321-4.965,0.962c-1.398,0.642-2.529,1.41-3.392,2.308s-1.451,1.836-1.766,2.814
		c-0.314,0.979-0.332,1.807-0.053,2.482c0.187,0.489,0.088,0.956-0.297,1.398c-0.385,0.443-0.869,0.793-1.451,1.049
		c-0.583,0.257-1.166,0.385-1.748,0.385c-0.583,0-0.979-0.175-1.189-0.524c-0.209-0.35-0.256-0.903-0.14-1.661
		c0.116-0.757,0.414-1.602,0.892-2.534s1.137-1.899,1.976-2.902c0.839-1.002,1.876-1.917,3.112-2.745
		c1.235-0.827,2.68-1.503,4.335-2.027s3.532-0.787,5.63-0.787c2.145,0,3.893,0.251,5.244,0.752c1.352,0.502,2.354,1.148,3.007,1.94
		c0.652,0.793,0.979,1.702,0.979,2.728s-0.279,2.051-0.839,3.076c-0.56,1.026-1.376,2.022-2.448,2.99
		c-1.072,0.967-2.354,1.801-3.846,2.5c0.373,0.047,0.77,0.157,1.188,0.332c0.42,0.175,0.792,0.385,1.119,0.629
		c0.326,0.245,0.582,0.514,0.77,0.805c0.186,0.291,0.232,0.589,0.14,0.892c-0.117,0.419-0.379,0.95-0.787,1.591
		c-0.408,0.642-0.862,1.328-1.363,2.062c-0.502,0.734-1.009,1.469-1.521,2.203c-0.514,0.734-0.939,1.398-1.276,1.993
		c-0.339,0.594-0.542,1.09-0.612,1.485c-0.069,0.396,0.082,0.606,0.455,0.63c0.419,0.047,0.932-0.134,1.538-0.542
		c0.605-0.408,1.212-0.921,1.818-1.539c0.605-0.617,1.153-1.287,1.644-2.01c0.489-0.723,0.839-1.387,1.049-1.993
		c0.209-0.513,0.478-0.862,0.804-1.049s0.612-0.232,0.856-0.14c0.245,0.093,0.414,0.314,0.507,0.664
		c0.094,0.35,0.035,0.816-0.175,1.398c-0.232,0.583-0.611,1.294-1.136,2.133s-1.154,1.644-1.889,2.413
		c-0.733,0.769-1.55,1.428-2.447,1.975c-0.897,0.549-1.836,0.822-2.814,0.822c-0.862,0-1.51-0.157-1.94-0.473
		c-0.432-0.314-0.717-0.733-0.856-1.258c-0.141-0.525-0.164-1.119-0.07-1.783c0.093-0.665,0.25-1.353,0.472-2.063
		s0.46-1.416,0.717-2.115s0.483-1.334,0.683-1.905c0.197-0.571,0.326-1.049,0.384-1.434c0.059-0.385-0.018-0.624-0.227-0.717
		c-0.327-0.14-0.734-0.245-1.224-0.314c-0.49-0.07-1.009-0.088-1.557-0.053s-1.102,0.134-1.66,0.297
		c-0.56,0.163-1.073,0.385-1.539,0.664c-0.652,1.003-1.306,2.006-1.958,3.008s-1.241,1.958-1.766,2.866
		c-0.524,0.909-0.968,1.731-1.328,2.466c-0.362,0.733-0.589,1.323-0.683,1.766c-0.093,0.442-0.291,0.746-0.594,0.909
		c-0.304,0.162-0.612,0.197-0.927,0.104s-0.583-0.303-0.805-0.629s-0.285-0.758-0.191-1.294c0.186-1.375,0.483-2.809,0.892-4.301
		c0.407-1.491,0.861-2.978,1.363-4.458c0.501-1.48,1.031-2.907,1.591-4.283c0.56-1.375,1.084-2.628,1.573-3.759
		c0.489-1.13,0.921-2.092,1.294-2.885C140.696,32.383,140.953,31.823,141.094,31.497z"/>
	<path fill="#FFFFFF" d="M166.827,38.105c0.14-0.396,0.361-0.647,0.664-0.752c0.303-0.105,0.635-0.11,0.997-0.018
		c0.361,0.094,0.722,0.269,1.084,0.524c0.36,0.257,0.67,0.565,0.926,0.927c0.257,0.361,0.438,0.746,0.542,1.153
		c0.105,0.408,0.076,0.799-0.087,1.172c-0.117,0.257-0.327,0.758-0.63,1.503c-0.303,0.747-0.688,1.644-1.153,2.692
		c-0.467,1.049-1.003,2.209-1.608,3.479c-0.606,1.271-1.271,2.558-1.993,3.863c0.699-0.442,1.347-0.927,1.94-1.451
		c0.595-0.524,1.137-1.055,1.626-1.591s0.921-1.066,1.294-1.591c0.372-0.524,0.664-1.02,0.874-1.486
		c0.21-0.442,0.466-0.739,0.77-0.892c0.303-0.151,0.576-0.18,0.821-0.087s0.425,0.285,0.542,0.577
		c0.116,0.291,0.093,0.646-0.07,1.066c-0.209,0.513-0.542,1.148-0.996,1.905c-0.454,0.758-1.078,1.551-1.871,2.378
		c-0.792,0.827-1.748,1.632-2.866,2.412c-1.119,0.781-2.448,1.451-3.986,2.011c-0.793,1.235-1.626,2.395-2.5,3.479
		s-1.777,1.993-2.71,2.728s-1.876,1.253-2.832,1.556c-0.955,0.303-1.911,0.303-2.867,0c-0.955-0.303-1.62-0.816-1.993-1.538
		c-0.372-0.723-0.326-1.521,0.141-2.396c0.466-0.874,1.41-1.748,2.832-2.622c1.421-0.874,3.449-1.626,6.084-2.255
		c0.093-0.141,0.175-0.285,0.244-0.438c0.07-0.151,0.14-0.309,0.21-0.472c-0.489,0.373-1.014,0.641-1.573,0.804
		s-1.143,0.187-1.748,0.07c-0.84-0.163-1.464-0.53-1.871-1.102s-0.652-1.281-0.734-2.133c-0.081-0.851-0.018-1.823,0.192-2.92
		c0.21-1.095,0.513-2.243,0.909-3.443s0.874-2.431,1.434-3.689s1.154-2.493,1.783-3.706c0.21-0.419,0.495-0.682,0.856-0.786
		c0.361-0.105,0.734-0.1,1.119,0.018c0.385,0.116,0.77,0.326,1.153,0.629c0.385,0.303,0.705,0.642,0.962,1.014
		c0.256,0.373,0.425,0.764,0.507,1.172s0.041,0.775-0.122,1.102c-0.42,0.746-0.874,1.532-1.363,2.359
		c-0.49,0.828-0.968,1.649-1.434,2.465c-0.467,0.816-0.904,1.604-1.312,2.36c-0.408,0.758-0.734,1.434-0.979,2.028
		c-0.244,0.594-0.379,1.096-0.401,1.503c-0.023,0.408,0.116,0.659,0.419,0.752c0.373,0.14,0.764,0.1,1.172-0.122
		c0.407-0.222,0.815-0.56,1.224-1.014c0.407-0.455,0.815-0.985,1.224-1.592c0.407-0.605,0.787-1.246,1.137-1.923
		c0.839-1.562,1.666-3.379,2.482-5.454l0.979,0.629c-0.442,1.562-0.968,3.042-1.573,4.44c-0.257,0.606-0.542,1.219-0.856,1.836
		c-0.314,0.618-0.659,1.219-1.031,1.801c-0.373,0.583-0.775,1.125-1.207,1.626s-0.88,0.927-1.346,1.276
		c1.002-2.028,2.045-4.371,3.129-7.028S165.615,41.322,166.827,38.105z M153.61,61.566c0.677,0.279,1.41,0.046,2.203-0.699
		c0.792-0.746,1.666-1.923,2.622-3.531c-1.352,0.396-2.425,0.815-3.217,1.259c-0.792,0.442-1.363,0.861-1.713,1.259
		c-0.35,0.396-0.501,0.745-0.455,1.049C153.099,61.205,153.284,61.427,153.61,61.566z"/>
	<path fill="#FFFFFF" d="M182.455,42.371c0.21-0.442,0.583-0.699,1.119-0.77s1.078,0,1.626,0.21s0.996,0.536,1.346,0.979
		c0.35,0.443,0.443,0.979,0.28,1.608c-0.117,0.42-0.327,0.915-0.63,1.486s-0.635,1.153-0.996,1.748s-0.717,1.184-1.066,1.766
		c-0.35,0.583-0.629,1.102-0.839,1.556c-0.21,0.455-0.31,0.811-0.298,1.067c0.012,0.256,0.192,0.373,0.542,0.35
		c0.536-0.047,1.055-0.274,1.557-0.683c0.501-0.407,0.973-0.902,1.416-1.485c0.442-0.583,0.839-1.2,1.188-1.854
		c0.35-0.652,0.629-1.235,0.839-1.748c0.233-0.513,0.507-0.862,0.822-1.049c0.314-0.187,0.6-0.232,0.856-0.14
		c0.256,0.093,0.431,0.314,0.524,0.664c0.093,0.35,0.022,0.816-0.21,1.398c-0.21,0.583-0.542,1.294-0.996,2.133
		c-0.455,0.839-1.003,1.644-1.644,2.413c-0.642,0.769-1.376,1.428-2.203,1.975c-0.827,0.549-1.73,0.822-2.71,0.822
		c-1.002,0-1.695-0.355-2.08-1.066s-0.577-1.591-0.577-2.64c-0.652,1.025-1.416,1.888-2.29,2.587s-1.859,1.003-2.954,0.909
		c-1.189-0.093-2.121-0.466-2.797-1.119c-0.677-0.652-1.125-1.468-1.347-2.447c-0.221-0.979-0.221-2.062,0-3.252
		c0.222-1.188,0.641-2.365,1.259-3.531c0.617-1.165,1.422-2.261,2.412-3.286c0.991-1.026,2.15-1.854,3.479-2.483
		c1.328-0.629,2.814-1.014,4.458-1.153s3.421,0.094,5.332,0.699c0.442,0.14,0.774,0.367,0.996,0.682s0.315,0.612,0.28,0.892
		c-0.035,0.28-0.21,0.502-0.524,0.664c-0.314,0.164-0.787,0.175-1.416,0.035c-1.072-0.256-2.099-0.291-3.077-0.104
		c-0.979,0.187-1.895,0.524-2.745,1.014s-1.625,1.096-2.325,1.818c-0.699,0.723-1.316,1.48-1.853,2.272
		c-0.537,0.793-0.968,1.586-1.294,2.378c-0.326,0.793-0.542,1.521-0.646,2.186c-0.105,0.664-0.094,1.218,0.035,1.66
		c0.127,0.443,0.401,0.699,0.821,0.77c0.489,0.094,0.967-0.047,1.434-0.42c0.466-0.372,0.921-0.874,1.363-1.503
		c0.442-0.63,0.856-1.347,1.241-2.15c0.385-0.805,0.729-1.579,1.031-2.325c0.21-0.746,0.426-1.434,0.647-2.063
		C182.064,43.21,182.269,42.721,182.455,42.371z"/>
	<path fill="#FFFFFF" d="M191.196,38.245c0.257-0.582,0.717-0.886,1.382-0.909c0.664-0.023,1.316,0.135,1.958,0.472
		c0.641,0.339,1.153,0.799,1.538,1.382c0.385,0.582,0.438,1.165,0.157,1.748c-0.187,0.373-0.467,0.821-0.839,1.346
		c-0.373,0.524-0.793,1.119-1.259,1.783c-0.467,0.664-0.956,1.394-1.469,2.186c-0.513,0.793-1.002,1.632-1.469,2.518
		c0.49-0.652,1.02-1.357,1.592-2.115c0.57-0.758,1.153-1.516,1.748-2.273c0.594-0.757,1.188-1.503,1.783-2.237
		c0.594-0.734,1.165-1.404,1.713-2.011c0.548-0.605,1.049-1.13,1.504-1.573c0.454-0.442,0.845-0.757,1.171-0.944
		c0.42-0.232,0.915-0.297,1.486-0.192c0.57,0.105,1.102,0.333,1.591,0.683s0.88,0.774,1.171,1.275
		c0.291,0.502,0.355,1.021,0.192,1.557c-0.117,0.419-0.385,0.996-0.804,1.73c-0.42,0.734-0.897,1.533-1.434,2.396
		c-0.537,0.862-1.079,1.736-1.626,2.622c-0.548,0.886-1.014,1.678-1.398,2.378c-0.385,0.699-0.63,1.265-0.734,1.695
		c-0.105,0.432,0.018,0.636,0.367,0.612c0.536-0.047,1.112-0.274,1.73-0.683c0.617-0.407,1.212-0.902,1.783-1.485
		s1.084-1.2,1.538-1.854c0.455-0.652,0.799-1.235,1.032-1.748c0.209-0.513,0.478-0.862,0.804-1.049s0.612-0.232,0.856-0.14
		c0.245,0.093,0.414,0.314,0.507,0.664c0.094,0.35,0.035,0.816-0.175,1.398c-0.232,0.583-0.629,1.294-1.188,2.133
		s-1.229,1.644-2.011,2.413c-0.781,0.769-1.638,1.428-2.569,1.975c-0.933,0.549-1.889,0.822-2.867,0.822
		c-0.862,0-1.48-0.222-1.854-0.664c-0.373-0.443-0.583-1.037-0.629-1.783c-0.047-0.746,0.035-1.592,0.244-2.535
		c0.21-0.944,0.478-1.917,0.805-2.92c0.326-1.002,0.676-1.993,1.049-2.972c0.373-0.979,0.699-1.876,0.979-2.692
		c-0.816,0.77-1.726,1.726-2.728,2.867c-1.003,1.143-1.976,2.308-2.92,3.496c-0.943,1.189-1.818,2.308-2.622,3.356
		c-0.804,1.05-1.416,1.865-1.836,2.448c-0.21,0.419-0.472,0.758-0.786,1.014c-0.315,0.257-0.606,0.39-0.874,0.402
		c-0.268,0.011-0.483-0.105-0.647-0.35c-0.162-0.245-0.21-0.658-0.14-1.241c0.163-1.096,0.42-2.378,0.77-3.847
		s0.734-2.925,1.153-4.37c0.42-1.445,0.833-2.78,1.241-4.004S190.917,38.874,191.196,38.245z"/>
	<path fill="#FFFFFF" d="M244.378,27.057c0.162-0.396,0.437-0.624,0.821-0.682c0.385-0.059,0.804,0,1.259,0.175
		c0.454,0.175,0.921,0.437,1.398,0.786s0.897,0.752,1.259,1.206c0.361,0.455,0.635,0.922,0.821,1.398
		c0.187,0.479,0.222,0.927,0.105,1.347c-0.07,0.257-0.31,0.723-0.717,1.398c-0.408,0.677-0.927,1.486-1.556,2.43
		c-0.63,0.944-1.329,1.988-2.099,3.13c-0.769,1.143-1.562,2.325-2.377,3.549c-0.816,1.224-1.608,2.442-2.378,3.653
		c-0.77,1.213-1.469,2.366-2.098,3.462c-0.63,1.096-1.154,2.086-1.573,2.972c-0.42,0.887-0.665,1.608-0.734,2.168
		c-0.07,0.467-0.257,0.774-0.56,0.927c-0.304,0.151-0.612,0.181-0.927,0.087c-0.314-0.093-0.589-0.302-0.821-0.629
		c-0.233-0.326-0.304-0.757-0.21-1.294c0.187-1.328,0.536-2.826,1.049-4.493c0.513-1.666,1.106-3.374,1.783-5.122
		c-1.119,0.327-2.156,0.53-3.112,0.612s-1.958,0.146-3.007,0.192c-0.606,1.049-1.177,2.062-1.713,3.042
		c-0.536,0.979-1.014,1.882-1.434,2.709c-0.42,0.828-0.77,1.557-1.049,2.186c-0.28,0.63-0.455,1.119-0.524,1.469
		c-0.094,0.443-0.292,0.746-0.595,0.909c-0.303,0.162-0.611,0.197-0.927,0.104c-0.314-0.093-0.583-0.303-0.804-0.629
		c-0.222-0.326-0.286-0.758-0.192-1.294c0.14-1.119,0.407-2.36,0.804-3.724s0.875-2.791,1.434-4.283
		c-0.606,0.094-1.229,0.21-1.87,0.35c-0.642,0.14-1.335,0.314-2.08,0.524c-0.397,0.117-0.671,0.088-0.822-0.087
		s-0.222-0.432-0.21-0.77s0.1-0.711,0.263-1.119c0.163-0.407,0.372-0.804,0.629-1.188s0.542-0.717,0.857-0.997
		c0.314-0.279,0.635-0.454,0.961-0.524c0.257-0.046,0.705-0.022,1.347,0.07c0.641,0.094,1.393,0.198,2.255,0.314
		c0.723-1.795,1.474-3.554,2.255-5.279c0.781-1.725,1.516-3.292,2.203-4.703c0.688-1.41,1.271-2.61,1.748-3.602
		c0.478-0.99,0.787-1.637,0.927-1.94c0.163-0.396,0.407-0.623,0.734-0.682c0.326-0.058,0.676,0.006,1.049,0.192
		c0.372,0.187,0.746,0.461,1.119,0.821c0.372,0.362,0.699,0.77,0.979,1.225c0.28,0.454,0.483,0.921,0.612,1.398
		c0.128,0.478,0.134,0.927,0.018,1.346c-0.07,0.28-0.31,0.799-0.717,1.556c-0.408,0.758-0.922,1.667-1.539,2.728
		c-0.617,1.062-1.306,2.238-2.062,3.531c-0.758,1.294-1.521,2.605-2.29,3.934c1.002,0.047,1.986,0.035,2.954-0.035
		c0.967-0.069,1.858-0.232,2.675-0.489c0.699-1.678,1.41-3.315,2.133-4.912s1.398-3.042,2.028-4.336
		c0.629-1.294,1.171-2.389,1.626-3.286C243.94,27.96,244.237,27.359,244.378,27.057z"/>
	<path fill="#FFFFFF" d="M256.334,42.371c0.21-0.442,0.583-0.699,1.119-0.77s1.078,0,1.626,0.21s0.996,0.536,1.346,0.979
		c0.35,0.443,0.443,0.979,0.28,1.608c-0.117,0.42-0.327,0.915-0.63,1.486s-0.635,1.153-0.996,1.748s-0.717,1.184-1.066,1.766
		c-0.35,0.583-0.629,1.102-0.839,1.556c-0.21,0.455-0.31,0.811-0.298,1.067c0.012,0.256,0.192,0.373,0.542,0.35
		c0.536-0.047,1.055-0.274,1.557-0.683c0.501-0.407,0.973-0.902,1.416-1.485c0.442-0.583,0.839-1.2,1.188-1.854
		c0.35-0.652,0.629-1.235,0.839-1.748c0.233-0.513,0.507-0.862,0.822-1.049c0.314-0.187,0.6-0.232,0.856-0.14
		c0.256,0.093,0.431,0.314,0.524,0.664c0.093,0.35,0.022,0.816-0.21,1.398c-0.21,0.583-0.542,1.294-0.996,2.133
		c-0.455,0.839-1.003,1.644-1.644,2.413c-0.642,0.769-1.376,1.428-2.203,1.975c-0.827,0.549-1.73,0.822-2.71,0.822
		c-1.002,0-1.695-0.355-2.08-1.066s-0.577-1.591-0.577-2.64c-0.652,1.025-1.416,1.888-2.29,2.587s-1.859,1.003-2.954,0.909
		c-1.189-0.093-2.121-0.466-2.797-1.119c-0.677-0.652-1.125-1.468-1.347-2.447c-0.221-0.979-0.221-2.062,0-3.252
		c0.222-1.188,0.641-2.365,1.259-3.531c0.617-1.165,1.422-2.261,2.412-3.286c0.991-1.026,2.15-1.854,3.479-2.483
		c1.328-0.629,2.814-1.014,4.458-1.153s3.421,0.094,5.332,0.699c0.442,0.14,0.774,0.367,0.996,0.682s0.315,0.612,0.28,0.892
		c-0.035,0.28-0.21,0.502-0.524,0.664c-0.314,0.164-0.787,0.175-1.416,0.035c-1.072-0.256-2.099-0.291-3.077-0.104
		c-0.979,0.187-1.895,0.524-2.745,1.014s-1.625,1.096-2.325,1.818c-0.699,0.723-1.316,1.48-1.853,2.272
		c-0.537,0.793-0.968,1.586-1.294,2.378c-0.326,0.793-0.542,1.521-0.646,2.186c-0.105,0.664-0.094,1.218,0.035,1.66
		c0.127,0.443,0.401,0.699,0.821,0.77c0.489,0.094,0.967-0.047,1.434-0.42c0.466-0.372,0.921-0.874,1.363-1.503
		c0.442-0.63,0.856-1.347,1.241-2.15c0.385-0.805,0.729-1.579,1.031-2.325c0.21-0.746,0.426-1.434,0.647-2.063
		C255.943,43.21,256.147,42.721,256.334,42.371z"/>
	<path fill="#FFFFFF" d="M280.915,23.28c0.209-0.396,0.489-0.63,0.839-0.699c0.35-0.07,0.729-0.023,1.136,0.14
		c0.408,0.163,0.816,0.42,1.225,0.77c0.407,0.35,0.763,0.74,1.066,1.171c0.303,0.432,0.524,0.887,0.664,1.363
		c0.14,0.479,0.151,0.927,0.035,1.347c-0.094,0.326-0.396,0.921-0.909,1.783s-1.143,1.894-1.889,3.095
		c-0.746,1.2-1.573,2.517-2.482,3.95s-1.807,2.885-2.692,4.354s-1.713,2.891-2.482,4.266c-0.769,1.376-1.387,2.61-1.853,3.706
		c-0.467,1.096-0.746,1.987-0.839,2.675c-0.094,0.688,0.104,1.078,0.594,1.172c0.513,0.093,1.025-0.059,1.539-0.455
		c0.512-0.396,0.984-0.903,1.416-1.521c0.431-0.618,0.827-1.276,1.188-1.976s0.646-1.306,0.856-1.818
		c0.232-0.513,0.507-0.862,0.821-1.049c0.315-0.187,0.601-0.232,0.857-0.14c0.256,0.093,0.431,0.314,0.524,0.664
		c0.093,0.35,0.022,0.816-0.21,1.398c-0.21,0.583-0.542,1.306-0.996,2.168c-0.455,0.862-1.009,1.69-1.661,2.482
		c-0.653,0.793-1.388,1.457-2.203,1.993c-0.816,0.536-1.713,0.769-2.692,0.699c-0.909-0.047-1.579-0.338-2.01-0.874
		c-0.432-0.536-0.706-1.247-0.822-2.133c-0.676,0.862-1.439,1.591-2.29,2.185c-0.852,0.595-1.801,0.868-2.85,0.822
		c-1.188-0.07-2.005-0.554-2.447-1.451s-0.612-2.057-0.507-3.479c0.104-1.421,0.419-3.041,0.943-4.859s1.159-3.677,1.906-5.577
		c0.745-1.899,1.55-3.787,2.412-5.664c0.862-1.876,1.679-3.584,2.447-5.122c0.77-1.539,1.439-2.838,2.011-3.898
		s0.938-1.742,1.102-2.046c0.303-0.605,0.763-0.851,1.381-0.734c0.617,0.117,1.218,0.426,1.801,0.927
		c0.582,0.502,1.061,1.113,1.434,1.836s0.478,1.398,0.314,2.027c-0.093,0.327-0.391,0.927-0.892,1.801s-1.118,1.93-1.853,3.164
		c-0.734,1.236-1.551,2.588-2.448,4.057c-0.897,1.468-1.777,2.954-2.64,4.458c-0.862,1.503-1.667,2.96-2.412,4.37
		c-0.746,1.41-1.347,2.675-1.801,3.794c-0.455,1.118-0.723,2.033-0.805,2.744c-0.082,0.712,0.123,1.113,0.612,1.207
		c0.513,0.093,1.031-0.059,1.556-0.455c0.524-0.396,1.008-0.896,1.451-1.503c0.442-0.606,0.839-1.259,1.188-1.958
		c0.35-0.7,0.618-1.317,0.805-1.854c0.372-1.025,0.874-2.272,1.503-3.741c0.63-1.469,1.312-3.019,2.046-4.65
		c0.734-1.631,1.479-3.274,2.237-4.93s1.463-3.17,2.115-4.546c0.652-1.375,1.218-2.558,1.696-3.549
		C280.431,24.195,280.751,23.56,280.915,23.28z"/>
</g>
</svg>
