<?xml version="1.0" encoding="utf-8"?>
<!-- Generator: Adobe Illustrator 15.0.2, SVG Export Plug-In . SVG Version: 6.00 Build 0)  -->
<!DOCTYPE svg PUBLIC "-//W3C//DTD SVG 1.1//EN" "http://www.w3.org/Graphics/SVG/1.1/DTD/svg11.dtd">
<svg version="1.1" id="Layer_1" xmlns="http://www.w3.org/2000/svg" xmlns:xlink="http://www.w3.org/1999/xlink" x="0px" y="0px"
	 width="157.25px" height="55.5px" viewBox="0 0 157.25 55.5" enable-background="new 0 0 157.25 55.5" xml:space="preserve">
<g>
	<g>
		<g>
		</g>
		<g>
			<polygon fill="#FFFFFF" points="15.749,45.626 15.749,33.348 15.749,31.743 17.238,31.4 17.238,31.402 23.456,29.982 
				23.456,23.696 2.442,28.489 9.279,37.016 2.442,48.66 			"/>
		</g>
		<g>
			<polygon fill="#FFFFFF" points="152.705,6.605 139.4,9.641 139.4,21.92 139.4,23.53 131.695,25.287 131.695,31.57 
				152.705,26.779 145.871,18.249 			"/>
		</g>
	</g>
</g>
<g>
	<path fill="#FFFFFF" d="M66.061,29.443c0,0.021-0.015,0.029-0.045,0.027s-0.045,0.027-0.045,0.09c0,0.072,0.029,0.125,0.09,0.156
		s0.11,0.058,0.146,0.08c0-0.053-0.025-0.111-0.073-0.178C66.086,29.554,66.061,29.496,66.061,29.443z"/>
	<path fill="#FFFFFF" d="M65.806,29.695c0,0.021-0.003,0.059-0.009,0.112s-0.004,0.089,0.009,0.106
		c-0.024,0.059-0.052,0.125-0.083,0.2c-0.029,0.076-0.062,0.145-0.1,0.206c0.062,0.047,0.088,0.115,0.082,0.205
		s0.01,0.156,0.046,0.198c-0.036,0.124-0.046,0.254-0.028,0.39c0.02,0.135,0.035,0.274,0.047,0.417
		c-0.049,0.064-0.076,0.126-0.082,0.186c-0.007,0.058-0.04,0.096-0.101,0.111l0.329-0.037c0-0.031,0.023-0.069,0.072-0.112
		c0.049-0.044,0.085-0.08,0.109-0.106v-1.686c-0.061-0.036-0.116-0.073-0.164-0.113C65.885,29.733,65.842,29.707,65.806,29.695z"/>
	<path fill="#FFFFFF" d="M66.463,28.841c0-0.083-0.008-0.19-0.019-0.323c-0.013-0.132-0.03-0.265-0.056-0.398
		c-0.023-0.135-0.051-0.26-0.082-0.377c-0.029-0.117-0.07-0.195-0.117-0.235c-0.062,0.058-0.123,0.144-0.184,0.258
		s-0.09,0.197-0.09,0.249c0,0.073,0.023,0.191,0.072,0.356c0.049,0.164,0.072,0.313,0.072,0.448c0,0.084-0.021,0.181-0.062,0.29
		c-0.044,0.11-0.064,0.206-0.064,0.289c0.061-0.047,0.098-0.101,0.109-0.16c0.012-0.061,0.049-0.098,0.109-0.113
		c0.084-0.022,0.109-0.019,0.072,0.013c-0.035,0.029-0.018,0.035,0.055,0.017c0.073-0.019,0.123-0.061,0.146-0.123
		C66.449,28.967,66.463,28.903,66.463,28.841z"/>
	<path fill="#FFFFFF" d="M67.83,34.934c-0.146,0.038-0.211,0.018-0.191-0.06c0.018-0.077,0.021-0.178,0.01-0.298
		c0,0.02-0.008,0.058-0.02,0.112c-0.012,0.056-0.049,0.117-0.109,0.185c-0.061,0.016-0.121,0.003-0.182-0.039
		c-0.061-0.041-0.104-0.075-0.129-0.101c0,0.053,0.014,0.109,0.037,0.171c0.023,0.062,0.055,0.098,0.092,0.109
		c0.084-0.084,0.158-0.108,0.219-0.072l-0.037,0.446c-0.061-0.036-0.1-0.078-0.117-0.125c-0.02-0.048-0.059-0.09-0.119-0.126
		c-0.037,0.093-0.088,0.202-0.154,0.328c-0.068,0.126-0.102,0.227-0.102,0.299c0.049-0.075,0.094-0.148,0.137-0.223
		c0.043-0.073,0.094-0.127,0.154-0.164c-0.035,0.155-0.078,0.285-0.127,0.392s-0.086,0.203-0.109,0.293l0.219-0.057
		c0.135-0.117,0.24-0.251,0.318-0.401c0.08-0.149,0.162-0.283,0.246-0.398c-0.061-0.005-0.107-0.021-0.145-0.048
		c-0.037-0.027-0.049-0.058-0.037-0.092c0.025-0.026,0.043-0.042,0.055-0.046l0.02-0.004c0.035,0.011,0.072,0.035,0.107,0.073
		c0.037,0.038,0.068,0.063,0.092,0.077c0-0.021,0.006-0.061,0.02-0.121c0.012-0.061,0.035-0.105,0.072-0.136
		c-0.049-0.008-0.08-0.011-0.092-0.008S67.902,34.916,67.83,34.934z"/>
	<path fill="#FFFFFF" d="M55.959,38.101c0.024-0.038,0.042-0.089,0.054-0.155c0.012-0.065,0-0.104-0.036-0.115
		c0,0.021-0.007,0.064-0.018,0.13C55.947,38.025,55.947,38.072,55.959,38.101z"/>
	<path fill="#FFFFFF" d="M58.384,36.902c-0.061,0.066-0.109,0.128-0.146,0.185c-0.037,0.056-0.067,0.077-0.091,0.062l-0.055,0.014
		c0.011-0.023,0.024-0.039,0.036-0.048c0.012-0.008,0.019-0.022,0.019-0.044v-0.047c-0.024,0.006-0.073,0.042-0.146,0.107
		c-0.073,0.065-0.121,0.112-0.146,0.139c0.061,0.007,0.11,0.022,0.146,0.049c0.037,0.028,0.049,0.058,0.037,0.093
		c-0.061,0.077-0.128,0.126-0.201,0.145c-0.11-0.055-0.225-0.088-0.346-0.099c0.023-0.058,0.027-0.121,0.008-0.189
		c-0.018-0.068-0.027-0.128-0.027-0.18c-0.061,0.016-0.115,0.039-0.164,0.073c-0.049,0.033-0.091,0.055-0.128,0.063
		c0.061,0.077,0.088,0.17,0.083,0.275c-0.007,0.106-0.009,0.21-0.009,0.314c-0.025,0.007-0.055,0.007-0.091,0
		c-0.037-0.006-0.092,0-0.165,0.019c-0.073,0.019-0.191,0.082-0.355,0.193c-0.164,0.109-0.276,0.171-0.337,0.187
		c-0.085,0.021-0.109,0.021-0.073-0.005c0.036-0.025,0.018-0.028-0.055-0.01c-0.146,0.037-0.273,0.128-0.383,0.271v0.172
		c0.061-0.016,0.106-0.009,0.137,0.02c0.03,0.028,0.063,0.048,0.1,0.06c-0.037,0.041-0.055,0.077-0.055,0.108v0.03
		c0.061-0.025,0.128-0.045,0.201-0.059s0.121-0.033,0.146-0.061c-0.048,0.013-0.11-0.003-0.183-0.047l0.165-0.167
		c0.061,0.005,0.098,0.034,0.109,0.089c0.012,0.054,0.055,0.072,0.128,0.054c0.074-0.019,0.119-0.042,0.137-0.066
		c0.018-0.026,0.045-0.027,0.082-0.006c-0.037,0.03-0.058,0.062-0.064,0.094c-0.005,0.032-0.027,0.064-0.063,0.095
		c0.036-0.01,0.088-0.012,0.155-0.009c0.066,0.005,0.112,0.003,0.136-0.004c0.025-0.058,0.055-0.131,0.092-0.218
		c0.036-0.087,0.073-0.162,0.109-0.223c-0.036,0.009-0.07-0.001-0.1-0.029s-0.058-0.05-0.083-0.064l0.202-0.083
		c0.061,0.037,0.111,0.075,0.154,0.116c0.042,0.041,0.094,0.08,0.155,0.117c0.025-0.028,0.045-0.072,0.064-0.134
		c0.018-0.062,0.069-0.104,0.154-0.126c0.074-0.019,0.101-0.018,0.082,0.003c-0.018,0.02,0.015,0.02,0.101-0.003
		c0.073-0.019,0.127-0.061,0.165-0.128c0.036-0.065,0.061-0.127,0.073-0.183c-0.062-0.005-0.118-0.019-0.173-0.041
		c-0.055-0.022-0.083-0.044-0.083-0.064c0.061-0.047,0.106-0.085,0.137-0.113c0.029-0.029,0.057-0.062,0.082-0.099
		c0.061,0.036,0.125,0.062,0.192,0.075c0.066,0.015,0.13,0.023,0.191,0.028c0-0.01-0.003-0.02-0.009-0.027
		c-0.006-0.01-0.009-0.02-0.009-0.029c-0.012-0.008-0.018-0.017-0.018-0.026c0-0.053,0.029-0.094,0.091-0.125
		c0.061-0.031,0.091-0.073,0.091-0.125c0-0.072-0.033-0.14-0.101-0.201C58.417,37.01,58.384,36.953,58.384,36.902z M56.652,38.5
		v-0.078l0.146-0.1l0.019,0.073L56.652,38.5z M56.616,38.307l-0.055-0.064l0.219-0.166l0.055,0.049L56.616,38.307z M57.454,38.186
		l-0.073-0.013l0.091-0.211l0.092,0.008L57.454,38.186z M58.193,37.325c-0.03-0.044-0.027-0.081,0.009-0.112
		c0,0.021,0.006,0.057,0.019,0.105c0.011,0.049,0.018,0.089,0.018,0.12C58.238,37.407,58.223,37.369,58.193,37.325z"/>
	<path fill="#FFFFFF" d="M55.412,37.367c0.073-0.113,0.11-0.18,0.11-0.201c0-0.02-0.021-0.033-0.063-0.038
		c-0.043-0.004-0.092-0.016-0.146-0.031c-0.054-0.018-0.1-0.084-0.136-0.2l-0.474,0.122l-0.109,0.122l-0.055-0.033l-0.146,0.162
		c0.024,0.025,0.055,0.049,0.091,0.069c0.037,0.022,0.055,0.049,0.055,0.08c0.061-0.099,0.137-0.19,0.228-0.276
		s0.167-0.137,0.228-0.152c0.048-0.012,0.073-0.008,0.073,0.013c0,0.01-0.006,0.018-0.018,0.021
		c-0.062,0.078-0.137,0.145-0.228,0.199c-0.091,0.053-0.137,0.149-0.137,0.284c0,0.053,0.012,0.085,0.037,0.1
		c0.012,0.008,0.03,0.008,0.055,0.002c0.061-0.036,0.121-0.094,0.182-0.172c0.062-0.078,0.122-0.15,0.182-0.219
		c0.037,0.013,0.058,0.027,0.064,0.046c0.006,0.021,0.021,0.026,0.045,0.02c0,0.062-0.009,0.126-0.027,0.188
		s-0.03,0.117-0.037,0.165c-0.005,0.049,0,0.091,0.019,0.128c0.018,0.037,0.058,0.058,0.118,0.062
		c-0.012,0.025-0.021,0.045-0.027,0.062c-0.006,0.017,0.003,0.038,0.027,0.062l0.128-0.142c0.023,0.015,0.036,0.035,0.036,0.061
		c0,0.026,0,0.05,0,0.07c0.024,0.016,0.064-0.021,0.119-0.108c0.055-0.086,0.111-0.163,0.173-0.23
		C55.728,37.51,55.607,37.431,55.412,37.367z"/>
	<path fill="#FFFFFF" d="M58.056,36.097c0,0.031-0.015,0.066-0.045,0.105c-0.03,0.038-0.045,0.089-0.045,0.151
		c0,0.072,0.027,0.144,0.082,0.213c0.054,0.07,0.1,0.126,0.136,0.168c0.061-0.016,0.122-0.021,0.183-0.016
		c0.061,0.006,0.103,0.021,0.128,0.046l0.091-0.258c-0.134-0.049-0.231-0.114-0.292-0.198
		C58.232,36.225,58.153,36.154,58.056,36.097z"/>
	<path fill="#FFFFFF" d="M58.476,28.883c-0.062,0.073-0.104,0.128-0.128,0.165c0.024-0.006,0.061-0.016,0.109-0.028
		c0.049-0.012,0.092-0.012,0.128-0.001c-0.061,0.047-0.121,0.094-0.182,0.141c-0.062,0.047-0.122,0.104-0.183,0.171
		c0.108-0.007,0.197-0.032,0.264-0.075c0.067-0.043,0.137-0.105,0.21-0.187v-0.297l-0.091-0.039
		C58.579,28.76,58.537,28.811,58.476,28.883z"/>
	<path fill="#FFFFFF" d="M56.123,37.481c0.061,0.13,0.116,0.198,0.165,0.206c-0.012,0.057-0.016,0.109-0.009,0.159
		c0.006,0.05,0.009,0.103,0.009,0.153c0.061-0.036,0.127-0.071,0.201-0.105c0.073-0.034,0.139-0.07,0.201-0.106
		c0-0.021-0.019-0.047-0.055-0.079c-0.037-0.031-0.043-0.067-0.018-0.105c0.146-0.037,0.242-0.103,0.291-0.199
		c0.098-0.16,0.188-0.34,0.273-0.538c0.085-0.198,0.14-0.368,0.165-0.51c0.036-0.321,0.076-0.631,0.118-0.928
		s0.079-0.595,0.108-0.894c0.03-0.299,0.055-0.612,0.074-0.939c0.018-0.326,0.026-0.688,0.026-1.083
		c0-0.094-0.009-0.169-0.026-0.228c-0.019-0.058-0.037-0.12-0.055-0.189c-0.019-0.066-0.027-0.153-0.027-0.257
		s0.018-0.249,0.055-0.436c0.048-0.22,0.058-0.444,0.028-0.67c-0.031-0.227-0.095-0.462-0.192-0.708
		c-0.012-0.038-0.03-0.129-0.055-0.274c-0.024-0.144-0.061-0.288-0.109-0.433c-0.049-0.143-0.119-0.266-0.21-0.367
		s-0.21-0.133-0.355-0.096c-0.268,0.068-0.471,0.232-0.611,0.491c-0.139,0.26-0.216,0.537-0.227,0.831
		c-0.012,0.242-0.043,0.492-0.092,0.749s-0.08,0.491-0.091,0.702c-0.024,0.37-0.027,0.743-0.009,1.117
		c0.018,0.375,0.015,0.748-0.01,1.118c-0.011,0.087-0.03,0.177-0.054,0.271c-0.024,0.095-0.037,0.173-0.037,0.235
		s0.021,0.138,0.064,0.225c0.042,0.09,0.063,0.159,0.063,0.211v1.279c0,0.114,0.021,0.258,0.063,0.428
		c0.042,0.172,0.094,0.344,0.155,0.515C56.001,37.2,56.062,37.352,56.123,37.481z"/>
	<path fill="#FFFFFF" d="M92.045,25.22c0.012-0.096,0.018-0.189,0.018-0.277c0-0.089-0.012-0.155-0.037-0.201
		c-0.061-0.099-0.133-0.202-0.217-0.311c-0.086-0.108-0.158-0.187-0.219-0.233c0,0.262-0.01,0.521-0.027,0.779
		c-0.02,0.26-0.016,0.506,0.008,0.739c-0.023,0.007-0.064,0.012-0.119,0.015c-0.055,0.004-0.094,0.009-0.117,0.016
		c0.098,0.026,0.172,0.069,0.229,0.129c0.055,0.058,0.111,0.095,0.172,0.11c0.025-0.058,0.078-0.108,0.164-0.151
		c0.086-0.042,0.158-0.086,0.219-0.133c-0.049-0.051-0.076-0.118-0.082-0.206C92.029,25.409,92.033,25.316,92.045,25.22z"/>
	<polygon fill="#FFFFFF" points="91.406,25.087 91.316,25.032 91.262,25.109 91.334,25.168 	"/>
	<polygon fill="#FFFFFF" points="91.316,26.265 91.389,26.277 91.461,26.056 91.389,26.074 	"/>
	<polygon fill="#FFFFFF" points="67.975,34.477 68.121,34.562 68.176,34.502 68.029,34.415 	"/>
	<polygon fill="#FFFFFF" points="77.676,31.991 77.822,32.077 77.875,32.017 77.73,31.93 	"/>
	<path fill="#FFFFFF" d="M75.506,27.211c0,0.021-0.002,0.059-0.01,0.111c-0.006,0.054-0.002,0.089,0.01,0.107
		c-0.025,0.058-0.053,0.125-0.082,0.199c-0.031,0.076-0.064,0.145-0.1,0.206c0.061,0.046,0.088,0.114,0.082,0.205
		c-0.008,0.09,0.01,0.155,0.045,0.198c-0.035,0.125-0.045,0.254-0.027,0.39c0.02,0.136,0.033,0.274,0.047,0.417
		c-0.051,0.064-0.078,0.126-0.082,0.186c-0.008,0.059-0.041,0.096-0.102,0.111l0.328-0.037c0-0.031,0.023-0.068,0.074-0.112
		c0.047-0.044,0.084-0.079,0.109-0.106V27.4c-0.062-0.036-0.117-0.074-0.166-0.113C75.586,27.248,75.543,27.222,75.506,27.211z"/>
	<path fill="#FFFFFF" d="M75.762,26.958c0,0.021-0.016,0.03-0.045,0.027c-0.031-0.003-0.047,0.026-0.047,0.089
		c0,0.074,0.031,0.126,0.092,0.157s0.109,0.058,0.145,0.079c0-0.053-0.023-0.11-0.072-0.176
		C75.785,27.068,75.762,27.011,75.762,26.958z"/>
	<path fill="#FFFFFF" d="M77.531,32.449c-0.146,0.037-0.211,0.018-0.193-0.061c0.02-0.077,0.021-0.178,0.01-0.299
		c0,0.021-0.006,0.059-0.018,0.113c-0.012,0.057-0.049,0.117-0.109,0.185c-0.061,0.016-0.123,0.003-0.184-0.039
		c-0.061-0.041-0.104-0.075-0.127-0.101c0,0.053,0.012,0.109,0.037,0.171c0.023,0.062,0.055,0.099,0.09,0.109
		c0.086-0.085,0.158-0.108,0.221-0.072l-0.037,0.446c-0.061-0.036-0.102-0.078-0.119-0.125c-0.02-0.048-0.057-0.09-0.119-0.126
		c-0.035,0.093-0.088,0.202-0.154,0.328s-0.1,0.227-0.1,0.299c0.049-0.075,0.094-0.149,0.137-0.223
		c0.041-0.073,0.094-0.128,0.154-0.164c-0.037,0.155-0.08,0.286-0.127,0.392c-0.049,0.106-0.086,0.203-0.111,0.293l0.221-0.057
		c0.133-0.117,0.238-0.25,0.318-0.4c0.078-0.15,0.16-0.283,0.246-0.399c-0.061-0.005-0.109-0.021-0.146-0.048
		c-0.035-0.027-0.047-0.058-0.035-0.092c0.023-0.026,0.041-0.042,0.055-0.045l0.018-0.005c0.037,0.011,0.074,0.036,0.109,0.073
		c0.037,0.037,0.066,0.062,0.092,0.077c0-0.021,0.006-0.061,0.018-0.12c0.012-0.062,0.037-0.106,0.072-0.137
		c-0.047-0.008-0.078-0.011-0.09-0.008S77.604,32.43,77.531,32.449z"/>
	<path fill="#FFFFFF" d="M76.162,26.355c0-0.082-0.006-0.19-0.018-0.323c-0.012-0.132-0.029-0.265-0.055-0.398
		c-0.025-0.135-0.053-0.26-0.082-0.377c-0.031-0.117-0.07-0.194-0.119-0.235c-0.061,0.059-0.121,0.144-0.182,0.258
		s-0.092,0.197-0.092,0.249c0,0.073,0.023,0.192,0.074,0.356c0.047,0.164,0.072,0.314,0.072,0.449c0,0.084-0.021,0.18-0.064,0.289
		c-0.043,0.11-0.064,0.206-0.064,0.289c0.061-0.047,0.098-0.1,0.111-0.16c0.01-0.061,0.047-0.098,0.107-0.113
		c0.086-0.021,0.111-0.019,0.074,0.013c-0.037,0.029-0.02,0.036,0.055,0.017c0.072-0.019,0.121-0.061,0.145-0.123
		C76.15,26.481,76.162,26.418,76.162,26.355z"/>
	<path fill="#FFFFFF" d="M90.787,29.364c0.023,0.016,0.051,0.032,0.082,0.05c0.029,0.018,0.045,0.043,0.045,0.074
		c-0.061,0.068-0.131,0.132-0.209,0.193c-0.08,0.062-0.131,0.123-0.156,0.181l0.328-0.084c0.135-0.128,0.201-0.243,0.201-0.349
		C91.078,29.357,90.98,29.336,90.787,29.364z"/>
	<path fill="#FFFFFF" d="M34.625,42.974c0.255,0.08,0.432,0.185,0.529,0.316c0.098,0.132,0.188,0.294,0.273,0.491
		c0.207-0.073,0.334-0.111,0.383-0.113c0.048-0.002,0.109-0.013,0.183-0.031c0.073-0.019,0.176-0.092,0.309-0.22
		c0.135-0.128,0.249-0.23,0.346-0.307c0,0.104-0.033,0.192-0.1,0.267c-0.066,0.074-0.139,0.137-0.218,0.189
		c-0.08,0.051-0.161,0.101-0.246,0.148c-0.085,0.048-0.146,0.097-0.183,0.148c0.183-0.099,0.371-0.215,0.565-0.348
		c0.194-0.133,0.371-0.272,0.529-0.417c-0.062-0.036-0.113-0.08-0.155-0.132c-0.042-0.051-0.058-0.1-0.045-0.145
		c-0.122,0.114-0.273,0.224-0.456,0.328c-0.183,0.104-0.311,0.165-0.383,0.184c-0.109,0.028-0.198,0.021-0.264-0.018
		c-0.067-0.041-0.125-0.09-0.174-0.15C35.47,43.105,35.43,43.051,35.4,43c-0.03-0.049-0.063-0.069-0.1-0.06
		c-0.085,0.021-0.113,0.036-0.083,0.044s0.003,0.023-0.081,0.045c-0.073,0.019-0.152,0.014-0.238-0.018
		C34.813,42.981,34.723,42.969,34.625,42.974z"/>
	<path fill="#FFFFFF" d="M37.433,42.534l0.273-0.07c0-0.021,0.024-0.058,0.074-0.112c0.048-0.054,0.084-0.084,0.108-0.09v-0.297
		l-0.273,0.07c-0.061,0.067-0.122,0.148-0.183,0.242c-0.061,0.093-0.104,0.153-0.128,0.18C37.39,42.436,37.433,42.462,37.433,42.534
		z"/>
	<polygon fill="#FFFFFF" points="55.048,37.943 55.121,38.003 55.193,37.938 55.103,37.883 	"/>
	<path fill="#FFFFFF" d="M37.314,33.672c-0.03-0.055-0.094-0.079-0.191-0.076c0.073-0.07,0.146-0.12,0.219-0.149
		c0.073-0.028,0.121-0.099,0.146-0.208c-0.085-0.041-0.158-0.027-0.219,0.04c-0.024-0.015-0.037-0.045-0.037-0.092s0-0.08,0-0.102
		c-0.012,0.003-0.04,0.025-0.082,0.067c-0.043,0.043-0.089,0.088-0.137,0.137c-0.048,0.049-0.094,0.103-0.137,0.16
		c-0.042,0.058-0.063,0.107-0.063,0.148c0,0.031,0.021,0.062,0.063,0.093c0.043,0.031,0.092,0.061,0.147,0.087
		c0.054,0.029,0.111,0.047,0.173,0.058c0.061,0.011,0.103,0.013,0.128,0.007c0.084-0.021,0.13-0.047,0.136-0.074
		c0.006-0.028,0.021-0.045,0.045-0.051C37.408,33.742,37.345,33.727,37.314,33.672z"/>
	<path fill="#FFFFFF" d="M37.142,43.264c-0.012-0.059-0.03-0.096-0.055-0.11c-0.025,0.027-0.048,0.065-0.073,0.112
		c-0.012,0.024-0.018,0.042-0.018,0.052L37.16,43.4C37.16,43.369,37.154,43.323,37.142,43.264z"/>
	<path fill="#FFFFFF" d="M37.497,43.243c-0.189,0.127-0.35,0.233-0.483,0.319c-0.146,0.089-0.307,0.151-0.483,0.187
		c-0.176,0.034-0.319,0.081-0.428,0.141c-0.025,0.027-0.048,0.074-0.073,0.143c-0.024,0.069-0.024,0.127,0,0.172l0.273-0.069
		l0.128-0.143c0.255-0.086,0.521-0.219,0.793-0.397c0.273-0.18,0.495-0.364,0.665-0.554V42.9
		C37.816,43.004,37.686,43.117,37.497,43.243z"/>
	<path fill="#FFFFFF" d="M25.836,45.146c-0.183,0.131-0.273,0.268-0.273,0.413c0,0.062,0.005,0.101,0.018,0.112
		c0.011,0.014,0.03,0.027,0.055,0.041l0.219-0.056c0-0.052,0.021-0.102,0.063-0.149c0.042-0.047,0.083-0.086,0.119-0.116
		c-0.024-0.046-0.049-0.094-0.073-0.145C25.939,45.195,25.896,45.163,25.836,45.146z"/>
	<polygon fill="#FFFFFF" points="38.4,35.188 38.6,35.199 38.637,35.111 38.4,35.109 	"/>
	<path fill="#FFFFFF" d="M38.254,41.154c-0.024,0.006-0.062,0.023-0.109,0.051c-0.048,0.028-0.085,0.035-0.11,0.021
		c0.074-0.102,0.11-0.169,0.11-0.2c-0.036,0.01-0.076,0.03-0.119,0.062c-0.042,0.032-0.077,0.066-0.1,0.104v0.39
		c0.061-0.067,0.13-0.142,0.209-0.225C38.214,41.273,38.254,41.206,38.254,41.154z"/>
	<polygon fill="#FFFFFF" points="35.136,40.175 35.026,40.203 35.026,40.451 35.136,40.424 	"/>
	<path fill="#FFFFFF" d="M47.397,31.908c-0.127-0.181-0.325-0.31-0.592-0.387c-0.268-0.076-0.632-0.036-1.095,0.125v3.525
		l0.292-0.122c0.255-0.044,0.486-0.15,0.692-0.317c0.207-0.167,0.383-0.355,0.529-0.564c0.146-0.209,0.258-0.425,0.338-0.648
		c0.078-0.223,0.118-0.423,0.118-0.6c0-0.083-0.015-0.228-0.045-0.433C47.604,32.281,47.525,32.088,47.397,31.908z"/>
	<path fill="#FFFFFF" d="M57.673,37.092c0.049-0.028,0.085-0.045,0.11-0.051v-0.188l-0.219,0.056c0,0.021,0.006,0.058,0.018,0.112
		c0.012,0.054,0,0.096-0.036,0.127C57.582,37.139,57.625,37.12,57.673,37.092z"/>
	<path fill="#FFFFFF" d="M57.947,36.748c0-0.146-0.037-0.222-0.11-0.229c-0.073-0.007-0.11-0.005-0.11,0.005
		c0,0.062,0.03,0.112,0.092,0.148C57.88,36.709,57.922,36.734,57.947,36.748z"/>
	<path fill="#FFFFFF" d="M57.6,27.976c-0.025-0.076-0.054-0.124-0.091-0.141c-0.037-0.016-0.098-0.039-0.183-0.07
		c-0.036,0.208-0.025,0.313,0.037,0.319c-0.073,0.061-0.112,0.101-0.118,0.123c-0.006,0.022-0.021,0.073-0.046,0.152
		c0.061-0.099,0.137-0.174,0.228-0.222C57.519,28.088,57.575,28.034,57.6,27.976z"/>
	<path fill="#FFFFFF" d="M44.243,32.623c-0.055,0.05-0.082,0.106-0.082,0.169c0,0.052,0.012,0.085,0.037,0.1
		c0.011,0.007,0.024,0.01,0.036,0.007c0.048-0.034,0.097-0.075,0.146-0.123c0.049-0.05,0.103-0.092,0.165-0.129
		c0.024-0.026,0.039-0.067,0.045-0.121c0.006-0.053,0.021-0.099,0.045-0.136l-0.218,0.056
		C44.355,32.514,44.298,32.572,44.243,32.623z"/>
	<path fill="#FFFFFF" d="M38.737,33.519c-0.043-0.14-0.1-0.269-0.174-0.386c-0.073-0.115-0.164-0.186-0.273-0.21
		c-0.036,0.124-0.07,0.226-0.1,0.306c-0.03,0.082-0.058,0.167-0.082,0.256c-0.062,0.016-0.092-0.013-0.092-0.086l-0.164,0.167
		c0,0.125-0.004,0.264-0.01,0.415c-0.006,0.153,0.015,0.281,0.063,0.383c0-0.073,0.025-0.152,0.074-0.238
		c0.048-0.084,0.091-0.143,0.128-0.173c0.023,0.016,0.036,0.032,0.036,0.054v0.016c-0.036,0.062-0.058,0.129-0.063,0.203
		c-0.007,0.075-0.019,0.147-0.037,0.221c-0.018,0.072-0.045,0.139-0.082,0.199c-0.036,0.062-0.098,0.109-0.182,0.141
		c0.023,0.016,0.061,0.026,0.108,0.035c0.025,0.004,0.048,0.003,0.073-0.004c0-0.031-0.003-0.063-0.009-0.1
		c-0.006-0.034,0.027-0.062,0.101-0.08c0.133-0.034,0.224-0.031,0.273,0.008c-0.024,0.028-0.04,0.053-0.045,0.074
		c-0.006,0.023-0.021,0.053-0.046,0.09c-0.036,0.01-0.073,0.012-0.109,0.005c-0.037-0.006-0.067-0.006-0.092,0
		c0.062,0.161,0.134,0.294,0.219,0.396c0-0.052-0.009-0.109-0.027-0.172c-0.018-0.063-0.009-0.126,0.027-0.187
		c0.048,0.039,0.101,0.057,0.155,0.054c0.054-0.004,0.112-0.013,0.173-0.028c0.036,0.042,0.076,0.079,0.118,0.109
		s0.082,0.036,0.118,0.016c0-0.113-0.003-0.229-0.008-0.348c-0.007-0.117,0.002-0.228,0.027-0.328
		c-0.012-0.017-0.01-0.041,0.008-0.071s0.027-0.077,0.027-0.14c0-0.021-0.012-0.091-0.036-0.209
		C38.813,33.787,38.779,33.658,38.737,33.519z"/>
	<path fill="#FFFFFF" d="M44.58,33.542l-0.236,0.061c0,0.053,0.018,0.104,0.055,0.158c0.036,0.053,0.066,0.092,0.091,0.117
		l0.146-0.162c0-0.021-0.008-0.047-0.027-0.079C44.589,33.605,44.58,33.573,44.58,33.542z"/>
	<path fill="#FFFFFF" d="M44.617,33.002c-0.012-0.08-0.052-0.132-0.118-0.156c-0.067-0.024-0.1-0.021-0.1,0.011
		c0,0.062,0.023,0.108,0.073,0.136c0.048,0.03,0.073,0.066,0.073,0.107L44.617,33.002z"/>
	<polygon fill="#FFFFFF" points="37.415,42.555 37.069,42.643 36.996,42.756 37.342,42.667 	"/>
	<path fill="#FFFFFF" d="M102.365,25.634c0.061,0.13,0.117,0.199,0.166,0.207c-0.014,0.056-0.018,0.108-0.01,0.159
		c0.006,0.05,0.01,0.102,0.01,0.153c0.061-0.037,0.127-0.071,0.199-0.106c0.074-0.034,0.141-0.069,0.201-0.105
		c0-0.021-0.02-0.047-0.055-0.08c-0.037-0.031-0.043-0.067-0.018-0.104c0.145-0.038,0.242-0.104,0.291-0.2
		c0.098-0.159,0.188-0.339,0.273-0.537c0.086-0.199,0.141-0.369,0.164-0.51c0.037-0.322,0.076-0.631,0.119-0.928
		c0.043-0.298,0.078-0.595,0.107-0.894c0.031-0.299,0.057-0.612,0.074-0.94c0.018-0.326,0.027-0.688,0.027-1.082
		c0-0.094-0.01-0.17-0.027-0.229c-0.018-0.057-0.037-0.12-0.055-0.188c-0.02-0.067-0.027-0.154-0.027-0.258s0.018-0.249,0.055-0.435
		c0.049-0.221,0.059-0.444,0.027-0.67c-0.031-0.227-0.094-0.463-0.191-0.708c-0.012-0.039-0.031-0.13-0.055-0.275
		c-0.025-0.144-0.061-0.288-0.109-0.432s-0.119-0.267-0.209-0.367c-0.092-0.102-0.211-0.134-0.357-0.097
		c-0.268,0.068-0.471,0.232-0.609,0.492c-0.141,0.259-0.217,0.536-0.229,0.83c-0.012,0.242-0.043,0.492-0.092,0.749
		c-0.047,0.257-0.078,0.491-0.09,0.702c-0.025,0.371-0.027,0.743-0.01,1.117c0.018,0.376,0.016,0.748-0.01,1.118
		c-0.012,0.087-0.029,0.178-0.053,0.271c-0.025,0.096-0.037,0.174-0.037,0.236s0.02,0.138,0.064,0.225
		c0.041,0.089,0.062,0.158,0.062,0.21v1.279c0,0.114,0.021,0.258,0.064,0.429c0.041,0.171,0.094,0.343,0.154,0.514
		C102.244,25.353,102.305,25.504,102.365,25.634z"/>
	<path fill="#FFFFFF" d="M102.203,26.253c0.023-0.037,0.041-0.089,0.053-0.154c0.014-0.065,0-0.104-0.035-0.116
		c0,0.021-0.008,0.064-0.018,0.13C102.189,26.178,102.189,26.225,102.203,26.253z"/>
	<path fill="#FFFFFF" d="M104.627,25.055c-0.061,0.067-0.109,0.129-0.146,0.185c-0.035,0.057-0.066,0.078-0.09,0.062l-0.055,0.015
		c0.012-0.023,0.023-0.04,0.035-0.049c0.014-0.008,0.02-0.022,0.02-0.044v-0.047c-0.025,0.007-0.072,0.042-0.146,0.108
		c-0.072,0.064-0.121,0.111-0.146,0.139c0.061,0.006,0.109,0.021,0.146,0.049s0.049,0.057,0.037,0.092
		c-0.061,0.078-0.129,0.126-0.201,0.145c-0.109-0.055-0.225-0.088-0.346-0.099c0.023-0.058,0.027-0.121,0.008-0.189
		c-0.018-0.067-0.027-0.128-0.027-0.18c-0.061,0.016-0.115,0.04-0.164,0.073s-0.09,0.055-0.127,0.064
		c0.061,0.077,0.088,0.17,0.082,0.274c-0.006,0.106-0.01,0.21-0.01,0.315c-0.023,0.006-0.055,0.006-0.09,0
		c-0.037-0.007-0.092,0-0.166,0.018c-0.072,0.02-0.189,0.083-0.355,0.193c-0.162,0.109-0.275,0.171-0.336,0.187
		c-0.086,0.022-0.109,0.021-0.072-0.005c0.035-0.024,0.018-0.027-0.055-0.009c-0.146,0.037-0.273,0.128-0.385,0.27v0.172
		c0.061-0.015,0.107-0.009,0.139,0.02c0.029,0.028,0.062,0.049,0.1,0.061c-0.037,0.041-0.055,0.076-0.055,0.107v0.03
		c0.061-0.025,0.127-0.045,0.201-0.058c0.072-0.014,0.121-0.034,0.145-0.062c-0.049,0.013-0.109-0.003-0.182-0.047l0.164-0.167
		c0.061,0.005,0.098,0.035,0.109,0.09c0.012,0.054,0.055,0.071,0.127,0.053c0.074-0.019,0.119-0.041,0.137-0.066
		c0.018-0.026,0.045-0.027,0.082-0.005c-0.037,0.029-0.057,0.062-0.064,0.094c-0.004,0.032-0.027,0.064-0.062,0.094
		c0.035-0.009,0.088-0.012,0.154-0.008s0.113,0.002,0.137-0.004c0.025-0.059,0.055-0.132,0.092-0.219s0.072-0.162,0.109-0.223
		c-0.037,0.01-0.07,0-0.102-0.029c-0.029-0.028-0.057-0.049-0.082-0.064l0.203-0.083c0.061,0.037,0.111,0.076,0.152,0.117
		c0.043,0.04,0.096,0.079,0.156,0.116c0.025-0.027,0.045-0.072,0.064-0.134c0.018-0.062,0.068-0.104,0.154-0.126
		c0.074-0.019,0.102-0.018,0.082,0.003c-0.018,0.021,0.016,0.02,0.1-0.002c0.074-0.019,0.129-0.062,0.166-0.128
		c0.035-0.066,0.061-0.127,0.072-0.184c-0.062-0.004-0.119-0.018-0.174-0.041c-0.055-0.022-0.082-0.043-0.082-0.064
		c0.061-0.047,0.105-0.084,0.137-0.113c0.029-0.028,0.057-0.061,0.082-0.099c0.061,0.036,0.125,0.062,0.191,0.076
		c0.066,0.014,0.131,0.022,0.191,0.028c0-0.01-0.002-0.021-0.01-0.028c-0.006-0.009-0.008-0.02-0.008-0.029
		c-0.012-0.007-0.018-0.017-0.018-0.026c0-0.053,0.029-0.094,0.09-0.125s0.092-0.073,0.092-0.125c0-0.072-0.033-0.14-0.102-0.2
		C104.66,25.162,104.627,25.106,104.627,25.055z M102.895,26.652v-0.078l0.146-0.1l0.018,0.073L102.895,26.652z M102.859,26.459
		l-0.055-0.064l0.219-0.165l0.055,0.048L102.859,26.459z M103.697,26.338l-0.072-0.013l0.09-0.211l0.092,0.008L103.697,26.338z
		 M104.436,25.478c-0.029-0.044-0.027-0.081,0.01-0.111c0,0.021,0.006,0.056,0.018,0.104s0.018,0.089,0.018,0.12
		C104.48,25.56,104.467,25.521,104.436,25.478z"/>
	<path fill="#FFFFFF" d="M103.842,16.129c-0.023-0.077-0.053-0.124-0.09-0.141s-0.098-0.04-0.182-0.07
		c-0.037,0.207-0.025,0.313,0.035,0.318c-0.072,0.061-0.111,0.101-0.117,0.124c-0.008,0.022-0.021,0.073-0.047,0.151
		c0.061-0.099,0.137-0.173,0.229-0.222C103.762,16.24,103.818,16.187,103.842,16.129z"/>
	<path fill="#FFFFFF" d="M104.299,24.249c0,0.031-0.016,0.066-0.045,0.105c-0.031,0.039-0.047,0.09-0.047,0.152
		c0,0.072,0.029,0.144,0.084,0.212c0.053,0.07,0.1,0.126,0.135,0.168c0.061-0.015,0.123-0.02,0.184-0.015s0.104,0.021,0.127,0.045
		l0.092-0.258c-0.135-0.049-0.23-0.114-0.291-0.197C104.475,24.378,104.396,24.307,104.299,24.249z"/>
	<path fill="#FFFFFF" d="M101.764,25.319c0-0.021-0.021-0.033-0.062-0.038c-0.043-0.005-0.092-0.016-0.146-0.032
		c-0.055-0.018-0.102-0.083-0.137-0.199l-0.475,0.121l-0.109,0.122l-0.055-0.033l-0.145,0.162c0.023,0.025,0.055,0.049,0.09,0.07
		c0.037,0.021,0.055,0.048,0.055,0.079c0.061-0.099,0.137-0.19,0.229-0.276c0.09-0.085,0.168-0.137,0.229-0.151
		c0.047-0.013,0.072-0.009,0.072,0.013c0,0.01-0.006,0.017-0.018,0.02c-0.062,0.078-0.139,0.145-0.229,0.199
		c-0.092,0.054-0.137,0.149-0.137,0.284c0,0.053,0.012,0.086,0.037,0.101c0.012,0.007,0.029,0.008,0.055,0.001
		c0.061-0.036,0.121-0.094,0.182-0.171c0.061-0.079,0.121-0.15,0.182-0.219c0.037,0.012,0.059,0.026,0.064,0.045
		c0.006,0.021,0.021,0.026,0.045,0.021c0,0.062-0.008,0.125-0.027,0.187c-0.018,0.062-0.029,0.117-0.037,0.166
		c-0.004,0.048,0,0.09,0.02,0.127c0.018,0.037,0.059,0.059,0.119,0.062c-0.014,0.025-0.021,0.045-0.027,0.062
		c-0.008,0.018,0.002,0.038,0.027,0.062l0.127-0.142c0.023,0.016,0.035,0.036,0.035,0.062c0,0.026,0,0.05,0,0.07
		c0.025,0.015,0.064-0.021,0.121-0.109c0.055-0.086,0.111-0.163,0.172-0.23c-0.049-0.092-0.17-0.17-0.365-0.234
		C101.727,25.407,101.764,25.341,101.764,25.319z"/>
	<polygon fill="#FFFFFF" points="101.291,26.096 101.363,26.155 101.436,26.09 101.346,26.035 	"/>
	<path fill="#FFFFFF" d="M110.57,15.903c0,0.052,0.016,0.103,0.047,0.151c0.029,0.05,0.045,0.084,0.045,0.105
		c0-0.031,0.027-0.051,0.082-0.061c0.055-0.008,0.094-0.016,0.119-0.022c0.023-0.058,0.051-0.124,0.082-0.2
		c0.029-0.075,0.045-0.139,0.045-0.191l-0.273,0.07L110.57,15.903z"/>
	<path fill="#FFFFFF" d="M115.822,22.919l-0.199,0.052c0,0.053,0.029,0.117,0.09,0.195s0.135,0.105,0.219,0.084
		c0.072-0.019,0.1-0.033,0.082-0.044c-0.018-0.012,0.016-0.027,0.102-0.05c0.072-0.019,0.121-0.01,0.145,0.025
		c0.025,0.036,0.068,0.055,0.129,0.061c0.023-0.027,0.055-0.065,0.092-0.117c0.035-0.051,0.053-0.092,0.053-0.123
		c-0.145-0.035-0.258-0.068-0.336-0.101C116.117,22.869,115.992,22.875,115.822,22.919z"/>
	<path fill="#FFFFFF" d="M104.719,17.035c-0.061,0.073-0.104,0.128-0.127,0.166c0.023-0.007,0.061-0.016,0.107-0.028
		c0.051-0.013,0.092-0.013,0.129-0.002c-0.061,0.047-0.121,0.094-0.182,0.141c-0.062,0.047-0.123,0.104-0.184,0.172
		c0.109-0.007,0.197-0.033,0.264-0.075c0.068-0.044,0.139-0.105,0.211-0.188v-0.297l-0.092-0.039
		C104.822,16.913,104.779,16.963,104.719,17.035z"/>
	<path fill="#FFFFFF" d="M17.238,33.012v20.169l120.631-30.945V2.06L17.238,33.012z M77.311,24.174
		c0.049,0.008,0.092,0.008,0.129-0.001c0,0.021-0.014,0.062-0.037,0.126c-0.023,0.062-0.066,0.119-0.127,0.166l-0.072-0.294
		C77.227,24.164,77.264,24.166,77.311,24.174z M75.615,21.629c-0.023,0.027-0.072,0.042-0.145,0.045
		c-0.074,0.004-0.123-0.008-0.146-0.032L75.615,21.629z M67.611,26.659c0.049,0.008,0.092,0.008,0.127-0.001
		c0,0.02-0.012,0.062-0.035,0.126c-0.025,0.063-0.068,0.119-0.129,0.165l-0.072-0.293C67.525,26.65,67.562,26.651,67.611,26.659z
		 M65.916,24.114c-0.025,0.026-0.074,0.042-0.146,0.045c-0.074,0.003-0.122-0.008-0.146-0.032L65.916,24.114z M49.121,27.862
		c0.048-0.069,0.085-0.118,0.109-0.145c0.073,0.044,0.061,0.108-0.037,0.196c0,0.031,0.024,0.056,0.073,0.074
		c0.048,0.02,0.085,0.025,0.11,0.02c0,0.021-0.025,0.068-0.073,0.144c-0.049,0.075-0.073,0.139-0.073,0.19
		c-0.024-0.045-0.052-0.104-0.082-0.174s-0.077-0.123-0.137-0.16C49.036,27.98,49.072,27.933,49.121,27.862z M30.813,43.178
		c-0.024,0.094-0.055,0.206-0.091,0.334c-0.037,0.13-0.079,0.268-0.127,0.416c-0.049,0.147-0.104,0.281-0.165,0.4
		c-0.048,0.097-0.118,0.221-0.21,0.374c-0.091,0.153-0.191,0.306-0.301,0.459c-0.109,0.153-0.219,0.296-0.329,0.428
		c-0.109,0.132-0.206,0.224-0.291,0.277c-0.061,0.036-0.14,0.085-0.238,0.146c-0.097,0.062-0.198,0.123-0.301,0.187
		c-0.103,0.062-0.194,0.117-0.273,0.164c-0.079,0.045-0.136,0.073-0.173,0.083l-0.383,0.099c-0.243,0.062-0.486,0.074-0.729,0.038
		s-0.517-0.095-0.82-0.172c-0.049,0.096-0.043,0.197,0.018,0.307l-0.273,0.023c-0.183,0.068-0.395,0.146-0.638,0.233
		c-0.243,0.088-0.401,0.143-0.474,0.161c-0.085,0.021-0.148,0.022-0.191,0.002c-0.043-0.021-0.07-0.038-0.083-0.057v-3.932
		c0.061,0.006,0.103,0.011,0.128,0.014c0.024,0.005,0.067,0.009,0.127,0.015c0.207-0.074,0.438-0.146,0.693-0.217
		c0.254-0.07,0.485-0.148,0.693-0.232c0.012,0.019,0.021,0.049,0.027,0.095c0.005,0.046,0.009,0.136,0.009,0.271
		s-0.004,0.326-0.009,0.572c-0.007,0.246-0.01,0.576-0.01,0.992c0.013,0.019,0.043,0.06,0.092,0.125
		c0.048,0.066,0.103,0.138,0.164,0.216c0.061,0.077,0.131,0.144,0.21,0.195c0.078,0.054,0.161,0.068,0.246,0.047
		c0.073-0.019,0.131-0.042,0.173-0.068s0.106-0.05,0.191-0.072c0.025-0.006,0.064-0.029,0.119-0.069
		c0.055-0.039,0.112-0.088,0.173-0.146c0.061-0.057,0.115-0.114,0.164-0.174c0.049-0.059,0.08-0.111,0.092-0.156
		c0.023-0.079,0.051-0.171,0.082-0.278c0.03-0.106,0.062-0.211,0.092-0.312c0.03-0.102,0.055-0.19,0.073-0.269
		c0.018-0.077,0.027-0.132,0.027-0.163c0-0.062-0.022-0.148-0.064-0.256c-0.042-0.109-0.088-0.214-0.136-0.317
		c-0.049-0.102-0.1-0.191-0.155-0.271c-0.055-0.079-0.088-0.129-0.1-0.146c-0.024-0.035-0.08-0.061-0.164-0.076
		c-0.086-0.014-0.159-0.029-0.22-0.045c-0.036-0.168-0.127-0.326-0.273-0.477c-0.146-0.148-0.313-0.298-0.501-0.448
		c-0.188-0.149-0.376-0.306-0.566-0.472c-0.188-0.164-0.343-0.34-0.464-0.527c-0.062-0.088-0.167-0.182-0.319-0.277
		c-0.152-0.097-0.252-0.195-0.301-0.298c-0.074-0.147-0.147-0.317-0.22-0.513c-0.073-0.194-0.14-0.386-0.2-0.573
		s-0.113-0.351-0.155-0.49s-0.063-0.226-0.063-0.257c0-0.062,0.021-0.146,0.063-0.25s0.077-0.201,0.1-0.291
		c0.085-0.387,0.21-0.742,0.375-1.071c0.164-0.328,0.397-0.65,0.702-0.968c0.267-0.276,0.535-0.454,0.802-0.533
		c0.267-0.078,0.552-0.157,0.857-0.235c0.133-0.034,0.279-0.022,0.437,0.036c0.158,0.06,0.311,0.111,0.456,0.156
		c0.061-0.119,0.103-0.197,0.128-0.235c0.024-0.038,0.082-0.067,0.173-0.091c0.092-0.023,0.243-0.057,0.456-0.102
		c0.213-0.044,0.538-0.138,0.976-0.281v3.526l-1.623,0.416c-0.012-0.07-0.018-0.171-0.018-0.3c0-0.131-0.004-0.262-0.009-0.396
		c-0.007-0.133-0.015-0.254-0.027-0.36c-0.013-0.105-0.03-0.182-0.055-0.227c-0.012-0.018-0.005-0.054,0.019-0.107
		c0.023-0.053,0.023-0.102,0-0.148c-0.062-0.16-0.144-0.304-0.247-0.428c-0.103-0.123-0.271-0.157-0.501-0.098l-0.164,0.042
		c-0.17,0.044-0.307,0.116-0.411,0.214c-0.103,0.1-0.185,0.207-0.246,0.321c-0.062,0.114-0.104,0.224-0.128,0.329
		c-0.024,0.105-0.037,0.184-0.037,0.235s0.002,0.095,0.009,0.131c0.006,0.034,0.033,0.062,0.082,0.08
		c0.012,0.018,0.018,0.05,0.018,0.097s-0.006,0.082-0.018,0.105c0.073,0.138,0.149,0.282,0.228,0.433
		c0.079,0.152,0.167,0.32,0.264,0.503c-0.024-0.016-0.067-0.02-0.128-0.014c-0.061,0.004-0.121,0.004-0.183,0l-0.091,0.101
		c0,0.03,0.021,0.049,0.064,0.054c0.042,0.004,0.082,0.002,0.118-0.008c-0.062,0.068-0.122,0.146-0.183,0.234
		c-0.061,0.089-0.122,0.183-0.182,0.281l0.091,0.055c0.097-0.077,0.194-0.141,0.292-0.191c0.098-0.052,0.195-0.09,0.292-0.114
		c0.036-0.052,0.042-0.109,0.018-0.177c-0.025-0.065-0.025-0.128,0-0.188c0.061,0.037,0.13,0.103,0.209,0.197
		c0.08,0.094,0.119,0.172,0.119,0.234c0,0.052-0.024,0.105-0.073,0.158c-0.049,0.055-0.104,0.101-0.165,0.137
		c0.024,0.024,0.055,0.032,0.092,0.023c0.036-0.01,0.066-0.018,0.091-0.023c-0.025,0.027-0.055,0.061-0.091,0.102
		c-0.037,0.04-0.085,0.084-0.147,0.131c0.025,0.014,0.03,0.021,0.019,0.019c-0.012-0.002,0.018-0.013,0.091-0.031
		c0.146-0.037,0.268-0.115,0.365-0.234c0-0.021-0.007-0.058-0.019-0.112c-0.012-0.053-0.018-0.106-0.018-0.158
		c0.279,0.251,0.569,0.504,0.867,0.761c0.297,0.257,0.592,0.482,0.884,0.679c0.122,0.072,0.265,0.14,0.428,0.201
		c0.165,0.062,0.277,0.148,0.338,0.258c0.183,0.369,0.343,0.71,0.483,1.022c0.139,0.313,0.209,0.646,0.209,0.999
		C30.85,43.02,30.837,43.082,30.813,43.178z M39.367,35.486c-0.086,0.199-0.152,0.341-0.201,0.426
		c-0.134,0.015-0.283,0.049-0.447,0.107c-0.164,0.058-0.326,0.096-0.483,0.115c-0.061,0.006-0.154,0.004-0.282-0.006
		c-0.127-0.008-0.24,0-0.337,0.024c0-0.01-0.003-0.129-0.01-0.355c-0.005-0.228-0.036-0.47-0.091-0.726
		c-0.055-0.257-0.136-0.483-0.246-0.679c-0.109-0.195-0.262-0.268-0.456-0.218c-0.256,0.065-0.483,0.207-0.684,0.424
		c-0.201,0.219-0.331,0.454-0.392,0.709c-0.025,0.059-0.019,0.122,0.018,0.19c0.037,0.069,0.037,0.144,0,0.227
		c-0.11,0.268-0.183,0.518-0.219,0.749c-0.037,0.234-0.062,0.461-0.073,0.682c-0.012,0.223-0.019,0.451-0.019,0.684
		c0,0.234-0.018,0.486-0.055,0.756c0-0.062-0.024-0.108-0.073-0.138c-0.085,0.021-0.151,0.07-0.201,0.146
		c0,0.031,0.006,0.079,0.019,0.144c0.011,0.064,0.021,0.132,0.027,0.204c0.005,0.07,0.008,0.135,0.008,0.191
		c0,0.058-0.018,0.091-0.055,0.1c-0.085,0.022-0.131,0.024-0.136,0.004c-0.007-0.019-0.022-0.01-0.045,0.027v0.141
		c0.023,0.016,0.03,0.023,0.018,0.027c-0.013,0.003,0.018-0.005,0.091-0.023c0.146-0.037,0.24-0.105,0.283-0.205
		s0.094-0.193,0.155-0.281c0.012,0.08,0.033,0.157,0.063,0.232c0.03,0.076,0.052,0.154,0.064,0.233
		c-0.012,0.034-0.027,0.052-0.045,0.051c-0.019,0-0.027,0.03-0.027,0.093s0.015,0.111,0.045,0.145s0.045,0.076,0.045,0.129
		c0.024,0.201,0.033,0.415,0.027,0.641c-0.006,0.225-0.003,0.455,0.01,0.691c0.023,0.171,0.054,0.345,0.091,0.522
		c0.037,0.179,0.066,0.353,0.091,0.522c0.012,0.07,0.024,0.15,0.037,0.24c0.012,0.091,0.033,0.174,0.063,0.25
		c0.03,0.075,0.08,0.133,0.146,0.172c0.066,0.041,0.167,0.044,0.301,0.01c0.109-0.028,0.197-0.066,0.264-0.115
		c0.067-0.048,0.167-0.178,0.301-0.389c0.098-0.139,0.195-0.276,0.292-0.41c0.096-0.135,0.176-0.277,0.236-0.427v-0.031
		c0,0.011-0.018,0.005-0.055-0.018c0.061-0.224,0.112-0.497,0.155-0.82c0.043-0.322,0.076-0.632,0.101-0.931
		c0.024,0.016,0.037,0.025,0.037,0.029c0,0.006,0.042-0.003,0.128-0.024c0.036-0.009,0.091-0.036,0.164-0.081
		c0.073-0.044,0.152-0.093,0.237-0.146c0.084-0.054,0.167-0.104,0.246-0.149c0.079-0.047,0.137-0.074,0.173-0.083
		c0.097-0.025,0.188-0.002,0.273,0.07c0.085,0.071,0.158,0.159,0.22,0.263c0.061,0.105,0.109,0.207,0.146,0.307
		c0.036,0.1,0.055,0.165,0.055,0.196c0,0.062-0.012,0.095-0.037,0.095c-0.024,0.002-0.049,0.016-0.073,0.043
		c-0.012,0.076-0.009,0.158,0.009,0.247c0.018,0.089,0.014,0.178-0.009,0.267l-0.018,0.021c-0.012,0.015-0.024,0.033-0.037,0.057
		c-0.025,0.06-0.025,0.108,0,0.148c0.024,0.04,0.03,0.088,0.018,0.144c-0.073,0.393-0.194,0.77-0.364,1.131
		c-0.17,0.361-0.383,0.686-0.639,0.975s-0.544,0.54-0.866,0.752c-0.323,0.213-0.673,0.368-1.049,0.465
		c-0.316,0.08-0.602,0.084-0.857,0.008c-0.255-0.074-0.482-0.193-0.684-0.354c-0.2-0.161-0.374-0.354-0.519-0.577
		c-0.146-0.223-0.271-0.445-0.374-0.669c-0.103-0.224-0.18-0.43-0.228-0.62c-0.048-0.19-0.073-0.338-0.073-0.441
		c0-0.062-0.012-0.163-0.037-0.303c-0.025-0.14-0.048-0.281-0.073-0.426c-0.025-0.145-0.048-0.275-0.073-0.395
		c-0.024-0.119-0.036-0.193-0.036-0.225v-1.873c0-0.031,0.003-0.094,0.008-0.189c0.007-0.096,0.019-0.205,0.037-0.328
		c0.018-0.124,0.036-0.252,0.055-0.382c0.018-0.128,0.039-0.243,0.063-0.343c0.024-0.121,0.048-0.307,0.073-0.557
		c0.024-0.251,0.064-0.537,0.119-0.858c0.054-0.32,0.136-0.659,0.246-1.014c0.109-0.356,0.261-0.694,0.456-1.015
		c0.194-0.32,0.446-0.605,0.757-0.857c0.309-0.251,0.695-0.436,1.158-0.554c0.169-0.044,0.374-0.022,0.61,0.062
		c0.237,0.085,0.428,0.192,0.574,0.321c0.097-0.097,0.137-0.188,0.119-0.271c-0.019-0.084-0.045-0.147-0.083-0.19
		c0.158-0.05,0.326-0.106,0.501-0.167c0.176-0.062,0.343-0.113,0.501-0.16c0.158-0.045,0.304-0.077,0.438-0.097
		c0.133-0.019,0.231-0.014,0.292,0.012l0.055-0.014c0.037,0.084,0.045,0.146,0.027,0.188c-0.018,0.041-0.034,0.095-0.045,0.159
		c-0.012,0.284,0.003,0.567,0.045,0.847c0.043,0.28,0.039,0.567-0.009,0.861c-0.024,0.151-0.03,0.278-0.018,0.379
		s0.03,0.182,0.055,0.243c0.023,0.062,0.048,0.114,0.073,0.16c0.024,0.046,0.036,0.091,0.036,0.132
		C39.493,35.105,39.451,35.288,39.367,35.486z M36.54,37.342c-0.073,0.035-0.122,0.044-0.146,0.029l0.292-0.137
		C36.661,37.271,36.613,37.308,36.54,37.342z M36.613,39.421c-0.085,0.022-0.158-0.021-0.219-0.13c0.024-0.007,0.066,0,0.128,0.021
		C36.583,39.333,36.613,39.369,36.613,39.421z M35.482,38.635c-0.037,0.041-0.058,0.085-0.064,0.134
		c-0.006,0.048-0.021,0.075-0.045,0.081c0-0.01-0.006-0.024-0.018-0.042c-0.012-0.017-0.021-0.028-0.027-0.032
		c-0.007-0.003-0.015-0.014-0.027-0.031c0.012-0.014,0.03-0.028,0.055-0.046C35.403,38.666,35.445,38.645,35.482,38.635z
		 M47.443,39.322c0.012-0.081,0.018-0.155,0.018-0.223c0-0.068-0.015-0.129-0.045-0.184s-0.107-0.087-0.228-0.098
		c0.085-0.043,0.158-0.061,0.219-0.057c0.061,0.006,0.106,0.023,0.137,0.051c0.03,0.029,0.051,0.065,0.063,0.109
		c0.012,0.044,0.018,0.075,0.018,0.097c0,0.072-0.018,0.158-0.054,0.255c-0.037,0.099-0.074,0.194-0.11,0.286
		C47.437,39.482,47.431,39.403,47.443,39.322z M50.233,39.855c0,0.053-0.012,0.16-0.037,0.324c-0.024,0.164-0.036,0.314-0.036,0.451
		l-2.17,0.556c-0.012-0.122-0.042-0.239-0.091-0.351c-0.049-0.112-0.092-0.224-0.127-0.334c-0.037-0.11-0.059-0.219-0.064-0.326
		c-0.006-0.108,0.027-0.213,0.1-0.315c-0.036-0.011-0.079-0.028-0.127-0.053s-0.085-0.033-0.109-0.027
		c0.023-0.058,0.063-0.138,0.118-0.24c0.055-0.103,0.101-0.179,0.136-0.229c0.098,0.026,0.201,0.045,0.311,0.053
		c0.109,0.008,0.225,0.022,0.346,0.044c0-0.021,0.012-0.045,0.037-0.071c0.025-0.027,0.048-0.06,0.073-0.098
		c-0.098-0.058-0.15-0.119-0.155-0.187c-0.006-0.065-0.04-0.132-0.101-0.2c-0.108-0.107-0.243-0.216-0.401-0.326
		c-0.158-0.11-0.292-0.229-0.401-0.357l-0.037-0.021l-0.127,0.032c-0.074,0.019-0.107,0.035-0.1,0.049
		c0.006,0.015-0.027,0.03-0.1,0.05c-0.086,0.021-0.12,0.015-0.101-0.021c0.018-0.036-0.009-0.045-0.082-0.025
		c-0.025,0.006-0.058-0.006-0.101-0.037c-0.042-0.03-0.082-0.07-0.119-0.118c-0.036-0.048-0.073-0.096-0.109-0.144
		c-0.037-0.048-0.055-0.082-0.055-0.103c-0.024-0.097-0.052-0.231-0.083-0.399c-0.03-0.17-0.073-0.327-0.127-0.476
		c-0.055-0.147-0.131-0.263-0.228-0.347c-0.098-0.084-0.225-0.101-0.382-0.051c-0.037,0.031-0.064,0.056-0.082,0.076
		c-0.018,0.02-0.028,0.062-0.028,0.124v3.574c0.061,0.004,0.151-0.01,0.273-0.041c0.121-0.03,0.226-0.058,0.311-0.079l0.328-0.084
		c0.048,0.02,0.082,0.053,0.101,0.101c0.018,0.048,0.033,0.081,0.045,0.099c-0.049,0.201-0.08,0.409-0.091,0.622
		c-0.013,0.214-0.031,0.425-0.055,0.63l-3.994,1.023c-0.036-0.223-0.045-0.457-0.027-0.703c0.019-0.246,0.027-0.49,0.027-0.732
		l1.077-0.276c-0.159-0.188-0.237-0.392-0.237-0.61c0-0.218,0.024-0.483,0.073-0.798c0.012-0.056,0.042-0.123,0.092-0.203
		c0.048-0.079,0.073-0.146,0.073-0.198v-6.802c-0.062-0.047-0.131-0.071-0.21-0.071c-0.08,0-0.165,0.011-0.255,0.034
		s-0.186,0.053-0.283,0.088c-0.098,0.036-0.188,0.06-0.273,0.07c0-0.011-0.003-0.022-0.009-0.037
		c-0.006-0.014-0.012-0.06-0.019-0.136c-0.006-0.076-0.015-0.204-0.028-0.383c-0.012-0.178-0.018-0.45-0.018-0.814
		c0.146-0.068,0.386-0.161,0.72-0.278c0.335-0.116,0.678-0.228,1.031-0.334c0.352-0.106,0.668-0.2,0.948-0.282
		c0.279-0.081,0.444-0.129,0.492-0.142c0.025-0.006,0.092-0.025,0.201-0.06c0.11-0.032,0.243-0.068,0.401-0.109
		c0.158-0.04,0.325-0.076,0.501-0.105c0.177-0.03,0.35-0.051,0.52-0.063c0.133-0.013,0.304,0.024,0.511,0.111
		c0.207,0.088,0.413,0.146,0.62,0.177c0.036,0.053,0.125,0.122,0.264,0.205c0.14,0.085,0.258,0.15,0.355,0.198
		c0.231,0.149,0.371,0.345,0.42,0.586c0.048,0.243,0.103,0.466,0.164,0.668c0.024,0.099,0.045,0.226,0.064,0.382
		c0.018,0.156,0.027,0.266,0.027,0.328c0,0.031,0,0.089,0,0.172s-0.003,0.178-0.009,0.283c-0.006,0.105-0.015,0.214-0.027,0.326
		c-0.012,0.113-0.037,0.21-0.073,0.293c-0.134,0.314-0.335,0.672-0.602,1.074c-0.268,0.401-0.578,0.762-0.93,1.08
		c0.158,0.595,0.325,1.188,0.501,1.783c0.176,0.595,0.374,1.187,0.592,1.775c0.024,0.056,0.052,0.111,0.082,0.166
		c0.03,0.054,0.076,0.095,0.137,0.12c0.23-0.079,0.401-0.12,0.51-0.122c0.109-0.002,0.183,0.021,0.219,0.07
		c0.036,0.048,0.048,0.121,0.036,0.219S50.233,39.75,50.233,39.855z M56.725,39.199c-0.243,0.062-0.483,0.093-0.72,0.091
		c-0.237-0.002-0.462-0.032-0.674-0.093c-0.213-0.061-0.405-0.156-0.575-0.289c-0.17-0.134-0.298-0.309-0.382-0.526
		c-0.024-0.015-0.062-0.039-0.11-0.073c-0.049-0.035-0.085-0.059-0.109-0.074c-0.025-0.107-0.061-0.224-0.109-0.346
		c-0.049-0.123-0.092-0.231-0.128-0.326c-0.024-0.066-0.07-0.167-0.137-0.301c-0.067-0.133-0.13-0.283-0.191-0.449
		c-0.062-0.167-0.115-0.338-0.165-0.512c-0.048-0.176-0.073-0.335-0.073-0.481v-1.45c0-0.031-0.003-0.08-0.009-0.146
		c-0.006-0.065-0.012-0.137-0.019-0.214c-0.006-0.077-0.013-0.147-0.018-0.213c-0.007-0.067-0.01-0.115-0.01-0.146
		c0-0.021,0.007-0.11,0.019-0.271c0.011-0.159,0.027-0.353,0.045-0.58c0.018-0.229,0.045-0.477,0.083-0.747
		c0.036-0.269,0.078-0.524,0.127-0.767c0.061-0.295,0.182-0.644,0.364-1.044s0.389-0.797,0.62-1.189
		c0.062-0.119,0.149-0.269,0.265-0.449c0.115-0.181,0.239-0.34,0.374-0.478c0.061-0.068,0.158-0.146,0.292-0.231
		c0.134-0.086,0.274-0.169,0.42-0.248c0.146-0.078,0.289-0.149,0.428-0.211c0.139-0.062,0.252-0.104,0.337-0.126
		c0.062-0.016,0.18-0.035,0.356-0.06c0.176-0.023,0.361-0.04,0.556-0.049c0.061-0.005,0.125,0.013,0.192,0.053
		c0.066,0.04,0.13,0.053,0.191,0.036c0.085-0.021,0.118-0.041,0.1-0.057s0.009-0.033,0.082-0.052c0.036-0.01,0.101,0.01,0.191,0.06
		s0.183,0.107,0.273,0.172c0.092,0.065,0.173,0.127,0.246,0.187c0.074,0.06,0.116,0.099,0.128,0.116
		c0.024,0.034,0.04,0.099,0.046,0.189c0.006,0.093,0.021,0.162,0.045,0.208c0.097,0.183,0.212,0.361,0.346,0.535
		c0.133,0.174,0.231,0.356,0.292,0.55c0.061,0.234,0.107,0.489,0.137,0.768c0.03,0.279,0.058,0.56,0.082,0.846
		c0.012,0.09,0.03,0.218,0.054,0.384c0.024,0.165,0.024,0.328,0,0.491c-0.024,0.173-0.036,0.292-0.036,0.36
		c0,0.067,0.006,0.11,0.018,0.128s0.027,0.026,0.045,0.027c0.019,0,0.027,0.021,0.027,0.062c0,0.447-0.058,0.9-0.173,1.355
		c-0.116,0.456-0.191,0.845-0.228,1.166c-0.036,0.373-0.116,0.789-0.237,1.246c-0.122,0.457-0.298,0.901-0.529,1.329
		c-0.231,0.429-0.523,0.81-0.876,1.145C57.649,38.84,57.224,39.071,56.725,39.199z M60.144,34.852
		c-0.03,0.294-0.076,0.589-0.136,0.886c0,0.041-0.037,0.097-0.109,0.169c-0.073,0.07-0.11,0.146-0.11,0.229
		c0.024-0.006,0.055-0.029,0.092-0.07c0.036-0.04,0.066-0.063,0.091-0.069c-0.073,0.092-0.109,0.16-0.109,0.207
		s0.011,0.086,0.036,0.115c0.024,0.03,0.055,0.057,0.091,0.079c0.037,0.021,0.055,0.048,0.055,0.079
		c0,0.062-0.024,0.131-0.073,0.205c-0.048,0.075-0.085,0.158-0.109,0.247c-0.037-0.011-0.064-0.038-0.082-0.081
		c-0.018-0.042-0.045-0.084-0.083-0.127c-0.061,0.1-0.113,0.209-0.155,0.329s-0.07,0.233-0.082,0.341
		c-0.098,0.077-0.204,0.177-0.319,0.3c-0.116,0.123-0.234,0.242-0.356,0.356c0-0.031-0.003-0.074-0.008-0.131
		c-0.007-0.056-0.004-0.096,0.008-0.119c0.098-0.118,0.188-0.24,0.273-0.366c0.085-0.126,0.183-0.26,0.292-0.402
		c0.023-0.141,0.079-0.34,0.164-0.596s0.195-0.479,0.328-0.669c0.025-0.309,0.073-0.643,0.146-1.005
		c0.074-0.362,0.14-0.67,0.201-0.925l0.091,0.163C60.219,34.273,60.174,34.558,60.144,34.852z M60.427,32.962
		c-0.061,0.182-0.122,0.349-0.183,0.499c-0.025-0.057-0.042-0.13-0.054-0.22c-0.012-0.091-0.012-0.189,0-0.297
		c0.012-0.106,0.033-0.212,0.063-0.312c0.03-0.102,0.07-0.185,0.118-0.249c0.025,0.025,0.055,0.049,0.092,0.07
		c0.036,0.022,0.054,0.064,0.054,0.127C60.518,32.652,60.487,32.78,60.427,32.962z M69.58,35.687l-6.218,1.594
		c0.036-0.207,0.055-0.434,0.055-0.678s-0.019-0.466-0.055-0.664c0.133-0.055,0.303-0.111,0.511-0.17
		c0.206-0.058,0.383-0.091,0.529-0.097v-7.676c-0.11-0.075-0.156-0.225-0.138-0.448s0.021-0.422,0.009-0.595
		c-0.109,0.007-0.242,0.03-0.4,0.071c-0.158,0.04-0.304,0.088-0.438,0.144v-1.482l3.975-1.019v1.373
		c-0.146,0.037-0.279,0.079-0.401,0.126c-0.121,0.047-0.249,0.076-0.382,0.09l-0.092,0.102c-0.013,0.242-0.009,0.486,0.01,0.731
		c0.018,0.244,0.038,0.493,0.062,0.747c0,0.219,0,0.458,0,0.718c0,0.261-0.006,0.533-0.018,0.816
		c-0.012,0.284-0.021,0.565-0.027,0.842c-0.007,0.277-0.016,0.531-0.027,0.764c-0.013,0.306-0.016,0.617-0.009,0.938
		c0.006,0.32,0.009,0.645,0.009,0.973c0,0.327-0.016,0.659-0.045,0.994c-0.031,0.336-0.083,0.669-0.156,1
		c0.037,0.011,0.064,0.022,0.083,0.032c0.018,0.011,0.063,0.008,0.136-0.011c0.037-0.01,0.113-0.042,0.229-0.097
		c0.115-0.056,0.234-0.118,0.355-0.185c0.121-0.068,0.279-0.153,0.475-0.255c0.084-0.021,0.137-0.015,0.154,0.022
		c0.02,0.037,0.039,0.062,0.064,0.078c0.035-0.041,0.055-0.129,0.055-0.265c0.023,0.015,0.045,0.035,0.064,0.062
		c0.018,0.027,0.045,0.047,0.082,0.058c0.061-0.016,0.117-0.035,0.172-0.06c0.055-0.025,0.082-0.073,0.082-0.146
		c0-0.052-0.045-0.139-0.137-0.262c-0.09-0.122-0.18-0.229-0.264-0.322c0.023-0.058,0.027-0.126,0.008-0.205
		c-0.018-0.078-0.027-0.148-0.027-0.211c0-0.031,0.008-0.122,0.02-0.271s0.021-0.319,0.027-0.514s0.012-0.393,0.018-0.598
		c0.006-0.204,0.004-0.384-0.008-0.535c0.023-0.038,0.057-0.074,0.098-0.112c0.043-0.036,0.1-0.064,0.172-0.082
		c0.035-0.01,0.105-0.024,0.207-0.046c0.102-0.021,0.223-0.046,0.361-0.077c0.139-0.03,0.279-0.063,0.424-0.101
		c0.145-0.036,0.277-0.075,0.396-0.117V35.687z M63.49,33.706v-0.188c0.037-0.009,0.08-0.016,0.128-0.017
		c0.048-0.002,0.085,0.004,0.109,0.019c-0.024,0.026-0.062,0.062-0.109,0.106C63.569,33.67,63.527,33.697,63.49,33.706z
		 M67.43,33.165l-0.074,0.05c-0.023,0.017-0.072,0.034-0.146,0.053c0-0.021-0.023-0.021-0.072-0.004
		c-0.049,0.017-0.072-0.01-0.072-0.084c0-0.062,0.045-0.113,0.137-0.152c0.09-0.038,0.137-0.067,0.137-0.089L67.43,33.165z
		 M79.281,33.201l-6.219,1.594c0.035-0.207,0.055-0.434,0.055-0.678s-0.02-0.465-0.055-0.664c0.133-0.055,0.303-0.111,0.512-0.17
		c0.205-0.058,0.383-0.091,0.527-0.097v-7.676c-0.109-0.075-0.154-0.225-0.137-0.448c0.02-0.224,0.021-0.422,0.01-0.596
		c-0.109,0.008-0.244,0.031-0.4,0.072c-0.158,0.04-0.305,0.088-0.439,0.144V23.2l3.977-1.019v1.373
		c-0.146,0.037-0.279,0.079-0.402,0.126c-0.121,0.047-0.248,0.076-0.383,0.09l-0.09,0.103c-0.014,0.242-0.01,0.485,0.008,0.73
		c0.02,0.244,0.039,0.494,0.064,0.747c0,0.219,0,0.458,0,0.718c0,0.261-0.006,0.533-0.018,0.816
		c-0.014,0.284-0.023,0.565-0.027,0.842c-0.008,0.277-0.016,0.531-0.027,0.764c-0.014,0.306-0.016,0.617-0.01,0.938
		c0.006,0.32,0.01,0.646,0.01,0.974c0,0.326-0.016,0.658-0.047,0.993c-0.029,0.336-0.082,0.669-0.154,1
		c0.037,0.011,0.064,0.022,0.082,0.032c0.018,0.012,0.062,0.008,0.137-0.011c0.037-0.01,0.111-0.042,0.227-0.097
		c0.117-0.057,0.236-0.118,0.357-0.186c0.121-0.068,0.279-0.152,0.473-0.254c0.086-0.021,0.137-0.015,0.156,0.023
		c0.018,0.035,0.039,0.062,0.064,0.077c0.035-0.041,0.055-0.129,0.055-0.265c0.023,0.015,0.045,0.035,0.062,0.062
		c0.018,0.026,0.045,0.046,0.082,0.057c0.061-0.016,0.119-0.035,0.174-0.061c0.055-0.024,0.082-0.072,0.082-0.146
		c0-0.052-0.047-0.139-0.137-0.262c-0.092-0.122-0.18-0.229-0.264-0.322c0.023-0.058,0.025-0.126,0.008-0.205
		c-0.018-0.078-0.027-0.148-0.027-0.211c0-0.031,0.006-0.122,0.02-0.271c0.012-0.148,0.02-0.319,0.025-0.514
		c0.008-0.193,0.014-0.393,0.02-0.598c0.006-0.204,0.002-0.383-0.01-0.535c0.023-0.037,0.057-0.074,0.1-0.111
		c0.041-0.037,0.1-0.064,0.172-0.083c0.035-0.009,0.104-0.024,0.207-0.046c0.102-0.021,0.223-0.046,0.361-0.076
		c0.137-0.031,0.279-0.064,0.424-0.102c0.143-0.036,0.275-0.075,0.396-0.117V33.201z M73.189,31.221v-0.188
		c0.037-0.009,0.08-0.016,0.129-0.017c0.047-0.002,0.084,0.005,0.109,0.019c-0.025,0.027-0.062,0.062-0.109,0.106
		C73.27,31.186,73.227,31.212,73.189,31.221z M77.129,30.68l-0.072,0.05c-0.025,0.017-0.074,0.034-0.146,0.054
		c0-0.021-0.025-0.022-0.072-0.006c-0.049,0.018-0.074-0.009-0.074-0.082c0-0.062,0.047-0.113,0.139-0.152
		c0.09-0.039,0.135-0.068,0.135-0.09L77.129,30.68z M93.777,29.939c-0.062,0.037-0.104,0.059-0.127,0.064
		c0-0.021,0.02-0.068,0.062-0.142c0.043-0.072,0.094-0.144,0.154-0.21c0,0.02,0,0.064,0,0.131c0,0.068,0.014,0.099,0.037,0.093
		C93.881,29.882,93.838,29.904,93.777,29.939z M96.705,23.152c-0.02-0.006-0.035,0.01-0.047,0.044
		c-0.023,0.109-0.031,0.22-0.018,0.331c0.012,0.112,0.012,0.227,0,0.344c-0.037,0.321-0.086,0.648-0.146,0.98
		c-0.061,0.334-0.141,0.663-0.238,0.99c-0.061,0.213-0.129,0.449-0.209,0.709c-0.078,0.26-0.16,0.514-0.246,0.766
		c-0.023,0.078-0.082,0.187-0.174,0.324c-0.09,0.138-0.178,0.26-0.264,0.364c-0.023,0.038-0.084,0.089-0.182,0.156
		c-0.098,0.066-0.189,0.147-0.273,0.241c-0.074,0.081-0.141,0.182-0.201,0.301s-0.141,0.202-0.238,0.249
		c-0.17,0.095-0.375,0.196-0.619,0.306c-0.242,0.109-0.477,0.211-0.701,0.305c-0.225,0.096-0.424,0.174-0.594,0.238
		s-0.273,0.102-0.309,0.11c-0.037,0.01-0.152,0.036-0.348,0.081c-0.193,0.044-0.424,0.099-0.693,0.162
		c-0.268,0.062-0.545,0.133-0.838,0.207c-0.291,0.074-0.553,0.146-0.783,0.217v-1.344l0.363-0.094
		c0.037-0.01,0.086-0.026,0.146-0.053s0.125-0.056,0.191-0.088c0.066-0.033,0.125-0.068,0.174-0.107
		c0.049-0.038,0.072-0.068,0.072-0.089c0-0.5-0.018-0.991-0.055-1.471c-0.035-0.479,0.006-0.985,0.127-1.517
		c-0.023-0.536-0.039-0.956-0.045-1.262c-0.006-0.305-0.01-0.532-0.01-0.678s0.004-0.238,0.01-0.275
		c0.006-0.038,0.021-0.065,0.045-0.082c-0.049-0.456-0.082-0.925-0.1-1.404s-0.033-0.952-0.045-1.418
		c0-0.021,0.016-0.066,0.045-0.137c0.031-0.07,0.051-0.138,0.064-0.203c0.012-0.066,0.006-0.119-0.02-0.16
		c-0.023-0.04-0.078-0.05-0.162-0.028c-0.074,0.019-0.162,0.052-0.266,0.099c-0.104,0.048-0.264,0.1-0.484,0.156
		c-0.023-0.025-0.051-0.049-0.08-0.072c-0.031-0.022-0.047-0.07-0.047-0.143v-1.188c0.23-0.06,0.496-0.127,0.793-0.203
		c0.299-0.077,0.588-0.152,0.867-0.23c0.279-0.076,0.521-0.142,0.729-0.194s0.33-0.084,0.365-0.094
		c0.377-0.096,0.738-0.142,1.086-0.137c0.346,0.005,0.664,0.05,0.957,0.137c0.291,0.087,0.559,0.203,0.801,0.348
		c0.244,0.146,0.451,0.312,0.621,0.497c0.061,0.067,0.119,0.183,0.174,0.346c0.053,0.163,0.111,0.299,0.172,0.407
		c0.025,0.047,0.061,0.09,0.109,0.129s0.086,0.082,0.109,0.128c0.135,0.517,0.238,1.005,0.311,1.465s0.078,0.849,0.018,1.165
		c-0.012,0.056,0.004,0.104,0.047,0.145c0.041,0.042,0.064,0.088,0.064,0.14C96.732,23.13,96.723,23.158,96.705,23.152z
		 M102.967,27.352c-0.242,0.062-0.482,0.093-0.719,0.091c-0.238-0.001-0.463-0.032-0.674-0.093c-0.213-0.06-0.406-0.156-0.576-0.289
		s-0.299-0.309-0.383-0.526c-0.023-0.014-0.061-0.038-0.109-0.073c-0.049-0.034-0.084-0.059-0.109-0.073
		c-0.025-0.108-0.061-0.224-0.109-0.347s-0.092-0.23-0.127-0.326c-0.025-0.066-0.07-0.167-0.137-0.3
		c-0.068-0.134-0.131-0.284-0.191-0.45c-0.062-0.167-0.115-0.338-0.164-0.512c-0.049-0.175-0.074-0.335-0.074-0.481v-1.45
		c0-0.031-0.002-0.08-0.008-0.146c-0.006-0.065-0.012-0.137-0.02-0.213c-0.006-0.077-0.012-0.147-0.018-0.214
		s-0.01-0.114-0.01-0.146c0-0.021,0.008-0.111,0.02-0.271s0.027-0.353,0.045-0.581s0.045-0.477,0.082-0.747
		c0.037-0.269,0.078-0.523,0.129-0.766c0.061-0.296,0.182-0.645,0.363-1.045c0.184-0.4,0.389-0.797,0.619-1.188
		c0.062-0.119,0.15-0.27,0.266-0.45c0.115-0.18,0.24-0.34,0.373-0.478c0.061-0.068,0.158-0.145,0.291-0.23
		c0.135-0.086,0.275-0.169,0.422-0.248c0.145-0.079,0.287-0.149,0.428-0.212c0.139-0.062,0.252-0.104,0.336-0.125
		c0.062-0.017,0.18-0.036,0.355-0.06c0.178-0.024,0.363-0.041,0.557-0.049c0.061-0.006,0.125,0.013,0.193,0.052
		c0.066,0.041,0.129,0.053,0.189,0.037c0.086-0.022,0.119-0.041,0.102-0.057c-0.018-0.017,0.01-0.034,0.082-0.053
		c0.035-0.009,0.1,0.011,0.191,0.061c0.09,0.049,0.182,0.106,0.273,0.171c0.092,0.065,0.172,0.128,0.246,0.188
		c0.072,0.059,0.115,0.098,0.127,0.115c0.025,0.035,0.039,0.1,0.047,0.19c0.006,0.093,0.02,0.161,0.045,0.207
		c0.096,0.184,0.213,0.362,0.346,0.535c0.135,0.174,0.232,0.357,0.293,0.55c0.061,0.234,0.105,0.49,0.137,0.769
		c0.029,0.278,0.057,0.56,0.082,0.845c0.012,0.09,0.029,0.218,0.055,0.384c0.023,0.165,0.023,0.329,0,0.491
		c-0.025,0.173-0.037,0.293-0.037,0.361c0,0.066,0.006,0.109,0.018,0.127c0.014,0.018,0.027,0.027,0.047,0.027
		c0.018,0.001,0.027,0.022,0.027,0.063c0,0.447-0.059,0.899-0.174,1.354c-0.115,0.456-0.191,0.845-0.229,1.166
		c-0.035,0.373-0.115,0.789-0.236,1.247c-0.121,0.457-0.297,0.9-0.529,1.329c-0.23,0.428-0.521,0.81-0.875,1.145
		C103.893,26.992,103.467,27.225,102.967,27.352z M106.387,23.004c-0.031,0.294-0.076,0.589-0.137,0.886
		c0,0.041-0.037,0.098-0.109,0.169c-0.072,0.07-0.109,0.147-0.109,0.23c0.023-0.007,0.055-0.03,0.092-0.07
		c0.035-0.041,0.066-0.064,0.09-0.07c-0.072,0.092-0.107,0.16-0.107,0.207s0.01,0.086,0.035,0.116s0.055,0.056,0.092,0.078
		c0.035,0.022,0.055,0.049,0.055,0.08c0,0.062-0.025,0.13-0.074,0.205c-0.047,0.075-0.084,0.157-0.107,0.246
		c-0.037-0.011-0.064-0.038-0.084-0.08c-0.018-0.042-0.045-0.084-0.082-0.128c-0.061,0.1-0.111,0.209-0.154,0.329
		s-0.07,0.233-0.082,0.341c-0.098,0.077-0.203,0.177-0.318,0.301c-0.117,0.123-0.234,0.242-0.357,0.356
		c0-0.031-0.002-0.075-0.008-0.131s-0.004-0.096,0.008-0.119c0.098-0.119,0.189-0.241,0.273-0.367
		c0.086-0.125,0.184-0.26,0.293-0.402c0.023-0.141,0.078-0.339,0.164-0.595c0.084-0.257,0.195-0.479,0.328-0.67
		c0.025-0.308,0.072-0.643,0.146-1.005c0.072-0.361,0.139-0.67,0.201-0.925l0.09,0.164
		C106.463,22.426,106.416,22.711,106.387,23.004z M106.67,21.114c-0.061,0.182-0.123,0.349-0.184,0.499
		c-0.023-0.057-0.043-0.13-0.053-0.22c-0.014-0.091-0.014-0.188,0-0.297c0.01-0.106,0.033-0.212,0.062-0.312
		c0.031-0.102,0.07-0.186,0.119-0.25c0.023,0.025,0.055,0.049,0.092,0.07c0.035,0.022,0.053,0.064,0.053,0.127
		C106.76,20.805,106.73,20.933,106.67,21.114z M109.713,20.1c-0.061-0.016-0.096-0.026-0.107-0.034
		c0.023-0.058,0.07-0.134,0.135-0.229c0.068-0.095,0.131-0.177,0.193-0.244c0.061,0.067,0.139,0.121,0.236,0.158
		s0.195,0.085,0.293,0.143c-0.037,0.083-0.068,0.182-0.092,0.297c-0.025,0.116-0.025,0.218,0,0.304
		c-0.025-0.024-0.066-0.05-0.129-0.075c-0.061-0.026-0.121-0.053-0.182-0.078c-0.061-0.027-0.111-0.058-0.154-0.094
		s-0.053-0.082-0.027-0.142c-0.025-0.024-0.035-0.046-0.027-0.063c0.006-0.017-0.004-0.038-0.027-0.062l-0.037,0.041
		c-0.012,0.014-0.018,0.041-0.018,0.082C109.756,20.104,109.738,20.104,109.713,20.1z M110.207,21.105
		c-0.195-0.05-0.336-0.141-0.42-0.275c0.037-0.009,0.078-0.02,0.127-0.032s0.086-0.032,0.109-0.06
		c0.014-0.003,0.018-0.01,0.018-0.02l-0.035-0.054c-0.049,0.044-0.115,0.076-0.201,0.099c-0.012-0.028-0.018-0.07-0.018-0.129
		c0-0.057,0.029-0.123,0.092-0.202c0.023,0.025,0.055,0.054,0.09,0.087c0.037,0.031,0.068,0.055,0.092,0.068
		c0.049-0.021,0.109-0.017,0.182,0.017c0.072,0.034,0.135,0.054,0.184,0.062c0.012,0.039,0.006,0.103-0.02,0.192
		c-0.023,0.089,0.031,0.153,0.164,0.191c0,0.011,0.008,0.024,0.02,0.042c0.023,0.036,0.035,0.063,0.035,0.084
		C110.541,21.178,110.4,21.154,110.207,21.105z M118.758,17.822c-0.072,0.014-0.139,0.018-0.199,0.012v-0.187
		c0.023,0.015,0.072,0.041,0.145,0.079c0.074,0.039,0.141,0.061,0.201,0.066C118.879,17.799,118.832,17.809,118.758,17.822z
		 M119.871,12.725c-0.098,0.014-0.205,0.039-0.32,0.074c-0.115,0.034-0.232,0.072-0.354,0.114c-0.074,0.07-0.125,0.19-0.156,0.358
		c-0.029,0.17-0.033,0.277-0.01,0.323l-1.896,10.019c-0.242,0.062-0.504,0.134-0.783,0.216c-0.279,0.081-0.561,0.148-0.838,0.199
		c-0.025-0.202-0.076-0.417-0.156-0.646s-0.148-0.456-0.209-0.68c-0.098-0.464-0.182-0.946-0.256-1.448
		c-0.072-0.501-0.152-1-0.236-1.499c-0.025-0.202-0.064-0.449-0.119-0.742c-0.055-0.292-0.094-0.592-0.119-0.897
		c-0.035,0.01-0.053,0.004-0.053-0.018s-0.014-0.038-0.037-0.053l-1.148,6.645c-0.158,0.019-0.352,0.055-0.574,0.107
		c-0.227,0.052-0.551,0.143-0.977,0.273c-0.037-0.303-0.094-0.607-0.174-0.916c-0.08-0.307-0.148-0.609-0.209-0.904
		c-0.037-0.033-0.092-0.014-0.164,0.058c-0.025-0.025-0.053-0.062-0.082-0.112c-0.031-0.049-0.047-0.09-0.047-0.121
		c0.061-0.016,0.111-0.01,0.146,0.018c0.037,0.027,0.086,0.018,0.146-0.029c-0.037-0.116-0.07-0.245-0.1-0.388
		c-0.031-0.144-0.064-0.288-0.102-0.436c-0.035-0.146-0.072-0.28-0.109-0.4s-0.078-0.216-0.127-0.287
		c-0.109,0.018-0.131-0.005-0.064-0.069c0.066-0.063,0.113-0.119,0.137-0.168l-0.857-4.102c-0.023-0.025-0.066-0.042-0.127-0.053
		c-0.061-0.012-0.109-0.021-0.146-0.033c-0.061-0.244-0.137-0.492-0.227-0.745c-0.092-0.253-0.18-0.502-0.266-0.751
		c-0.012-0.019-0.023-0.041-0.035-0.068c-0.014-0.028-0.057-0.033-0.129-0.015c-0.084,0.022-0.145,0.042-0.182,0.062
		c-0.037,0.019-0.068,0.032-0.092,0.039c0-0.177,0.01-0.401,0.027-0.671s-0.01-0.499-0.082-0.688c0.268-0.1,0.584-0.207,0.947-0.321
		c0.365-0.113,0.719-0.223,1.059-0.325s0.631-0.188,0.875-0.256c0.242-0.066,0.383-0.105,0.42-0.115
		c0.049-0.012,0.092,0.017,0.127,0.085c0.037,0.068,0.066,0.146,0.092,0.233c0.023,0.087,0.039,0.175,0.045,0.262
		c0.008,0.087,0.01,0.142,0.01,0.161c0,0.062-0.01,0.169-0.027,0.319c-0.018,0.151-0.016,0.274,0.01,0.372l-0.785,0.201l0.967,5.541
		c0.012-0.004,0.018-0.011,0.018-0.021c0-0.031,0.006-0.06,0.02-0.083c0.023-0.246,0.061-0.536,0.109-0.871
		c0.049-0.334,0.078-0.648,0.09-0.943c0-0.239,0.031-0.518,0.092-0.834c0.061-0.318,0.127-0.642,0.201-0.973
		c0.072-0.33,0.139-0.654,0.201-0.972c0.061-0.317,0.09-0.601,0.09-0.851c0-0.031,0.027-0.071,0.082-0.123
		c0.055-0.049,0.082-0.111,0.082-0.185v-0.187l-0.711,0.183v-1.42l3.264-0.837c-0.037,0.207-0.045,0.425-0.027,0.655
		c0.018,0.229,0.027,0.464,0.027,0.702c-0.072,0.082-0.297,0.145-0.674,0.189c-0.025,0.078-0.031,0.16-0.02,0.245
		c0.014,0.086,0.037,0.169,0.074,0.247c0.035,0.08,0.078,0.16,0.127,0.24c0.049,0.081,0.086,0.166,0.109,0.253
		c0.061,0.151,0.1,0.32,0.119,0.508c0.018,0.188,0.039,0.366,0.064,0.537c0.035,0.261,0.066,0.52,0.09,0.772
		c0.025,0.255,0.066,0.498,0.127,0.732c0.037,0.136,0.07,0.249,0.102,0.34c0.029,0.092,0.064,0.205,0.1,0.342
		c0.025,0.098,0.025,0.235,0,0.413c-0.023,0.179,0.008,0.318,0.092,0.421c0.17-0.512,0.301-0.997,0.393-1.457
		c0.09-0.461,0.166-0.912,0.227-1.354s0.119-0.883,0.174-1.323s0.137-0.903,0.246-1.39c-0.061-0.016-0.137-0.009-0.229,0.02
		c-0.09,0.028-0.258,0.085-0.5,0.168c0.023-0.162,0.039-0.355,0.045-0.581s-0.004-0.532-0.027-0.922
		c0.023,0.046,0.064,0.066,0.119,0.063c0.055-0.004,0.094-0.014,0.117-0.03c0.025-0.017,0.148-0.059,0.375-0.127
		c0.225-0.068,0.467-0.138,0.729-0.21s0.508-0.139,0.738-0.197c0.232-0.06,0.371-0.096,0.42-0.107
		c0.098-0.025,0.203-0.05,0.32-0.074c0.115-0.023,0.238-0.069,0.373-0.135c-0.037,0.248-0.045,0.493-0.027,0.732
		S119.871,12.485,119.871,12.725z M112.258,16.688c0.006,0.02-0.021,0.047-0.082,0.084c0-0.021-0.012-0.039-0.037-0.054
		c-0.023-0.015-0.037-0.037-0.037-0.068l0.074-0.019c0.049-0.013,0.072-0.029,0.072-0.051
		C112.248,16.633,112.252,16.668,112.258,16.688z M122.789,16.969c0.072-0.019,0.127-0.061,0.164-0.128
		c0.035-0.065,0.066-0.112,0.09-0.14c-0.047,0.105-0.072,0.209-0.072,0.307c0,0.1-0.061,0.189-0.182,0.273
		c-0.037-0.012-0.074-0.031-0.109-0.058c-0.037-0.028-0.072-0.052-0.109-0.073c0.037-0.03,0.064-0.063,0.082-0.1
		C122.67,17.016,122.715,16.988,122.789,16.969z M122.697,16.695v-0.077l0.146-0.1l0.037,0.068L122.697,16.695z M125.961,21.258
		l-3.281,0.841v-1.295l0.729-0.249c0,0.053-0.006,0.11-0.018,0.176c-0.012,0.066,0.018,0.09,0.092,0.07
		c0.084-0.021,0.133-0.053,0.145-0.092c0.014-0.039,0.055-0.068,0.129-0.087c0.084-0.022,0.158-0.025,0.219-0.009
		c0.061,0.016,0.121,0.041,0.182,0.078c-0.025,0.067-0.057,0.142-0.1,0.22c-0.043,0.079-0.113,0.156-0.211,0.233l0.109,0.05
		c0.061-0.036,0.113-0.087,0.156-0.149s0.057-0.113,0.045-0.152c0.037-0.009,0.076-0.011,0.119-0.006
		c0.041,0.004,0.111-0.006,0.209-0.031l0.092-0.117c-0.061-0.035-0.115-0.065-0.164-0.09c-0.049-0.023-0.092-0.058-0.129-0.1
		c0.025,0.014,0.07,0.019,0.139,0.012c0.066-0.007,0.131-0.008,0.191-0.002c0.023-0.027,0.045-0.051,0.062-0.071
		c0.02-0.021,0.027-0.046,0.027-0.077c-0.035-0.021-0.105-0.03-0.209-0.024s-0.213,0.016-0.328,0.029
		c-0.117,0.015-0.232,0.034-0.348,0.058c-0.115,0.025-0.203,0.035-0.264,0.028v-0.296c0.061,0.006,0.125,0.016,0.191,0.028
		c0.066,0.015,0.119,0.043,0.154,0.085c0.025-0.006,0.047-0.028,0.064-0.07c0.018-0.041,0.027-0.072,0.027-0.094
		c0.109-0.006,0.244-0.03,0.402-0.071c0.158-0.04,0.303-0.087,0.436-0.144c0.098-0.003,0.184,0.022,0.256,0.076
		c0.074,0.055,0.146,0.071,0.219,0.053c0.074-0.019,0.152-0.041,0.238-0.068c0.084-0.027,0.225-0.075,0.418-0.146V21.258z
		 M130.283,16.858l-0.236,0.061c0.037-0.061,0.082-0.114,0.137-0.16c0.055-0.045,0.105-0.099,0.154-0.163L130.283,16.858z
		 M130.484,8.586c0,0.207-0.016,0.425-0.047,0.65c-0.029,0.227-0.062,0.475-0.1,0.744l-0.73,0.14
		c-0.035,0.041-0.074,0.077-0.117,0.108s-0.076,0.062-0.1,0.088c0.023,0.16,0.033,0.335,0.027,0.523
		c-0.008,0.189,0.002,0.369,0.027,0.539l-0.074,9.036c-0.207,0.054-0.434,0.114-0.684,0.184c-0.25,0.068-0.41,0.112-0.482,0.132
		c-0.061,0.016-0.125,0.018-0.191,0.01c-0.068-0.009-0.131-0.016-0.193-0.021c-0.338-0.911-0.697-1.805-1.074-2.681
		s-0.67-1.729-0.875-2.561c-0.037-0.136-0.08-0.278-0.129-0.428c-0.047-0.148-0.084-0.298-0.109-0.447
		c-0.109-0.555-0.291-1.106-0.547-1.655c0,0.012-0.006,0.023-0.018,0.036c-0.025,0.028-0.043,0.054-0.055,0.077
		c-0.012,0.118,0.002,0.246,0.045,0.387c0.043,0.139,0.064,0.271,0.064,0.396c0,0.135-0.004,0.289-0.01,0.462
		c-0.006,0.174-0.01,0.453-0.01,0.838s0.004,0.911,0.01,1.58c0.006,0.67,0.027,1.566,0.064,2.69
		c-0.049,0.014-0.086,0.015-0.109,0.005c-0.025-0.009-0.072-0.005-0.146,0.015c-0.072,0.018-0.158,0.093-0.254,0.221
		c-0.098,0.13-0.178,0.202-0.238,0.218c-0.072,0.019-0.18,0.02-0.318,0.003c-0.141-0.016-0.246-0.015-0.318,0.004
		c-0.074,0.02-0.125,0.04-0.156,0.063c-0.029,0.023-0.057,0.038-0.082,0.044c0-0.114-0.025-0.235-0.072-0.363
		c-0.049-0.127-0.074-0.26-0.074-0.395c0-0.291,0.012-0.594,0.037-0.906c0.023-0.312,0.023-0.622,0-0.929
		c-0.025-0.296-0.051-0.644-0.082-1.048c-0.031-0.402-0.039-0.804-0.027-1.201c0.012-0.19,0.016-0.434,0.01-0.729
		s-0.01-0.601-0.01-0.918s0-0.626,0-0.928s0.012-0.555,0.037-0.759c-0.061-0.005-0.146,0.011-0.256,0.05s-0.268,0.084-0.475,0.137
		c0.012-0.014,0.018-0.038,0.018-0.074s-0.002-0.101-0.008-0.193c-0.006-0.092-0.01-0.223-0.01-0.395s0-0.408,0-0.711
		c0.244-0.134,0.48-0.248,0.711-0.338c0.232-0.09,0.463-0.167,0.693-0.232c0.23-0.063,0.459-0.122,0.684-0.175
		c0.225-0.052,0.453-0.113,0.684-0.183c0.025,0.024,0.064,0.045,0.119,0.062s0.094,0.049,0.119,0.095
		c0.049,0.103,0.111,0.266,0.191,0.489c0.078,0.225,0.164,0.479,0.254,0.762c0.092,0.283,0.191,0.58,0.303,0.89
		c0.109,0.311,0.225,0.596,0.346,0.855c0.109,0.263,0.207,0.524,0.291,0.782c0.086,0.26,0.152,0.478,0.201,0.651
		c0.061,0.286,0.131,0.567,0.209,0.844c0.08,0.276,0.168,0.558,0.266,0.845c0.061-0.067,0.09-0.155,0.09-0.265s0-0.211,0-0.305
		c0-0.291-0.008-0.481-0.027-0.57c-0.018-0.089-0.035-0.188-0.055-0.298c-0.018-0.109-0.033-0.288-0.045-0.534
		c-0.012-0.247-0.006-0.675,0.02-1.284c0-0.125-0.004-0.285-0.01-0.481c-0.008-0.196-0.014-0.387-0.018-0.573
		c-0.008-0.185-0.018-0.349-0.029-0.491s-0.018-0.229-0.018-0.26v-0.234l-0.783,0.2c0.061-0.244,0.094-0.494,0.1-0.751
		s-0.027-0.469-0.1-0.638c0.084-0.031,0.188-0.073,0.309-0.126c0.123-0.052,0.246-0.106,0.373-0.166
		c0.129-0.058,0.244-0.111,0.348-0.159c0.104-0.047,0.174-0.076,0.209-0.085c0.037-0.009,0.092-0.018,0.166-0.026
		c0.072-0.008,0.148-0.015,0.227-0.02c0.078-0.004,0.156-0.011,0.229-0.02c0.072-0.008,0.127-0.017,0.164-0.026
		c0.084-0.021,0.219-0.073,0.4-0.157c0.184-0.083,0.316-0.136,0.402-0.157c0.242-0.062,0.422-0.108,0.537-0.138
		c0.115-0.03,0.246-0.021,0.393,0.024L130.484,8.586z"/>
	<path fill="#FFFFFF" d="M94.307,23.159c-0.062-0.099-0.109-0.222-0.146-0.369c-0.037-0.146-0.066-0.278-0.092-0.397
		c0-0.031,0.008-0.054,0.02-0.067c0.012-0.013,0.023-0.021,0.035-0.024c0.014-0.181,0.016-0.393,0.01-0.635
		s-0.033-0.487-0.082-0.735s-0.131-0.483-0.246-0.709s-0.277-0.405-0.484-0.539c-0.096-0.079-0.227-0.105-0.391-0.079
		s-0.307,0.045-0.428,0.055c-0.037,0.114-0.07,0.213-0.102,0.299s-0.047,0.16-0.047,0.223v7.192
		c0.111,0.086,0.156,0.204,0.139,0.354c-0.02,0.15-0.027,0.262-0.027,0.335c0,0.083,0.012,0.147,0.037,0.192
		c0.023,0.047-0.025,0.116-0.148,0.21l0.402-0.103c0.074-0.009,0.154-0.042,0.246-0.103c0.092-0.06,0.162-0.122,0.209-0.187
		c0.135-0.17,0.256-0.351,0.365-0.546c0.109-0.194,0.184-0.354,0.219-0.477c0.109-0.361,0.195-0.729,0.256-1.104
		s0.115-0.718,0.164-1.032c0.012-0.055,0.023-0.11,0.037-0.166c0.012-0.055,0.029-0.096,0.055-0.123
		c-0.014-0.007-0.021-0.026-0.027-0.055c-0.008-0.029-0.01-0.092-0.01-0.186s0.002-0.234,0.01-0.424
		C94.285,23.772,94.293,23.505,94.307,23.159z"/>
	<path fill="#FFFFFF" d="M110.098,20.268c0.023-0.006,0.061-0.031,0.109-0.075c0.047-0.044,0.072-0.102,0.072-0.175
		c0-0.062-0.045-0.113-0.137-0.151c-0.092-0.039-0.186-0.072-0.283-0.1v0.202c0.086,0.01,0.146,0.057,0.182,0.141
		C110.078,20.194,110.098,20.247,110.098,20.268z"/>
	<path fill="#FFFFFF" d="M103.916,25.244c0.049-0.027,0.084-0.045,0.109-0.051v-0.188l-0.219,0.056c0,0.021,0.006,0.059,0.018,0.112
		c0.014,0.054,0,0.096-0.035,0.127C103.824,25.291,103.867,25.272,103.916,25.244z"/>
	<path fill="#FFFFFF" d="M104.189,24.901c0-0.146-0.037-0.223-0.109-0.229c-0.072-0.008-0.109-0.006-0.109,0.004
		c0,0.062,0.029,0.112,0.092,0.148C104.123,24.861,104.166,24.887,104.189,24.901z"/>
	<path fill="#FFFFFF" d="M95.254,23.618l0.256-0.065c0.023-0.027,0.051-0.061,0.082-0.1c0.029-0.039,0.045-0.094,0.045-0.168
		c0-0.031-0.018-0.081-0.055-0.149c-0.035-0.069-0.109-0.089-0.219-0.062c-0.072,0.019-0.158,0.094-0.256,0.222
		c-0.096,0.13-0.162,0.209-0.199,0.239c0.061,0.005,0.115,0.025,0.164,0.06S95.182,23.637,95.254,23.618z"/>
	<polygon fill="#FFFFFF" points="95.127,23.074 94.98,23.173 94.98,23.235 95.164,23.126 	"/>
	<path fill="#FFFFFF" d="M94.617,21.347c0,0.053,0.004,0.111,0.018,0.175c0.012,0.065,0.035,0.104,0.072,0.115l0.146-0.163
		C94.793,21.364,94.713,21.322,94.617,21.347z"/>
	<path fill="#FFFFFF" d="M95.363,23.698l-0.109,0.138c-0.035-0.021-0.072-0.028-0.109-0.02l-0.037,0.01
		c0,0.042,0.006,0.075,0.02,0.098c0.012,0.022,0.021,0.049,0.027,0.078s0,0.062-0.02,0.099c-0.018,0.036-0.051,0.081-0.1,0.135
		l0.529-0.073c0.023-0.027,0.051-0.073,0.082-0.138c0.031-0.065,0.045-0.108,0.045-0.129c-0.061-0.016-0.115-0.043-0.164-0.083
		C95.479,23.773,95.424,23.735,95.363,23.698z"/>
	<path fill="#FFFFFF" d="M95.438,22.011c0-0.021,0.023-0.05,0.072-0.089c0.049-0.038,0.09-0.062,0.127-0.072v-0.326
		c0-0.053-0.055-0.096-0.164-0.131c-0.109-0.034-0.213-0.023-0.309,0.033c0.084,0.123,0.121,0.231,0.109,0.323
		C95.26,21.84,95.314,21.928,95.438,22.011z"/>
</g>
</svg>
