<?xml version="1.0" encoding="utf-8"?>
<!-- Generator: Adobe Illustrator 15.0.2, SVG Export Plug-In . SVG Version: 6.00 Build 0)  -->
<!DOCTYPE svg PUBLIC "-//W3C//DTD SVG 1.1//EN" "http://www.w3.org/Graphics/SVG/1.1/DTD/svg11.dtd">
<svg version="1.1" id="Layer_1" xmlns="http://www.w3.org/2000/svg" xmlns:xlink="http://www.w3.org/1999/xlink" x="0px" y="0px"
	 width="1159.322px" height="80.508px" viewBox="0 0 1159.322 80.508" enable-background="new 0 0 1159.322 80.508"
	 xml:space="preserve">
<g>
	<path fill="#FFFFFF" d="M457.753,68.002c3.425-0.162,6.278-1.873,9.462-2.863c0.007-0.002,0.014,0,0.021-0.003
		c0.101-0.063,0.196-0.128,0.298-0.192c0.033-0.239,0.148-0.473,0.384-0.629c1.387-0.929,2.595-2.073,3.843-3.172h-2.605
		c-1.537,1.388-3.296,2.576-5.277,3.566c-1.981,0.992-4.039,1.71-6.169,2.156c0,0.396,0.099,0.693,0.297,0.892h-0.892
		c0.049,0,0.099-0.05,0.147-0.149c0.1-0.1,0.148-0.248,0.148-0.444h-1.783c0,0.147,0.049,0.346,0.148,0.595
		c0.099,0.247,0.147,0.446,0.147,0.596c0.347,0.086,0.715,0.11,1.104,0.088C457.158,68.203,457.392,68.02,457.753,68.002z"/>
	<path fill="#FFFFFF" d="M475.545,41.223c0.148-0.1,0.322-0.148,0.521-0.148c0.147-1.684,0.196-3.345,0.147-4.979
		c-0.05-1.635-0.322-3.271-0.816-4.906H475.1c0-0.148,0.05-0.309,0.148-0.483c0.099-0.173,0.148-0.434,0.148-0.781
		c-0.298-1.486-0.731-2.947-1.302-4.385c-0.569-1.437-1.227-2.774-1.97-4.014c-0.148-0.297-0.285-0.532-0.408-0.706
		c-0.125-0.173-0.187-0.334-0.187-0.483c-0.596-0.743-1.252-1.487-1.971-2.23c-0.719-0.743-1.475-1.486-2.267-2.229
		c-2.081-1.684-4.411-2.874-6.986-3.568c-2.576-0.693-5.129-1.115-7.655-1.264h-12.338c-0.743,0.149-1.486,0.199-2.229,0.149
		c-0.743-0.049-1.513,0-2.305,0.148c0,0.149,0.049,0.249,0.148,0.297c0.1,0.05,0.148,0.148,0.148,0.297
		c-0.148,0-0.298,0.05-0.446,0.148c-0.147,0.1-0.297,0.149-0.446,0.149h-0.297l0.297,0.297h-0.297
		c-0.147,0.148-0.234,0.347-0.26,0.594c-0.026,0.249-0.037,0.446-0.037,0.595c-0.148-0.446-0.236-0.879-0.261-1.301
		c-0.025-0.42-0.037-0.78-0.037-1.078H433.4l0.297,0.595h-0.893c0.05,0,0.1-0.049,0.148-0.149c0.099-0.099,0.147-0.247,0.147-0.446
		c-1.782-0.148-3.579-0.197-5.389-0.148c-1.809,0.05-3.604,0-5.389-0.149v1.487c0.298,0,0.644,0.025,1.041,0.074
		c0.396,0.05,0.743,0.223,1.04,0.52c0.298,0.149,0.421,0.409,0.372,0.781c-0.051,0.372-0.074,0.731-0.074,1.078v8.696
		c0.147,0.743,0.197,1.586,0.147,2.527c-0.05,0.942,0,1.784,0.148,2.527c-0.148,0.595-0.198,1.152-0.148,1.672
		c0.05,0.52,0,1.078-0.147,1.672v15.607c0,0.148,0.049,0.311,0.147,0.483c0.1,0.174,0.148,0.408,0.148,0.705
		c-0.148,1.041-0.198,2.095-0.148,3.16s0,2.218-0.147,3.455c0.147,0.596,0.197,1.188,0.147,1.784c-0.05,0.595,0,1.188,0.148,1.783
		c-0.05,0.148-0.05,0.273,0,0.371c0,0.148,0.099,0.323,0.298,0.521h-0.595c0,0.742,0.049,1.535,0.147,2.378
		c0.1,0.844-0.147,1.562-0.742,2.155h-0.066c0.005,0.101,0.02,0.199,0.021,0.298h0.344v0.893c0.148,0,0.298,0.05,0.445,0.147
		c0.148,0.099,0.299,0.148,0.446,0.148h23.71c1.486,0,2.937-0.074,4.349-0.223c1.411-0.148,2.861-0.372,4.349-0.669
		c0.396,0,0.595-0.198,0.595-0.595v0.595c0.893-0.298,1.832-0.619,2.824-0.966c0.99-0.348,1.858-0.818,2.602-1.412h0.298
		l-0.298-0.299c0.445,0,0.843-0.123,1.189-0.371c0.346-0.247,0.743-0.545,1.188-0.893c2.429-1.636,4.397-3.728,5.909-6.279
		c1.512-2.553,2.64-5.24,3.382-8.064c0.148-0.793,0.284-1.609,0.409-2.453c0.123-0.842,0.086-1.635-0.111-2.379h-0.59v-0.594
		C475.248,41.371,475.396,41.322,475.545,41.223z M427.047,54.75c-0.074,0.1-0.174,0.161-0.297,0.186
		c-0.124,0.025-0.212-0.086-0.26-0.334c0.048,0,0.099-0.049,0.147-0.148c0.1-0.1,0.148-0.247,0.148-0.446
		c0.197,0.101,0.309,0.224,0.334,0.372C427.146,54.525,427.121,54.65,427.047,54.75z M428.868,26.951
		c-0.148,0.149-0.26,0.174-0.334,0.075c-0.075-0.099-0.102-0.223-0.075-0.372c0.024-0.149,0.1-0.272,0.224-0.372
		c0.123-0.099,0.31-0.074,0.559,0.075L428.868,26.951z M437.342,17.958h0.594v-0.892h0.894c-0.199,0.199-0.298,0.496-0.298,0.892
		h1.486v0.297h-2.676V17.958z M439.608,29.367c0.073,1.512,0.11,3.01,0.11,4.497v19.771h-1.485V49.77h-0.893v-0.297h0.893V23.384
		h12.264c1.535,0.148,3.109,0.483,4.72,1.003c1.609,0.52,2.937,1.375,3.978,2.564c-0.297-0.148-0.657-0.346-1.078-0.594
		s-0.854-0.446-1.301-0.595c-1.338-0.595-2.738-0.892-4.199-0.892H439.72C439.571,26.357,439.534,27.856,439.608,29.367z
		 M447.227,64.189h-2.08v-0.597c-0.646-0.147-1.253-0.209-1.821-0.186c-0.569,0.024-1.077-0.111-1.523-0.408h1.486
		c-0.148-0.595-0.235-1.201-0.26-1.821c-0.025-0.619-0.037-1.227-0.037-1.82h1.188v0.595h-0.893v1.487h0.893
		c-0.101,0.1-0.175,0.174-0.224,0.223c-0.05,0.05-0.074,0.124-0.074,0.223c-0.05,0.1-0.05,0.174,0,0.223h-0.595v0.597
		c0.298,0,0.729,0.062,1.301,0.187c0.569,0.123,0.855-0.037,0.855-0.483c0.147,0.147,0.233,0.347,0.26,0.595
		c0.023,0.248,0.037,0.445,0.037,0.594h1.485L447.227,64.189L447.227,64.189z M452.95,62.107h-0.967l0.298,0.596h-2.379L450.2,63
		c-0.149,0-0.298-0.012-0.446-0.037c-0.147-0.025-0.297-0.111-0.446-0.26l0.299,0.594h-1.784c-0.05,0-0.05-0.049,0-0.148
		c0-0.099,0.099-0.248,0.298-0.444h-0.894v-0.298h3.865c0.148,0,0.247-0.049,0.297-0.149c0.049-0.098,0.149-0.147,0.298-0.147
		c0-0.099-0.05-0.248-0.147-0.445c-0.05-0.1-0.102-0.174-0.149-0.223h1.562v0.666H452.95z M448.416,54.898l0.297-0.596h2.082
		c0,0.198,0.049,0.348,0.148,0.446c0.049,0.101,0.099,0.147,0.147,0.147h-2.675V54.898z M453.247,54.305
		c0-0.149,0.049-0.311,0.147-0.484c0.101-0.172,0.149-0.334,0.149-0.481h2.676c0,0.495-0.125,0.729-0.372,0.705
		c-0.248-0.022-0.521-0.037-0.816-0.037c-0.298,0.148-0.596,0.236-0.893,0.261S453.545,54.305,453.247,54.305z M453.545,57.275
		h1.486l-0.298-0.297c0.445,0,0.755,0.037,0.93,0.111c0.17,0.073,0.256,0.329,0.259,0.764c-0.062-0.115-0.159-0.211-0.296-0.279
		h-2.081V57.275z M456.964,58.316c-0.101,0.148-0.148,0.298-0.148,0.447h-0.595c0.148,0.297,0.234,0.594,0.261,0.891
		c0.023,0.298,0.036,0.596,0.036,0.893h-1.485v-1.189h0.892c0-0.297,0.024-0.631,0.074-1.002c0.025-0.19,0.003-0.352-0.062-0.483
		h1.179C457.112,58.02,457.062,58.168,456.964,58.316z M462.835,45.83c-0.297,0.199-0.569,0.286-0.817,0.26
		c-0.248-0.023-0.37,0.212-0.37,0.707c-0.299,0.594-0.683,1.227-1.152,1.895c-0.472,0.67-1.004,1.228-1.598,1.674
		c-0.446,0.445-0.955,0.843-1.524,1.188c-0.57,0.348-1.151,0.744-1.746,1.189h-0.595l0.297,0.298
		c-1.982,0.298-3.891,0.458-5.723,0.483c-1.834,0.024-3.742-0.037-5.725-0.187c-0.147,0-0.347,0.049-0.595,0.147
		c-0.248,0.1-0.445,0.148-0.594,0.148c0-0.061,0.018-0.119,0.037-0.18c-0.378,0.072-0.759,0.107-1.176,0.07
		c-0.531-0.047-1.062-0.537-0.854-1.121c0.116-0.328,0.193-0.66,0.247-0.996c-0.009-0.152-0.039-0.291-0.039-0.449
		c0.028-0.085,0.063-0.148,0.101-0.212c0.045-0.64,0.038-1.286,0.024-1.933l-0.125,0.062V46.43c-0.284-1.347,0.01-2.757,0.049-4.156
		c0.008-0.291-0.017-0.594-0.047-0.9c-0.001-0.002-0.001-0.003-0.002-0.004c0,0,0.001,0,0.002,0
		c-0.078-0.775-0.188-1.577,0.043-2.286c-0.008-0.083-0.007-0.184-0.013-0.271c-0.637-2.933-0.431-6.225,0.063-9.105
		c0.021-0.122,0.071-0.222,0.134-0.309c0.024-0.124,0.037-0.241,0.066-0.369c0.039,0,0.07-0.006,0.107-0.006
		c-0.108-0.508-0.157-1.024-0.137-1.545c-0.127-0.266-0.209-0.495-0.23-0.678c-0.025-0.197-0.037-0.446-0.037-0.743
		c1.98,0,3.89,0.037,5.723,0.111c0.563,0.023,1.142,0.015,1.715,0.017c0.28-0.009,0.562-0.023,0.843-0.03
		c0.478-0.012,0.966-0.025,1.454-0.019c0.546-0.024,1.086-0.037,1.639-0.08c0.994,0,1.979,0.095,2.961,0.271
		c0.052,0.003,0.103,0.006,0.155,0.02c0.052,0.014,0.104,0.031,0.157,0.045c0.722,0.143,1.438,0.319,2.151,0.557h-0.465
		c1.233,0.491,2.37,1.175,3.271,2.178c0.077-0.032,0.166-0.064,0.241-0.097c0.894,1.536,1.512,3.171,1.858,4.905
		c0.346,1.735,0.521,3.519,0.521,5.352c-0.147,1.041-0.311,2.13-0.482,3.271c-0.175,1.14-0.408,2.229-0.706,3.27h0.892V45.83z
		 M469.45,30.891h2.081v0.297h-2.081V30.891z M467.667,33.381c-0.893,0.074-1.71,0.037-2.453-0.112
		c0.595-0.148,1.238-0.234,1.934-0.26c0.692-0.024,1.361-0.037,2.007-0.037c0.147,0,0.247-0.049,0.297-0.148
		c0.049-0.099,0.147-0.149,0.298-0.149c-0.199-0.197-0.298-0.321-0.298-0.372c-0.05-0.049-0.05-0.123,0-0.223h1.485v0.594h-0.892
		c-0.05,0.1-0.05,0.174,0,0.223c0,0.05,0.099,0.174,0.298,0.372C469.45,33.269,468.559,33.306,467.667,33.381z M471.643,46.275
		c-0.37-0.049-0.705-0.073-1.003-0.073c0-0.198,0.05-0.421,0.148-0.669s0.147-0.446,0.147-0.596h0.894
		c0,0.148-0.05,0.299-0.148,0.446c-0.101,0.148-0.148,0.298-0.148,0.445h0.893C472.274,46.178,472.015,46.326,471.643,46.275z
		 M475.1,46.202c-0.298,0-0.682,0.037-1.151,0.11c-0.473,0.074-0.78,0.037-0.93-0.11c0.148-0.347,0.457-0.495,0.93-0.446
		c0.471,0.051,0.854,0.074,1.151,0.074V46.202z"/>
	<path fill="#FFFFFF" d="M479.155,39.533c-0.04,0.021-0.077,0.027-0.117,0.054c0-0.297-0.05-0.656-0.148-1.078
		c-0.036-0.152-0.058-0.314-0.08-0.476c-0.043-0.147-0.07-0.298-0.13-0.44c-0.118-0.333-0.028-0.594,0.146-0.78
		c-0.033-0.462-0.092-0.92-0.142-1.379c-0.023-0.116-0.051-0.231-0.092-0.344c-0.1-0.272-0.147-0.483-0.147-0.632
		c0.046-0.015,0.084-0.037,0.129-0.053c-0.006-0.041-0.015-0.082-0.021-0.124c-0.285-1.005-0.578-2.004-0.883-3.001
		c-0.136-0.119-0.273-0.249-0.416-0.39c0-0.091,0.047-0.277,0.132-0.538c-0.249-0.786-0.509-1.571-0.789-2.355
		c-0.015-0.042-0.013-0.084-0.021-0.126c-0.701-1.119-1.349-2.377-1.734-3.611c-0.014,0.006-0.025,0.007-0.041,0.015
		c0-0.148-0.05-0.297-0.147-0.446c-0.101-0.148-0.148-0.297-0.148-0.446c-0.595-0.446-1.078-0.954-1.449-1.524
		c-0.372-0.569-0.78-1.078-1.227-1.523c0.297,0.595,0.644,1.152,1.04,1.672c0.396,0.52,0.743,1.078,1.041,1.672
		c0.595,1.041,1.126,2.155,1.598,3.345c0.472,1.189,0.854,2.478,1.152,3.865c0.147,1.338,0.334,2.688,0.558,4.051
		c0.224,1.363,0.334,2.813,0.334,4.348c0,2.082-0.161,4.162-0.481,6.244c-0.323,2.081-0.881,4.088-1.673,6.02h1.264v0.299h-1.264
		l-0.893,1.783h1.188v0.371h-1.188c-1.188,2.676-2.875,4.956-5.055,6.838h2.657c0.018-0.015,0.034-0.029,0.054-0.045
		c0.29-0.426,0.623-0.809,1.006-1.145c0.188-0.163,0.361-0.34,0.526-0.525c0.028-0.145,0.08-0.287,0.188-0.413
		c0.378-0.44,0.666-0.935,0.938-1.438c-0.006,0-0.014-0.002-0.02-0.002c0.193-0.387,0.396-0.736,0.6-1.07
		c0.188-0.346,0.385-0.684,0.614-1.003c0.396-0.55,0.746-1.124,1.092-1.7c0.002-0.145,0.009-0.305,0.019-0.506
		c0.004-0.075,0.02-0.143,0.039-0.205c-0.069-0.018-0.138-0.027-0.207-0.049c0.149-0.297,0.248-0.545,0.298-0.742
		c0.049-0.198,0.148-0.447,0.297-0.744c0.018,0.006,0.03,0.004,0.047,0.01c-0.005-0.09-0.009-0.18,0.016-0.281
		c0.069-0.301,0.148-0.582,0.233-0.855c0.037-0.161,0.08-0.32,0.124-0.479l-0.122,0.121c0.298-0.596,0.482-1.238,0.559-1.934
		c0.066-0.629,0.175-1.23,0.303-1.82c-0.116-0.636-0.045-1.32,0.13-1.98c-0.034,0.002-0.062,0.012-0.099,0.012
		c0.147-0.298,0.233-0.582,0.26-0.855c0.024-0.271,0.037-0.481,0.037-0.631c0.05-0.049,0.09-0.086,0.121-0.11
		c0-0.007-0.003-0.009-0.003-0.015c-0.013-0.511-0.03-1.006,0.003-1.502C479.132,40.464,479.138,39.998,479.155,39.533z"/>
	<path fill="#FFFFFF" d="M440.497,68.542c0.074-0.003,0.152-0.001,0.227-0.005c1.609-0.074,3.184-0.037,4.721,0.111
		c1.485-0.148,2.96-0.187,4.422-0.111c1.461,0.074,2.886,0.111,4.273,0.111c0-0.297,0.062-0.533,0.187-0.707
		c0.123-0.174,0.26-0.334,0.408-0.482h-0.893c-0.446-0.148-0.904-0.234-1.375-0.26c-0.472-0.025-0.929-0.037-1.375-0.037h-16.203
		c-1.635,0-3.282,0.012-4.941,0.037c-1.661,0.023-3.309,0.111-4.943,0.26v1.189h9.668C436.598,68.477,438.562,68.455,440.497,68.542
		z"/>
	<path fill="#FFFFFF" d="M533.312,22.717c-0.071-0.297-0.011-0.54,0.12-0.722c0.003-0.167,0.019-0.336,0.026-0.504
		c-0.079-0.038-0.164-0.078-0.237-0.114v-1.784c0.099,0.097,0.225,0.194,0.363,0.292c-0.19-0.668-0.378-1.33-0.47-2.023
		c-0.003-0.006-0.004-0.013-0.007-0.019c0.001,0,0.003,0,0.004,0c-0.012-0.079-0.027-0.155-0.035-0.235
		c-0.022-0.237,0.043-0.408,0.145-0.542v-6.169h-1.188c-0.148,0.743-0.235,1.549-0.26,2.416c-0.025,0.868-0.037,1.672-0.037,2.416
		c0,1.487,0.012,2.973,0.037,4.459c0.023,1.487,0.11,2.999,0.26,4.534h0.893v-0.297h0.594v-0.383
		C533.479,23.6,533.419,23.159,533.312,22.717z"/>
	<path fill="#FFFFFF" d="M520.587,44.492c0,0.645,0.012,1.264,0.037,1.857c0.012,0.295,0.04,0.59,0.083,0.885
		c0.176,0.224,0.329,0.455,0.451,0.699c0.121,0.075,0.266,0.062,0.454-0.123c0.186-0.181,0.353-0.375,0.522-0.565
		c-0.013-0.349-0.042-0.695-0.1-1.043c-0.06-0.354,0.021-0.726,0.229-1.112c-0.017-0.304-0.01-0.609,0.026-0.926
		c-0.053-0.281-0.092-0.577-0.105-0.898c-0.025-0.567-0.036-1.151-0.036-1.746l0.297-0.297c-0.349-0.447-0.483-0.893-0.409-1.338
		c0.074-0.446,0.112-0.892,0.112-1.338v-6.318h-1.265c-0.148,0.743-0.187,1.475-0.111,2.193c0.074,0.719,0.111,1.375,0.111,1.969
		c-0.148,1.388-0.235,2.75-0.261,4.088C520.599,41.816,520.587,43.154,520.587,44.492z"/>
	<path fill="#FFFFFF" d="M533.293,60.907c-0.032-0.267-0.052-0.533-0.031-0.806h-0.039v-7.509h-1.188
		c-0.148,0.793-0.235,1.513-0.26,2.156c-0.025,0.646-0.037,1.338-0.037,2.08v12.637c-0.001,0-0.002,0-0.003,0
		c0.033,0.207,0.057,0.367,0.067,0.519c0.153,0.096,0.231,0.317,0.231,0.671c0.368,0.122,0.692,0.14,0.994,0.094
		c-0.024-0.521-0.011-1.04,0.053-1.558c0.01-0.139,0.068-0.265,0.143-0.381v-2.096c0.021,0.032,0.042,0.047,0.063,0.075
		c-0.029-1.771-0.183-3.544-0.206-5.315C533.077,61.229,533.166,61.047,533.293,60.907z"/>
	<path fill="#FFFFFF" d="M530.547,8.221h-1.264c0,0.446-0.062,0.88-0.187,1.301s-0.261,0.78-0.408,1.078
		c-0.298,0.297-0.607,0.421-0.93,0.372c-0.323-0.049-0.706-0.074-1.151-0.074c-1.04,0-2.145,0.05-3.309,0.148
		c-1.165,0.1-2.366,0.149-3.604,0.149v0.892h-0.893V11.79l-0.298-0.297h-1.188v-0.297c-4.955-0.149-9.922-0.198-14.902-0.149
		c-4.979,0.05-10.022,0-15.125-0.148c-0.595,0-1.252,0.05-1.97,0.148c-0.72,0.1-1.449,0.149-2.192,0.149v0.892
		c0.445,0.149,0.953,0.297,1.523,0.446c0.568,0.148,0.854,0.594,0.854,1.338v48.981c0.148,0.594-0.1,1.039-0.743,1.338
		c-0.645,0.297-1.188,0.444-1.635,0.444v1.189h44.67c0.446,0,0.769,0.123,0.966,0.37c0.198,0.248,0.372,0.521,0.521,0.818
		c-7.384,0.148-14.668,0.197-21.853,0.148c-7.186-0.051-14.396,0-21.629,0.148V68.5h10.184c-0.015,0.014-0.026,0.021-0.04,0.033
		c0.736-0.033,1.474-0.055,2.21-0.061c0.155-0.054,0.348-0.07,0.58-0.048c0.218,0.021,0.408,0.036,0.59,0.05
		c2.052,0.008,4.119,0.057,6.248-0.029c1.715-0.067,3.424-0.144,5.129-0.195v-0.047h0.594c0.022,0.011,0.05,0.016,0.072,0.025
		c3.218-0.084,6.427-0.054,9.646,0.326c-0.037-0.031-0.078-0.056-0.13-0.056h2.676c2.013-0.151,4.041-0.185,6.038-0.041
		c0.099,0.006,0.172,0.024,0.254,0.041h0.694V49.918h-1.264c-0.101,0.297-0.161,0.632-0.187,1.004
		c-0.024,0.371-0.073,0.73-0.147,1.078s-0.199,0.631-0.372,0.854c-0.174,0.225-0.436,0.336-0.78,0.336
		c-3.767-0.148-7.52-0.197-11.261-0.148c-3.2,0.042-6.411-0.003-9.629-0.105c-0.134,0.092-0.296,0.154-0.514,0.135
		c-0.897-0.081-1.996-0.355-2.938-0.187c0.013,0.001,0.023,0.009,0.036,0.009l-0.595,0.297c0.017-0.051,0.023-0.104,0.036-0.156
		c-0.018,0.008-0.035,0.011-0.053,0.019c-0.743,0.337-1.426-0.204-1.302-1c0.059-0.374,0.1-0.749,0.128-1.122v-1.01
		c0.014-0.006,0.024-0.014,0.038-0.021c0.006-0.832-0.05-1.666-0.166-2.504c-0.029-0.215,0.011-0.461,0.11-0.672
		c-0.142-0.043-0.247-0.072-0.279-0.072l0.297-0.297c0.13-0.014,0.255-0.02,0.384-0.03c0.103-0.041,0.213-0.064,0.343-0.05
		c0.042,0.006,0.082,0.007,0.124,0.012c1.184-0.102,2.343-0.171,3.461-0.192c1.388-0.022,2.75-0.036,4.089-0.036
		c1.398,0.127,2.754,0.168,4.081,0.148c0.036-0.001,0.074,0.001,0.111,0c0.188-0.003,0.378,0.006,0.563,0
		c1.534-0.049,3.047,0,4.532,0.148V34.607c0-0.446,0.024-0.879,0.075-1.301c0.05-0.42-0.075-0.78-0.372-1.078
		c0.148-0.446,0.234-0.892,0.261-1.338c0.023-0.446,0.036-0.916,0.036-1.412h-1.188c0,0.645-0.162,1.215-0.483,1.709
		c-0.322,0.496-0.854,0.743-1.598,0.743h-10.605c-0.14,0.123-0.313,0.214-0.549,0.22c-1.079,0.027-2.649,0.58-3.243-0.707
		c-0.097-0.208-0.153-0.439-0.188-0.675c-0.044-0.011-0.084-0.012-0.13-0.027c0.031-0.031,0.072-0.07,0.107-0.105
		c-0.038-0.407,0.023-0.816,0.188-1.162v-1.411c-0.088-0.246-0.168-0.481-0.204-0.683c-0.052-0.293-0.011-0.623,0.105-0.92
		c-0.073-0.06-0.142-0.139-0.198-0.254c0.153-0.069,0.292-0.114,0.422-0.145c0.157-0.2,0.363-0.356,0.62-0.424
		c1.543-0.409,3.021,0.142,4.579,0.164c1.046,0.015,2.08,0.014,3.112,0.067c1.537-0.193,3.196-0.446,4.552,0.022
		c1.614-0.152,3.239-0.141,4.89-0.104c1.814,0.041,3.634-0.15,5.428,0.122h0.542c0.505-0.039,1.013-0.051,1.521-0.036
		c1.045,0.032,2.106-0.084,3.148-0.035c-0.023-0.467-0.083-0.927-0.199-1.379c-0.148-0.569,0.023-1.078,0.521-1.523V8.221H530.547z
		 M527.202,19.593c0.147-0.297,0.321-0.346,0.521-0.149c0.197,0.199,0.224,0.446,0.074,0.743c-0.147,0.149-0.323,0.125-0.521-0.074
		C527.078,19.916,527.054,19.742,527.202,19.593z M525.121,20.188c0.147-0.148,0.321-0.123,0.521,0.075
		c0.197,0.198,0.224,0.372,0.074,0.52c-0.298,0.149-0.546,0.125-0.743-0.074C524.773,20.511,524.824,20.336,525.121,20.188z
		 M523.04,16.025h1.188v1.189h-1.188V16.025z M497.472,38.844c0-0.297,0.062-0.669,0.187-1.115c0.123-0.446-0.037-0.594-0.483-0.446
		v-0.595h0.595v0.595h0.67c0,0.347,0.049,0.62,0.148,0.818c0.099,0.198,0.148,0.446,0.148,0.743H497.472z M513.08,39.735h0.595
		v-0.892h0.669v-0.595h1.784v0.892l0.594,0.594h1.784v0.297h-1.486v0.892h-0.595c0-0.149-0.013-0.346-0.037-0.595
		c-0.024-0.247-0.11-0.446-0.26-0.595c-0.298-0.148-0.657-0.234-1.078-0.26c-0.422-0.024-0.88-0.038-1.375-0.038
		c0.197,0,0.297,0.199,0.297,0.595h-0.892V39.735L513.08,39.735z M502.897,38.844h0.595v1.189h-0.595V38.844z M513.675,43.303
		c0.645,0,1.201,0.014,1.672,0.037c0.472,0.025,0.931,0.111,1.375,0.262c0.298,0,0.545,0.123,0.744,0.371
		c0.197,0.248,0.445,0.521,0.743,0.816c-3.023-0.148-6.021-0.186-8.994-0.111s-5.972,0.111-8.993,0.111v8.398
		c-0.147,0-0.348-0.049-0.595-0.147c-0.248-0.099-0.446-0.149-0.595-0.149v-9.588H513.675z M528.986,24.722h-28.766
		c0,1.189,0.013,2.391,0.037,3.605c0.024,1.214,0.111,2.515,0.26,3.902c0-0.197,0.198-0.297,0.596-0.297v0.892h-0.297v-0.595h-0.596
		v-0.297h-1.188v-8.696h28.765c0.446,0,0.792,0.174,1.04,0.521C529.085,24.103,529.135,24.424,528.986,24.722z"/>
	<path fill="#FFFFFF" d="M589.082,47.92c-0.089-0.896-0.222-1.752-0.19-2.609c0-0.446-0.062-0.879-0.186-1.301
		c-0.124-0.421-0.26-0.781-0.409-1.078h0.059c-0.181-0.457-0.356-0.91-0.543-1.379c-0.189-0.199-0.358-0.426-0.48-0.701
		c-0.297-0.496-0.607-0.955-0.929-1.375c-0.323-0.42-0.706-0.781-1.152-1.078c0.595,0.892,1.103,1.81,1.523,2.75
		c0.42,0.941,0.729,1.933,0.93,2.974c0.297,1.485,0.42,3.084,0.371,4.794c-0.05,1.71-0.397,3.309-1.04,4.794
		c-0.743,2.429-1.958,4.522-3.644,6.28c-1.685,1.76-3.667,3.185-5.945,4.273c-1.04,0.297-2.044,0.631-3.011,1.004
		c-0.966,0.371-2.068,0.631-3.308,0.779c-1.784,0.297-3.593,0.508-5.426,0.633c-1.834,0.122-3.717,0.111-5.648-0.037
		c-3.172,0-6.307-0.348-9.401-1.041c-3.099-0.692-6.059-1.66-8.884-2.897c-0.645-0.149-1.2-0.322-1.672-0.521
		c-0.472-0.197-0.929-0.224-1.375-0.074c-0.297,0.298-0.532,0.658-0.706,1.078c-0.174,0.422-0.335,0.881-0.482,1.375
		c0.147,0,0.347,0.013,0.595,0.037c0.247,0.024,0.446,0.11,0.595,0.26c0.297-0.297,0.606-0.668,0.93-1.114
		c0.322-0.446,0.729-0.595,1.227-0.446c0.893,0.297,1.722,0.607,2.49,0.93c0.49,0.205,0.967,0.396,1.445,0.592
		c2.894,0.508,5.584,1.72,8.476,2.169c3.528,0.547,7.114,0.821,10.674,1.131c0.107,0.002,0.223,0.012,0.328,0.012
		c0.177,0,0.367-0.008,0.554-0.012c1.905-0.144,3.8-0.287,5.729-0.31c0.185-0.041,0.364-0.086,0.553-0.127
		c0.17-0.098,0.368-0.147,0.598-0.147c0.014,0.006,0.022,0.012,0.034,0.019c2.425-0.496,5.047-0.938,7.241-2.027
		c0.329-0.205,0.681-0.41,1.068-0.615c1.816-1.255,3.099-3.355,5.034-4.248c0.021-0.01,0.039-0.006,0.061-0.014
		c0.558-0.822,1.211-1.584,1.712-2.522c1.268-2.378,1.498-4.792,2.39-7.237C589.226,49.893,589.179,48.9,589.082,47.92z"/>
	<path fill="#FFFFFF" d="M586.514,44.307c-0.1-1.561-0.521-3.035-1.264-4.422c-0.148-0.743-0.459-1.375-0.929-1.896
		c-0.473-0.521-0.855-1.078-1.152-1.672c-0.892-0.892-1.871-1.646-2.936-2.267c-1.066-0.619-2.193-1.177-3.383-1.672
		c-1.636-0.644-3.319-1.152-5.055-1.524s-3.469-0.669-5.203-0.892c-1.733-0.223-3.48-0.409-5.239-0.557
		c-1.228-0.104-2.444-0.24-3.659-0.392c-1.684,0.031-3.562-0.07-4.507-0.88c-0.017,0.029-0.031,0.052-0.048,0.083
		c-0.05,0.05-0.1,0.05-0.147,0c-0.101,0-0.148-0.099-0.148-0.297c0.034-0.017,0.055-0.038,0.081-0.056
		c-0.771-0.982-0.448-2.509,0.498-3.254c0.03-0.396,0.324-0.771,0.853-0.827c0.198-0.021,0.395-0.036,0.592-0.053
		c2.771-1.376,6.99-2.147,10.112-1.524c4.525-0.501,9.145,1.58,13.24,3.183c0.071,0.028,0.119,0.074,0.177,0.113
		c0.082,0.026,0.162,0.04,0.238,0.04v0.189c0.164,0.238,0.212,0.532,0.146,0.798c0.224,0.136,0.418,0.297,0.56,0.5
		c0.173,0.249,0.359,0.446,0.558,0.594c0-0.594,0.16-1.189,0.483-1.784c0.321-0.595,0.558-1.213,0.706-1.858
		c0.297-0.595,0.582-1.189,0.854-1.784c0.271-0.594,0.483-1.189,0.633-1.784c0.595-1.338,1.177-2.639,1.747-3.902
		c0.567-1.263,1.076-2.564,1.522-3.902c-0.147,0-0.298-0.049-0.446-0.149c-0.147-0.099-0.297-0.148-0.444-0.148
		c-0.298,0.297-0.607,0.62-0.931,0.966c-0.321,0.347-0.706,0.52-1.151,0.52s-0.904-0.062-1.375-0.186
		c-0.471-0.123-1.003-0.26-1.599-0.409c-2.131-0.595-4.262-1.177-6.392-1.747c-2.132-0.569-4.312-1.078-6.541-1.523
		c-3.32-0.495-6.652-0.669-9.997-0.521c-3.345,0.149-6.529,0.917-9.551,2.304c-0.298,0.149-0.607,0.31-0.931,0.483
		c-0.321,0.174-0.407,0.409-0.26,0.706c-0.743,0-1.412,0.223-2.007,0.669c-0.595,0.446-1.115,0.817-1.561,1.115
		c-2.28,1.982-3.854,4.411-4.721,7.284c-0.492,1.633-0.74,3.266-0.763,4.898c0.066,0.367,0.074,0.744,0.022,1.1
		c0.045,0.875,0.149,1.749,0.331,2.623c0.445,1.388,1.114,2.651,2.007,3.791c0.892,1.141,2.03,2.082,3.419,2.825
		c2.081,1.338,4.359,2.304,6.838,2.898c2.478,0.595,5.005,1.042,7.582,1.338c2.081,0.297,4.174,0.557,6.28,0.779
		c2.104,0.224,4.198,0.559,6.279,1.004c0.743,0.147,1.512,0.385,2.306,0.707c0.792,0.321,1.338,0.778,1.635,1.375
		c-1.686-0.744-3.469-1.201-5.353-1.375c-1.884-0.175-3.815-0.41-5.797-0.707c-1.636-0.148-3.308-0.31-5.018-0.482
		c-1.709-0.174-3.396-0.446-5.054-0.818c-1.661-0.371-3.283-0.854-4.869-1.449s-3.098-1.387-4.533-2.378
		c0.297,0.446,0.656,0.83,1.077,1.152c0.421,0.323,0.854,0.632,1.301,0.929c0,0.099,0.029,0.212,0.073,0.333
		c2.937,1.584,6.313,2.062,9.515,2.997c0.031,0.01,0.049,0.029,0.077,0.04c0.463,0.097,0.92,0.179,1.372,0.253
		c3.82,0.092,7.67,0.502,11.385,0.946c1.501,0.181,4.976,0.347,5.804,2.062c0.152,0.045,0.308,0.078,0.466,0.097
		c0.692,0.073,1.338,0.036,1.933-0.111v0.297h-2.081c0,0.298-0.062,0.595-0.187,0.894c-0.124,0.297-0.261,0.619-0.408,0.966
		c-0.026-0.009-0.049-0.021-0.074-0.03c-0.032,0.102-0.062,0.2-0.1,0.299c-0.084,0.219-0.225,0.367-0.386,0.465
		c-0.574,0.957-1.335,1.677-2.304,2.129c-1.114,0.521-2.267,0.854-3.456,1.002c-3.171,0.597-6.367,0.695-9.588,0.299
		c-3.036-0.373-5.979-1.112-8.839-2.19c-0.281-0.016-0.559-0.049-0.827-0.118c-0.362-0.074-0.708-0.189-1.035-0.396
		c-0.157-0.101-0.252-0.224-0.32-0.354l-1.02-0.509c-0.595-0.297-0.843-0.78-0.743-1.448c0.1-0.67,0.148-1.302,0.148-1.896
		c-0.148,0-0.297-0.049-0.445-0.148c-0.148-0.099-0.298-0.148-0.445-0.148c-0.148,0.298-0.272,0.658-0.372,1.078
		c-0.101,0.422-0.074,0.854,0.074,1.301c-0.298-0.446-0.62-0.829-0.967-1.152c-0.347-0.322-0.521-0.632-0.521-0.929V43.53
		c-0.148,0-0.297-0.05-0.445-0.149c-0.149-0.098-0.298-0.148-0.446-0.148c-1.091,3.023-2.168,6.084-3.232,9.181
		c-0.995,2.894-2.05,5.823-3.153,8.78c0.04,0.215,0.091,0.43,0.15,0.642c0.068,0.005,0.136,0.011,0.216,0.019
		c0.247,0.024,0.446,0.11,0.595,0.26c0.346-0.643,0.842-1.139,1.486-1.486c0.445,0,0.893,0.111,1.338,0.334
		c0.446,0.225,0.893,0.41,1.338,0.559c1.833,0.742,3.704,1.412,5.611,2.006c1.906,0.597,3.853,1.041,5.835,1.339
		c3.171,0.446,6.38,0.657,9.625,0.633s6.43-0.335,9.552-0.931c0-0.147-0.013-0.297-0.037-0.444
		c-0.025-0.149-0.111-0.224-0.261-0.224c1.238,0.197,2.44,0.062,3.604-0.409c1.164-0.47,2.269-0.929,3.309-1.375
		c2.428-1.189,4.46-2.974,6.095-5.353c1.636-2.378,2.602-4.979,2.899-7.804c-0.148,0.147-0.36,0.235-0.633,0.26
		c-0.272,0.026-0.558,0.038-0.854,0.038c0.147-0.298,0.396-0.384,0.743-0.261c0.346,0.124,0.595,0.11,0.743-0.037
		C586.588,47.416,586.612,45.867,586.514,44.307z M551.357,27.62c-0.446-0.297-0.818-0.656-1.115-1.078
		c-0.297-0.42-0.521-0.854-0.669-1.301c0-0.94,0.247-1.721,0.743-2.341c0.494-0.619,1.041-1.152,1.636-1.598
		c1.485-0.744,3.034-1.177,4.645-1.301c1.61-0.123,3.159-0.186,4.646-0.186c2.278,0.149,4.521,0.397,6.727,0.743
		c2.204,0.348,4.373,0.892,6.504,1.635c0.743,0.297,1.512,0.632,2.305,1.003c0.792,0.372,1.413,0.929,1.857,1.672
		c-1.188-0.743-2.489-1.301-3.901-1.672c-1.412-0.371-2.812-0.706-4.199-1.003c-1.635-0.297-3.345-0.557-5.128-0.78
		c-1.784-0.223-3.568-0.26-5.353-0.111c-1.188,0-2.429,0.111-3.717,0.334c-1.289,0.223-2.453,0.706-3.493,1.449
		c-0.742,0.446-1.289,1.09-1.636,1.933C550.861,25.862,550.911,26.729,551.357,27.62z M545.039,60.027h-1.486v-0.299h1.486V60.027z
		 M571.425,57.055h-2.081v-0.299h2.081V57.055z M575.662,37.506h0.595l-0.298,0.297c0.298,0.148,0.532,0.235,0.706,0.26
		c0.173,0.026,0.335,0.038,0.483,0.038v0.297h-0.893C576.257,38.2,576.058,37.903,575.662,37.506z M579.898,43.525
		c-0.198,0-0.372,0.014-0.521,0.037c-0.148,0.025-0.297,0.111-0.445,0.261c-0.298-0.148-0.595-0.234-0.893-0.261
		c-0.297-0.023-0.595-0.037-0.893-0.037v-0.297h2.914C580.013,43.311,579.961,43.4,579.898,43.525z M580.79,42.932
		c-0.297,0-0.482,0.025-0.557,0.074c-0.011,0.008-0.026,0.034-0.038,0.045v-1.012h-0.669v-0.594h-0.893v-0.297h0.893v-0.669
		l0.372,0.669l0.297,0.594h0.595V42.932L580.79,42.932z M581.385,40.852h-1.188l-0.297-0.669h1.485V40.852z"/>
	<path fill="#FFFFFF" d="M582.031,29.59c2.062-1.887,1.964-5.474,3.806-7.526c0.003-0.006,0.005-0.012,0.008-0.018
		c0.168-0.337,0.307-0.707,0.43-1.09c-0.009-0.104,0.002-0.213,0.048-0.333c0.028-0.077,0.063-0.14,0.097-0.209
		c-0.002-0.001-0.005-0.002-0.007-0.003c0.006-0.01,0.015-0.017,0.021-0.026c0.086-0.177,0.183-0.342,0.321-0.508
		c0.033-0.04,0.075-0.055,0.113-0.084c0.259-0.646,0.521-1.3,0.8-1.983c0.321-0.792,0.631-1.635,0.929-2.527
		c-0.147,0-0.298-0.049-0.445-0.149c-0.148-0.099-0.298-0.148-0.445-0.148c-0.348,0.297-0.657,0.607-0.93,0.929
		c-0.272,0.323-0.482,0.706-0.633,1.152c-0.892,1.834-1.733,3.705-2.525,5.612c-0.794,1.908-1.637,3.853-2.527,5.834
		c-0.446-0.148-0.955-0.309-1.522-0.483c-0.57-0.173-1.078-0.112-1.524,0.186c0.595,0.149,1.152,0.297,1.673,0.446
		c0.521,0.148,1.077,0.297,1.672,0.446c0.148,0.148,0.311,0.286,0.483,0.409C581.914,29.549,581.977,29.566,582.031,29.59z"/>
	<path fill="#FFFFFF" d="M613.583,67.484c-0.041,0-0.081,0-0.121,0c-0.131-0.002-0.271-0.039-0.399-0.101
		c-0.104,0.003-0.213-0.008-0.312,0c-0.645,0.05-1.338,0-2.081-0.147c-2.429,0-4.844,0.012-7.247,0.037
		c-2.404,0.023-4.794,0.11-7.172,0.26v1.189h6.352c2.617-0.223,5.131-0.158,7.826-0.214c1.31-0.026,2.928-0.09,4.403,0.058v-1.033
		c-0.312-0.062-0.611-0.098-0.905-0.125C613.815,67.455,613.699,67.486,613.583,67.484z"/>
	<path fill="#FFFFFF" d="M612.686,64.793l-0.231-0.232c0-0.168-0.015-0.33-0.028-0.494c-0.408-0.521-0.604-1.248-0.729-1.842
		c-0.317-1.529-0.297-3.076-0.023-4.576h-0.409c0,0.297-0.013,0.584-0.037,0.854c-0.024,0.272-0.11,0.483-0.261,0.632v5.426
		c-0.297-0.147-0.583-0.26-0.854-0.334c-0.272-0.074-0.409-0.261-0.409-0.559c-0.148-0.891-0.187-1.783-0.111-2.676
		c0.074-0.891,0.111-1.709,0.111-2.452c-0.594-0.147-1.188-0.233-1.783-0.261c-0.595-0.023-1.188-0.037-1.784-0.037
		c0.049,0,0.1-0.049,0.148-0.148c0.099-0.098,0.148-0.246,0.148-0.445c-0.595,0-1.178-0.049-1.747-0.147
		c-0.569-0.101-1.077-0.147-1.522-0.147v0.891h-0.595c0.049,0,0.123-0.098,0.223-0.297c0-0.1,0.024-0.197,0.074-0.297H601.9v-0.297
		c-0.299,0-0.596,0.012-0.893,0.037c-0.298,0.024-0.595,0.11-0.893,0.26v0.594h-1.189V57.65h0.595v-0.596
		c1.041,0,2.156-0.012,3.346-0.037c1.188-0.023,2.379-0.111,3.567-0.261V56.46h0.297l-0.297,0.297c0.594,0,1.14,0.052,1.635,0.147
		c0.495,0.102,1.041,0.15,1.636,0.15v-20.44h-0.893c0.148-0.148,0.298-0.234,0.446-0.26c0.148-0.024,0.297-0.037,0.445-0.037V19.519
		h-0.893c-0.05-0.049-0.05-0.099,0-0.148c0-0.099,0.1-0.148,0.298-0.148h0.595c0-0.892-0.037-1.771-0.111-2.639
		c-0.074-0.867-0.037-1.672,0.111-2.416c0-0.644,0.298-1.065,0.893-1.264c0.595-0.198,1.114-0.297,1.561-0.297V11.12h-18.655v1.487
		h1.562c0.743,0.297,1.126,0.83,1.151,1.598c0.023,0.769,0.038,1.449,0.038,2.044h1.188v0.297h-1.188v3.27h0.594v0.297h-0.594v34.86
		h1.188v0.297h-1.188v1.783h1.783v0.299h-1.783v6.02c-0.149,0.595-0.521,0.955-1.115,1.078c-0.595,0.124-1.141,0.26-1.636,0.408
		v1.188h17.467c0.596-0.188,1.124-0.241,1.601-0.192C612.562,65.451,612.594,65.043,612.686,64.793z"/>
	<path fill="#FFFFFF" d="M612.453,36.926c-0.03-0.086-0.062-0.171-0.067-0.277c-0.017-0.288-0.034-0.575-0.051-0.863
		c-0.013-0.223,0.065-0.4,0.185-0.54c0.007-0.056,0.021-0.108,0.028-0.164c-0.031,0.015-0.063,0.03-0.095,0.045v-2.676
		c0,0.05,0.048,0.1,0.147,0.148c0.022,0.023,0.059,0.034,0.087,0.052c-0.033-0.777-0.081-1.559-0.147-2.338
		c-0.029,0.035-0.059,0.057-0.087,0.057v-1.035c-0.085-0.907-0.169-1.784-0.239-2.599c-0.018-0.001-0.042-0.008-0.059-0.008
		l0.053-0.053c-0.008-0.091-0.019-0.193-0.025-0.283c-0.164-2.014-0.051-4.202,0.271-6.264v-0.217
		c-0.082-0.442-0.114-0.829-0.065-1.22l-0.231,0.232c0-0.149,0.012-0.346,0.037-0.595c0.023-0.248,0.11-0.446,0.261-0.595
		c0-0.297-0.026-0.632-0.075-1.003c-0.05-0.372,0.075-0.632,0.372-0.78c0.297-0.297,0.644-0.47,1.041-0.521
		c0.396-0.049,0.743-0.074,1.04-0.074v-1.561c-0.446,0-0.843,0.063-1.189,0.186c-0.347,0.124-0.742,0.186-1.188,0.186
		c-0.051,0.05-0.051,0.1,0,0.148c0,0.1,0.099,0.148,0.297,0.148c-0.297,0-0.583,0.05-0.854,0.149
		c-0.272,0.1-0.482,0.148-0.632,0.148c-0.147,0.446-0.235,0.955-0.261,1.524c-0.025,0.57-0.037,1.152-0.037,1.747v8.102
		c0.149,0.892,0.149,1.858,0,2.899c-0.147,1.041-0.147,2.081,0,3.122h0.894v0.297h-0.894v24.602c0.269,0,0.547-0.013,0.834-0.032
		c0.136-0.584,0.31-1.16,0.517-1.722c0.013-0.034,0.036-0.062,0.054-0.094c0.001-0.029,0.009-0.056,0.009-0.085
		c0-0.158,0.046-0.307,0.117-0.449c-0.066-0.955-0.086-1.914-0.093-2.873c-0.108-0.182-0.146-0.41-0.1-0.691
		c0.04-0.241,0.066-0.463,0.091-0.68c-0.008-1.519-0.033-3.033-0.233-4.529c-0.22-1.641-0.562-3.315,0.002-4.916
		c0.052-0.146,0.145-0.27,0.255-0.372c0.018-0.306,0.036-0.611,0.069-0.916c0.005-0.061,0.028-0.104,0.042-0.159
		c0.005-0.062,0.015-0.125,0.021-0.187c-0.031,0.009-0.064,0.005-0.096,0.015v-2.436H612.453z"/>
	<path fill="#FFFFFF" d="M677.86,59.654c-0.298,0-0.533-0.049-0.706-0.148c-0.176-0.098-0.335-0.148-0.483-0.148
		c-0.595,0.496-1.252,0.918-1.97,1.265c-0.719,0.348-1.475,0.744-2.268,1.188c-0.893,0.445-1.834,0.894-2.823,1.338
		c-0.992,0.445-1.934,0.893-2.825,1.338c-3.617,1.041-7.235,1.82-10.853,2.343c-3.616,0.521-7.31,0.631-11.073,0.334
		c-0.446,0-0.894-0.024-1.338-0.074c-0.446-0.051-0.894,0.074-1.339,0.371v-0.594c-0.495,0-0.979-0.089-1.448-0.261
		c-0.473-0.176-1.004-0.187-1.6-0.037V66.27h-1.188c-0.446-0.444-0.894-0.717-1.338-0.815c-0.446-0.101-0.894-0.224-1.338-0.372
		c-1.39-0.596-2.64-1.214-3.755-1.857c-1.114-0.645-2.267-1.412-3.456-2.306c0.596,0.744,1.238,1.313,1.934,1.71
		c0.693,0.396,1.338,0.816,1.933,1.264c0.09,0.18,0.148,0.328,0.193,0.463c1.255,0.524,2.495,1.082,3.745,1.619l0,0l0,0
		c0.473,0.202,0.947,0.401,1.425,0.594h0.657v0.259c0.033,0.014,0.068,0.026,0.104,0.04h1.085l-0.297,0.297h1.784v0.297
		c0.297,0,0.544,0.025,0.743,0.074c0.125,0.031,0.236,0.145,0.344,0.297c0.418,0.051,0.838,0.096,1.265,0.121
		c0.261,0.016,0.453,0.123,0.596,0.27c1.855,0.264,3.562-0.166,5.498-0.168c1.212,0,2.414,0.082,3.614,0.178
		c0.29-0.062,0.579-0.127,0.873-0.18v-0.294h0.297v0.239c1.529-0.248,3.093-0.341,4.617-0.256c-0.017-0.045-0.039-0.092-0.046-0.133
		c-0.025-0.148-0.037-0.297-0.037-0.445h0.893l-0.297,0.595c0.892-0.149,1.831-0.311,2.823-0.483
		c0.99-0.174,1.934-0.407,2.824-0.705c0.197,0,0.434-0.025,0.706-0.074c0.174-0.032,0.354,0.016,0.54,0.126
		c0.427-0.215,0.853-0.435,1.278-0.652c-0.042-0.098-0.071-0.194-0.071-0.291c0.12,0.061,0.24,0.103,0.36,0.144
		c1.448-0.748,2.9-1.489,4.404-2.125c-0.001-0.035-0.009-0.064-0.009-0.1h0.234c0.021-0.009,0.042-0.02,0.062-0.027
		c0.265-0.108,0.486-0.08,0.66,0.023c0.084-0.07,0.183-0.132,0.304-0.177c0.336-0.125,0.644-0.252,0.947-0.349
		c0.177-0.088,0.352-0.174,0.541-0.252c0.545-0.224,1.04-0.559,1.486-1.004h0.452c0.447-0.361,0.861-0.764,1.172-1.238
		c0.094-0.145,0.224-0.231,0.362-0.297C677.996,60.085,677.929,59.882,677.86,59.654z"/>
	<path fill="#FFFFFF" d="M666.935,30.705c0.047-0.081,0.079-0.178,0.104-0.286c0.005,0.08,0.021,0.152,0.044,0.223
		c0.113-0.394,0.248-0.779,0.39-1.161c-0.027-0.026-0.063-0.049-0.092-0.077c0.083-0.083,0.149-0.182,0.223-0.273
		c0.38-0.979,0.805-1.945,1.116-2.981c0.476-1.578,1.306-3.222,2.1-4.755c0.008-0.018,0.011-0.037,0.019-0.055
		c0.028-0.063,0.065-0.105,0.095-0.164c0.124-0.238,0.251-0.482,0.37-0.714c0.003-0.005,0.006-0.006,0.009-0.011
		c0.128-0.37,0.255-0.71,0.383-1.007c0.147-0.346,0.297-0.743,0.444-1.189c0-0.396,0.1-0.693,0.298-0.892h-1.188v0.595h-0.298v0.892
		h-0.893c-0.147,0.595-0.407,1.152-0.779,1.672c-0.372,0.521-0.409,1.078-0.111,1.672h-0.298c-0.594,0.892-1.077,1.784-1.449,2.676
		c-0.371,0.892-0.78,1.784-1.227,2.676c-0.148,0.446-0.248,0.955-0.298,1.524c-0.05,0.57-0.147,1.078-0.297,1.523
		c0.148,0.149,0.347,0.249,0.595,0.297c0.248,0.05,0.445,0.149,0.595,0.297C666.785,31.04,666.834,30.879,666.935,30.705z"/>
	<path fill="#FFFFFF" d="M675.01,57.709c-0.378-0.574,0.122-1.33,0.766-1.334c0.002,0,0.003-0.001,0.005-0.001v-0.286
		c0.101,0.051,0.188,0.062,0.275,0.081c0.134-0.222,0.2-0.571,0.243-0.827c-0.002-0.011-0.006-0.018-0.008-0.027
		c-0.249-1.629-0.087-3.223,0.042-4.842c-0.035-0.09-0.06-0.188-0.071-0.295c-0.024-0.223-0.013-0.457,0.037-0.705
		c0.049-0.248,0.075-0.445,0.075-0.596h0.051c0.027-0.719,0.03-1.432,0.017-2.138c-0.021,0.019-0.047,0.038-0.066,0.058v-1.783
		c0.003-0.004,0.008-0.006,0.012-0.01c-0.023-0.58-0.052-1.163-0.074-1.756c0.001-0.096,0.034-0.165,0.059-0.243
		c-0.004-0.69-0.024-1.374-0.07-2.043c-0.05-0.718,0.075-1.375,0.372-1.97c0.148,0,0.347-0.012,0.595-0.037
		c0.247-0.024,0.446-0.111,0.596-0.26v-1.189c-0.298,0-0.646,0.013-1.041,0.037c-0.397,0.025-0.743,0.111-1.04,0.26
		c-0.446,0.148-0.657,0.458-0.632,0.929c0.023,0.472,0.037,0.855,0.037,1.152c0,1.189-0.037,2.441-0.111,3.753
		c-0.074,1.313-0.037,2.564,0.111,3.754v0.893c0.147,0.148,0.186,0.359,0.11,0.632s-0.11,0.558-0.11,0.854h0.595
		c0.297,0.595,0.099,0.893-0.595,0.893c0,0.148,0.036,0.347,0.11,0.594c0.074,0.249,0.037,0.446-0.11,0.596
		c-0.148,0.941-0.199,1.847-0.148,2.713c0.049,0.867,0,1.672-0.149,2.416c-0.147,0-0.347-0.075-0.595-0.225
		c-0.248-0.148-0.445-0.371-0.594-0.668v-5.129h-0.894c0-0.148-0.073-0.297-0.223-0.445c-0.147-0.148-0.298-0.299-0.446-0.447
		h-2.378c0.148-0.147,0.234-0.297,0.261-0.444c0.023-0.147,0.036-0.297,0.036-0.446c-1.091-0.246-2.181-0.246-3.271,0
		c0,0.397,0.099,0.596,0.298,0.596h-0.595v-0.596c-0.298,0-0.657-0.049-1.078-0.148c-0.421-0.098-0.88-0.148-1.375-0.148v-0.594
		h-0.595v-0.893h0.595l-0.297-0.297h4.831l-0.297,0.297c0.147,0,0.309,0.014,0.481,0.037c0.173,0.025,0.409,0.111,0.706,0.26h0.894
		c-0.199,0.199-0.299,0.348-0.299,0.446c-0.05,0.101-0.05,0.148,0,0.148h2.75c-0.197,0.297-0.31,0.546-0.334,0.743
		s-0.036,0.445-0.036,0.742h0.37v0.297h0.894c-0.149-0.741-0.188-1.424-0.112-2.043c0.075-0.618,0.112-1.227,0.112-1.82v-8.696
		c0-0.446,0.173-0.781,0.52-1.003c0.348-0.223,0.669-0.409,0.968-0.558v-1.189h-1.189c0,0.397,0.099,0.594,0.297,0.594h-1.486
		v-0.594h-2.154v-0.095c-0.102,0.032-0.203,0.06-0.311,0.083l0.014,0.012c-0.019-0.002-0.034-0.003-0.052-0.005
		c-0.206,0.042-0.416,0.071-0.623,0.092c-0.2,0.021-0.379-0.05-0.523-0.168c-0.602-0.001-1.184,0.057-1.738,0.192
		c-0.917,0.223-1.847,0.186-2.787-0.111c-0.743,0.148-1.438,0.186-2.081,0.111c-0.645-0.074-1.338-0.111-2.081-0.111
		c0,0.148-0.013,0.31-0.036,0.483c-0.025,0.174-0.111,0.409-0.261,0.706c0.148,0.149,0.247,0.31,0.297,0.483
		c0.05,0.174,0.148,0.334,0.298,0.483h-1.486v-0.966h-2.081v-0.892c-1.834-0.297-3.643-0.297-5.426,0
		c-0.743,0-1.449-0.048-2.118-0.148c-0.669-0.099-1.375-0.148-2.118-0.148c0-0.297-0.05-0.595-0.148-0.892
		c-0.101-0.297-0.148-0.595-0.148-0.892h-0.893v2.081c-0.297,1.884-0.297,3.891,0,6.021h2.081v0.595h2.75v0.297
		c0.743,0,1.535-0.036,2.379-0.11c0.843-0.074,1.636-0.037,2.379,0.11c-0.148-0.147-0.235-0.346-0.261-0.594
		c-0.024-0.248-0.037-0.446-0.037-0.597c0.148,0,0.347-0.047,0.596-0.147c0.247-0.099,0.444-0.148,0.595-0.148l0.371,0.295v0.299
		c0.298,0,0.605,0.05,0.929,0.148c0.323,0.1,0.707,0.148,1.152,0.148v0.297h-0.893v1.189c0.148,0,0.297-0.049,0.446-0.148
		c0.148-0.1,0.297-0.148,0.445-0.148h0.893c-0.051,0-0.101-0.049-0.148-0.148c-0.101-0.1-0.148-0.247-0.148-0.446h2.081
		c-0.198,0.199-0.297,0.349-0.297,0.446c-0.05,0.102-0.05,0.148,0,0.148h-0.595v0.297h-0.299c-0.147,0.148-0.37,0.261-0.669,0.334
		c-0.297,0.074-0.37,0.261-0.223,0.559h-1.486c-0.05-0.049-0.05-0.1,0-0.148c0-0.099,0.1-0.148,0.297-0.148h-3.345v-0.297h-0.595
		v0.297h-1.188v1.121c1.188-0.156,2.414-0.193,3.524,0.109c0.769-0.115,1.567-0.195,2.293,0.104
		c0.291,0.119,0.504,0.303,0.661,0.525h0.137v0.233c0.183,0.377,0.237,0.829,0.206,1.28c-0.109,1.618-0.064,3.234-0.218,4.852
		c-0.018,0.178-0.07,0.327-0.15,0.461c0.053,0.004,0.102,0.012,0.162,0.012c-0.091,0.049-0.186,0.089-0.276,0.136
		c-0.102,0.104-0.224,0.192-0.386,0.246c-0.024,0.009-0.051,0.017-0.076,0.024c-0.041,0.015-0.084,0.01-0.125,0.017
		c-0.934,0.414-1.908,0.708-2.928,0.878c-1.338,0.223-2.676,0.408-4.014,0.557v0.596h-0.298l0.298-0.297
		c-1.189,0-2.342,0.037-3.456,0.11c-1.115,0.074-2.268,0.037-3.456-0.11v0.297c-0.298,0-0.694-0.024-1.189-0.074
		c-0.495-0.049-0.892,0.074-1.188,0.371h-0.297l0.297,0.595h-0.595l0.298,0.298h-0.894v-2.378c-0.94-0.147-1.759-0.471-2.451-0.967
		c-0.694-0.494-1.486-0.894-2.38-1.188c0.111-0.111,0.177-0.224,0.22-0.334c-0.088-0.099-0.17-0.201-0.245-0.31
		c-0.028,0.016-0.06,0.037-0.085,0.049c-0.124,0.049-0.187,0.147-0.187,0.297c-0.298-0.297-0.533-0.582-0.706-0.854
		c-0.175-0.271-0.335-0.482-0.482-0.631h0.41c-0.724-0.72-1.308-1.924-1.747-3.144c-0.048-0.043-0.106-0.086-0.149-0.128
		c-0.148-0.298-0.249-0.645-0.298-1.041c-0.022-0.176-0.064-0.345-0.115-0.511c-0.188-0.144-0.339-0.345-0.364-0.642
		c-0.042-0.343-0.069-0.686-0.087-1.029c-1.449-2.178-0.914-6.719,0.895-8.578c0.149-0.3,0.298-0.584,0.441-0.852
		c0.003-0.011-0.001-0.02,0.001-0.031c0.197-1.094,0.44-2.314,1.053-3.267c0.523-0.819,1.271-1.336,1.887-2.066
		c0.948-1.127,1.78-2.391,3.13-2.847v-0.172h0.298c0.316-0.249,0.663-0.448,1.057-0.543c0.505-0.123,0.865,0.168,1.018,0.543h0.466
		c0.05-0.021,0.103-0.038,0.151-0.058l-0.238-0.239h0.969c0.073-0.019,0.146-0.043,0.221-0.06v-0.832h-2.677
		c-0.347,0.148-0.73,0.273-1.15,0.372c-0.422,0.1-0.559,0.372-0.409,0.817h-0.892c-1.934,1.041-3.544,2.54-4.831,4.497
		c-1.289,1.958-2.082,4.051-2.379,6.281c-0.298,1.388-0.397,2.85-0.298,4.385c0.1,1.537,0.298,2.998,0.595,4.385
		c0.298,0.894,0.669,1.723,1.114,2.49c0.446,0.77,0.893,1.523,1.339,2.268c-0.941-0.893-1.673-1.795-2.192-2.713
		c-0.521-0.916-1.004-1.92-1.449-3.011v0.966h-1.486v-0.966h1.486c-0.595-2.081-0.893-4.162-0.893-6.243
		c0-2.725,0.632-5.289,1.896-7.693c1.264-2.403,3.035-4.348,5.314-5.834v-0.892h1.784v-0.297c1.236-0.148,2.464-0.42,3.679-0.817
		c1.214-0.396,2.49-0.521,3.828-0.372l-0.298-0.297c0.298,0,0.568-0.024,0.817-0.075c0.247-0.048,0.371,0.075,0.371,0.372
		c1.238,0.148,2.453,0.297,3.644,0.446c1.188,0.148,2.378,0.297,3.566,0.446c0.595,0.297,1.201,0.496,1.821,0.595
		c0.618,0.1,1.226,0.297,1.82,0.595c0.742,0.297,1.562,0.632,2.452,1.003c0.892,0.371,1.562,0.929,2.008,1.672
		c-0.893-0.297-1.784-0.669-2.677-1.115c-0.892-0.446-1.783-0.669-2.676-0.669c-1.388-0.594-2.8-0.953-4.236-1.078
		c-1.438-0.123-2.823-0.26-4.161-0.409c-0.496,0-0.968,0.013-1.413,0.037c-0.445,0.025-0.893,0.111-1.338,0.26h-1.486v1.319
		c0.363-0.05,0.729-0.07,1.096-0.069c0.162-0.037,0.301-0.061,0.391-0.061c0.149-0.148,0.348-0.234,0.596-0.26
		c0.248-0.024,0.445-0.038,0.595-0.038v-0.892h0.298c0,0.148,0.024,0.297,0.074,0.446c0.049,0.149,0.223,0.297,0.521,0.446
		c0.792,0.149,1.562,0.186,2.305,0.112c0.743-0.074,1.485-0.112,2.229-0.112v0.021c1.746-0.109,3.589,0.431,5.222,0.962
		c1.734,0.564,3.654,1.298,4.973,2.588c0.104,0.102,0.169,0.224,0.208,0.352c0.116,0.089,0.239,0.17,0.376,0.239
		c0.147-0.297,0.298-0.606,0.446-0.929c0.147-0.322,0.32-0.706,0.521-1.152c0.595-1.338,1.188-2.75,1.783-4.237
		c0.595-1.486,1.188-2.973,1.784-4.459c0.147-0.446,0.346-0.904,0.595-1.375c0.247-0.47,0.446-1.003,0.595-1.598
		c-0.147,0-0.298-0.049-0.446-0.148c-0.147-0.099-0.297-0.149-0.445-0.149c-0.148,0.149-0.311,0.334-0.482,0.558
		c-0.175,0.223-0.409,0.334-0.706,0.334c-0.893-0.149-1.697-0.47-2.416-0.966c-0.719-0.495-1.522-0.669-2.416-0.521
		c0.05,0,0.101-0.048,0.149-0.148c0.099-0.099,0.147-0.248,0.147-0.446c-1.041-0.346-2.081-0.669-3.122-0.966
		c-1.039-0.297-2.105-0.595-3.194-0.892c-0.595-0.297-1.178-0.433-1.747-0.409c-0.57,0.025-1.078,0.26-1.523,0.706
		c0.148-0.148,0.247-0.309,0.297-0.483c0.05-0.173,0.148-0.409,0.299-0.707c-0.596,0-1.239-0.048-1.934-0.148
		c-0.693-0.099-1.338-0.148-1.933-0.148c-1.239-0.297-2.453-0.297-3.644,0v1.189h1.487v0.595h0.892l-0.297,0.297h-0.893
		c0-0.049,0.049-0.173,0.148-0.372c0.049-0.049,0.1-0.123,0.148-0.223h-1.784c0.297-0.595,0.297-1.189,0-1.784
		c-2.081,0-4.175,0.211-6.28,0.632c-2.106,0.421-4.199,1.003-6.28,1.747c-1.389,0.793-2.727,1.536-4.015,2.229
		c-1.289,0.695-2.451,1.561-3.492,2.602c0.099,0.05,0.196,0.05,0.298,0c0.087,0,0.147-0.027,0.196-0.066
		c-0.081,0.193-0.143,0.37-0.159,0.512c-0.025,0.199-0.037,0.446-0.037,0.744h-0.298c0.147-0.297,0.173-0.532,0.073-0.706
		c-0.1-0.173-0.223-0.334-0.37-0.483c-1.389,1.338-2.651,2.776-3.791,4.311c-1.142,1.537-2.081,3.196-2.824,4.98h0.892v1.189h-1.188
		c-0.149,0.446-0.298,0.892-0.446,1.338c-0.148,0.446-0.298,0.818-0.446,1.115h1.486v0.297h-1.486
		c-0.645,2.577-0.966,5.277-0.966,8.102h0.966v0.595h-0.966c0,1.783,0.173,3.617,0.521,5.5c0.346,1.884,0.989,3.644,1.932,5.276
		c0.149,0.744,0.421,1.486,0.818,2.23c0.396,0.742,0.816,1.412,1.264,2.006c0.396-0.396,0.594-0.791,0.594-1.188
		c0,0.149-0.013,0.298-0.037,0.446s-0.11,0.297-0.26,0.445v0.893c1.189,1.636,2.603,3.172,4.236,4.607
		c1.636,1.438,3.419,2.602,5.352,3.494c1.238,0.445,2.403,0.904,3.493,1.375s2.23,0.705,3.419,0.705V63.6h2.082v0.299h-1.189
		c0.148,0.147,0.187,0.359,0.111,0.632c-0.074,0.272-0.111,0.558-0.111,0.854c1.09,0.298,2.204,0.435,3.346,0.409
		c1.139-0.023,2.229,0.037,3.271,0.186c3.616,0,7.209-0.297,10.777-0.892v-0.298c0.346,0,0.717-0.012,1.114-0.037
		c0.396-0.023,0.742-0.111,1.041-0.26h1.485c2.278-0.596,4.521-1.338,6.728-2.23c2.204-0.891,4.372-1.955,6.504-3.195
		c0.297-0.147,0.581-0.309,0.854-0.482c0.26-0.165,0.459-0.391,0.605-0.667C675.11,57.842,675.057,57.779,675.01,57.709z
		 M667.678,45.607h0.596c0.048,0,0.122,0.1,0.223,0.297c0,0.1,0.023,0.199,0.074,0.298h-0.893V45.607L667.678,45.607z
		 M659.576,38.992c-0.149,0.149-0.36,0.236-0.632,0.26c-0.273,0.025-0.559,0.037-0.855,0.037v-1.486h1.487V38.992z M658.981,20.336
		v-0.595h0.297v-0.297h0.893c0,0.397,0.099,0.694,0.297,0.892H658.981z M660.171,14.093h1.188v0.595
		c-0.297,0-0.607,0.013-0.93,0.037C660.107,14.75,660.021,14.539,660.171,14.093z M658.387,15.58h2.081l-0.595,0.297l-0.297,0.594
		c-0.149-0.297-0.312-0.47-0.483-0.52c-0.174-0.049-0.409-0.074-0.706-0.074V15.58L658.387,15.58z M646.346,19.444h-0.892v-0.892
		h0.892V19.444z M648.427,18.85h-0.892v-1.189h0.892V18.85z M643.967,14.093c0.446,0.149,0.707,0.112,0.781-0.111
		s0.111-0.483,0.111-0.78c0.595,0.148,1.188,0.235,1.782,0.26c0.596,0.026,1.189,0.038,1.784,0.038v0.297h-0.892
		c0,0.149,0.049,0.297,0.147,0.446c0.1,0.148,0.148,0.297,0.148,0.446h-1.486c0.049,0,0.1-0.049,0.148-0.148
		c0.099-0.099,0.147-0.248,0.147-0.446h-1.188v0.595h-1.487v-0.597H643.967z M643.075,13.795c0.298,0.297,0.298,0.595,0,0.892
		c-0.297,0.148-0.446,0.074-0.446-0.223S642.778,13.944,643.075,13.795z M633.784,19.444h2.379v0.892
		c-0.298,0.148-0.657,0.236-1.078,0.26c-0.421,0.025-0.854,0.037-1.301,0.037V19.444z M629.846,22.789v0.297h-2.082v-0.297H629.846z
		 M627.504,20.039c0.024-0.149,0.086-0.272,0.187-0.372c0.099-0.099,0.224-0.074,0.372,0.074v0.595
		c-0.25,0.148-0.409,0.174-0.483,0.074C627.504,20.312,627.479,20.188,627.504,20.039z M621.744,28.81
		c0.247-0.595,0.544-0.718,0.892-0.372C622.387,29.033,622.09,29.157,621.744,28.81z M626.277,32.377h-1.562l0.297-0.297
		c-0.444,0-0.756-0.037-0.929-0.112c-0.174-0.074-0.26-0.334-0.26-0.78c0,0.199-0.199,0.297-0.596,0.297v-0.892h2.379v0.595h0.669
		L626.277,32.377L626.277,32.377z M626.277,21.005h1.188c0,0.199,0.049,0.347,0.148,0.446c0.049,0.1,0.099,0.149,0.147,0.149h-1.485
		L626.277,21.005L626.277,21.005z M627.764,25.465h0.298c0-0.446,0.123-0.656,0.371-0.632c0.248,0.025,0.521,0.037,0.818,0.037
		v0.595c0.396,0,0.792,0.199,1.188,0.595h-2.676L627.764,25.465L627.764,25.465z M640.623,61.216h-1.487
		c0-0.396,0.1-0.692,0.298-0.892h-1.783v-0.372c0.445,0,0.892-0.011,1.338-0.037c0.445-0.024,0.892-0.11,1.338-0.261
		c0,0.051,0.049,0.101,0.147,0.148c0.1,0.1,0.248,0.148,0.446,0.148c-0.148,0.197-0.273,0.422-0.372,0.669
		C640.448,60.869,640.474,61.066,640.623,61.216z M642.518,60.473c0.024,0.199,0.111,0.445,0.262,0.743h-0.894v-1.858h2.081
		l0.298,0.298h-1.784C642.48,60.002,642.492,60.275,642.518,60.473z M646.346,56.088h-0.892c0,0.297-0.05,0.582-0.149,0.854
		c-0.1,0.273-0.147,0.484-0.147,0.634h-0.297c-0.051-0.101-0.051-0.197,0-0.298c0-0.197,0.099-0.297,0.297-0.297h-2.677v-0.299
		c-0.1,0.051-0.174,0.074-0.223,0.074c-0.1,0.051-0.161,0.074-0.186,0.074c-0.026,0-0.088,0.051-0.188,0.148v-0.892h2.975V55.79
		h1.485L646.346,56.088L646.346,56.088z M658.126,64.003c-0.074,0.075-0.186,0.101-0.334,0.075
		c-0.148-0.026-0.249-0.188-0.297-0.484c0.197,0,0.396-0.098,0.594-0.297c0.149,0.1,0.211,0.223,0.188,0.371
		C658.25,63.816,658.201,63.93,658.126,64.003z M661.954,38.397h1.486c-0.198,0.199-0.298,0.496-0.298,0.892h0.893
		c-0.05,0.1-0.1,0.174-0.148,0.223c-0.1,0.198-0.147,0.323-0.147,0.372h1.857v0.892c-0.298,0-0.62-0.048-0.967-0.148
		c-0.347-0.099-0.743-0.148-1.188-0.148v-0.892h-0.596c-0.05-0.099-0.05-0.197,0-0.297c0-0.197,0.101-0.297,0.298-0.297h-1.188
		L661.954,38.397L661.954,38.397z M661.359,45.904c-0.198-0.197-0.297-0.494-0.297-0.893h0.892v0.596h0.892v0.892h0.596v0.298
		h-1.486l0.298-0.298C661.657,46.499,661.359,46.302,661.359,45.904z M672.435,52.816c-0.645-0.297-0.645-0.619,0-0.967
		C672.83,52.197,672.83,52.52,672.435,52.816z"/>
	<path fill="#FFFFFF" d="M698.571,67.752c-0.414-0.622-0.893-0.93-1.512-1.186c-2.512,0-5.085,0.013-7.718,0.037
		c-2.649,0.024-5.265,0.111-7.841,0.262v1.188c1.238,0,2.402-0.037,3.493-0.111c1.09-0.073,2.229-0.036,3.419,0.111
		c0.595,0,1.251-0.037,1.97-0.111c0.718-0.073,1.375-0.036,1.97,0.111c0.446,0,0.88-0.025,1.302-0.074
		c0.42-0.049,0.779,0.074,1.076,0.373c0.149-0.148,0.348-0.261,0.596-0.336c0.248-0.074,0.445,0.037,0.595,0.336
		c0.446-0.299,0.893-0.422,1.338-0.373c0.446,0.049,0.917,0.074,1.412,0.074c-0.029-0.089-0.045-0.167-0.059-0.244
		C698.599,67.789,698.584,67.771,698.571,67.752z"/>
	<path fill="#FFFFFF" d="M704.194,21.369c-0.093-0.111-0.161-0.222-0.209-0.333c-0.646-1.021-1.273-2.05-1.887-3.077h-0.157
		c-0.148-0.297-0.385-0.644-0.706-1.041c-0.322-0.396-0.483-0.744-0.483-1.041c0-0.595,0.285-0.954,0.855-1.078
		c0.567-0.123,1.076-0.26,1.522-0.409v-1.264c-0.446,0-0.904,0.013-1.375,0.038c-0.472,0.025-1.004,0.111-1.598,0.26
		c-0.298,0-0.546,0.186-0.744,0.558s-0.148,0.706,0.148,1.003c0.743,1.189,1.498,2.317,2.268,3.382
		c0.731,1.017,1.524,2.021,2.372,3.015C704.199,21.377,704.196,21.373,704.194,21.369z"/>
	<path fill="#FFFFFF" d="M735.426,13.164c-0.472,0.025-0.93,0.111-1.375,0.26c-0.893,0.297-1.188,0.917-0.893,1.858v48.608
		c-0.991-0.347-1.486-0.842-1.486-1.485V13.721c0-0.743,0.285-1.238,0.855-1.486c0.567-0.248,1.076-0.446,1.522-0.595v-1.189
		h-16.203v1.189c0.297,0.148,0.669,0.334,1.114,0.558c0.446,0.223,0.669,0.632,0.669,1.226v13.527h0.595
		c0,0.199-0.197,0.297-0.595,0.297v11.744c0.149,0.149,0.235,0.347,0.261,0.595c0.024,0.249,0.037,0.446,0.037,0.595h-0.595v-0.595
		l-0.595,0.595v-0.595l-0.596,0.297l0.149-0.448c0,0,0,0.001-0.001,0.002c-0.05,0.1-0.1,0.149-0.148,0.149l-0.595-0.595
		c0,0.397-0.198,0.793-0.595,1.189V38.1c-0.148-0.149-0.297-0.297-0.445-0.446c-0.147-0.148-0.298-0.322-0.445-0.52h0.211
		c-0.078-0.1-0.157-0.198-0.232-0.302c-0.139-0.006-0.256-0.063-0.35-0.181c-0.077-0.094-0.058-0.199,0.013-0.308
		c-0.49-0.742-0.94-1.527-1.446-2.166c-0.588-0.743-1.127-1.53-1.648-2.32c-0.121-0.184-0.291-0.413-0.483-0.669h-0.299l0.109-0.22
		c-0.053-0.048-0.104-0.097-0.157-0.145l-0.547,0.365c0.17-0.255,0.218-0.492,0.169-0.714c-1.354-1.297-2.595-2.707-3.753-4.189
		c-0.089-0.055-0.183-0.125-0.281-0.225l0.079-0.04c-0.607-0.789-1.196-1.592-1.762-2.412c-0.033-0.022-0.067-0.042-0.102-0.076
		c-0.051-0.049-0.075-0.099-0.075-0.148c0-0.007,0.006-0.01,0.006-0.017c-0.306-0.448-0.602-0.9-0.896-1.354v0.479
		c-1.04-1.387-2.069-2.75-3.084-4.088c-1.017-1.338-1.97-2.676-2.862-4.014c-0.147-0.346-0.334-0.669-0.557-0.966
		c-0.224-0.297-0.236-0.594-0.038-0.892c0.298-0.297,0.656-0.483,1.078-0.558c0.421-0.074,0.854-0.186,1.301-0.334v-1.189h-21.629
		v1.189c0.446,0.148,0.953,0.286,1.523,0.409c0.568,0.125,0.854,0.483,0.854,1.078c0.149,2.131,0.198,4.237,0.149,6.318
		c-0.051,2.081,0,4.188,0.147,6.318c-0.147,1.784-0.198,3.581-0.147,5.389c0.049,1.81,0,3.605-0.149,5.389v26.164
		c0,0.594-0.285,0.954-0.854,1.077c-0.272,0.06-0.527,0.12-0.771,0.187c-0.08,0.105-0.152,0.215-0.234,0.318
		c-0.156,0.199-0.334,0.385-0.519,0.566v0.525h16.798c0.297,0,0.434-0.21,0.408-0.632c-0.006-0.095,0.01-0.155,0.013-0.235
		c-0.954-0.938-0.786-2.394-0.412-3.669c-0.274-1.582,0.286-3.641,0.271-5.103c-0.028-2.659,0.075-5.235,0.285-7.848
		c-0.077-0.074-0.154-0.147-0.269-0.203c0.056-0.166,0.141-0.304,0.238-0.428c-0.499-1.086-0.494-2.406-0.328-3.602
		c-0.24-1.062-0.146-2.195-0.017-3.288c0.209-1.755-0.048-3.346-0.063-5.094c-0.002-0.201,0.081-0.383,0.206-0.533
		c0.029-0.153,0.073-0.292,0.15-0.398c0.123-0.173,0.26-0.334,0.407-0.483c0.148,0.147,0.348,0.31,0.596,0.483
		c0.247,0.174,0.445,0.409,0.595,0.706c-0.016,0.016-0.028,0.032-0.044,0.048c0.128,0.065,0.248,0.151,0.35,0.289
		c0.188,0.254,0.373,0.508,0.56,0.762c0.004,0.005,0.005,0.01,0.009,0.015c0.222,0.231,0.443,0.462,0.65,0.708
		c0.271,0.323,0.482,0.731,0.632,1.227v-1.858h0.298v0.892c-0.149,0.646-0.014,1.202,0.408,1.672
		c0.421,0.471,0.779,0.929,1.078,1.375c0.892,1.338,1.845,2.627,2.86,3.865c1.016,1.238,2.068,2.554,3.159,3.938
		c1.783,2.08,3.567,4.236,5.352,6.467c1.783,2.229,3.493,4.484,5.129,6.764c0.298,0.299,0.595,0.607,0.893,0.93
		c0.297,0.322,0.297,0.707,0,1.151c-0.149,0.446-0.409,0.669-0.781,0.669c-0.371,0-0.706,0.074-1.003,0.225v1.188h17.095
		c0.127-0.253,0.155-0.495,0.12-0.73c-0.168-0.103-0.301-0.263-0.351-0.498c-0.475-2.244-0.495-4.92-0.012-7.24
		c-0.621-2.078-0.325-4.204,0.012-6.33c0.003-0.016,0.012-0.027,0.016-0.043c-0.479-2.387,0.057-5.527,0.215-7.848v-0.724
		c0.014,0.005,0.022,0.009,0.035,0.013c0.002-0.082,0.007-0.17,0.008-0.25c0.007-0.724-0.006-1.442-0.011-2.164
		c-0.01,0.009-0.022,0.014-0.032,0.023v-2.081c0.007,0,0.012-0.003,0.018-0.003c-0.062-3.759-0.188-7.515-0.075-11.312
		c0.001-0.04,0.019-0.067,0.024-0.104c0.021-0.581,0.033-1.089,0.033-1.514c0.03,0.015,0.055,0.023,0.084,0.038
		c-0.013-0.5-0.015-1.006-0.019-1.524h-0.065v-1.561c0.002,0,0.004-0.001,0.006-0.002c-0.007-0.07-0.007-0.137-0.014-0.208
		c-0.112-1.263-0.432-2.603,0.008-3.813v-1.626c0.148-0.595,0.472-0.954,0.968-1.078c0.493-0.123,0.966-0.26,1.411-0.409
		c0-0.148,0.013-0.322,0.037-0.52c0.024-0.198,0.111-0.446,0.261-0.744C736.429,13.126,735.896,13.14,735.426,13.164z
		 M694.731,63.893c-0.298-0.148-0.606-0.373-0.93-0.67s-0.408-0.668-0.26-1.115c0-5.448-0.05-10.862-0.148-16.239
		c-0.101-5.375-0.148-10.764-0.148-16.166c0.298,0.297,0.619,0.669,0.967,1.115c0.346,0.446,0.521,0.966,0.521,1.561L694.731,63.893
		L694.731,63.893z M711.529,38.992h-2.677c0.05,0,0.123-0.099,0.225-0.297c0-0.099,0.023-0.197,0.074-0.297h-0.893v-0.892
		c0.297,0,0.594,0.05,0.893,0.148c0.297,0.1,0.595,0.149,0.892,0.149v0.594h1.486V38.992z M721.267,47.502
		c-0.396,0.125-0.742,0.188-1.041,0.188c0.149,0.147,0.235,0.248,0.262,0.297c0.023,0.05,0.037,0.148,0.037,0.298h-0.299v0.297
		h-0.595v-0.297h-0.297v-0.595h-0.297v-1.486h1.486c-0.148,0.445-0.051,0.706,0.297,0.779c0.347,0.074,0.768,0.111,1.264,0.111
		C721.936,47.242,721.662,47.379,721.267,47.502z"/>
	<path fill="#FFFFFF" d="M736.876,66.453c-0.307-0.01-0.624-0.036-0.99-0.08c-0.141-0.018-0.266-0.059-0.381-0.113
		c0.015,0.104,0.032,0.205,0.032,0.309c-2.527,0.147-5.117,0.197-7.768,0.147s-5.266,0-7.842,0.149v1.188h14.419
		c0.596,0,1.178-0.025,1.747-0.074s1.103-0.223,1.599-0.521c-0.348-0.297-0.607-0.606-0.78-0.929
		C736.899,66.507,736.888,66.479,736.876,66.453z"/>
</g>
</svg>
