<?xml version="1.0" encoding="utf-8"?>
<!-- Generator: Adobe Illustrator 15.0.2, SVG Export Plug-In . SVG Version: 6.00 Build 0)  -->
<!DOCTYPE svg PUBLIC "-//W3C//DTD SVG 1.1//EN" "http://www.w3.org/Graphics/SVG/1.1/DTD/svg11.dtd">
<svg version="1.1" id="Layer_1" xmlns="http://www.w3.org/2000/svg" xmlns:xlink="http://www.w3.org/1999/xlink" x="0px" y="0px"
	 width="1159.322px" height="80.508px" viewBox="0 0 1159.322 80.508" enable-background="new 0 0 1159.322 80.508"
	 xml:space="preserve">
<g>
	<path fill="#FFFFFF" d="M336.467,32.852c0.114-0.426,0.272-0.828,0.465-1.212c-0.108-0.085-0.222-0.169-0.314-0.262
		c0.288-0.288,0.516-0.636,0.684-1.044c0.168-0.407,0.324-0.756,0.469-1.044c0.015,0.015,0.034,0.024,0.049,0.038
		c0.126-0.348,0.251-0.696,0.399-1.036c0.121-0.277,0.277-0.548,0.446-0.817c-0.106,0.052-0.213,0.087-0.319,0.087
		c0.145-0.288,0.264-0.612,0.36-0.972c0.096-0.36,0.36-0.612,0.792-0.756V24.97l0.384,0.384c0.05-0.144,0.091-0.29,0.119-0.438
		c0.014-0.18,0.037-0.358,0.044-0.54c0.003-0.079,0.03-0.139,0.048-0.207c-0.103,0.054-0.204,0.123-0.307,0.225
		c0-0.288,0.06-0.563,0.18-0.828c0.119-0.263,0.252-0.492,0.396-0.684c0.144-0.432,0.288-0.815,0.432-1.152
		c0.145-0.335,0.288-0.72,0.433-1.152c0-0.384,0.095-0.672,0.287-0.864h-1.151v0.576h-0.288v0.864h-0.864
		c-0.144,0.576-0.396,1.116-0.756,1.62s-0.396,1.044-0.108,1.62h-0.287c-0.576,0.864-1.045,1.728-1.404,2.592
		c-0.36,0.864-0.756,1.728-1.188,2.592c-0.144,0.432-0.24,0.925-0.288,1.477s-0.144,1.043-0.288,1.475
		c0.145,0.145,0.336,0.241,0.576,0.289s0.433,0.144,0.576,0.287c0-0.144,0.048-0.299,0.145-0.467
		c0.044-0.078,0.076-0.174,0.101-0.277C336.296,32.549,336.357,32.713,336.467,32.852z"/>
	<path fill="#FFFFFF" d="M310.805,67.414c-0.456-0.168-0.972-0.18-1.548-0.035V67.09h-1.151c-0.433-0.432-0.864-0.695-1.296-0.791
		c-0.433-0.096-0.864-0.217-1.297-0.361c-1.344-0.576-2.556-1.176-3.636-1.799s-2.196-1.369-3.348-2.232
		c0.576,0.721,1.199,1.271,1.872,1.656c0.672,0.385,1.296,0.791,1.872,1.225c0.142,0.283,0.223,0.508,0.25,0.676
		c0.685,0.369,1.363,0.748,2.075,1.037c0.112,0.004,0.23,0.014,0.339,0.014v0.119c0.289,0.102,0.582,0.191,0.888,0.25
		c0.044,0.01,0.088,0.016,0.132,0.025c0.045-0.035,0.09-0.064,0.132-0.105c0.061,0.061,0.115,0.107,0.171,0.158
		c0.995,0.174,2.024,0.318,2.95,0.705h0.047l-0.015,0.016c0.165,0.068,0.327,0.146,0.484,0.234c0.152,0.014,0.305,0.023,0.457,0.039
		h0.514v0.047c0.504,0.051,1.008,0.107,1.512,0.166v-0.502C311.729,67.666,311.261,67.582,310.805,67.414z"/>
	<path fill="#FFFFFF" d="M347.427,62.34c-0.075-0.156-0.15-0.307-0.226-0.469c-0.144-0.312-0.288-0.709-0.432-1.189
		c-0.288,0-0.517-0.047-0.685-0.143c-0.169-0.096-0.324-0.145-0.468-0.145c-0.576,0.48-1.213,0.889-1.908,1.225
		c-0.696,0.336-1.429,0.719-2.196,1.15c-0.863,0.434-1.776,0.865-2.735,1.297c-0.961,0.432-1.872,0.863-2.736,1.295
		c-3.504,1.01-7.009,1.766-10.512,2.27c-3.505,0.504-7.081,0.611-10.729,0.324c-0.432,0-0.863-0.025-1.296-0.072
		c-0.396-0.045-0.791,0.059-1.187,0.297c3.399,0.398,6.797,0.92,10.241,1.037c0.144,0.004,0.262,0.055,0.371,0.119
		c0.1-0.045,0.199-0.094,0.295-0.158v-0.648h0.287v0.648c0,0.055-0.017,0.094-0.033,0.135c0.203-0.023,0.406-0.051,0.609-0.076
		v-0.059h0.465c0.584-0.074,1.168-0.148,1.751-0.234c0.18-0.107,0.377-0.148,0.593-0.125c0.06,0.006,0.12,0.004,0.18,0.01
		c0.328-0.049,0.656-0.096,0.983-0.146c-0.06-0.107-0.104-0.207-0.119-0.295c-0.025-0.145-0.036-0.289-0.036-0.432h0.864
		l-0.288,0.574c0.863-0.143,1.775-0.299,2.735-0.467c0.96-0.17,1.872-0.396,2.736-0.684c0.191,0,0.42-0.025,0.684-0.072
		c0.162-0.029,0.329,0.012,0.5,0.109c0.43-0.189,0.86-0.375,1.294-0.555c-0.062-0.115-0.102-0.23-0.102-0.348
		c0.166,0.084,0.333,0.141,0.499,0.184c1.072-0.439,2.141-0.887,3.155-1.453c0.332-0.186,0.653-0.355,0.974-0.516
		c-0.003-0.078-0.02-0.15-0.02-0.23h0.509c0.455-0.205,0.928-0.373,1.428-0.508c0.519-0.42,1.063-0.756,1.725-0.854
		c0.149-0.117,0.303-0.227,0.442-0.367h1.44c0.268,0.268,0.62,0.373,1.054,0.33C347.479,62.857,347.442,62.605,347.427,62.34z"/>
	<path fill="#FFFFFF" d="M316.241,47.938c0.432,0.145,0.815,0.049,1.152-0.287c0.335-0.336,0.432-0.721,0.287-1.152h1.152v-1.512
		h-2.016l0.288,0.287h-0.864V47.938z"/>
	<path fill="#FFFFFF" d="M345.761,39.262c-0.385,0.025-0.72,0.108-1.008,0.252c-0.432,0.145-0.637,0.445-0.611,0.9
		c0.023,0.457,0.035,0.828,0.035,1.115c0,1.152-0.035,2.365-0.107,3.637c-0.072,1.273-0.036,2.484,0.107,3.637v0.863
		c0.145,0.145,0.181,0.35,0.108,0.611c-0.072,0.266-0.108,0.541-0.108,0.828h0.576c0.288,0.576,0.096,0.865-0.576,0.865
		c0,0.143,0.036,0.336,0.108,0.576s0.036,0.432-0.108,0.576c-0.144,0.912-0.192,1.787-0.144,2.627c0.047,0.84,0,1.621-0.145,2.34
		c-0.144,0-0.336-0.072-0.575-0.215c-0.241-0.145-0.433-0.361-0.576-0.648v-4.969h-0.864c0-0.145-0.072-0.287-0.216-0.432
		c-0.145-0.145-0.288-0.287-0.432-0.432h-2.305c0.145-0.145,0.228-0.289,0.252-0.432c0.023-0.145,0.036-0.289,0.036-0.434
		c-1.057-0.238-2.112-0.238-3.168,0c0,0.385,0.096,0.576,0.288,0.576h-0.576v-0.576c-0.288,0-0.637-0.047-1.044-0.143
		c-0.408-0.096-0.853-0.145-1.332-0.145v-0.576h-0.576v-0.863h0.576l-0.288-0.289h4.681l-0.288,0.289
		c0.144,0,0.299,0.012,0.468,0.035c0.168,0.025,0.396,0.107,0.684,0.252h0.864c-0.192,0.193-0.288,0.336-0.288,0.432
		c-0.048,0.098-0.048,0.145,0,0.145h2.664c-0.192,0.289-0.3,0.529-0.324,0.721s-0.036,0.432-0.036,0.719h0.36v0.289h0.864
		c-0.145-0.721-0.18-1.379-0.108-1.98c0.072-0.6,0.108-1.188,0.108-1.764v-8.424c0-0.433,0.167-0.756,0.504-0.973
		c0.335-0.216,0.647-0.396,0.936-0.54v-1.151h-1.151c0,0.385,0.096,0.576,0.288,0.576h-1.44v-0.576h-2.088V35.41
		c0,0.145-0.097,0.287-0.288,0.432c-0.192,0.145-0.288,0.288-0.288,0.432l0.288,0.289c-1.008-0.145-1.956-0.108-2.844,0.107
		c-0.889,0.216-1.789,0.18-2.7-0.107c-0.72,0.144-1.393,0.18-2.016,0.107c-0.625-0.072-1.296-0.107-2.017-0.107
		c0,0.144-0.012,0.3-0.036,0.467c-0.024,0.17-0.107,0.396-0.252,0.685c0.145,0.144,0.24,0.3,0.288,0.468
		c0.048,0.169,0.145,0.324,0.288,0.469h-1.439v-0.937h-2.017V36.85c-1.776-0.287-3.527-0.287-5.256,0
		c-0.72,0-1.404-0.047-2.052-0.144c-0.648-0.096-1.332-0.144-2.052-0.144c0-0.289-0.049-0.576-0.145-0.865
		c-0.097-0.287-0.144-0.575-0.144-0.863h-0.864v2.016c-0.288,1.825-0.288,3.77,0,5.832h2.016v0.383
		c0.966-0.051,1.968-0.238,2.87-0.33c1.396-0.143,2.751-0.129,4.125-0.062c-0.007-0.105-0.011-0.199-0.011-0.277
		c0.144,0,0.335-0.047,0.576-0.145c0.239-0.096,0.432-0.145,0.576-0.145l0.359,0.289v0.287c0.288,0,0.588,0.049,0.9,0.145
		c0.312,0.098,0.684,0.145,1.116,0.145v0.287h-0.864v1.152c0.144,0,0.288-0.047,0.432-0.145c0.145-0.096,0.288-0.143,0.433-0.143
		h0.863c-0.048,0-0.097-0.049-0.144-0.145c-0.097-0.096-0.145-0.24-0.145-0.432h2.017c-0.192,0.191-0.288,0.336-0.288,0.432
		c-0.049,0.096-0.049,0.145,0,0.145h-0.576v0.287h-0.288c-0.144,0.145-0.359,0.252-0.647,0.324s-0.36,0.252-0.217,0.539h-1.439
		c-0.049-0.047-0.049-0.096,0-0.143c0-0.096,0.096-0.145,0.288-0.145h-3.24v-0.289h-0.576v0.289h-1.151v1.225
		c-0.116,0-0.232,0.039-0.348,0.102c0.855,0,1.713,0.029,2.577,0.041c0.229,0.002,0.399,0.088,0.537,0.203
		c0.853,0.006,1.704-0.01,2.558-0.104c0.27-0.029,0.509,0.121,0.674,0.334h0.409v1.439h-0.04c0.16,0.629,0.129,1.234,0.042,1.908
		c-0.024,0.193-0.107,0.361-0.222,0.494c0.072-0.033,0.153-0.066,0.22-0.1v1.729c-0.144,0.145-0.312,0.289-0.504,0.432
		c-0.192,0.145-0.216,0.289-0.071,0.434c0,0.191,0.19,0.287,0.575,0.287c-1.151,0.625-2.376,1.045-3.672,1.26
		c-1.296,0.217-2.592,0.396-3.888,0.541v0.576h-0.288l0.288-0.289c-1.152,0-2.269,0.037-3.348,0.107
		c-1.08,0.072-2.196,0.037-3.349-0.107v0.289c-0.288,0-0.673-0.025-1.151-0.072c-0.48-0.049-0.864,0.072-1.152,0.359h-0.288
		l0.288,0.576h-0.576l0.288,0.287h-0.864v-2.303c-0.912-0.145-1.704-0.457-2.376-0.938c-0.466-0.33-0.994-0.6-1.551-0.842
		c-0.254-0.059-0.494-0.158-0.722-0.297c-0.012-0.004-0.021-0.01-0.031-0.012c0.002-0.002,0.002-0.004,0.004-0.006
		c-1.374-0.854-2.294-2.965-3.021-4.256c-0.191-0.34-0.143-0.67,0.03-0.914c-0.082-0.223-0.147-0.459-0.181-0.729
		c-0.049-0.385-0.169-0.744-0.36-1.08c0.023-0.018,0.036-0.027,0.058-0.045c-0.301-0.838-0.522-1.695-0.636-2.535
		c-0.051-0.383,0.077-0.689,0.29-0.879v-0.861c0.081,0.049,0.151,0.098,0.23,0.146c-0.052-0.702-0.018-1.413,0.08-2.132
		c0.006-0.106,0.005-0.212,0.014-0.318c0.013-0.156,0.056-0.32,0.117-0.49c0.104-0.539,0.225-1.08,0.367-1.625V36.82
		c0.005-0.018,0.009-0.033,0.014-0.051c0.043-0.162,0.089-0.325,0.133-0.488c-0.006-0.002-0.013-0.004-0.019-0.008
		c0.016-0.029,0.029-0.057,0.045-0.086c0.042-0.156,0.083-0.311,0.127-0.466c0.068-0.242,0.209-0.396,0.377-0.493
		c0.094-0.172,0.188-0.346,0.279-0.502c0.263-0.456,0.468-0.9,0.611-1.332c0.063,0,0.13-0.018,0.195-0.024
		c0.38-0.851,0.784-1.688,1.361-2.433c0.938-1.209,2.062-2.248,3.34-3.073v-0.591h1.015c0.04-0.021,0.076-0.048,0.117-0.068
		c0.35-0.177,0.682-0.112,0.927,0.068h0.894l-0.288-0.288h1.151v-0.864h-2.592c-0.336,0.144-0.709,0.264-1.116,0.36
		c-0.408,0.097-0.54,0.36-0.396,0.792h-0.864c-1.872,1.008-3.433,2.46-4.68,4.356c-1.249,1.897-2.016,3.925-2.304,6.084
		c-0.288,1.345-0.385,2.761-0.288,4.249c0.096,1.488,0.288,2.904,0.576,4.248c0.287,0.863,0.647,1.668,1.079,2.412
		c0.433,0.744,0.864,1.475,1.297,2.195c-0.913-0.863-1.62-1.74-2.124-2.629c-0.505-0.887-0.973-1.859-1.404-2.916v0.938h-1.44
		v-0.938h1.44c-0.576-2.016-0.864-4.031-0.864-6.047c0-2.64,0.612-5.124,1.836-7.453c1.225-2.327,2.939-4.211,5.148-5.651v-0.864
		h1.728V24.97c1.199-0.144,2.388-0.408,3.564-0.792c1.176-0.384,2.412-0.504,3.708-0.36l-0.288-0.288
		c0.288,0,0.551-0.023,0.792-0.072c0.239-0.047,0.359,0.072,0.359,0.36c1.2,0.144,2.377,0.288,3.528,0.432
		c1.152,0.144,2.304,0.288,3.456,0.432c0.576,0.288,1.163,0.48,1.764,0.576c0.6,0.097,1.188,0.288,1.765,0.576
		c0.72,0.288,1.512,0.612,2.376,0.972c0.864,0.36,1.512,0.9,1.943,1.62c-0.863-0.288-1.728-0.648-2.592-1.08
		c-0.863-0.432-1.728-0.648-2.592-0.648c-1.345-0.576-2.712-0.923-4.104-1.044c-1.394-0.119-2.736-0.252-4.032-0.396
		c-0.48,0-0.937,0.013-1.368,0.036c-0.432,0.025-0.864,0.108-1.296,0.252h-1.44v1.44c0.031,0,0.085-0.011,0.126-0.016
		c0.784-0.292,1.63-0.531,2.466-0.671v-0.753h0.288c0,0.144,0.024,0.288,0.072,0.432c0.026,0.08,0.098,0.159,0.197,0.238
		c1.023-0.114,1.996-0.047,2.781,0.29c0.64-0.057,1.278-0.096,1.918-0.096v0.08c3.021-0.38,6.61,1.02,8.935,2.854
		c0.022-0.02,0.044-0.033,0.065-0.055c0.21,0.105,0.385,0.245,0.544,0.4c0.042,0.007,0.083,0.017,0.126,0.021
		c0.418-0.06,0.759,0.086,0.946,0.362c0.085-0.176,0.171-0.347,0.256-0.532c0.144-0.312,0.312-0.684,0.504-1.116
		c0.575-1.296,1.151-2.664,1.728-4.104l1.729-4.32c0.144-0.432,0.335-0.875,0.575-1.332c0.24-0.456,0.433-0.972,0.576-1.548
		c-0.144,0-0.288-0.047-0.432-0.144c-0.145-0.096-0.288-0.144-0.432-0.144c-0.145,0.144-0.301,0.324-0.469,0.54
		c-0.169,0.216-0.396,0.324-0.684,0.324c-0.864-0.144-1.645-0.456-2.34-0.936c-0.696-0.479-1.477-0.648-2.34-0.504
		c0.047,0,0.095-0.047,0.144-0.144c0.096-0.095,0.144-0.239,0.144-0.432c-1.008-0.335-2.016-0.648-3.023-0.936
		s-2.041-0.576-3.096-0.864c-0.576-0.288-1.142-0.419-1.692-0.396c-0.553,0.025-1.044,0.252-1.476,0.684
		c0.144-0.144,0.239-0.299,0.287-0.468c0.048-0.168,0.145-0.396,0.288-0.684c-0.575,0-1.2-0.047-1.872-0.144
		c-0.672-0.096-1.296-0.144-1.871-0.144c-1.201-0.288-2.377-0.288-3.528,0v1.152h1.439v0.576h0.864l-0.288,0.288h-0.864
		c0-0.047,0.048-0.168,0.145-0.36c0.047-0.047,0.096-0.119,0.144-0.216h-1.728c0.288-0.576,0.288-1.152,0-1.728
		c-2.016,0-4.045,0.205-6.084,0.612c-2.041,0.408-4.068,0.972-6.084,1.692c-1.345,0.768-2.641,1.488-3.888,2.16
		c-1.249,0.673-2.376,1.512-3.385,2.52c0.096,0.048,0.191,0.048,0.288,0c0.085,0,0.144-0.026,0.191-0.063
		c-0.079,0.187-0.139,0.358-0.155,0.496c-0.024,0.192-0.036,0.432-0.036,0.72h-0.288c0.145-0.288,0.168-0.516,0.072-0.684
		c-0.097-0.167-0.216-0.324-0.36-0.468c-1.344,1.296-2.568,2.689-3.672,4.176c-1.104,1.488-2.016,3.096-2.735,4.824h0.863v1.152
		h-1.151c-0.145,0.432-0.288,0.864-0.433,1.296c-0.144,0.433-0.288,0.792-0.432,1.08h1.44v0.288h-1.44
		c-0.624,2.496-0.936,5.111-0.936,7.848h0.936v0.576h-0.936c0,1.729,0.167,3.504,0.504,5.328c0.335,1.824,0.959,3.527,1.872,5.111
		c0.144,0.721,0.407,1.441,0.792,2.16c0.383,0.721,0.792,1.369,1.224,1.945c0.384-0.385,0.576-0.768,0.576-1.152
		c0,0.145-0.013,0.287-0.036,0.432c-0.024,0.145-0.108,0.287-0.252,0.432v0.865c1.152,1.584,2.52,3.072,4.104,4.463
		c1.584,1.393,3.312,2.52,5.185,3.385c1.199,0.432,2.327,0.875,3.384,1.332c1.056,0.457,2.16,0.684,3.312,0.684v-1.152h2.017v0.289
		h-1.152c0.145,0.143,0.181,0.348,0.108,0.611s-0.108,0.539-0.108,0.828c1.056,0.287,2.136,0.42,3.24,0.396
		c1.104-0.025,2.16,0.035,3.168,0.18c3.503,0,6.984-0.289,10.44-0.865V65.65c0.335,0,0.695-0.012,1.079-0.037
		c0.384-0.023,0.721-0.107,1.009-0.252h1.439c2.207-0.574,4.38-1.295,6.517-2.158c2.135-0.865,4.235-1.896,6.3-3.098
		c0.288-0.143,0.563-0.299,0.828-0.467c0.263-0.168,0.468-0.396,0.611-0.684c0.044,0.029,0.092,0.047,0.138,0.072
		c-0.105-0.365,0.009-0.814,0.361-1.072c0.06-0.043,0.105-0.102,0.158-0.152h-0.081v-0.576c0.167,0.084,0.313,0.109,0.448,0.104
		c0.151-0.27,0.262-0.582,0.34-0.934c-0.071-0.021-0.142-0.035-0.212-0.035v-1.439c0.138,0.047,0.258,0.066,0.369,0.076
		c0.016-0.594-0.013-1.225-0.061-1.863c-0.104-0.002-0.206-0.012-0.309-0.012l0.285-0.287c-0.02-0.244-0.042-0.486-0.065-0.729
		c-0.034-0.023-0.088-0.037-0.111-0.064c-0.121-0.145-0.192-0.324-0.217-0.541c-0.024-0.215-0.012-0.443,0.036-0.684
		s0.072-0.432,0.072-0.576h0.046c-0.057-0.723-0.079-1.365-0.009-1.842c0.022-0.15,0.09-0.26,0.173-0.354
		c-0.079,0.059-0.15,0.119-0.21,0.18v-1.729c0.027-0.027,0.065-0.045,0.097-0.068c-0.188-0.92-0.326-1.85-0.391-2.785
		c-0.02-0.287,0.08-0.494,0.236-0.635c-0.008-0.145-0.005-0.293-0.015-0.436c-0.048-0.695,0.072-1.332,0.36-1.908
		c0.144,0,0.335-0.012,0.576-0.036c0.239-0.023,0.432-0.108,0.576-0.252v-1.151C346.481,39.227,346.145,39.238,345.761,39.262z
		 M336.905,47.074h0.576c0.047,0,0.119,0.098,0.216,0.287c0,0.098,0.023,0.193,0.072,0.289h-0.864V47.074z M329.058,40.666
		c-0.145,0.145-0.35,0.229-0.612,0.252c-0.265,0.025-0.54,0.036-0.828,0.036v-1.44h1.44V40.666z M328.481,22.594v-0.576h0.288V21.73
		h0.863c0,0.385,0.096,0.673,0.288,0.864H328.481z M329.633,16.546h1.152v0.576c-0.288,0-0.589,0.012-0.9,0.036
		C329.572,17.183,329.489,16.978,329.633,16.546z M327.905,17.986h2.016l-0.576,0.288l-0.287,0.576
		c-0.145-0.288-0.301-0.456-0.469-0.504c-0.169-0.047-0.396-0.072-0.684-0.072V17.986z M316.241,21.73h-0.864v-0.864h0.864V21.73z
		 M318.257,21.154h-0.863v-1.152h0.863V21.154z M313.938,16.546c0.432,0.144,0.684,0.108,0.756-0.108
		c0.071-0.216,0.107-0.468,0.107-0.756c0.576,0.144,1.152,0.228,1.729,0.252c0.576,0.024,1.151,0.036,1.728,0.036v0.288h-0.863
		c0,0.144,0.047,0.288,0.144,0.432c0.096,0.144,0.144,0.288,0.144,0.432h-1.439c0.047,0,0.096-0.047,0.144-0.144
		c0.096-0.096,0.145-0.24,0.145-0.432h-1.152v0.576h-1.439V16.546z M313.073,16.258c0.288,0.288,0.288,0.576,0,0.864
		c-0.288,0.144-0.432,0.072-0.432-0.216C312.642,16.618,312.785,16.402,313.073,16.258z M304.073,21.73h2.304v0.864
		c-0.288,0.144-0.637,0.229-1.044,0.252c-0.408,0.024-0.828,0.036-1.26,0.036V21.73z M300.257,24.97v0.288h-2.016V24.97H300.257z
		 M297.989,22.306c0.023-0.144,0.083-0.263,0.18-0.36c0.096-0.095,0.216-0.072,0.36,0.072v0.576
		c-0.241,0.144-0.396,0.169-0.468,0.072C297.989,22.57,297.965,22.45,297.989,22.306z M292.409,30.802
		c0.239-0.576,0.527-0.695,0.864-0.36C293.032,31.018,292.744,31.139,292.409,30.802z M296.801,34.258h-1.512l0.288-0.287
		c-0.432,0-0.732-0.037-0.9-0.109c-0.168-0.071-0.252-0.323-0.252-0.756c0,0.193-0.192,0.289-0.575,0.289v-0.865h2.304v0.576h0.647
		V34.258z M296.801,23.242h1.152c0,0.192,0.047,0.336,0.144,0.432c0.048,0.097,0.096,0.144,0.145,0.144h-1.44V23.242z
		 M298.241,27.562h0.288c0-0.432,0.119-0.636,0.359-0.612c0.24,0.024,0.505,0.036,0.792,0.036v0.576
		c0.384,0,0.768,0.192,1.152,0.576h-2.592V27.562z M310.697,62.193h-1.44c0-0.383,0.096-0.67,0.288-0.863h-1.728v-0.359
		c0.432,0,0.863-0.012,1.296-0.037c0.432-0.023,0.864-0.107,1.296-0.252c0,0.049,0.047,0.098,0.144,0.145
		c0.096,0.098,0.24,0.145,0.433,0.145c-0.145,0.191-0.265,0.408-0.36,0.648C310.528,61.859,310.553,62.051,310.697,62.193z
		 M312.533,61.475c0.023,0.191,0.108,0.432,0.252,0.719h-0.864v-1.799h2.017l0.288,0.287h-1.729
		C312.497,61.02,312.509,61.283,312.533,61.475z M316.241,57.227h-0.864c0,0.287-0.048,0.564-0.144,0.828
		c-0.097,0.264-0.145,0.467-0.145,0.611h-0.288c-0.048-0.096-0.048-0.191,0-0.287c0-0.191,0.096-0.289,0.288-0.289h-2.592v-0.287
		c-0.097,0.049-0.169,0.072-0.216,0.072c-0.097,0.047-0.156,0.07-0.18,0.07c-0.025,0-0.085,0.049-0.181,0.145v-0.863h2.88v-0.289
		h1.44V57.227z M327.653,64.895c-0.072,0.072-0.181,0.096-0.324,0.072s-0.24-0.18-0.288-0.469c0.191,0,0.384-0.096,0.576-0.287
		c0.144,0.096,0.203,0.215,0.18,0.359C327.772,64.715,327.726,64.822,327.653,64.895z M331.361,40.09h1.439
		c-0.192,0.192-0.288,0.48-0.288,0.864h0.864c-0.048,0.097-0.097,0.169-0.144,0.216c-0.097,0.192-0.145,0.312-0.145,0.359h1.8v0.865
		c-0.287,0-0.601-0.047-0.936-0.145c-0.336-0.096-0.72-0.145-1.152-0.145v-0.863h-0.575c-0.049-0.096-0.049-0.191,0-0.288
		c0-0.191,0.095-0.288,0.287-0.288h-1.151V40.09z M330.785,47.361c-0.192-0.189-0.288-0.479-0.288-0.863h0.864v0.576h0.864v0.863
		h0.575v0.289h-1.439l0.288-0.289C331.073,47.938,330.785,47.746,330.785,47.361z M341.513,54.059c-0.624-0.289-0.624-0.6,0-0.936
		C341.896,53.459,341.896,53.77,341.513,54.059z"/>
	<path fill="#FFFFFF" d="M397.542,21.599c-0.274-2.416-0.832-4.91-0.781-7.357c-0.066,0.494-0.116,1.004-0.132,1.548
		c-0.024,0.84-0.036,1.62-0.036,2.34c0,1.44,0.012,2.88,0.036,4.32c0.023,1.44,0.107,2.904,0.252,4.392h0.81
		c-0.245-1.479-0.57-2.951-0.638-4.463C397.038,22.051,397.254,21.747,397.542,21.599z"/>
	<path fill="#FFFFFF" d="M398.033,61.113V60.74c-0.04-0.338-0.074-0.678-0.082-1.021c-0.004-0.15,0.031-0.277,0.082-0.389v-5.488
		h-1.152c-0.145,0.77-0.229,1.465-0.252,2.088c-0.024,0.625-0.036,1.297-0.036,2.016v11.562c0.453,0.244,0.745,0.57,0.812,1
		c0.186-0.002,0.371,0.002,0.557-0.01c0.021-3.051-0.455-6.072,0.021-9.119c0.016-0.102,0.052-0.188,0.095-0.264v-0.002H398.033z"/>
	<path fill="#FFFFFF" d="M395.44,10.858h-1.224c0,0.432-0.061,0.853-0.18,1.26c-0.121,0.408-0.252,0.756-0.396,1.044
		c-0.288,0.288-0.588,0.408-0.899,0.36c-0.313-0.047-0.685-0.072-1.116-0.072c-1.008,0-2.077,0.048-3.204,0.144
		c-1.129,0.097-2.293,0.144-3.492,0.144v0.864h-0.864v-0.288l-0.288-0.288h-1.151v-0.288c-4.801-0.144-9.612-0.191-14.437-0.144
		c-4.823,0.049-9.708,0-14.651-0.144c-0.576,0-1.213,0.048-1.908,0.144c-0.696,0.097-1.404,0.144-2.124,0.144v0.864
		c0.432,0.144,0.924,0.288,1.476,0.432s0.828,0.576,0.828,1.296v47.447c0.145,0.576-0.097,1.01-0.72,1.297
		c-0.445,0.205-0.824,0.311-1.172,0.369c-0.107,0.387-0.244,0.781-0.412,1.156v0.059h43.271c0.433,0,0.744,0.119,0.937,0.359
		c0.191,0.24,0.36,0.504,0.504,0.793c-7.152,0.145-14.209,0.191-21.168,0.145c-6.96-0.049-13.944,0-20.952,0.143v1.152h8.35
		c5.206-0.684,10.495-0.352,15.771-0.049v-0.238h0.576c0.256,0.127,0.556,0.199,0.888,0.232c2.995-0.104,5.991-0.201,8.993,0.055
		c2.325-0.258,6.355-0.666,8.767-0.139V51.25h-1.224c-0.097,0.289-0.156,0.611-0.18,0.973c-0.025,0.359-0.072,0.709-0.145,1.043
		c-0.071,0.338-0.192,0.613-0.359,0.828c-0.169,0.217-0.421,0.324-0.757,0.324c-3.647-0.145-7.284-0.191-10.907-0.145
		c-3.489,0.047-6.989,0-10.499-0.133c-0.782,0.098-1.563,0.111-2.354,0.098l-0.359,0.18c0.021-0.061,0.03-0.123,0.044-0.186
		c-0.271-0.006-0.54-0.014-0.813-0.018c-0.531-0.01-0.821-0.4-0.886-0.887c-0.222-1.674-0.532-3.297-0.499-4.992
		c0.01-0.512,0.397-0.846,0.886-0.885c2.404-0.193,5.805-0.707,8.476,0.068c0.692,0.059,1.379,0.105,2.054,0.127
		c1.132-0.201,2.311-0.17,3.448-0.096c0.095,0.006,0.234,0.047,0.389,0.1c0.864,0.01,1.722,0.047,2.568,0.123
		c0.092-0.094,0.197-0.174,0.317-0.229V36.418c0-0.432,0.023-0.852,0.072-1.26c0.047-0.408-0.072-0.756-0.36-1.045
		c0.145-0.432,0.228-0.863,0.252-1.295c0.024-0.433,0.036-0.889,0.036-1.368h-1.151c0,0.624-0.157,1.177-0.469,1.655
		c-0.312,0.48-0.828,0.721-1.548,0.721h-8.604c-1.231,0.312-4.1,0.709-5.133-0.213c-1.241-1.109-0.698-3.404-0.833-4.845
		c-0.034-0.367,0.293-0.783,0.65-0.854c4.31-0.861,8.662-0.465,13.014-0.231c0.186,0.01,0.343,0.079,0.478,0.174
		c2.611-0.417,5.438-0.429,7.956,0.289c0.124-0.017,0.253-0.032,0.381-0.048c-0.022-0.035-0.033-0.069-0.06-0.104h0.563
		c1.654-0.441,3.676-0.683,5.241-0.138c-0.027-0.428-0.081-0.851-0.189-1.266c-0.144-0.551,0.023-1.044,0.504-1.476V10.858z
		 M392.201,21.874c0.144-0.288,0.312-0.335,0.504-0.144c0.191,0.192,0.216,0.432,0.071,0.72c-0.144,0.144-0.312,0.12-0.504-0.072
		C392.08,22.187,392.057,22.018,392.201,21.874z M390.185,22.45c0.145-0.144,0.312-0.12,0.504,0.072
		c0.191,0.192,0.217,0.36,0.072,0.504c-0.288,0.144-0.528,0.121-0.72-0.072C389.849,22.763,389.896,22.594,390.185,22.45z
		 M388.169,18.418h1.152v1.152h-1.152V18.418z M363.4,40.521c0-0.287,0.06-0.647,0.181-1.08c0.119-0.432-0.036-0.575-0.468-0.432
		v-0.576h0.575v0.576h0.648c0,0.336,0.047,0.602,0.144,0.792c0.096,0.192,0.145,0.433,0.145,0.72H363.4z M378.521,41.386h0.576
		v-0.864h0.648v-0.576h1.728v0.865l0.576,0.575h1.728v0.288h-1.439v0.865h-0.576c0-0.145-0.013-0.336-0.036-0.576
		c-0.024-0.24-0.107-0.434-0.252-0.577c-0.288-0.144-0.637-0.228-1.044-0.252c-0.408-0.023-0.853-0.036-1.332-0.036
		c0.191,0,0.288,0.193,0.288,0.576h-0.864V41.386z M368.657,40.521h0.575v1.152h-0.575V40.521z M379.097,44.842
		c0.623,0,1.163,0.014,1.62,0.037c0.456,0.023,0.9,0.107,1.332,0.252c0.288,0,0.527,0.119,0.72,0.359
		c0.191,0.24,0.433,0.504,0.721,0.791c-2.929-0.143-5.832-0.18-8.713-0.107c-2.88,0.072-5.784,0.107-8.712,0.107v8.137
		c-0.144,0-0.336-0.047-0.575-0.145c-0.241-0.096-0.433-0.143-0.576-0.143v-9.289H379.097z M393.929,26.842h-27.864
		c0,1.152,0.012,2.316,0.036,3.492c0.023,1.177,0.108,2.437,0.252,3.779c0-0.19,0.191-0.287,0.576-0.287v0.863h-0.288v-0.576h-0.576
		v-0.287h-1.151v-8.424h27.863c0.433,0,0.768,0.169,1.009,0.504C394.024,26.242,394.073,26.554,393.929,26.842z"/>
	<path fill="#FFFFFF" d="M387.341,44.807c-0.024-0.551-0.036-1.117-0.036-1.693l0.288-0.287c-0.336-0.432-0.468-0.863-0.396-1.297
		c0.071-0.432,0.107-0.863,0.107-1.295v-6.121h-1.224c-0.145,0.721-0.181,1.43-0.108,2.125c0.072,0.696,0.108,1.332,0.108,1.908
		c-0.145,1.344-0.229,2.664-0.252,3.959c-0.025,1.297-0.036,2.592-0.036,3.889c0,0.625,0.011,1.225,0.036,1.801
		c0.007,0.176,0.031,0.352,0.049,0.527c0.104,0.324,0.153,0.641,0.155,0.959c0.018,0.08,0.027,0.16,0.048,0.24
		c-0.021-0.02-0.031-0.037-0.051-0.057c-0.003,0.055,0.003,0.109-0.003,0.164c0.287,0.244,0.585,0.471,0.879,0.596
		c0.025,0.008,0.049,0.01,0.074,0.018c0.104,0.033,0.203,0.051,0.305,0.072c-0.096-0.381-0.149-0.748-0.116-1.18
		c0.012-0.145,0.058-0.271,0.119-0.385c-0.009-0.367-0.03-0.732-0.091-1.1c-0.072-0.432,0.06-0.889,0.396-1.369
		C387.449,45.85,387.364,45.359,387.341,44.807z"/>
	<path fill="#FFFFFF" d="M397.951,30.565v-0.399c0-0.031,0.013-0.052,0.016-0.081c0.011-0.314,0.006-0.627-0.008-0.938h-0.79V27.13
		h-0.288v3.744h0.864c0.094-0.094,0.159-0.187,0.212-0.281C397.957,30.583,397.951,30.576,397.951,30.565z"/>
	<path fill="#FFFFFF" d="M434.175,66.814v0.707c-2.64,0-5.256,0.012-7.848,0.037c-2.592,0.023-5.209,0.107-7.848,0.252
		c0,0.145,0.011,0.334,0.036,0.576c0.023,0.238,0.107,0.432,0.252,0.576h4.971c2.954-0.555,5.808-0.275,8.654,0.293
		c0.114-0.062,0.229-0.119,0.343-0.186c0.288-0.168,0.576-0.107,0.864,0.18c0.144,0.145,0.347,0.227,0.611,0.252
		c0.264,0.023,0.54,0.037,0.828,0.037c0.055-0.055,0.097-0.109,0.143-0.164C434.846,68.521,434.556,67.66,434.175,66.814z"/>
	<path fill="#FFFFFF" d="M449.295,23.458c0.145,1.296,0.145,2.617,0,3.96c0,0.432,0.036,0.864,0.108,1.296s0.036,0.864-0.108,1.296
		c-0.066,0-0.133-0.014-0.199-0.017c0.207,0.37,0.335,0.772,0.389,1.194c0.047,0.035,0.096,0.066,0.143,0.102
		c0.176-0.03,0.353-0.066,0.532-0.127c0,0.06,0.017,0.119,0.037,0.18c0.246-0.178,0.372-0.641,0.434-1.157
		c-0.205-0.81-0.182-1.62,0.093-2.431c0.042-0.551,0.114-1.073,0.267-1.582c-0.104-0.064-0.192-0.152-0.266-0.255
		c-0.092-0.003-0.185-0.012-0.276-0.012c0-0.432,0.011-0.875,0.036-1.332c0.004-0.066,0.018-0.143,0.023-0.212
		c-0.021-0.555-0.035-1.109-0.038-1.667c0-0.007-0.003-0.011-0.003-0.017v-0.2c0-0.134,0.028-0.248,0.071-0.351
		c0.036-0.289,0.079-0.575,0.13-0.861c-0.067-1.171-0.094-2.33-0.04-3.461c0.072-1.512,0.108-3.06,0.108-4.644h-1.152
		c-0.288,1.008-0.372,2.064-0.252,3.168c0.119,1.104,0.108,2.185-0.036,3.24C449.151,20.866,449.151,22.162,449.295,23.458z"/>
	<path fill="#FFFFFF" d="M446.703,20.434h1.44c0-1.631-0.013-3.24-0.036-4.824c-0.025-1.584-0.108-3.191-0.252-4.824
		c-0.385-0.047-0.648,0.036-0.792,0.252c-0.145,0.216-0.265,0.493-0.36,0.828c-0.097,0.336-0.229,0.637-0.396,0.9
		c-0.169,0.264-0.445,0.396-0.828,0.396c-2.88,0.144-5.725,0.192-8.532,0.144c-2.809-0.047-5.677,0-8.604,0.144
		c-1.008,0-2.064-0.036-3.168-0.108c-1.104-0.072-2.185-0.036-3.239,0.108c-1.152-0.144-2.257-0.18-3.312-0.108
		c-1.057,0.072-2.185,0.108-3.384,0.108c-1.872-0.144-3.708-0.191-5.508-0.144c-1.801,0.048-3.637,0-5.509-0.144
		c-0.432,0-0.804-0.024-1.115-0.072c-0.313-0.047-0.612,0.072-0.9,0.36c-0.576-0.432-0.912-0.924-1.008-1.476
		c-0.097-0.551-0.145-1.044-0.145-1.476h-1.224v9.172c0.469,2.236,0.577,4.602,0.79,6.875c0.064,0.687,0.106,1.36,0.102,2.024h0.332
		c0.145-0.576,0.228-1.175,0.253-1.8c0.023-0.623,0.323-1.008,0.899-1.152h15.12v1.224h-12.816c-0.288,0-0.575,0.025-0.863,0.072
		c-0.288,0.048-0.576,0.216-0.864,0.504c-0.288,0.576-0.408,1.165-0.36,1.764c0.048,0.601,0.072,1.26,0.072,1.98h1.152
		c0.144-0.576,0.227-1.127,0.252-1.656c0.023-0.527,0.323-0.936,0.899-1.224h2.593c0.067,0.068,0.148,0.127,0.237,0.179
		c0.23-0.064,0.462-0.125,0.697-0.172c0-0.003,0.001-0.004,0.001-0.007c0.012,0,0.026-0.003,0.038-0.003
		c2.129-0.419,4.428-0.202,6.546-0.097c0.141,0.007,0.267,0.044,0.378,0.1h2.038v1.728h-0.486c0.027,0.1,0.056,0.199,0.083,0.298
		c0.145,0.344,0.246,0.733,0.322,1.142h0.081c0,2.063,0.036,4.116,0.108,6.155c0.071,2.041,0.035,4.166-0.108,6.373
		c0,1.295,0.036,2.664,0.108,4.104c0.071,1.439,0.035,2.881-0.108,4.32c0.288,0,0.612,0.012,0.972,0.035
		c0.36,0.025,0.612,0.109,0.756,0.252h-1.439c0,0.289,0.011,0.529,0.036,0.721c0.023,0.193,0.107,0.432,0.252,0.721h-0.576
		c0,0.576,0.012,1.199,0.036,1.871c0.023,0.674,0.107,1.32,0.252,1.943h0.576v0.289h-0.576c-0.145,0.432-0.229,0.912-0.252,1.439
		c-0.024,0.529-0.036,1.008-0.036,1.439c0,0.721,0.012,1.381,0.036,1.98c0.023,0.602-0.18,1.213-0.612,1.836
		c-0.288,0-0.588,0.049-0.899,0.145c-0.313,0.098-0.612,0.145-0.9,0.145v1.152h18.072v-1.152c0.061-0.061,0.114-0.107,0.17-0.16
		c-0.095-0.539-0.148-1.08-0.147-1.621c-0.008-0.008-0.015-0.012-0.022-0.02c0-0.145-0.013-0.348-0.036-0.611
		c-0.025-0.264-0.108-0.541-0.252-0.828c0.133-0.248,0.307-0.455,0.485-0.658c0.002-0.014,0.003-0.027,0.005-0.041
		c0.024-0.164,0.104-0.289,0.206-0.391c0.005-0.348,0.024-0.691,0.041-1.035c-0.329-0.277-0.464-0.635-0.378-1.08
		c0.096-0.504,0.072-0.971-0.071-1.402c0.012-0.008,0.021-0.012,0.033-0.018c-0.1-0.342-0.18-0.691-0.253-1.045
		c-0.215,0.105-0.43,0.053-0.645-0.162c0.177-0.354,0.353-0.463,0.529-0.385c-0.497-2.965-0.17-6.268,0.374-9.111
		c-0.104-0.135-0.175-0.301-0.168-0.51c0.047-1.469-0.067-2.955,0.272-4.359c0.001-0.132-0.011-0.264,0-0.396
		c0.048-0.575,0-1.079-0.144-1.512c0.111,0,0.223,0.048,0.334,0.12c-0.075-0.654-0.15-1.272-0.177-1.898
		c-0.054,0.018-0.102,0.031-0.157,0.051V36.13c0.031,0.011,0.065,0.025,0.097,0.036c-0.032-0.5-0.045-1.006-0.026-1.523
		c-0.526-1.678-0.908-4.017-0.07-5.404v-0.957h1.151v0.002c0.058-0.022,0.107-0.052,0.169-0.07c0.212-0.063,0.392-0.034,0.55,0.03
		c0.075-0.034,0.14-0.073,0.223-0.103c1.143-0.417,2.812,0.091,4.137,0.253c0.335-0.067,0.679-0.113,1.042-0.113v0.161
		c0.461-0.004,0.92-0.001,1.375,0.006c0.22-0.099,0.435-0.167,0.642-0.167c0.863,0.144,1.787,0.157,2.771,0.036
		c0.983-0.119,2.004-0.036,3.061,0.252v-7.848h-1.44V20.434z M405.663,16.042h-1.44v-0.576h1.44V16.042z M418.768,59.674
		c-0.288,0.145-0.529,0.121-0.721-0.072c-0.192-0.191-0.144-0.359,0.145-0.504c0.144-0.143,0.348-0.119,0.611,0.072
		C419.066,59.363,419.055,59.529,418.768,59.674z M426.039,40.162h-3.24C423.902,39.922,424.982,39.922,426.039,40.162z
		 M423.303,42.467c-0.144,0-0.216-0.072-0.216-0.217c0-0.336,0.072-0.504,0.216-0.504c0.145,0,0.288,0.168,0.433,0.504
		C423.591,42.395,423.447,42.467,423.303,42.467z M425.175,59.674v-0.576h0.576l-0.288-0.287h0.864
		c0.384,0.385,0.576,0.672,0.576,0.863H425.175z M427.191,38.723h-3.456v-0.289c0.144,0,0.335-0.011,0.576-0.035
		c0.239-0.023,0.432-0.108,0.575-0.252c0.288,0.144,0.636,0.229,1.044,0.252c0.408,0.024,0.828,0.035,1.261,0.035V38.723z
		 M427.479,54.994c0.288-0.145,0.575-0.18,0.863-0.107s0.576,0.107,0.864,0.107v1.152h-1.728V54.994z M431.871,26.842v22.033
		c0,1.775-0.024,3.467-0.072,5.076c-0.048,1.607,0.072,3.229,0.36,4.859c-0.288,0.287-0.349,0.684-0.18,1.188
		c0.167,0.504,0.323,0.973,0.468,1.404h-0.576v0.287c-0.144,0.576-0.18,1.141-0.108,1.693c0.072,0.553,0.108,1.068,0.108,1.547
		c-0.769-0.143-1.213-0.479-1.332-1.008c-0.12-0.527-0.18-1.08-0.18-1.656h-1.152v-0.287h1.152
		c-0.145-0.865-0.181-1.729-0.108-2.592c0.072-0.865,0.108-1.752,0.108-2.664c-0.145-0.289-0.181-0.516-0.108-0.684
		s0.108-0.324,0.108-0.469V25.618h15.12c0.288,0,0.527,0.12,0.72,0.36c0.191,0.241,0.36,0.529,0.504,0.864H431.871z"/>
	<path fill="#FFFFFF" d="M497.387,63.512c0.126-1.158,0.416-2.27,0.633-3.408c-0.043-0.148-0.102-0.311-0.197-0.502h0.291
		c0.001-0.006,0.003-0.012,0.004-0.02c0.019-0.115,0.066-0.209,0.126-0.293c-0.136-0.141-0.238-0.324-0.257-0.57
		c-0.035-0.475-0.072-0.941-0.106-1.406c-0.02-0.006-0.038-0.008-0.058-0.014c0.021-0.041,0.028-0.092,0.046-0.135
		c-0.127-1.729-0.207-3.41,0.05-5.17c0.02-0.133,0.076-0.236,0.146-0.326c0.028-0.279,0.046-0.541,0.046-0.777
		c0.037,0,0.086-0.012,0.13-0.02c-0.018-0.479-0.043-0.963-0.067-1.445c-0.02,0.01-0.043,0.016-0.062,0.025
		c0-0.434-0.036-0.865-0.107-1.297c-0.055-0.326-0.027-0.672,0.042-1.025c-0.296-4.662-0.698-9.387-0.188-13.908
		c0.171-1.518,0.282-2.944,0.288-4.375c-0.123-0.036-0.235-0.06-0.323-0.06l0.313-0.314c-0.002-0.271-0.009-0.542-0.02-0.814
		c-0.098-0.011-0.196-0.024-0.294-0.024c0.079-0.157,0.175-0.293,0.282-0.415c-0.013-0.21-0.043-0.429-0.062-0.642
		c-0.011-0.048-0.014-0.097-0.017-0.145c-0.044-0.466-0.082-0.929-0.158-1.41c-0.146-0.92-0.137-1.727,0.242-2.494V22.09
		c0.025,0,0.047-0.006,0.072-0.006c-0.01-0.404-0.004-0.811-0.002-1.216l-0.358,0.359c0-0.144,0.012-0.335,0.036-0.576
		c0.023-0.24,0.108-0.432,0.252-0.576c0-0.288-0.024-0.612-0.072-0.972s0.072-0.612,0.36-0.756c0.288-0.288,0.623-0.456,1.008-0.504
		c0.384-0.047,0.72-0.072,1.008-0.072v-1.512c-0.432,0-0.816,0.061-1.151,0.18c-0.337,0.121-0.721,0.18-1.152,0.18
		c-0.048,0.048-0.048,0.097,0,0.144c0,0.097,0.096,0.144,0.288,0.144c-0.288,0-0.564,0.049-0.828,0.144
		c-0.265,0.097-0.468,0.144-0.612,0.144c-0.144,0.432-0.228,0.925-0.252,1.476c-0.024,0.552-0.035,1.116-0.035,1.692v7.848
		c0.144,0.864,0.144,1.8,0,2.808c-0.145,1.008-0.145,2.017,0,3.024h0.863v0.288h-0.863v23.832c0.287,0,0.587-0.012,0.899-0.035
		c0.312-0.023,0.396,0.18,0.252,0.611h-0.864c0,0.287-0.012,0.564-0.035,0.828c-0.025,0.264-0.108,0.469-0.252,0.611v5.256
		c-0.288-0.143-0.565-0.252-0.828-0.324c-0.265-0.07-0.396-0.252-0.396-0.539c-0.144-0.863-0.18-1.729-0.107-2.592
		c0.071-0.865,0.107-1.656,0.107-2.377c-0.576-0.143-1.151-0.227-1.728-0.252c-0.576-0.023-1.152-0.035-1.729-0.035
		c0.048,0,0.096-0.047,0.145-0.145c0.096-0.096,0.144-0.24,0.144-0.432c-0.576,0-1.141-0.047-1.691-0.145
		c-0.553-0.096-1.045-0.143-1.477-0.143v0.863h-0.576c0.048,0,0.119-0.096,0.216-0.289c0-0.096,0.024-0.189,0.072-0.287h-0.936
		v-0.287c-0.288,0-0.576,0.012-0.864,0.035c-0.288,0.025-0.576,0.107-0.864,0.252v0.576h-1.151v-0.576h0.575v-0.576
		c1.009,0,2.089-0.012,3.24-0.035c1.152-0.023,2.304-0.109,3.456-0.252v-0.289h0.288l-0.288,0.289c0.576,0,1.104,0.047,1.584,0.143
		c0.479,0.098,1.008,0.145,1.584,0.145V38.361h-0.864c0.145-0.144,0.288-0.227,0.433-0.252c0.144-0.023,0.288-0.035,0.432-0.035
		V21.802h-0.864c-0.048-0.047-0.048-0.095,0-0.144c0-0.096,0.096-0.144,0.288-0.144h0.576c0-0.864-0.036-1.716-0.107-2.556
		c-0.072-0.839-0.036-1.62,0.107-2.34c0-0.624,0.288-1.032,0.864-1.224c0.576-0.191,1.08-0.288,1.512-0.288v-1.44H479.75v1.44h1.513
		c0.72,0.288,1.091,0.804,1.116,1.548c0.023,0.745,0.035,1.404,0.035,1.98h1.152v0.288h-1.152v3.168h0.576v0.288h-0.576v33.769
		h1.152v0.287h-1.152v1.729h1.729v0.289h-1.729v5.83c-0.144,0.576-0.504,0.926-1.08,1.045c-0.575,0.121-1.104,0.252-1.584,0.396
		v1.152h16.921c0.587-0.186,1.108-0.238,1.576-0.186C497.854,65.65,497.276,64.523,497.387,63.512z"/>
	<path fill="#FFFFFF" d="M499.271,68.17c-0.299-0.018-0.592-0.021-0.872,0c-0.624,0.047-1.296,0-2.016-0.145
		c-2.353,0-4.692,0.012-7.021,0.037c-2.328,0.023-4.644,0.107-6.948,0.252v1.152h3.597c0.018-0.006,0.03-0.018,0.049-0.021
		c2.717-0.549,5.369-0.369,8.114-0.115c0.646,0.059,1.294,0.105,1.94,0.146c0.332-0.066,0.674-0.082,1.024-0.047
		c0.392,0.041,0.789,0.105,1.188,0.184c0.364,0.023,0.729,0.045,1.094,0.072c0.119-0.096,0.253-0.168,0.418-0.184
		c0.239-0.025,0.432-0.035,0.575-0.035v-1.152c-0.344-0.068-0.675-0.113-0.996-0.139C499.368,68.18,499.32,68.176,499.271,68.17z"/>
	<path fill="#FFFFFF" d="M518.994,67.381c-2.177,0.002-4.394,0.012-6.664,0.033c-2.568,0.023-5.101,0.107-7.596,0.252v1.152
		c1.199,0,2.327-0.037,3.384-0.107c1.056-0.072,2.16-0.037,3.312,0.107c0.575,0,1.211-0.037,1.907-0.107
		c0.695-0.072,1.332-0.037,1.908,0.107c0.433,0,0.852-0.025,1.26-0.072c0.407-0.049,0.757,0.072,1.045,0.359
		c0.144-0.143,0.335-0.252,0.575-0.324c0.24-0.07,0.433,0.037,0.576,0.324c0.397-0.264,0.793-0.379,1.189-0.361
		C519.546,68.316,519.238,67.863,518.994,67.381z"/>
	<path fill="#FFFFFF" d="M524.99,20.29h-0.456c-0.144-0.288-0.372-0.624-0.684-1.008c-0.313-0.383-0.469-0.72-0.469-1.008
		c0-0.576,0.276-0.923,0.828-1.044c0.552-0.119,1.044-0.252,1.477-0.396V15.61c-0.433,0-0.877,0.013-1.332,0.036
		c-0.457,0.025-0.973,0.108-1.548,0.252c-0.288,0-0.529,0.18-0.721,0.54c-0.192,0.36-0.144,0.684,0.145,0.972
		c0.72,1.152,1.451,2.244,2.196,3.276c0.562,0.781,1.171,1.553,1.803,2.32C525.696,22.13,525.261,21.222,524.99,20.29z"/>
	<path fill="#FFFFFF" d="M557.022,67.381c-2.431,0.141-4.921,0.188-7.468,0.141c-2.568-0.047-5.102,0-7.597,0.145v1.152h13.969
		c0.575,0,1.14-0.025,1.691-0.072c0.284-0.025,0.559-0.084,0.824-0.174C558.007,68.135,557.485,67.795,557.022,67.381z"/>
	<path fill="#FFFFFF" d="M556.971,15.646c-0.457,0.025-0.9,0.108-1.332,0.252c-0.864,0.288-1.152,0.889-0.864,1.8v47.089
		c-0.961-0.336-1.44-0.816-1.44-1.441v-47.16c0-0.72,0.276-1.199,0.828-1.44c0.552-0.24,1.044-0.432,1.477-0.576v-1.152h-15.696
		v1.152c0.288,0.144,0.647,0.324,1.08,0.54c0.432,0.216,0.647,0.612,0.647,1.188v13.104h0.576c0,0.192-0.192,0.288-0.576,0.288
		v11.376c0.145,0.145,0.228,0.336,0.252,0.576s0.036,0.432,0.036,0.576h-0.576v-0.576l-0.575,0.576v-0.576l-0.576,0.287l0.145-0.433
		c-0.001,0.001-0.001,0.001-0.001,0.001c-0.048,0.098-0.097,0.145-0.144,0.145l-0.576-0.576c0,0.385-0.192,0.769-0.576,1.152v-2.017
		c-0.144-0.144-0.288-0.288-0.432-0.432c-0.145-0.144-0.288-0.312-0.433-0.504h0.305c-0.091-0.128-0.178-0.257-0.27-0.384
		c-0.016,0.035-0.015,0.055-0.035,0.096c-0.144,0-0.264-0.06-0.359-0.18c-0.092-0.114-0.066-0.241,0.061-0.377
		c-1.276-1.746-2.643-3.455-4.026-5.152l-0.354,0.236c0.107-0.16,0.154-0.312,0.172-0.459c-1.083-1.326-2.172-2.646-3.231-3.969
		c-0.038,0.016-0.067,0.016-0.108,0.036c0-0.144-0.061-0.24-0.18-0.288c-0.12-0.047-0.252-0.144-0.396-0.288l0.185-0.092
		c-0.048-0.061-0.095-0.121-0.143-0.181c-0.176-0.061-0.323-0.194-0.438-0.411c-0.216-0.407-0.468-0.756-0.756-1.044
		c0.036,0.018,0.065,0.046,0.1,0.066c-0.174-0.222-0.351-0.448-0.529-0.677c-0.049-0.024-0.098-0.06-0.146-0.109
		c-0.049-0.047-0.072-0.096-0.072-0.144c0-0.008,0.006-0.012,0.006-0.02c-0.294-0.381-0.585-0.774-0.87-1.172v0.328
		c-1.008-1.343-2.005-2.664-2.987-3.96c-0.984-1.296-1.908-2.592-2.772-3.888c-0.144-0.335-0.324-0.648-0.54-0.936
		s-0.229-0.576-0.036-0.864c0.288-0.288,0.636-0.468,1.044-0.54c0.407-0.072,0.828-0.18,1.261-0.324v-1.152h-20.952v1.152
		c0.432,0.144,0.924,0.277,1.476,0.396c0.552,0.121,0.828,0.468,0.828,1.044c0.144,2.064,0.191,4.104,0.144,6.12s0,4.057,0.145,6.12
		c-0.145,1.728-0.192,3.468-0.145,5.22s0,3.492-0.144,5.22v25.345c0,0.576-0.276,0.924-0.828,1.043
		c-0.552,0.121-1.044,0.252-1.476,0.396v1.152h16.271c0.059,0,0.105-0.014,0.151-0.031c-0.022-0.262,0.075-0.521,0.252-0.707
		c-0.003-0.258,0.04-0.445,0.114-0.584c-0.925-2.162-0.748-4.787-0.523-7.107c0.276-2.865,0.392-5.725,0.449-8.588
		c-0.054-0.039-0.09-0.086-0.155-0.119c0.041-0.121,0.097-0.229,0.162-0.326c0.006-0.324,0.011-0.648,0.016-0.973
		c-0.128-0.193-0.124-0.389,0.009-0.582c0.01-0.771,0.017-1.543,0.023-2.314c-0.021-0.064-0.036-0.123-0.065-0.197
		c-0.097-0.238-0.145-0.432-0.145-0.574h0.217c0.007-0.826,0.015-1.654,0.024-2.481c-0.11-0.373-0.185-0.746-0.205-1.12
		c-0.024-0.432-0.036-0.863-0.036-1.295c0.103,0,0.201,0.02,0.301,0.037c-0.024-0.223-0.06-0.445-0.077-0.67
		c-0.004-0.004-0.008-0.01-0.012-0.015c-0.286-0.368-0.233-0.794-0.033-1.11c0.027-0.153,0.099-0.274,0.187-0.377
		c-0.004-0.007,0-0.02-0.005-0.025c-0.097-0.145-0.216-0.217-0.36-0.217c0-0.287,0.06-0.515,0.18-0.684
		c0.12-0.168,0.253-0.324,0.396-0.469c0.144,0.145,0.335,0.301,0.576,0.469c0.239,0.169,0.432,0.396,0.576,0.684
		c-0.048,0.048-0.086,0.096-0.131,0.143c0.077,0.059,0.146,0.127,0.205,0.213c0.118,0.175,0.208,0.341,0.3,0.509h0.273
		c0.288,0.288,0.563,0.589,0.828,0.899c0.264,0.313,0.468,0.709,0.612,1.188v-1.8h0.288v0.864c-0.145,0.624-0.013,1.164,0.396,1.62
		c0.407,0.457,0.756,0.899,1.044,1.332c0.864,1.295,1.788,2.545,2.772,3.744c0.983,1.199,2.003,2.473,3.06,3.816
		c1.729,2.016,3.456,4.104,5.185,6.264c1.728,2.16,3.384,4.344,4.968,6.551c0.288,0.289,0.576,0.59,0.864,0.9
		c0.287,0.312,0.287,0.684,0,1.117c-0.145,0.432-0.396,0.646-0.757,0.646c-0.359,0-0.684,0.072-0.972,0.217v1.152h16.561
		c0.053-0.107,0.076-0.211,0.1-0.312c-0.432-1.193-0.387-2.578-0.232-3.801c0.01-0.074,0.033-0.145,0.058-0.213
		c0-0.057-0.004-0.113,0.003-0.174c0.047-0.408,0.072-0.756,0.072-1.045c0.096-0.191,0.249-0.346,0.43-0.484
		c-0.021-0.293-0.043-0.586-0.063-0.879c-0.001-0.01,0.004-0.016,0.003-0.025c-0.051-0.584-0.103-1.17-0.154-1.762
		c-0.071-0.006-0.148-0.018-0.215-0.018v-1.152h0.114c-0.575-6.668-1.066-13.768-0.114-20.357V35.41l0.074,0.074
		c0.106-0.674,0.226-1.345,0.364-2.008c-0.157-0.113-0.304-0.236-0.438-0.371v-2.088l0.238-0.238
		c-0.014-0.026-0.03-0.048-0.04-0.079c-0.033-0.1-0.066-0.2-0.1-0.3c-0.141-0.424,0.021-0.742,0.293-0.917l0.006-0.06
		c-0.303-0.284-0.455-0.671-0.434-1.177c0.023-0.6,0.036-1.116,0.036-1.548c0.031,0.016,0.056,0.024,0.086,0.039
		c-0.004-0.174-0.006-0.348-0.011-0.523c0-0.016-0.008-0.026-0.008-0.042v-0.3c0-0.127,0.028-0.235,0.066-0.334
		c0.013-0.094,0.03-0.187,0.044-0.28h-0.178v-1.512c0.099-0.033,0.172-0.08,0.26-0.12c-0.031-1.029-0.311-2.083-0.023-3.048h-0.236
		v-2.304c0.144-0.576,0.455-0.923,0.936-1.044c0.479-0.119,0.936-0.252,1.368-0.396c0-0.144,0.011-0.312,0.036-0.504
		c0.023-0.191,0.107-0.432,0.252-0.72C557.942,15.61,557.426,15.623,556.971,15.646z M517.551,64.787
		c-0.288-0.145-0.589-0.361-0.9-0.648c-0.312-0.289-0.396-0.648-0.252-1.08c0-5.279-0.049-10.523-0.145-15.732
		c-0.097-5.207-0.144-10.428-0.144-15.66c0.288,0.288,0.6,0.648,0.936,1.08s0.505,0.936,0.505,1.512V64.787z M533.822,40.666h-2.592
		c0.047,0,0.119-0.096,0.216-0.288c0-0.096,0.023-0.191,0.072-0.288h-0.864v-0.863c0.288,0,0.576,0.048,0.864,0.144
		c0.288,0.097,0.576,0.144,0.863,0.144v0.576h1.44V40.666z M543.254,48.91c-0.385,0.121-0.72,0.18-1.008,0.18
		c0.145,0.145,0.228,0.24,0.252,0.289c0.023,0.047,0.036,0.143,0.036,0.287h-0.288v0.289h-0.576v-0.289h-0.288V49.09h-0.287V47.65
		h1.439c-0.144,0.432-0.048,0.684,0.288,0.756c0.335,0.072,0.744,0.107,1.224,0.107C543.902,48.658,543.638,48.791,543.254,48.91z"
		/>
	<path fill="#FFFFFF" d="M622.781,67.928c-0.077-0.133-0.166-0.266-0.269-0.398c-0.307-0.012-0.622-0.135-0.806-0.375
		c-0.102-0.133-0.18-0.264-0.263-0.395v0.762c-2.64,0-5.256,0.012-7.848,0.037c-2.592,0.023-5.209,0.107-7.848,0.252
		c0,0.145,0.011,0.334,0.036,0.576c0.023,0.238,0.107,0.432,0.252,0.576h5.256c0.166,0.082,0.312,0.186,0.445,0.301
		c0.376-0.057,0.749-0.096,1.122-0.123c0.293-0.072,0.587-0.127,0.88-0.143c0.433-0.025,0.864-0.035,1.297-0.035
		c0,0.043,0.013,0.086,0.021,0.127c0.459,0.008,0.922,0.02,1.392,0.033c0.013-0.055,0.026-0.107,0.026-0.16
		c0.432-0.145,0.695-0.098,0.792,0.143c0.004,0.012,0.01,0.027,0.015,0.039c0.192,0.004,0.389,0.006,0.585,0.008
		c-0.055-0.115-0.128-0.189-0.239-0.189c0.288,0,0.576,0.059,0.863,0.18c0.012,0.004,0.019,0.01,0.03,0.016
		c0.08-0.002,0.157,0.002,0.238,0c0.364-0.002,0.729-0.006,1.092-0.006c0.051-0.029,0.102-0.053,0.152-0.082
		c0.256-0.15,0.512-0.107,0.769,0.104c0.568,0.025,1.129,0.082,1.673,0.207c0.226-0.262,0.364-0.521,0.414-0.783
		C622.838,68.371,622.814,68.146,622.781,67.928z"/>
	<path fill="#FFFFFF" d="M637.896,17.806c0.072-1.512,0.108-3.06,0.108-4.644h-1.152c-0.288,1.008-0.372,2.064-0.252,3.168
		c0.119,1.104,0.108,2.185-0.036,3.24c-0.144,1.296-0.144,2.592,0,3.888c0.145,1.296,0.145,2.617,0,3.96
		c0,0.432,0.036,0.864,0.108,1.296c0.06,0.358,0.027,0.715-0.062,1.073c0.178,0.114,0.323,0.302,0.464,0.451
		c0.154,0.164,0.227,0.347,0.243,0.527c0.294-1.604,0.482-3.21,0.435-4.858c-0.013,0-0.024-0.001-0.036-0.001
		c0-0.245,0.013-0.502,0.021-0.755c-0.05-1.317-0.042-2.591,0.153-3.906c0.007-0.042,0.024-0.077,0.038-0.115
		C637.868,20.005,637.845,18.893,637.896,17.806z"/>
	<path fill="#FFFFFF" d="M633.973,20.434h1.44c0-1.631-0.013-3.24-0.036-4.824c-0.025-1.584-0.108-3.191-0.252-4.824
		c-0.385-0.047-0.648,0.036-0.792,0.252c-0.145,0.216-0.265,0.493-0.36,0.828c-0.097,0.336-0.229,0.637-0.396,0.9
		c-0.169,0.264-0.445,0.396-0.828,0.396c-2.88,0.144-5.725,0.192-8.532,0.144c-2.809-0.047-5.677,0-8.604,0.144
		c-1.008,0-2.064-0.036-3.168-0.108c-1.104-0.072-2.185-0.036-3.239,0.108c-1.152-0.144-2.257-0.18-3.312-0.108
		c-1.057,0.072-2.185,0.108-3.384,0.108c-1.872-0.144-3.708-0.191-5.508-0.144c-1.801,0.048-3.637,0-5.509-0.144
		c-0.432,0-0.804-0.024-1.115-0.072c-0.313-0.047-0.612,0.072-0.9,0.36c-0.576-0.432-0.912-0.924-1.008-1.476
		c-0.097-0.551-0.145-1.044-0.145-1.476h-1.224V28.57h1.224c0.145-0.576,0.228-1.175,0.253-1.8c0.023-0.623,0.323-1.008,0.899-1.152
		h15.12v1.224H591.78c-0.288,0-0.575,0.025-0.863,0.072c-0.288,0.048-0.576,0.216-0.864,0.504c-0.288,0.576-0.408,1.165-0.36,1.764
		c0.048,0.601,0.072,1.26,0.072,1.98h1.152c0.144-0.576,0.227-1.127,0.252-1.656c0.023-0.527,0.323-0.936,0.899-1.224h2.593
		c0.103,0.103,0.239,0.181,0.391,0.248c0.174-0.051,0.351-0.098,0.531-0.136c0.006-0.036,0.014-0.068,0.014-0.112
		c0.288,0,0.612-0.023,0.972-0.072c0.105-0.014,0.199-0.009,0.286,0.006c1.135-0.086,2.325-0.022,3.45,0.073
		c0.249-0.003,0.498-0.007,0.764-0.007c0.028,0.028,0.076,0.056,0.111,0.084c0.228,0.021,0.455,0.042,0.672,0.061
		c0.197,0.017,0.376,0.049,0.551,0.084c0.039-0.066,0.076-0.137,0.106-0.229h2.088v1.728h-0.242c0.157,0.403,0.235,0.88,0.229,1.44
		h0.014c0,2.063,0.036,4.116,0.108,6.155c0.071,2.041,0.035,4.166-0.108,6.373c0,1.295,0.036,2.664,0.108,4.104
		c0.071,1.439,0.035,2.881-0.108,4.32c0.288,0,0.612,0.012,0.972,0.035c0.36,0.025,0.612,0.109,0.756,0.252h-1.439
		c0,0.289,0.011,0.529,0.036,0.721c0.023,0.193,0.107,0.432,0.252,0.721h-0.576c0,0.576,0.012,1.199,0.036,1.871
		c0.023,0.674,0.107,1.32,0.252,1.943h0.576v0.289h-0.576c-0.145,0.432-0.229,0.912-0.252,1.439
		c-0.024,0.529-0.036,1.008-0.036,1.439c0,0.721,0.012,1.381,0.036,1.98c0.023,0.602-0.18,1.213-0.612,1.836
		c-0.288,0-0.588,0.049-0.899,0.145c-0.313,0.098-0.612,0.145-0.9,0.145v1.152h18.072v-1.152c0.143-0.143,0.268-0.25,0.383-0.34
		c-0.021-0.082-0.043-0.158-0.063-0.244c-0.071-0.121-0.124-0.258-0.124-0.424v-0.105c-0.079-0.094-0.144-0.207-0.169-0.357
		c-0.081-0.48-0.144-0.977-0.197-1.477c-0.035-0.098-0.067-0.193-0.117-0.293c0.022-0.041,0.058-0.07,0.081-0.111
		c-0.165-1.797-0.177-3.689-0.106-5.535c-0.184,0.051-0.367-0.002-0.551-0.186c0.19-0.381,0.381-0.486,0.571-0.363
		c0.044-0.934,0.104-1.852,0.175-2.729c0.062-0.789,0.096-1.58,0.12-2.369c0-0.004-0.002-0.008-0.002-0.012h0.002
		c0.006-0.191,0.014-0.381,0.018-0.572c-0.006,0-0.013-0.004-0.02-0.004v-1.223c0.015,0,0.026-0.006,0.041-0.006
		c0.012-0.84,0.022-1.68,0.041-2.518c-0.027-0.027-0.054-0.041-0.082-0.07v-2.016c0.062-0.061,0.114-0.092,0.171-0.137
		c0.024-0.396,0.051-0.795,0.088-1.191c-0.112-0.518-0.158-1.035-0.115-1.552c0.021-0.243,0.014-0.467,0-0.685
		c-0.006-0.061-0.007-0.121-0.012-0.182c-0.025-0.229-0.066-0.447-0.132-0.646c0.032,0,0.065,0.015,0.098,0.021
		c-0.015-0.592,0.002-1.188,0.027-1.789c-0.043,0.014-0.081,0.025-0.125,0.041V36.13c0.057,0.019,0.12,0.046,0.178,0.066
		c-0.022-2.231-0.576-4.397-0.682-6.629c-0.019-0.385,0.205-0.647,0.504-0.775v-0.51h1.151v0.44c0.07-0.021,0.137-0.034,0.207-0.036
		c0.075-0.051,0.15-0.09,0.226-0.116c0.144-0.047,0.288-0.144,0.432-0.288c0.432,0,0.804,0.013,1.116,0.036
		c0.312,0.025,0.612,0.108,0.899,0.252c0.576,0.144,1.116,0.133,1.62-0.036c0.504-0.168,1.044-0.252,1.62-0.252v0.369
		c0.409-0.061,0.819-0.109,1.229-0.134c0.271-0.147,0.534-0.235,0.787-0.235c0.863,0.144,1.787,0.157,2.771,0.036
		c0.983-0.119,2.004-0.036,3.061,0.252v-7.848h-1.44V20.434z M592.933,16.042h-1.44v-0.576h1.44V16.042z M606.037,59.674
		c-0.288,0.145-0.529,0.121-0.721-0.072c-0.192-0.191-0.144-0.359,0.145-0.504c0.144-0.143,0.348-0.119,0.611,0.072
		C606.336,59.363,606.324,59.529,606.037,59.674z M613.309,40.162h-3.24C611.172,39.922,612.252,39.922,613.309,40.162z
		 M610.572,42.467c-0.144,0-0.216-0.072-0.216-0.217c0-0.336,0.072-0.504,0.216-0.504c0.145,0,0.288,0.168,0.433,0.504
		C610.86,42.395,610.717,42.467,610.572,42.467z M612.444,59.674v-0.576h0.576l-0.288-0.287h0.864
		c0.384,0.385,0.576,0.672,0.576,0.863H612.444z M614.461,38.723h-3.456v-0.289c0.144,0,0.335-0.011,0.576-0.035
		c0.239-0.023,0.432-0.108,0.575-0.252c0.288,0.144,0.636,0.229,1.044,0.252c0.408,0.024,0.828,0.035,1.261,0.035V38.723z
		 M614.749,54.994c0.288-0.145,0.575-0.18,0.863-0.107s0.576,0.107,0.864,0.107v1.152h-1.728V54.994z M619.141,26.842v22.033
		c0,1.775-0.024,3.467-0.072,5.076c-0.048,1.607,0.072,3.229,0.36,4.859c-0.288,0.287-0.349,0.684-0.18,1.188
		c0.167,0.504,0.323,0.973,0.468,1.404h-0.576v0.287c-0.144,0.576-0.18,1.141-0.108,1.693c0.072,0.553,0.108,1.068,0.108,1.547
		c-0.769-0.143-1.213-0.479-1.332-1.008c-0.12-0.527-0.18-1.08-0.18-1.656h-1.152v-0.287h1.152
		c-0.145-0.865-0.181-1.729-0.108-2.592c0.072-0.865,0.108-1.752,0.108-2.664c-0.145-0.289-0.181-0.516-0.108-0.684
		s0.108-0.324,0.108-0.469V25.618h15.12c0.288,0,0.527,0.12,0.72,0.36c0.191,0.241,0.36,0.529,0.504,0.864H619.141z"/>
	<path fill="#FFFFFF" d="M685.453,65.254c0.279-0.262,0.611-0.348,0.993-0.266c0.132-0.102,0.266-0.199,0.394-0.303
		c0.024-0.199,0.119-0.361,0.306-0.475c0.23-0.143,0.448-0.258,0.667-0.375c2.47-2.324,4.285-5.326,5.899-8.301
		c1.041-1.92,1.709-3.998,2.596-5.967c0.071-0.279,0.13-0.559,0.161-0.838c0.048-0.432,0.145-0.863,0.288-1.297h0.073
		c0.09-0.498,0.194-0.996,0.296-1.492c-0.123-0.008-0.243-0.02-0.369-0.02c0-0.287,0.06-0.586,0.181-0.9
		c0.119-0.311,0.18-0.684,0.18-1.115c0.093,0.092,0.198,0.172,0.301,0.254c-0.031-0.729-0.075-1.457-0.118-2.188
		c-0.061,0.068-0.124,0.127-0.183,0.205c0-0.575-0.013-1.09-0.036-1.547c-0.062-0.108-0.108-0.23-0.116-0.381
		c-0.008-0.144-0.02-0.286-0.029-0.429c-0.05-0.176-0.103-0.352-0.179-0.523c0.043,0.028,0.099,0.063,0.15,0.097
		c-0.039-0.537-0.076-1.076-0.111-1.613c-0.014,0.002-0.025,0.002-0.039,0.005c0-0.433-0.048-0.815-0.144-1.152
		c-0.097-0.335-0.145-0.72-0.145-1.151c0.029,0,0.054-0.013,0.082-0.014c-0.188-0.576-0.377-1.147-0.583-1.704
		c-0.027-0.001-0.046-0.011-0.074-0.011c-0.047-0.186-0.102-0.37-0.15-0.555c-0.731-1.897-1.568-3.719-2.546-5.561
		c-0.309-0.581-0.657-1.208-0.931-1.859c-0.126-0.148-0.263-0.292-0.369-0.45c-0.36-0.528-0.756-1.008-1.188-1.44
		c-0.144-0.144-0.252-0.288-0.324-0.432c-0.071-0.144-0.252-0.216-0.54-0.216l0.288-0.288l-0.576,0.288l0.288-0.576h-0.647
		l0.359-0.288h-0.359c-1.296-1.584-2.736-2.999-4.32-4.248c-1.584-1.248-3.337-2.255-5.256-3.024
		c-2.784-1.296-5.7-2.099-8.748-2.412c-3.049-0.312-6.037-0.18-8.964,0.396c-2.784,0.432-5.437,1.249-7.956,2.448
		c-2.52,1.2-4.716,2.808-6.588,4.824c-1.584,1.776-2.94,3.708-4.068,5.796c-1.128,2.088-1.908,4.236-2.34,6.443
		c0.432,0,0.911,0.013,1.44,0.037c0.527,0.023,1.031,0.107,1.512,0.252h-2.952c-0.432,2.159-0.647,4.38-0.647,6.659
		c0,2.28,0.216,4.501,0.647,6.661c0.432,2.352,1.188,4.68,2.269,6.982c1.079,2.305,2.556,4.248,4.428,5.832
		c0.432,0.576,0.875,1.08,1.332,1.514c0.455,0.432,0.972,0.816,1.548,1.15l-0.288,0.289c0.288-0.145,0.516-0.133,0.684,0.035
		c0.168,0.17,0.348,0.252,0.54,0.252c3.024,2.16,6.396,3.518,10.116,4.068s7.403,0.541,11.052-0.035
		c2.783-0.289,5.447-1.057,7.992-2.305c2.544-1.248,4.824-2.904,6.84-4.969c0.288-0.432,0.576-0.814,0.864-1.15
		s0.576-0.721,0.864-1.152c0.191-0.145,0.335-0.299,0.432-0.469c0.096-0.168,0.072-0.396-0.072-0.684
		c0.288,0,0.469-0.047,0.54-0.145c0.072-0.096,0.181-0.145,0.324-0.145c0.864-1.342,1.548-2.723,2.052-4.139
		c0.505-1.416,0.973-2.844,1.404-4.285h-3.456V46.57h3.456c0.576-3.504,0.708-7.115,0.396-10.836
		c-0.313-3.72-1.404-7.188-3.276-10.404c0-0.191,0.096-0.384,0.288-0.576c0.144,0.432,0.348,0.864,0.612,1.296
		c0.263,0.432,0.54,0.864,0.828,1.296c0.863,1.92,1.522,3.876,1.979,5.868c0.456,1.993,0.756,4.021,0.9,6.084
		c0.144,2.88-0.097,5.796-0.721,8.749c-0.624,2.951-1.728,5.748-3.312,8.387c-0.576,1.152-1.345,2.197-2.304,3.133
		c-0.961,0.936-1.944,1.932-2.952,2.988c-0.288,0.143-0.529,0.287-0.721,0.432c-0.192,0.145-0.432,0.287-0.72,0.432
		c-2.496,1.584-5.147,2.748-7.956,3.492c-2.808,0.744-5.58,1.115-8.315,1.115c-2.929,0-5.796-0.371-8.604-1.115
		c-2.808-0.744-5.364-1.908-7.668-3.492c0.145,0.289,0.264,0.588,0.36,0.9c0.096,0.312,0.359,0.396,0.792,0.252
		c0.432,0.287,0.875,0.576,1.332,0.863c0.455,0.289,0.972,0.576,1.548,0.865c-0.095,0.094-0.218,0.188-0.353,0.283
		c1.687,0.768,3.422,1.363,5.195,1.896c0.042-0.053,0.085-0.098,0.125-0.164c1.152,0.287,2.304,0.527,3.456,0.721
		c1.152,0.189,2.328,0.359,3.528,0.504c1.584,0,3.179-0.072,4.788-0.217c1.607-0.145,3.204-0.385,4.788-0.721
		c0.007,0.008,0.015,0.014,0.021,0.02c0.384-0.133,0.759-0.285,1.13-0.447v-0.148c0.105,0,0.225-0.002,0.343-0.006
		c0.075-0.035,0.152-0.066,0.228-0.104c1.635-0.805,3.438-1.904,5.265-2.256C685.087,65.543,685.283,65.414,685.453,65.254z
		 M653.449,36.814c0.216-1.369,0.612-2.701,1.188-3.996c0.576-1.297,1.344-2.448,2.305-3.457c1.104-1.199,2.399-2.16,3.888-2.88
		c1.487-0.72,3.06-1.188,4.716-1.404c1.656-0.216,3.3-0.155,4.933,0.18c1.631,0.336,3.143,0.936,4.535,1.8
		c0.576,0.288,1.104,0.637,1.584,1.044c0.479,0.408,1.009,0.828,1.584,1.26c-0.863-0.576-1.74-1.116-2.628-1.62
		c-0.889-0.504-1.86-0.828-2.916-0.972c-1.296-0.288-2.58-0.468-3.852-0.54c-1.272-0.072-2.509,0.108-3.708,0.54
		c-1.92,0.288-3.744,1.152-5.472,2.592c-0.625,0.432-1.213,0.997-1.765,1.693c-0.552,0.695-1.044,1.403-1.476,2.123
		c-1.008,1.729-1.62,3.589-1.836,5.58c-0.216,1.992-0.18,3.996,0.107,6.012c0.288,1.057,0.659,2.088,1.116,3.098
		c0.456,1.008,1.044,2.016,1.765,3.023c-0.576-0.721-1.142-1.451-1.692-2.197c-0.553-0.742-1.044-1.57-1.476-2.482
		c0-0.145-0.072-0.336-0.217-0.576c-0.144-0.24-0.359-0.432-0.647-0.576h0.576c-0.433-1.297-0.696-2.652-0.792-4.068
		C653.173,39.574,653.233,38.182,653.449,36.814z M657.085,59.35c-0.432,0.025-0.864,0.109-1.296,0.252
		c-0.288-0.143-0.637-0.227-1.044-0.252c-0.408-0.023-0.828-0.035-1.26-0.035v-1.152h3.168c-0.192,0-0.288,0.098-0.288,0.289
		c-0.049,0.096-0.049,0.191,0,0.287h1.152c0.144,0.145,0.287,0.24,0.432,0.287c0.144,0.049,0.288,0.145,0.432,0.289
		C657.949,59.314,657.518,59.326,657.085,59.35z M673.501,55.857c-0.432,0.145-0.912,0.229-1.439,0.252
		c-0.529,0.025-1.009,0.037-1.44,0.037v-0.865h0.576c0-0.047-0.049-0.166-0.145-0.359c-0.048-0.047-0.097-0.119-0.144-0.215h2.016
		c-0.192,0.191-0.288,0.48-0.288,0.863h0.864V55.857z M675.841,57.154c-0.024,0.145-0.107,0.287-0.252,0.432
		c0-0.191-0.192-0.287-0.576-0.287v0.576c-0.144-0.145-0.336-0.301-0.575-0.469c-0.241-0.168-0.36-0.396-0.36-0.684h1.8
		C675.877,56.867,675.865,57.01,675.841,57.154z M679.045,56.146c-0.192,0-0.336-0.047-0.432-0.145
		c-0.097-0.047-0.145-0.096-0.145-0.145c0-0.191,0.072-0.322,0.217-0.395c0.144-0.072,0.275-0.072,0.396,0
		c0.119,0.072,0.191,0.168,0.216,0.287C679.32,55.871,679.236,56.002,679.045,56.146z M679.333,60.754v-0.576
		c0.048,0,0.216-0.047,0.504-0.143c0.096-0.049,0.216-0.096,0.36-0.145c0.144,0.145,0.239,0.287,0.288,0.432
		c0.047,0.145,0.144,0.287,0.288,0.432H679.333z M675.877,51.754c-0.432,0.289-0.876,0.576-1.332,0.865
		c-0.457,0.287-0.899,0.574-1.332,0.863c-2.304,0.912-4.788,1.26-7.452,1.043c-2.664-0.215-5.028-1.139-7.092-2.771
		c0.159,0,0.35,0.041,0.559,0.107c-0.359-0.361-0.66-0.779-0.919-1.238c-0.071-0.004-0.146-0.021-0.216-0.021v-0.387
		c-0.148-0.295-0.289-0.596-0.422-0.906c-0.025-0.016-0.049-0.037-0.073-0.055c-0.123,0.123-0.246,0.197-0.368,0.197
		c-0.145-0.289-0.288-0.637-0.433-1.045c-0.144-0.408-0.288-0.828-0.432-1.26c0.076-0.025,0.146-0.035,0.215-0.045
		c-0.142-0.439-0.272-0.9-0.386-1.383c-0.038-0.029-0.084-0.051-0.117-0.084c0-0.432-0.049-0.816-0.144-1.152
		c-0.095-0.326-0.14-0.699-0.143-1.117c-0.473-4.156,0.248-8.852,3.294-10.863c0.074-0.076,0.161-0.146,0.232-0.225
		c0.288-0.311,0.576-0.684,0.863-1.115c0.05,0.05,0.113,0.1,0.174,0.149c0.968-0.856,2.122-1.713,3.373-2.436
		c0.139-0.149,0.294-0.281,0.485-0.377c0.122-0.024,0.255-0.065,0.378-0.091c2.53-1.281,5.332-1.891,7.689-0.784
		c0.117,0.003,0.242,0.011,0.356,0.011c0.181,0.06,0.347,0.117,0.51,0.173c2.159-0.302,5.194,1.425,6.183,3.663
		c0.05,0.055,0.099,0.103,0.148,0.16c0.144,0.169,0.287,0.396,0.432,0.685c-0.049,0.096-0.072,0.168-0.072,0.215
		c-0.048,0.098-0.072,0.157-0.072,0.181c0,0.022-0.045,0.077-0.123,0.157v0.015c0.275-0.132,0.449-0.106,0.52,0.08
		c0.072,0.192,0.18,0.36,0.324,0.504c0.767,1.872,1.163,3.805,1.188,5.796c0.023,1.992-0.276,3.924-0.899,5.797h1.224v0.287h-1.224
		C679.86,48.131,678.229,50.268,675.877,51.754z M681.781,58.738c-0.288,0.098-0.432,0-0.432-0.287
		c-0.145-0.145-0.072-0.301,0.216-0.469s0.432-0.107,0.432,0.18C682.142,58.451,682.069,58.643,681.781,58.738z M688.909,53.77
		h-1.44l0.288-0.576h-0.863v-0.574h1.439c0,0.191-0.048,0.336-0.144,0.432c-0.049,0.096-0.097,0.143-0.145,0.143h0.864V53.77z
		 M690.205,24.25c-0.192-0.096-0.216-0.216-0.072-0.36c0.048,0,0.168,0.048,0.36,0.144c0.047,0.048,0.119,0.097,0.216,0.144
		C690.565,24.322,690.396,24.347,690.205,24.25z"/>
	<path fill="#FFFFFF" d="M718.153,41.251c-0.103-0.22-0.173-0.409-0.192-0.549c-0.025-0.168-0.036-0.324-0.036-0.468
		c0.08,0,0.152,0.008,0.23,0.01c-0.003-1.093-0.01-2.186-0.018-3.277c-0.025-0.164-0.024-0.316-0.004-0.46
		c-0.011-1.558-0.021-3.114-0.018-4.67c-0.044-0.218-0.102-0.423-0.191-0.603c0.067,0.033,0.129,0.067,0.195,0.102
		c0.002-0.631,0.009-1.262,0.018-1.893c-0.016-0.136-0.012-0.266-0.033-0.405c-0.062-0.394-0.028-0.864,0.072-1.384
		c0.013-0.513,0.022-1.026,0.042-1.539c-0.211-0.171-0.274-0.432-0.187-0.785c0.12-0.479,0.181-0.936,0.181-1.368
		c0.041,0,0.079-0.025,0.118-0.045c0.039-0.681,0.09-1.361,0.145-2.042c-0.024-0.312-0.069-0.625-0.155-0.937
		c-0.12-0.432-0.252-0.888-0.396-1.368h-0.864v-0.288h0.864c0.144-0.432,0.216-0.852,0.216-1.26c0-0.407,0.216-0.756,0.648-1.044
		c0.287-0.144,0.575-0.228,0.863-0.252c0.288-0.024,0.576-0.036,0.864-0.036v-1.152c-0.576,0-1.141-0.024-1.692-0.072
		c-0.552-0.047-1.044,0.072-1.476,0.36c-0.288,0.144-0.457,0.396-0.504,0.756c-0.049,0.36-0.072,0.684-0.072,0.972v10.8h0.864
		c-0.192,0.192-0.288,0.48-0.288,0.864h-0.288c0.047,0,0.119-0.095,0.216-0.288c0-0.096,0.023-0.191,0.072-0.288h-0.576
		c0,1.44-0.036,2.892-0.107,4.356c-0.072,1.465-0.036,3.013,0.107,4.645c-0.144,0.575-0.18,1.199-0.107,1.871
		c0.071,0.673,0.107,1.297,0.107,1.872h1.38C718.152,41.341,718.153,41.296,718.153,41.251z"/>
	<path fill="#FFFFFF" d="M747.589,61.186v-0.287c0.287,0.096,0.486,0.086,0.615-0.008c0.062-0.145,0.125-0.289,0.188-0.434
		c0.036-0.172,0.06-0.322,0.06-0.422v0.289c0.717-1.623,1.486-3.234,2.047-4.945c0.954-2.906,1.897-5.838,2.731-8.789
		c0.003-0.281-0.008-0.561-0.001-0.84c-0.125,0.008-0.271,0.027-0.385,0.027c0.144-0.287,0.203-0.574,0.18-0.863
		c-0.02-0.234,0.07-0.469,0.259-0.705c0.005-0.104,0.007-0.209,0.012-0.314c0.035-0.709,0.034-1.43,0.024-2.152
		c-0.136-0.041-0.288-0.068-0.475-0.068c0.144-0.432,0.228-0.875,0.252-1.332c0.023-0.455,0.036-0.972,0.036-1.548
		c0.033,0.033,0.078,0.066,0.116,0.1c-0.016-0.536-0.024-1.073-0.027-1.608c-0.126-0.08-0.251-0.156-0.377-0.219
		c0-0.145,0.047-0.3,0.144-0.469c0.096-0.168,0.145-0.396,0.145-0.684l0.11-0.055c0.027-0.776,0.076-1.548,0.187-2.307
		c-0.071-0.088-0.135-0.185-0.179-0.299c-0.039-0.001-0.084-0.004-0.118-0.004c-0.192-0.191-0.288-0.576-0.288-1.152
		c0.102-0.033,0.218-0.053,0.322-0.084c0.005-0.812,0.012-1.622,0.017-2.425c-0.113-0.029-0.219-0.041-0.339-0.083
		c0-0.432,0.083-0.875,0.252-1.332c0.038-0.104,0.066-0.208,0.088-0.31c0.001-0.268,0.002-0.536,0.001-0.803
		c-0.016-0.073-0.028-0.146-0.053-0.219h0.053c-0.002-0.529-0.015-1.059-0.023-1.587c-0.098,0.042-0.199,0.088-0.317,0.147
		c0-0.432,0.036-0.852,0.107-1.26c0.029-0.162,0.094-0.312,0.18-0.456c-0.034-1.162-0.086-2.327-0.171-3.504
		c-0.002-0.031,0.008-0.057,0.008-0.087c-0.104-0.668-0.05-1.323,0.164-1.965c0-0.432,0.119-0.744,0.359-0.936
		c0.24-0.191,0.505-0.36,0.792-0.504h1.152v-1.44c-0.576,0-1.188,0.025-1.836,0.072c-0.648,0.048-1.188,0.216-1.62,0.504
		c-0.288,0.576-0.408,1.152-0.359,1.728c0.047,0.576,0.071,1.152,0.071,1.728v15.408c0,1.777-0.036,3.528-0.107,5.256
		c-0.072,1.729-0.036,3.482,0.107,5.258c-0.144,2.783-0.601,5.592-1.368,8.424s-2.159,5.352-4.176,7.559
		c-0.72,0.865-1.62,1.621-2.7,2.27c-1.08,0.646-2.124,1.332-3.132,2.051c-0.72,0.193-1.439,0.422-2.16,0.684
		c-0.72,0.266-1.439,0.541-2.159,0.828c-1.345,0.145-2.713,0.289-4.104,0.434c-1.393,0.143-2.761,0.287-4.104,0.432
		c-2.017-0.145-4.032-0.35-6.049-0.613c-2.016-0.264-3.96-0.852-5.832-1.764c-0.863-0.287-1.691-0.684-2.483-1.188
		s-1.62-0.973-2.484-1.404c0.433,0.576,0.924,1.045,1.477,1.404c0.551,0.359,1.14,0.756,1.764,1.188
		c0.432,0.193,0.839,0.396,1.224,0.613c0.253,0.141,0.449,0.369,0.598,0.67c0.322,0.08,0.645,0.162,0.968,0.244
		c0.018-0.004,0.037-0.012,0.055-0.016c0.135-0.023,0.254,0.016,0.357,0.117c3.16,0.789,6.381,1.514,9.595,1.549
		c3.565,0.041,7.112-0.332,10.67-0.5c0.149-0.195,0.363-0.301,0.654-0.301v0.172c0.804-0.393,1.587-0.771,2.348-1.152
		c0.02-0.045,0.045-0.094,0.064-0.137c0.119-0.262,0.18-0.467,0.18-0.611c0,0.139,0.046,0.326,0.138,0.555
		c2.731-1.393,5.136-2.902,6.991-5.461C747.893,61.213,747.754,61.186,747.589,61.186z M753.133,15.826h1.439v0.288h-1.439V15.826z"
		/>
	<path fill="#FFFFFF" d="M750.36,12.622c-0.792,0.025-1.62,0.133-2.483,0.324v0.288h-0.288l0.288-0.288
		c-1.152,0-2.305-0.047-3.456-0.144c-1.152-0.095-2.232-0.047-3.24,0.144h-6.408c0,0.144,0.012,0.301,0.036,0.468
		c0.023,0.168,0.108,0.396,0.252,0.684c0.288,0,0.587,0.048,0.9,0.144c0.312,0.097,0.611,0.144,0.899,0.144
		c0.433,1.008,0.6,2.016,0.504,3.024c-0.097,1.008-0.071,2.041,0.072,3.096h1.729v0.576h-1.44c-0.192,0.192-0.288,0.576-0.288,1.152
		c0.384,0.385,0.384,0.769,0,1.152c-0.144,3.073-0.18,6.12-0.107,9.144c0.071,3.025,0.107,5.977,0.107,8.856h1.729v0.288h-1.729
		c0,1.488-0.133,2.988-0.396,4.5c-0.265,1.512-0.925,2.916-1.98,4.213h1.512v0.359h-1.8c-0.576,0.721-1.32,1.297-2.231,1.729
		c-0.913,0.432-1.801,0.719-2.664,0.863c-1.488,0.289-2.941,0.422-4.356,0.396c-1.416-0.023-2.771-0.252-4.068-0.684
		c-0.479-0.145-0.912-0.312-1.296-0.504c-0.341-0.17-0.569-0.449-0.722-0.809c-0.904-0.984-1.229-2.652-1.319-4.33l-0.19-0.189
		c0.068,0.033,0.124,0.057,0.187,0.084c-0.072-1.492,0.024-2.973,0.034-3.945c0.001-0.057,0-0.113,0.001-0.172h-1.374
		c0,1.297,0.072,2.678,0.216,4.141c0.145,1.465,0.648,2.797,1.513,3.996c0.047,0.098,0.096,0.168,0.144,0.217
		c0.096,0.191,0.145,0.312,0.145,0.359c-0.576-0.768-1.08-1.463-1.513-2.088c-0.432-0.623-0.792-1.297-1.08-2.016
		c-0.575-1.441-0.816-2.939-0.72-4.5c0.096-1.561,0.145-3.061,0.145-4.501V15.826c-0.145-0.72,0.06-1.188,0.611-1.404
		c0.552-0.216,1.116-0.324,1.692-0.324v-1.152h-10.152c0,0.144,0.048,0.336,0.145,0.576c0.096,0.241,0.144,0.432,0.144,0.576h-1.439
		c0-0.144,0.047-0.288,0.144-0.432c0.096-0.144,0.144-0.288,0.144-0.432h-0.863c-0.049-0.047-0.049-0.096,0-0.144
		c0-0.096,0.096-0.144,0.288-0.144h-6.408v1.152c0.432,0,0.852,0.036,1.26,0.108c0.407,0.072,0.756,0.324,1.044,0.756
		c0.145,0.288,0.239,0.576,0.288,0.864c0.047,0.288,0.144,0.576,0.288,0.864h0.288v1.44h-0.576c0,1.776-0.036,3.481-0.108,5.112
		c-0.071,1.632-0.035,3.336,0.108,5.112h0.864c-0.145,0.144-0.288,0.241-0.433,0.288c-0.144,0.048-0.288,0.144-0.432,0.288
		c-0.144,0.864-0.18,1.74-0.108,2.628c0.072,0.889,0.108,1.836,0.108,2.844c0,1.92-0.036,3.815-0.108,5.688
		c-0.071,1.873-0.035,3.77,0.108,5.688c0,0.576,0.083,1.105,0.252,1.584c0.168,0.48,0.18,1.01,0.036,1.584h1.728v0.289h-1.728
		c0.576,3.264,1.752,6.168,3.528,8.711c0.575,0.914,1.224,1.693,1.943,2.342c0.721,0.646,1.513,1.332,2.376,2.051
		c1.008,0.576,2.088,1.129,3.24,1.656c1.152,0.529,2.304,0.936,3.456,1.225c3.215,0.912,6.468,1.355,9.756,1.332
		c3.287-0.023,6.54-0.564,9.756-1.621c0.576-0.287,1.152-0.539,1.729-0.756c0.576-0.215,1.151-0.539,1.728-0.971h0.288v-0.289
		c0.288,0,0.623-0.119,1.008-0.359c0.384-0.24,0.721-0.504,1.009-0.793c1.055-0.719,2.003-1.631,2.844-2.736
		c0.839-1.104,1.548-2.23,2.124-3.383c1.439-2.639,2.268-5.365,2.483-8.172c0.217-2.809,0.252-5.604,0.108-8.389
		c0.144-3.936,0.191-7.848,0.144-11.736s0-7.728,0.145-11.52c-0.145-0.72,0.072-1.188,0.647-1.404
		c0.576-0.216,1.152-0.324,1.729-0.324v-1.512C751.98,12.586,751.152,12.598,750.36,12.622z M704.82,22.234h-0.288l-0.287-0.288
		c0.144,0,0.239-0.047,0.287-0.144c0.048-0.095,0.145-0.144,0.288-0.144l0.288,0.288L704.82,22.234z M706.045,16.114h-2.952v-0.288
		h2.952V16.114z M711.517,53.627h-1.152v0.576h-0.288c0.191,0,0.288-0.191,0.288-0.576h-1.151v-0.576h1.151l-0.288-0.576h0.288
		v0.576h1.152V53.627z M714.181,50.098h-4.968v-0.576h4.968V50.098z M739.165,18.418h0.575l-0.288,0.576h0.288v0.288h1.152
		c0,0.144-0.048,0.288-0.144,0.432c-0.097,0.144-0.145,0.288-0.145,0.432h-1.439V18.418z M739.129,22.45
		c0.071-0.096,0.18-0.072,0.323,0.072v0.864c-0.144,0.097-0.252,0.072-0.323-0.072c-0.072-0.144-0.108-0.299-0.108-0.468
		C739.021,22.678,739.057,22.547,739.129,22.45z M737.725,25.69v-0.288h1.44v0.288H737.725z M737.725,46.93h1.152v-0.863h-1.152
		V45.49h1.44c-0.145,0.287-0.229,0.576-0.252,0.863c-0.025,0.289-0.036,0.576-0.036,0.865h-1.152V46.93z M740.604,57.658h-1.439
		c0.047,0,0.096-0.047,0.144-0.145c0.096-0.096,0.144-0.238,0.144-0.432h-1.728V55.93c0.288,0,0.552-0.035,0.792-0.107
		c0.239-0.072,0.36-0.324,0.36-0.756c0,0.287,0.047,0.564,0.144,0.828c0.096,0.264,0.145,0.467,0.145,0.611h0.575
		c0,0.145-0.048,0.289-0.144,0.432c-0.097,0.145-0.145,0.289-0.145,0.434h1.152V57.658z M740.604,52.186h-0.576l0.288,0.289h-0.576
		v1.152h0.576c0.145,0,0.288,0.047,0.433,0.143c0.144,0.098,0.288,0.145,0.432,0.145v0.289c-0.144,0-0.288,0.012-0.432,0.035
		c-0.145,0.025-0.288,0.107-0.433,0.252c-0.288-0.145-0.504-0.107-0.647,0.107c-0.145,0.217-0.217,0.469-0.217,0.756
		c-0.287-0.287-0.372-0.684-0.252-1.188s0.108-0.973-0.035-1.404h-1.44v-0.287h1.728c-0.144-0.289-0.228-0.527-0.252-0.721
		c-0.024-0.191-0.035-0.432-0.035-0.719h2.304c0,0.191-0.192,0.479-0.576,0.863h-0.576L740.604,52.186z M740.749,33.574
		c-0.097-0.264-0.145-0.469-0.145-0.612h0.288c0,0.433,0.012,0.864,0.036,1.296c0.023,0.432,0.108,0.889,0.252,1.368h-1.44v-1.224
		h1.152C740.893,34.113,740.845,33.838,740.749,33.574z M741.108,36.994c-0.192,0.192-0.359,0.216-0.504,0.072
		c-0.288-0.145-0.336-0.312-0.144-0.504c0.191-0.191,0.432-0.217,0.72-0.072C741.324,36.634,741.3,36.803,741.108,36.994z
		 M742.045,25.114h-2.305c-0.144-0.288-0.228-0.527-0.252-0.72c-0.024-0.191-0.036-0.432-0.036-0.72h1.44
		c-0.192,0.192-0.288,0.385-0.288,0.576c-0.048,0.144-0.048,0.241,0,0.288h0.576v0.288h0.864V25.114z M744.997,16.69
		c-0.433,0.144-0.817,0.229-1.152,0.252c-0.337,0.025-0.745,0.036-1.224,0.036V16.69h-0.576v-0.288h2.664
		c0-0.047-0.049-0.167-0.145-0.36c-0.048-0.047-0.097-0.119-0.144-0.216h1.151l-0.288,0.576h0.864
		c-0.144,0.144-0.336,0.229-0.576,0.252C745.332,16.679,745.141,16.69,744.997,16.69z M746.725,42.539
		c-0.241,0.143-0.408,0.168-0.504,0.07c-0.097-0.096-0.145-0.215-0.145-0.359s0.048-0.264,0.145-0.359
		c0.096-0.096,0.263-0.072,0.504,0.072V42.539z M747.589,28.642c-0.529,0.288-0.913,0.192-1.152-0.288
		c0.145-0.335,0.407-0.443,0.792-0.324C747.612,28.15,747.732,28.354,747.589,28.642z M749.604,20.146h-1.439v-0.288h1.439V20.146z"
		/>
	<path fill="#FFFFFF" d="M804.572,33.936c0.129-0.498,0.261-0.992,0.401-1.479c-0.051-0.023-0.092-0.047-0.146-0.07
		c0.091-0.183,0.222-0.378,0.343-0.57c0.344-1.089,0.763-2.156,1.382-3.203c0.961-1.625,1.365-3.4,2.457-4.897
		c0.021-0.048,0.047-0.103,0.066-0.15c0.19-0.456,0.432-0.9,0.72-1.332c0.288-0.72,0.576-1.392,0.864-2.016
		c0.287-0.623,0.575-1.319,0.863-2.088c-0.385,0-0.673-0.096-0.863-0.288c-0.288,0.288-0.612,0.54-0.973,0.756
		c-0.359,0.216-0.611,0.564-0.756,1.044c-1.008,2.16-2.028,4.345-3.06,6.552c-1.033,2.208-2.053,4.464-3.061,6.768
		c-0.144,0.144-0.288,0.288-0.432,0.433c-0.145,0.144,0,0.287,0.432,0.432c0.24,0.48,0.527,0.889,0.864,1.224
		c0.144-0.144,0.239-0.348,0.288-0.612c0.047-0.263,0.144-0.467,0.288-0.611C804.348,33.875,804.462,33.903,804.572,33.936z"/>
	<path fill="#FFFFFF" d="M811.797,61.643c-0.085-0.158-0.173-0.314-0.274-0.457c-0.24-0.334-0.432-0.719-0.576-1.15
		c-0.144-0.145-0.287-0.373-0.432-0.686c-0.075-0.162-0.061-0.277,0.025-0.354c-0.632-0.752-1.3-1.479-1.792-2.316
		c-0.608-1.039-1.167-2.129-1.92-3.074c-0.562-0.705-1.329-1.869-1.11-2.715c-0.369-0.623-0.755-1.264-1.179-1.945
		c-0.145-0.143-0.252-0.371-0.324-0.684c-0.072-0.311-0.252-0.467-0.54-0.467c0,0.143,0.011,0.299,0.036,0.467
		c0.023,0.17,0.107,0.396,0.252,0.684c1.343,2.209,2.615,4.453,3.815,6.732c1.199,2.281,2.448,4.5,3.744,6.66
		c-0.144,0.145-0.288,0.24-0.432,0.289c-0.145,0.047-0.288,0.143-0.432,0.287c-0.337-0.672-0.817-0.863-1.44-0.576
		c-0.72,0.145-1.381,0.35-1.98,0.613c-0.601,0.264-1.188,0.539-1.764,0.826c-3.36,1.346-6.78,2.354-10.26,3.025
		c-3.48,0.672-7.045,0.936-10.692,0.791c-3.072-0.143-6.036-0.756-8.892-1.836c-2.856-1.08-5.508-2.508-7.956-4.283
		c0.144,0.145,0.348,0.396,0.612,0.756c0.263,0.359,0.54,0.684,0.827,0.973c0.145,0.143,0.336,0.191,0.576,0.143
		c0.24-0.047,0.433,0,0.576,0.145c0.72,0.576,1.451,1.092,2.196,1.549c0.743,0.455,1.571,0.828,2.483,1.115
		c-0.052,0.039-0.086,0.062-0.127,0.092c0.708,0.295,1.421,0.564,2.137,0.824c0.001-0.018,0.007-0.035,0.007-0.053
		c0.07,0.035,0.14,0.086,0.21,0.127c1.056,0.377,2.118,0.725,3.188,1.051c0.308,0.002,0.615,0.023,0.923,0.082
		c0.863,0.168,1.751,0.324,2.663,0.469c0.721,0.145,1.5,0.227,2.341,0.252c0.839,0.023,1.691,0.037,2.556,0.037
		c0.768-0.289,1.571-0.373,2.412-0.254c0.839,0.121,1.691,0.109,2.556-0.035c0.576,0,1.104-0.084,1.584-0.252
		c0.028-0.01,0.059-0.014,0.088-0.023c0.275-0.396,0.749-0.654,1.353-0.518c-0.264-0.061,0.187,0.01,0.215,0.008
		c0.117,0,0.234-0.006,0.352-0.014c0.264-0.02,0.526-0.047,0.789-0.078c0.336-0.041,0.672-0.08,1.008-0.111
		c0.078-0.037,0.164-0.07,0.265-0.092c0.455-0.096,0.899-0.215,1.332-0.359l0.232,0.232c1.145-0.529,2.301-1.029,3.481-1.463
		c0.398-0.146,0.789-0.285,1.174-0.424c-0.069-0.025-0.139-0.039-0.208-0.074c0.72-0.287,1.451-0.588,2.196-0.9
		c0.384-0.16,0.785-0.318,1.202-0.473c0.047-0.029,0.094-0.049,0.141-0.078c0.799-0.5,1.496-0.855,2.407-1.066
		c0.182-0.043,0.362-0.041,0.535-0.014C811.952,62.59,811.896,62.119,811.797,61.643z"/>
	<path fill="#FFFFFF" d="M808.643,58.018c-0.576-1.104-1.151-2.088-1.728-2.951c-0.913-1.729-1.849-3.408-2.809-5.041
		c-0.961-1.631-1.872-3.238-2.735-4.822c-0.145,0.143-0.288,0.275-0.433,0.395c-0.144,0.121-0.288,0.18-0.432,0.18
		c0.144,0.434,0.263,0.805,0.36,1.117c0.095,0.312,0.071,0.611-0.072,0.9c-0.145,0.432-0.396,0.791-0.756,1.08
		c-0.36,0.287-0.685,0.504-0.973,0.646c-0.575,0.338-1.213,0.648-1.907,0.938c-0.697,0.287-1.332,0.576-1.908,0.863
		c-1.44,0.432-2.905,0.828-4.393,1.188c-1.488,0.361-3.023,0.541-4.607,0.541s-3.157-0.191-4.716-0.576
		c-1.561-0.385-2.988-0.865-4.284-1.439c0-0.033-0.012-0.066-0.017-0.1c-0.536-0.254-1.001-0.602-1.384-1.043
		c-0.049,0.018-0.099,0.043-0.147,0.025c-0.044-0.014-0.034-0.082,0.002-0.178c-0.188-0.24-0.35-0.508-0.492-0.795h-0.626
		l-0.864-1.727c-0.144-0.289-0.12-0.504,0.072-0.648c0.167-0.125,0.312-0.186,0.444-0.203c-0.201-0.377-0.38-0.764-0.531-1.164
		h-0.562c0-0.434-0.071-0.961-0.216-1.584c-0.122-0.533-0.079-1.01,0.112-1.438c-0.045-0.537-0.048-1.105-0.031-1.691
		c-0.052,0.016-0.103,0.031-0.153,0.031c0-0.287,0.048-0.527,0.145-0.72c0.02-0.038,0.027-0.087,0.043-0.13
		c0.028-0.385,0.064-0.775,0.116-1.183c0.095-0.741,0.338-1.518,0.687-2.287h-0.414v-0.288c0.255,0,0.462-0.061,0.633-0.168
		c1.245-2.44,3.536-4.72,5.805-5.433c0.028-0.009,0.054-0.006,0.081-0.01c-0.017-0.082-0.047-0.158-0.11-0.221
		c0.19,0,0.371-0.011,0.557-0.016c0.067-0.026,0.133-0.048,0.2-0.074c0.699-0.443,1.422-0.813,2.195-1.057V28.93
		c0.021-0.004,0.042-0.008,0.063-0.012c0.27-0.083,0.549-0.143,0.834-0.191c2.442-0.851,5.032-1.199,7.363-0.557
		c0.633,0.049,1.266,0.129,1.9,0.246c-0.002-0.02-0.01-0.042-0.01-0.061c0.576,0,0.96,0.097,1.152,0.288l-0.016,0.016
		c1.675,0.413,3.376,1.06,5.146,1.98c0.044,0.004,0.079,0.021,0.126,0.021c0.145-0.144,0.288-0.24,0.433-0.288
		c0.144-0.047,0.288-0.144,0.432-0.288v1.439l0.864,0.864c0.144-0.288,0.275-0.527,0.396-0.72c0.119-0.191,0.181-0.432,0.181-0.721
		c1.151-2.639,2.363-5.207,3.636-7.703c1.271-2.496,2.483-5.064,3.636-7.704c-0.385,0-0.673-0.096-0.864-0.288
		c-0.288,0.288-0.588,0.54-0.899,0.756c-0.313,0.216-0.685,0.252-1.116,0.108c-1.057-0.288-2.137-0.659-3.24-1.116
		c-1.104-0.456-2.16-0.756-3.168-0.9c-0.288-0.144-0.528-0.228-0.72-0.252c-0.192-0.024-0.432-0.036-0.72-0.036v-0.288h-0.937
		c-2.16-0.576-4.392-0.947-6.696-1.116c-2.304-0.167-4.607-0.18-6.911-0.036c-2.113,0.097-4.225,0.385-6.337,0.864
		c-2.112,0.48-4.128,1.188-6.048,2.124s-3.72,2.077-5.399,3.42c-1.681,1.345-3.121,2.88-4.32,4.608h0.864v0.288h-0.864
		c-2.16,2.689-3.528,5.785-4.104,9.288h1.151c0-0.048-0.048-0.167-0.144-0.36c-0.049-0.047-0.097-0.119-0.145-0.216h0.576
		l-0.288,0.288h0.288c0,0.288,0.18,0.408,0.54,0.36s0.684-0.072,0.972-0.072v0.576h-3.239c-0.14,0.743-0.249,1.487-0.335,2.231
		c-0.018,0.229-0.037,0.459-0.059,0.688c-0.196,2.104-0.196,4.216,0.033,6.333c0.335,3.096,1.224,6.035,2.664,8.818
		c0.191,0.576,0.468,1.045,0.828,1.404c0.359,0.361,0.684,0.756,0.972,1.189c0.145,0,0.3,0.047,0.468,0.143
		c0.168,0.098,0.396,0.145,0.685,0.145v0.576h-0.864c0.527,0.816,1.199,1.488,2.016,2.016c0.288,0.77,0.731,1.344,1.332,1.729
		c0.6,0.385,1.116,0.791,1.549,1.225c0.144,0.143,0.239,0.275,0.287,0.395c0.048,0.121,0.145,0.18,0.288,0.18
		c0,0.289,0.084,0.457,0.252,0.504c0.168,0.049,0.396,0.072,0.685,0.072c2.448,1.729,5.159,3.037,8.136,3.924
		c2.976,0.889,6.071,1.332,9.288,1.332c-0.049,0-0.097-0.047-0.144-0.143c-0.098-0.096-0.145-0.24-0.145-0.432h1.44
		c-0.049,0.096-0.097,0.168-0.145,0.215c-0.097,0.193-0.144,0.312-0.144,0.359c2.351,0,4.667-0.203,6.948-0.611
		c2.278-0.406,4.523-0.996,6.731-1.764c1.152-0.432,2.315-0.912,3.492-1.439c1.176-0.529,2.436-1.008,3.78-1.441
		c0.432-0.143,0.839-0.191,1.224-0.143c0.384,0.047,0.648,0.287,0.792,0.719c0.288-0.143,0.516-0.275,0.684-0.395
		c0.168-0.121,0.324-0.182,0.469-0.182C809.795,60.178,809.219,59.123,808.643,58.018z M762.995,52.186h-2.305l1.152-0.287
		l-0.288-0.289h1.44V52.186z M794.963,14.962h1.151c0.145,0,0.24-0.047,0.288-0.144c0.048-0.096,0.145-0.144,0.288-0.144v-0.576
		c0.145,0.144,0.191,0.349,0.145,0.612c-0.049,0.264,0,0.54,0.144,0.828h-2.016V14.962z M790.499,13.522
		c0.623,0.048,1.151,0.144,1.584,0.288c0,0.192-0.049,0.336-0.145,0.432c-0.048,0.097-0.097,0.144-0.144,0.144h1.151l-0.287,0.288
		c0.144,0,0.287,0.048,0.432,0.144c0.144,0.097,0.288,0.144,0.432,0.144c0,0.144-0.012,0.336-0.036,0.576
		c-0.024,0.241-0.107,0.432-0.252,0.576h-2.592c0.433-0.144,0.695-0.407,0.792-0.792c0.096-0.383,0.216-0.792,0.36-1.224
		c-0.433,0-0.877,0.036-1.332,0.108c-0.457,0.072-0.9,0.036-1.332-0.108C789.419,13.666,789.874,13.475,790.499,13.522z
		 M788.663,19.066c0.216-0.191,0.468-0.216,0.756-0.072c0.144,0.336,0.072,0.601-0.216,0.792c-0.288,0.192-0.504,0.144-0.648-0.144
		C788.411,19.451,788.446,19.258,788.663,19.066z M781.175,22.81c0.119-0.047,0.252-0.144,0.396-0.288
		c0.288,0.288,0.288,0.576,0,0.864c-0.192,0-0.336-0.047-0.432-0.144c-0.097-0.047-0.144-0.096-0.144-0.144
		C780.995,22.954,781.055,22.858,781.175,22.81z M769.69,58.594h-1.151v-0.576h1.151V58.594z M770.267,41.098
		c-0.144-0.576-0.169-1.211-0.072-1.908c0.096-0.695,0.217-1.403,0.36-2.123c0.145-2.063,0.815-3.924,2.016-5.58
		c1.199-1.656,2.76-2.988,4.681-3.997c-0.049-0.095-0.072-0.191-0.072-0.288c-0.049-0.096-0.072-0.18-0.072-0.252
		c0-0.072-0.048-0.108-0.144-0.108c0.288,0,0.443,0.025,0.468,0.072c0.023,0.048-0.036,0.241-0.18,0.576
		c0.576-0.144,1.104-0.347,1.584-0.612c0.479-0.263,1.008-0.468,1.584-0.612h-0.864c0-0.144-0.048-0.335-0.144-0.576
		c-0.097-0.24-0.145-0.432-0.145-0.576c0.288,0,0.576,0.049,0.864,0.144c0.288,0.097,0.576,0.144,0.864,0.144
		c0,0.385-0.097,0.576-0.288,0.576c2.783-0.576,5.64-0.731,8.567-0.468c2.928,0.265,5.688,0.925,8.28,1.98
		c1.199,0.576,2.184,1.249,2.952,2.016c-1.488-0.72-3.013-1.296-4.572-1.728c-1.561-0.432-3.132-0.744-4.716-0.936
		c-1.633-0.144-3.288-0.18-4.968-0.108c-1.681,0.072-3.337,0.421-4.968,1.044c-0.288,0-0.421,0.108-0.396,0.324
		c0.023,0.216-0.036,0.396-0.18,0.54h-0.576l0.288-0.576c-0.145,0.144-0.288,0.241-0.433,0.288
		c-0.144,0.048-0.287,0.144-0.432,0.288c-1.296,0.432-2.545,1.128-3.744,2.088c-1.2,0.961-2.088,2.088-2.664,3.383
		c-0.863,1.201-1.356,2.557-1.476,4.068c-0.12,1.512-0.108,3.085,0.036,4.717c0.144,1.008,0.407,1.957,0.792,2.844
		c0.384,0.889,0.792,1.764,1.224,2.629c-1.008-0.865-1.764-1.957-2.268-3.277C770.951,43.775,770.555,42.443,770.267,41.098z
		 M775.091,57.406c-0.097,0.264-0.145,0.469-0.145,0.611h-1.512v-0.936c-0.385,0-0.576-0.096-0.576-0.287h2.376
		C775.234,56.938,775.187,57.143,775.091,57.406z M780.419,55.643c-0.145,0.287-0.396,0.385-0.756,0.287
		c-0.36-0.096-0.396-0.287-0.108-0.576c0.145-0.143,0.36-0.166,0.648-0.072C780.491,55.379,780.562,55.498,780.419,55.643z
		 M791.795,57.082h-0.288l0.288-0.576h-0.864c0.047,0,0.096-0.047,0.145-0.145c0.095-0.096,0.144-0.238,0.144-0.432h-1.224v-0.863
		c0.335,0,0.6,0.049,0.792,0.145c0.19,0.096,0.432,0.143,0.72,0.143c0,0.193-0.049,0.338-0.145,0.434
		c-0.048,0.096-0.097,0.143-0.144,0.143h0.576V57.082z"/>
	<path fill="#FFFFFF" d="M869.574,23.177c-0.01-0.198,0.045-0.372,0.124-0.532v-0.627c0.025,0,0.079,0.018,0.15,0.047
		c-0.083-0.251-0.178-0.497-0.297-0.729c-0.277-0.54-0.154-1.056,0.146-1.424v-1.638c0.576-0.576,1.344-0.864,2.304-0.864v-1.512
		h-1.439c-0.433,0.192-0.877,0.349-1.332,0.468c-0.457,0.12-0.685,0.468-0.685,1.044c-0.144,2.16-0.228,4.38-0.252,6.66
		c-0.024,2.281-0.035,4.5-0.035,6.66h1.439c0.041-0.083,0.082-0.149,0.124-0.222C869.764,28.069,869.69,25.629,869.574,23.177z"/>
	<path fill="#FFFFFF" d="M834.202,23.818v-1.183c-0.04-0.133-0.08-0.267-0.117-0.4c-0.543-0.304-0.614-0.568-0.174-0.791
		c-0.053-0.313-0.089-0.632-0.078-0.962c0.01-0.282,0.116-0.523,0.264-0.731c-0.025-0.252-0.023-0.504,0.033-0.756
		c0.096-0.432,0.24-0.864,0.433-1.296c0.288,0,0.623-0.047,1.008-0.144c0.384-0.096,0.72-0.144,1.008-0.144v-1.152h-2.376
		c-0.288,0-0.601,0.121-0.936,0.36c-0.337,0.241-0.504,0.504-0.504,0.792c0,1.152,0.035,2.244,0.107,3.276
		c0.072,1.033,0.036,2.077-0.107,3.132H834.202z"/>
	<path fill="#FFFFFF" d="M835.754,67.727c-0.125-0.035-0.238-0.061-0.327-0.061c-2.785,0.145-5.569,0.191-8.353,0.145
		c-2.784-0.049-5.641,0-8.568,0.145c0,0.143,0.012,0.334,0.036,0.574s0.108,0.434,0.252,0.576h5.562
		c3.092-0.223,6.017-0.281,9.263-0.141c0.866,0.037,1.722,0.074,2.567,0.141h0.392v-0.891
		C836.283,68.086,836.008,67.922,835.754,67.727z"/>
	<path fill="#FFFFFF" d="M871.483,67.689c-0.787,0.115-1.574,0.15-2.361,0.084c-0.863-0.07-1.728-0.107-2.592-0.107
		c-2.064,0-4.104,0.012-6.12,0.037c-2.016,0.023-4.057,0.107-6.12,0.252v1.15h7.561c0,0.084-0.011,0.189-0.016,0.281
		c3.093-0.457,6.205-0.625,9.353-0.668c0.009-0.383,0.192-0.682,0.446-0.902C871.581,67.775,871.534,67.732,871.483,67.689z"/>
	<path fill="#FFFFFF" d="M869.698,65.361v-2.303c0.053,0,0.101-0.012,0.152-0.016c0.001-0.416,0.034-0.83,0.06-1.244
		c-0.022-0.172-0.048-0.344-0.063-0.518c-0.051,0.088-0.103,0.174-0.148,0.266v-2.305c0.03-0.016,0.055-0.023,0.084-0.037
		c0.016-0.85,0.064-1.701,0.102-2.547c-0.063-0.002-0.121-0.008-0.186-0.008v-1.729c0.076,0,0.149,0.016,0.224,0.023
		c0-0.102,0.004-0.205,0.002-0.307c-0.013-0.633-0.011-1.266-0.012-1.898c-0.071,0.031-0.148,0.061-0.214,0.094v-2.016
		c0.033,0,0.114,0.031,0.219,0.078c0.006-0.58,0.01-1.158,0.019-1.738c-0.089,0.078-0.169,0.152-0.237,0.221v-3.24
		c0.085,0.043,0.184,0.102,0.277,0.154c0.005-0.471,0.004-0.941,0.006-1.412c-0.094,0.033-0.192,0.074-0.283,0.105v-3.168
		c0.095,0.047,0.186,0.107,0.277,0.166c-0.002-0.371-0.005-0.742-0.008-1.111c-0.094-0.056-0.185-0.121-0.27-0.207V38.29
		c0.087,0.029,0.17,0.046,0.253,0.06c-0.009-0.92-0.023-1.836-0.035-2.754c-0.012-0.014-0.026-0.027-0.038-0.041
		c-0.12-0.145-0.18-0.289-0.18-0.433c0.074-0.075,0.143-0.136,0.21-0.196c-0.003-0.215-0.005-0.431-0.009-0.646
		c-0.123,0.131-0.201,0.229-0.201,0.267c0-0.144,0.047-0.335,0.145-0.575c0.022-0.058,0.034-0.104,0.051-0.154
		c-0.011-0.71-0.029-1.42-0.044-2.129c-0.049-0.008-0.094-0.021-0.151-0.021v-0.648h-1.439v1.225c0.432,0,0.647,0.049,0.647,0.144
		c0,0.097-0.216,0.144-0.647,0.144v32.545c-0.288-0.145-0.637-0.154-1.045-0.035s-0.827,0.035-1.26-0.252
		c0.288,0,0.563-0.012,0.828-0.037c0.264-0.023,0.468-0.107,0.612-0.252l-0.288-0.576v-6.408h-4.393
		c0.721-0.143,1.452-0.227,2.196-0.252c0.744-0.023,1.477-0.035,2.196-0.035V32.818c-0.049,0.048-0.097,0.048-0.145,0
		c-0.097,0-0.144-0.096-0.144-0.289v0.865h-2.088v-0.576h0.936l-0.288-0.576h1.729V20.866h-0.576c0,0.192,0.047,0.336,0.145,0.432
		c0.047,0.097,0.095,0.144,0.144,0.144h-0.288v-0.864h-0.288v-1.152h0.288c-0.048-0.095-0.072-0.191-0.072-0.288
		c-0.097-0.191-0.168-0.288-0.216-0.288h0.576v0.864h0.288v-4.392c0.288-0.144,0.636-0.275,1.044-0.396
		c0.407-0.119,0.828-0.18,1.26-0.18v-1.152h-1.151c0,0.288-0.121,0.457-0.36,0.504c-0.241,0.048-0.504,0.072-0.792,0.072
		c-0.288,0.576-0.576,0.576-0.864,0c0.288-0.288,0.576-0.288,0.864,0c0.047,0,0.096-0.047,0.144-0.144
		c0.096-0.096,0.145-0.24,0.145-0.432h-3.816c-1.151,0-2.304-0.036-3.456-0.108c-1.151-0.072-2.328-0.036-3.527,0.108
		c-0.864,0-1.681-0.047-2.448-0.144c-0.769-0.096-1.584-0.144-2.448-0.144v1.44h0.864c0.288,0.144,0.527,0.277,0.72,0.396
		c0.191,0.12,0.432,0.18,0.72,0.18c0.145,0.769,0.181,1.465,0.108,2.088c-0.072,0.624-0.108,1.296-0.108,2.016v13.104H837.73
		c0-0.074-0.015-0.152-0.04-0.233c-0.199,0.032-0.397,0.05-0.594,0.061c0.034,0.081,0.058,0.146,0.058,0.173h-2.016l0.393-0.393
		c-0.285-0.111-0.541-0.268-0.76-0.471h-0.569v-0.871c-0.118-0.325-0.187-0.702-0.181-1.146c0.006-0.475,0.083-0.947,0.181-1.417
		v-1.535c-0.288,0-0.528-0.047-0.72-0.144c-0.192-0.096-0.432-0.144-0.72-0.144v6.119h-1.152V15.61
		c0.576-0.576,1.343-0.864,2.304-0.864v-1.44h-6.048c-1.92,0.144-3.877,0.18-5.868,0.108c-1.992-0.072-4.021-0.108-6.084-0.108v1.44
		c0.576,0,1.116,0.097,1.62,0.288c0.504,0.192,0.828,0.601,0.972,1.224v17.424h1.801l-0.288,0.576h2.304v0.288h-2.592
		c0.047,0,0.119-0.096,0.216-0.288c0-0.096,0.023-0.191,0.072-0.287h-1.513v16.559c0,0.576-0.024,1.152-0.071,1.729
		c-0.049,0.576,0.071,1.152,0.359,1.729c-0.288,1.633-0.408,3.289-0.359,4.969c0.047,1.68,0.071,3.336,0.071,4.967
		c-0.144,0.576-0.504,0.926-1.079,1.045c-0.576,0.119-1.08,0.252-1.513,0.395v1.152h18c0.235-0.07,0.464-0.094,0.688-0.07
		c-0.438-0.689-0.748-1.492-0.915-2.326c-0.514-2.566-1.174-5.447-0.509-8.039c0.08-0.311,0.283-0.557,0.541-0.721
		c-0.17-0.961,0.017-2.035,0.357-2.873c0.034-0.084,0.089-0.148,0.135-0.221c0.006-0.252,0.015-0.496,0.026-0.725
		c0.023-0.48,0.132-1.01,0.324-1.584c0.042,0.041,0.088,0.098,0.132,0.148c0.019-0.289,0.032-0.58,0.074-0.871
		c-0.079-0.129-0.125-0.27-0.156-0.414c-0.148,0.168-0.288,0.35-0.41,0.561V47.65c0.237,0,0.481-0.016,0.731-0.045
		c0.21-0.217,0.506-0.365,0.895-0.365h0.398c0.358,0,0.67,0.152,0.9,0.383c0.009,0.004,0.019,0.008,0.027,0.01v-0.271
		c0.72,0,1.392,0.037,2.016,0.109s1.297,0.035,2.017-0.109c2.207,0,4.392,0.037,6.552,0.109s4.248,0.035,6.264-0.109v0.865
		c-0.106,0-0.207,0.02-0.311,0.029c0.126,0.186,0.206,0.41,0.206,0.68c0,0.824-0.027,1.064-0.277,1.754
		c0.127-0.045,0.254-0.096,0.382-0.16c0,1.297,0.036,2.605,0.108,3.926s0.036,2.627-0.108,3.924v5.832
		c-0.144,0.432-0.456,0.695-0.936,0.791c-0.48,0.098-0.937,0.217-1.368,0.359v1.152h16.848c0.433,0,0.853-0.023,1.261-0.072
		c0.216-0.025,0.414,0,0.597,0.07c-0.161-0.268-0.281-0.57-0.363-0.906C869.927,65.551,869.812,65.477,869.698,65.361z
		 M852.562,14.458V14.17h0.288C852.658,14.17,852.562,14.267,852.562,14.458z M825.166,15.43c0.072-0.072,0.168-0.108,0.288-0.108
		c0.119,0,0.228,0.097,0.324,0.288l-0.288,0.288c-0.24,0-0.372-0.06-0.396-0.18C825.069,15.599,825.095,15.502,825.166,15.43z
		 M827.29,21.442h-3.527v-0.288h1.728v-1.152c0,0.288,0.012,0.517,0.036,0.684c0.023,0.168,0.108,0.324,0.252,0.468h1.512V21.442z
		 M830.17,28.714h-1.151c-0.145-0.144-0.229-0.288-0.252-0.432c-0.025-0.144-0.036-0.288-0.036-0.432h1.439V28.714z M831.322,35.697
		h2.016c0.145-0.143,0.24-0.287,0.288-0.432c0.048-0.144,0.145-0.287,0.288-0.432h2.088l-0.288-0.576h0.576v1.152h-2.376
		l-0.576,0.576h-2.016V35.697z M843.526,46.029c-3.528,0.072-7.117,0.109-10.764,0.109v5.832c0.144,0.719,0.144,1.465,0,2.232
		c-0.145,0.768-0.145,1.584,0,2.447v8.424c-0.288-0.145-0.553-0.312-0.792-0.504c-0.241-0.191-0.36-0.504-0.36-0.936V44.986
		c3.647-0.145,7.344-0.191,11.088-0.145c3.744,0.049,7.512,0,11.304-0.145c0,0.289,0.012,0.529,0.036,0.721
		c0.023,0.193,0.108,0.432,0.252,0.721C850.642,45.994,847.055,45.959,843.526,46.029z"/>
</g>
</svg>
